<?xml version="1.0" standalone="no"?>
<!DOCTYPE svg PUBLIC "-//W3C//DTD SVG 1.1//EN" "http://www.w3.org/Graphics/SVG/1.1/DTD/svg11.dtd" >
<svg xmlns="http://www.w3.org/2000/svg" xmlns:xlink="http://www.w3.org/1999/xlink" version="1.1">
<metadata></metadata>
<defs>
<font id="robotomedium_italic" horiz-adv-x="1070" >
<font-face units-per-em="2048" ascent="1638" descent="-410" />
<missing-glyph horiz-adv-x="476" />
<glyph unicode="fi" horiz-adv-x="1104" d="M89 0l177 884h-149l35 176h149l18 91q41 203 165.5 300.5t321.5 97.5q62 0 127.5 -15.5t141.5 -42.5l-75 -197q-49 20 -102.5 33.5t-116.5 13.5q-92 0 -150.5 -48.5t-76.5 -141.5l-19 -91h189l-35 -176h-189l-177 -884h-234zM653 0l211 1060h235l-212 -1060h-234z" />
<glyph unicode="&#xd;" horiz-adv-x="476" />
<glyph unicode=" "  horiz-adv-x="476" />
<glyph unicode="&#x09;" horiz-adv-x="476" />
<glyph unicode="&#xa0;" horiz-adv-x="476" />
<glyph unicode="!" horiz-adv-x="520" d="M63 0l46 229h231l-46 -229h-231zM157 481l189 946h235l-189 -946h-235z" />
<glyph unicode="&#x22;" horiz-adv-x="625" d="M170 1017l36 233l45 279h173l-43 -268l-106 -244h-105zM468 1017l38 241l44 271h174l-43 -268l-107 -244h-106z" />
<glyph unicode="#" horiz-adv-x="1147" d="M56 402l31 155h235l115 306h-219l31 156h246l153 408h160l-153 -408h195l153 408h160l-153 -408h187l-32 -156h-213l-115 -306h200l-32 -155h-226l-150 -402h-160l150 402h-195l-150 -402h-159l150 402h-209zM482 557h195l115 306h-195z" />
<glyph unicode="$" horiz-adv-x="1074" d="M96 434h234q-23 -145 27 -202t142 -57q93 0 156 53.5t79 143.5q14 87 -25.5 139.5t-146.5 99.5q-183 70 -263.5 169.5t-52.5 271.5q26 168 133.5 269.5t270.5 121.5l34 214h153l-35 -217q146 -27 216.5 -145.5t40.5 -309.5h-233q20 127 -17 196t-122 69q-84 0 -138.5 -54 t-68.5 -142t24.5 -139t153.5 -100q181 -74 259.5 -172t50.5 -269q-29 -176 -139.5 -274t-280.5 -116l-31 -191h-152l30 191q-155 21 -244 130.5t-55 319.5z" />
<glyph unicode="%" horiz-adv-x="1378" d="M227 1077l15 75q27 134 117.5 214.5t224.5 80.5q124 0 187 -85.5t38 -209.5l-14 -75q-28 -133 -118 -213t-223 -80q-125 0 -188.5 85.5t-38.5 207.5zM258 177l872 1116l105 -71l-871 -1115zM389 1077q-14 -67 9 -108.5t84 -41.5q53 0 95 44t55 106l15 75q14 68 -9.5 110 t-81.5 42q-55 0 -97.5 -45t-54.5 -107zM701 273l14 77q27 132 118 213t224 81q124 0 187 -86t39 -208l-15 -77q-27 -134 -117.5 -214t-223.5 -80q-123 0 -187.5 86t-38.5 208zM862 273q-13 -66 11 -108.5t83 -42.5q56 0 97 44t53 107l15 77q14 66 -9 108.5t-83 42.5 q-55 0 -97.5 -45t-54.5 -106z" />
<glyph unicode="&#x26;" horiz-adv-x="1207" d="M51 385q19 122 93 204.5t216 173.5q-53 95 -74 170t-9 154q28 174 136.5 267t273.5 93q141 0 221.5 -94.5t59.5 -224.5q-16 -100 -74 -172.5t-159 -141.5l-98 -67l216 -348q44 60 74 131t44 150h189q-22 -138 -73 -249t-132 -197l146 -234h-271l-56 89 q-83 -54 -171.5 -82t-180.5 -28q-192 0 -296 114.5t-75 291.5zM286 393q-16 -101 29.5 -162t144.5 -61q53 0 109.5 17.5t111.5 51.5l-233 376l-28 -18q-69 -54 -97.5 -105t-36.5 -99zM498 1090q-8 -48 5.5 -95.5t48.5 -107.5l107 69q57 37 80 76t32 88q8 55 -23 95.5 t-91 40.5q-61 0 -105 -48.5t-54 -117.5z" />
<glyph unicode="'" horiz-adv-x="325" d="M169 1007l41 262l42 260h170l-39 -244l-109 -278h-105z" />
<glyph unicode="(" horiz-adv-x="649" d="M142 564l3 16q64 402 248.5 663.5t368.5 348.5l6 -2l22 -131q-136 -101 -257.5 -321.5t-174.5 -555.5l-3 -19q-56 -350 -6 -562.5t157 -321.5l-63 -126l-6 1q-154 84 -255.5 354t-39.5 656z" />
<glyph unicode=")" horiz-adv-x="652" d="M-100 -321q134 101 257 323.5t177 559.5l3 19q55 346 2 561.5t-154 321.5l65 127l6 -1q153 -83 257.5 -357.5t44.5 -653.5l-3 -15q-64 -396 -252 -660t-374 -351l-5 1z" />
<glyph unicode="*" horiz-adv-x="828" d="M154 1040l84 165l242 -114l54 336h167l-83 -343l284 113l17 -168l-290 -86l123 -261l-156 -103l-100 281l-210 -273l-117 100l234 266z" />
<glyph unicode="+" horiz-adv-x="1048" d="M97 567l43 218h343l80 397h227l-80 -397h340l-44 -218h-340l-84 -424h-227l84 424h-342z" />
<glyph unicode="," horiz-adv-x="421" d="M-93 -275l126 314l39 191h221l-40 -200l-210 -305h-136z" />
<glyph unicode="-" horiz-adv-x="627" d="M89 511l38 192h483l-39 -192h-482z" />
<glyph unicode="." horiz-adv-x="539" d="M60 0l46 228h231l-46 -228h-231z" />
<glyph unicode="/" horiz-adv-x="749" d="M-104 -122l830 1549h182l-829 -1549h-183z" />
<glyph unicode="0" d="M123 550l66 326q59 296 201.5 433.5t349.5 137.5q189 0 283.5 -149t40.5 -422l-65 -326q-60 -297 -202 -434t-348 -137q-189 0 -284.5 148.5t-41.5 422.5zM349 248.5q36 -78.5 138 -78.5q93 0 164 85.5t107 259.5l79 397q37 187 2 265.5t-137 78.5q-93 0 -165 -86 t-107 -258l-79 -397q-38 -188 -2 -266.5z" />
<glyph unicode="1" horiz-adv-x="1074" d="M298 1171l32 162l551 94l-285 -1427h-234l234 1171h-298z" />
<glyph unicode="2" horiz-adv-x="1074" d="M32 0l27 164l512 506q124 124 176 204.5t64 156.5q16 99 -23 162t-124 63q-108 0 -176.5 -71t-86.5 -193h-226l-2 6q27 197 167 323t355 126q186 0 283.5 -114.5t68.5 -295.5q-21 -128 -100.5 -235.5t-242.5 -270.5l-343 -335l2 -6h588l-31 -190h-888z" />
<glyph unicode="3" horiz-adv-x="1074" d="M73 377l1 5h228q-16 -99 30 -155.5t141 -56.5q94 0 162.5 60t85.5 169q20 126 -20.5 180.5t-150.5 54.5h-158l8 54l13 77l8 56h158q99 0 154.5 58t72.5 162q16 106 -23.5 160.5t-134.5 54.5q-83 0 -148 -55.5t-79 -145.5h-225l-2 6q23 171 158 278.5t323 107.5 t291.5 -106.5t73.5 -299.5q-16 -95 -81 -180t-169 -131q104 -43 143.5 -131t22.5 -199q-33 -204 -175 -312.5t-341 -108.5q-179 0 -290.5 106t-76.5 292z" />
<glyph unicode="4" horiz-adv-x="1074" d="M40 317l23 146l756 964h240l-184 -918h164l-38 -192h-164l-63 -317h-233l63 317h-564zM306 514l3 -5h333l114 566l-6 2l-19 -29z" />
<glyph unicode="5" horiz-adv-x="1074" d="M116 376l2 5l221 8q-19 -108 26.5 -163.5t132.5 -55.5q94 0 160 78.5t87 205.5q20 133 -20 212t-140 79q-84 0 -132.5 -32.5t-76.5 -91.5l-199 17l203 789h707l-33 -206h-512l-96 -358q42 31 96 51.5t114 22.5q190 2 274.5 -127.5t48.5 -353.5q-35 -217 -166.5 -347 t-345.5 -130q-169 0 -277.5 104.5t-73.5 292.5z" />
<glyph unicode="6" horiz-adv-x="1074" d="M127 560l45 272q46 289 219 452t400 163q69 0 134 -16t111 -42l-73 -185q-45 24 -91 37t-111 13q-125 0 -223.5 -108.5t-122.5 -287.5l2 -4q54 46 129 72.5t160 26.5q170 0 255.5 -135.5t52.5 -339.5q-36 -227 -175.5 -363t-335.5 -136q-197 0 -308 154t-68 427zM359 547 q-31 -188 19.5 -282.5t154.5 -94.5q89 0 157 90t89 218q21 134 -22 211.5t-140 77.5q-78 0 -139.5 -30.5t-102.5 -83.5z" />
<glyph unicode="7" horiz-adv-x="1074" d="M197 1236l30 191h923l-31 -191q-278 -287 -390.5 -515t-202.5 -570l-39 -151h-234l39 151q85 323 232.5 587t368.5 498h-696z" />
<glyph unicode="8" horiz-adv-x="1074" d="M87 389q26 127 106.5 216t201.5 132q-84 45 -123.5 127t-17.5 187q40 202 169 299t319 97q171 0 269 -104.5t61 -291.5q-23 -117 -94 -199.5t-174 -123.5q97 -48 144.5 -136.5t24.5 -202.5q-42 -213 -181 -311.5t-341 -98.5q-188 0 -295.5 107t-68.5 303zM324 401 q-23 -115 21.5 -173t143.5 -58q86 0 159 63t95 168q21 112 -24 174t-139 62q-88 0 -161.5 -66t-94.5 -170zM487 1042q-21 -104 14.5 -159t118.5 -55q74 0 135.5 59.5t81.5 154.5q20 101 -17 157.5t-116 56.5q-77 0 -137.5 -59t-79.5 -155z" />
<glyph unicode="9" horiz-adv-x="1074" d="M137 38l60 181q52 -26 108.5 -37.5t127.5 -11.5q111 0 198.5 95.5t117.5 274.5l5 28q-53 -60 -121 -90.5t-141 -30.5q-184 0 -277 131t-55 360q36 229 181.5 369t329.5 140q200 0 304.5 -147t61.5 -417l-53 -334q-46 -281 -204 -425.5t-377 -144.5q-66 0 -138.5 15.5 t-127.5 43.5zM394 938q-24 -145 15.5 -225.5t134.5 -80.5q76 0 138.5 35.5t101.5 91.5l24 152q28 178 -14 261.5t-149 83.5q-81 0 -155 -92t-96 -226z" />
<glyph unicode=":" horiz-adv-x="523" d="M62 0l46 228h231l-46 -228h-231zM229 832l46 228h231l-46 -228h-231z" />
<glyph unicode=";" horiz-adv-x="518" d="M-46 -275l126 314l39 191h221l-40 -200l-210 -305h-136zM224 832l46 228h231l-46 -228h-231z" />
<glyph unicode="&#x3c;" horiz-adv-x="957" d="M68 449l11 60l14 69l12 60l837 365l-48 -238l-565 -217l-18 -3v-6l15 -3l480 -214l-48 -238z" />
<glyph unicode="=" horiz-adv-x="1074" d="M125 359l40 197h787l-40 -197h-787zM209 774l39 198h787l-39 -198h-787z" />
<glyph unicode="&#x3e;" horiz-adv-x="981" d="M53 84l47 234l592 222l18 3v6l-15 3l-505 216l47 235l717 -365l-12 -60l-14 -69l-12 -60z" />
<glyph unicode="?" horiz-adv-x="924" d="M176 1078q33 174 165.5 271.5t312.5 97.5q181 0 274.5 -106.5t58.5 -288.5q-28 -134 -112 -233t-210 -193q-60 -49 -82.5 -93.5t-39.5 -128.5h-235q29 139 71 199t163 153q85 76 139 143t71 150q19 101 -15.5 150.5t-122.5 49.5q-68 0 -130.5 -45.5t-78.5 -131.5h-227z M227 0l46 228h238l-46 -228h-238z" />
<glyph unicode="@" horiz-adv-x="1667" d="M96 468q100 417 363.5 672.5t609.5 255.5q325 0 474 -246t52 -653q-50 -212 -185.5 -365t-347.5 -153q-63 0 -106.5 42t-50.5 117q-59 -79 -128.5 -118t-153.5 -39q-112 0 -158 119.5t8 307.5q72 251 208 402.5t287 151.5q95 0 158 -27t123 -77l-4 -3h5l-159 -568 q-28 -99 -13 -136t53 -37q98 0 187.5 110.5t128.5 272.5q88 360 -13 560.5t-396 200.5q-259 0 -476.5 -220.5t-299.5 -569.5q-88 -357 19.5 -563t386.5 -206q75 0 163.5 20t152.5 52l11 -128q-71 -41 -170 -64t-189 -23q-330 0 -483.5 248.5t-56.5 663.5zM644 209.5 q13 -67.5 72 -67.5q48 0 97 23.5t97 83.5q1 9 3.5 18.5t5.5 19.5l142 508q-19 7 -40 11.5t-44 4.5q-100 0 -177.5 -102t-133.5 -301q-35 -131 -22 -198.5z" />
<glyph unicode="A" horiz-adv-x="1231" d="M-58 0l771 1427h222l195 -1427h-237l-38 333h-504l-173 -333h-236zM454 532h378l-67 590l-5 1z" />
<glyph unicode="B" horiz-adv-x="1211" d="M64 0l285 1427h448q207 0 319 -99q84 -74 84 -201q0 -42 -9 -89q-21 -103 -87.5 -177.5t-166.5 -110.5q114 -29 158 -123q28 -60 28 -132q0 -41 -9 -85q-44 -214 -183 -312t-362 -98h-505zM336 190h272q103 0 177 57.5t96 162.5q9 47 9 85q0 59 -22 95q-37 60 -144 59 h-297zM463 826h240q90 0 161 53.5t91 147.5q6 34 6 62q-1 66 -35 99q-50 48 -167 48h-214z" />
<glyph unicode="C" horiz-adv-x="1194" d="M132 584l54 271q56 282 213 437t388 155q220 1 345 -137q103 -113 102 -284q0 -37 -4 -76l-2 -5h-228q2 27 2 52q0 110 -46 177q-57 82 -194 82q-120 0 -213 -112.5t-128 -286.5l-54 -273q-14 -70 -14 -130q0 -99 39 -170q63 -114 202 -114q120 0 191.5 71t117.5 220h225 l2 -6q-60 -226 -196 -351t-362 -125q-221 -1 -356 175q-98 127 -98 297q0 63 14 133z" />
<glyph unicode="D" horiz-adv-x="1236" d="M64 0l285 1427h399q240 0 388 -178q110 -132 109 -310q0 -61 -13 -128l-44 -216q-58 -288 -227 -441.5t-426 -153.5h-471zM336 190h230q149 0 249.5 110.5t138.5 294.5l44 218q11 59 11 111q-1 116 -57 196q-82 116 -249 116h-158z" />
<glyph unicode="E" horiz-adv-x="1092" d="M64 0l285 1427h895l-39 -191h-660l-80 -403h574l-38 -191h-575l-90 -452h668l-39 -190h-901z" />
<glyph unicode="F" horiz-adv-x="1093" d="M64 0l285 1427h901l-38 -191h-667l-87 -436h574l-38 -191h-575l-121 -609h-234z" />
<glyph unicode="G" horiz-adv-x="1269" d="M130 564l60 298q55 276 231 430.5t412 154.5q220 0 327 -123q93 -106 93 -267q0 -27 -3 -56l-2 -6h-223v18q0 109 -47 173q-50 70 -180 70q-124 0 -232.5 -112t-142.5 -280l-59 -300q-13 -65 -13 -121q0 -100 43 -168q67 -105 211 -105q92 0 163 26t105 61l58 286h-253 l35 178h487l-105 -528q-71 -82 -204.5 -148t-324.5 -66q-225 0 -356 166q-94 119 -94 284q0 64 14 135z" />
<glyph unicode="H" horiz-adv-x="1337" d="M64 0l285 1427h234l-125 -627h575l125 627h234l-286 -1427h-233l122 609h-576l-121 -609h-234z" />
<glyph unicode="I" horiz-adv-x="550" d="M74 0l286 1427h234l-285 -1427h-235z" />
<glyph unicode="J" horiz-adv-x="1057" d="M58 400l3 5h227q-10 -50 -10 -88q0 -62 26 -95q42 -52 140 -52q78 0 148 66.5t92 176.5l203 1014h234l-203 -1014q-43 -213 -182 -323.5t-330 -110.5q-188 0 -290 109q-72 75 -72 196q0 54 14 116z" />
<glyph unicode="K" horiz-adv-x="1144" d="M48 0l285 1427h235l-120 -600h125l461 600h295l2 -5l-598 -712l334 -710h-267l-274 615h-120l-123 -615h-235z" />
<glyph unicode="L" horiz-adv-x="1023" d="M64 0l285 1427h234l-247 -1237h605l-38 -190h-839z" />
<glyph unicode="M" horiz-adv-x="1647" d="M64 0l285 1427h304l151 -1096l5 -1l589 1097h303l-285 -1427h-234l97 486l142 594l-6 3l-598 -1083h-156l-164 1080h-6l-96 -594l-97 -486h-234z" />
<glyph unicode="N" horiz-adv-x="1337" d="M64 0l285 1427h234l365 -1020h6l203 1020h235l-286 -1427h-234l-364 1021h-6l-204 -1021h-234z" />
<glyph unicode="O" horiz-adv-x="1286" d="M132 591l51 257q56 281 221.5 440t406.5 159q231 1 371 -179q103 -132 104 -303q0 -62 -14 -130l-51 -257q-57 -281 -228 -440t-418 -159q-225 0 -360 179q-97 129 -97 298q0 64 14 135zM366 591q-14 -67 -13 -125q1 -104 45 -178q70 -114 216 -114q136 0 237 112 t137 292l52 259q12 60 12 112q0 111 -52 188q-76 114 -228 114q-129 0 -224.5 -111.5t-131.5 -289.5z" />
<glyph unicode="P" horiz-adv-x="1222" d="M64 0l285 1427h526q206 -1 314 -125q79 -91 80 -220q0 -47 -11 -98q-43 -213 -189 -328t-371 -115h-292l-108 -541h-234zM444 732h292q110 0 188 72.5t99 177.5q8 40 8 74q1 66 -29 111q-44 69 -165 69h-292z" />
<glyph unicode="Q" horiz-adv-x="1302" d="M134 591l51 257q56 281 221.5 440t406.5 159q231 0 371 -179q104 -132 104 -303q0 -63 -14 -130l-51 -257q-29 -147 -92 -262t-153 -194l170 -209l-182 -136l-183 235q-49 -16 -101 -24.5t-105 -8.5q-225 0 -360 179q-97 129 -97 298q0 64 14 135zM368 591 q-14 -67 -14 -125q0 -104 46 -178q70 -114 216 -114q136 0 237 112t137 292l52 259q12 60 12 112q0 111 -52 188q-76 114 -228 114q-129 0 -224.5 -111.5t-131.5 -289.5z" />
<glyph unicode="R" horiz-adv-x="1246" d="M64 0l285 1427h496q209 0 315 -110q78 -81 78 -207q0 -46 -10 -99q-24 -118 -92.5 -196t-182.5 -125q99 -40 134 -127q21 -52 21 -117q0 -43 -9 -91l-24 -119q-11 -53 -11 -100v-24q4 -58 33 -89l-5 -23h-241q-28 29 -28 88q1 7 1 14q4 70 18 136l22 115q8 41 8 76 q0 61 -26 101q-42 62 -141 62h-289l-117 -592h-235zM455 783h250q118 0 191.5 56.5t96.5 165.5q7 38 7 70q0 64 -30 103q-44 58 -163 58h-261z" />
<glyph unicode="S" horiz-adv-x="1151" d="M109 416l2 6h225q-7 -37 -7 -67q-1 -89 59 -130q80 -55 211 -55q85 0 157.5 48t87.5 120q6 29 6 54q0 64 -38 106q-52 58 -203 114q-215 74 -310 182q-68 77 -68 195q0 46 10 98q34 174 172 267t335 93q214 0 333 -117q87 -85 87 -217q0 -49 -12 -103l-3 -6h-225 q6 31 6 59q0 74 -44 124q-60 69 -180 69q-85 0 -153 -48.5t-82 -118.5q-6 -32 -6 -58q1 -63 35 -99q50 -51 220 -118q210 -74 300 -180q63 -75 64 -191q0 -48 -11 -103q-36 -182 -174.5 -271.5t-341.5 -89.5q-213 0 -357 107q-107 79 -108 223q0 50 13 107z" />
<glyph unicode="T" horiz-adv-x="1086" d="M195 1236l38 191h1024l-38 -191h-395l-247 -1236h-234l247 1236h-395z" />
<glyph unicode="U" horiz-adv-x="1283" d="M134 470l191 957h235l-192 -957q-11 -55 -11 -99q-1 -85 39 -131q60 -70 193 -70q125 0 223 76t128 224l191 957h234l-191 -957q-51 -252 -216.5 -371.5t-406.5 -119.5q-216 0 -340 129q-90 94 -90 242q0 56 13 120z" />
<glyph unicode="V" horiz-adv-x="1209" d="M182 1427h249l138 -1054l8 -94l6 -1l38 93l477 1056h250l-701 -1427h-223z" />
<glyph unicode="W" horiz-adv-x="1658" d="M200 1427h230l37 -1015l6 -1l418 1016h186l94 -1017l6 -1l363 1018h229l-540 -1427h-213l-96 1004l-6 1l-418 -1005h-214z" />
<glyph unicode="X" horiz-adv-x="1199" d="M-19 0l529 719l-291 708h275l181 -527l353 527h278l-518 -708l305 -719h-282l-190 536l-361 -536h-279z" />
<glyph unicode="Y" horiz-adv-x="1182" d="M222 1427h262l171 -670l6 -1l441 671h261l-643 -928l-100 -499h-233l103 516z" />
<glyph unicode="Z" horiz-adv-x="1061" d="M26 0l3 149l768 1087h-558l38 191h839l-28 -143l-771 -1094h631l-39 -190h-883z" />
<glyph unicode="[" horiz-adv-x="529" d="M2 -318l314 1962h381l-30 -186h-146l-254 -1590h146l-30 -186h-381z" />
<glyph unicode="\" horiz-adv-x="794" d="M223 1427h228l244 -1549h-228z" />
<glyph unicode="]" horiz-adv-x="529" d="M-102 -318l29 186h148l255 1590h-148l30 186h382l-314 -1962h-382z" />
<glyph unicode="^" horiz-adv-x="809" d="M111 714l414 713h164l129 -713h-197l-65 405l-1 41l-6 1l-17 -42l-223 -405h-198z" />
<glyph unicode="_" horiz-adv-x="857" d="M-113 -187l38 187h840l-37 -187h-841z" />
<glyph unicode="`" horiz-adv-x="619" d="M233 1448h264l125 -260h-187z" />
<glyph unicode="a" horiz-adv-x="1027" d="M68 299q32 164 158.5 244.5t335.5 80.5h154l19 93q6 31 6 56q0 47 -22 77q-34 44 -116 45q-70 0 -124 -40t-65 -100h-225l-2 5q22 134 152 227t315 93q162 0 256 -96q69 -70 69 -183q0 -41 -9 -86l-94 -471q-15 -70 -18 -128q-1 -17 -1 -35q0 -40 5 -81h-237q-5 34 -5 66 v9q0 28 3 55q-60 -65 -139 -108t-164 -43q-140 0 -211 88q-50 62 -50 151q0 38 9 81zM303 303q-5 -22 -5 -41q0 -36 18 -58q27 -34 95 -33q64 0 132 35t107 85l37 184h-159q-84 0 -147.5 -52t-77.5 -120z" />
<glyph unicode="b" d="M35 0l306 1529h234l-111 -560q53 54 117.5 82.5t137.5 28.5q175 0 257 -168q51 -104 51 -240q0 -82 -19 -176l-4 -21q-49 -248 -164.5 -372t-301.5 -124q-80 0 -146 42.5t-107 117.5l-47 -139h-203zM326 286q20 -54 65.5 -83.5t118.5 -29.5q104 0 167.5 79t92.5 223l4 21 q18 90 18 162q0 68 -16 120q-34 106 -148 107q-62 0 -115 -38.5t-96 -105.5z" />
<glyph unicode="c" horiz-adv-x="991" d="M91 513l5 34q38 239 178 386t361 147q173 0 270 -112q73 -84 73 -202q0 -39 -8 -81l-2 -5h-213q4 24 4 45q0 61 -30 105q-40 59 -124 59q-116 0 -183.5 -99t-91.5 -243l-5 -34q-11 -66 -10 -120q0 -74 19 -129q34 -94 156 -94q75 0 137 51t75 129h211l2 -6 q-20 -156 -153.5 -260.5t-301.5 -104.5q-212 1 -309 153q-70 110 -70 260q0 58 10 121z" />
<glyph unicode="d" d="M97 514l4 21q54 271 172.5 408t304.5 137q76 0 138 -32.5t103 -91.5l115 573h234l-306 -1529h-201l5 105q-57 -62 -126.5 -94t-145.5 -32q-170 1 -256 155q-56 101 -57 233q0 69 16 147zM332 514q-14 -72 -15 -131q0 -67 20 -117q36 -92 149 -93q59 0 110.5 35t93.5 98 l93 469q-22 52 -66.5 81t-108.5 29q-103 0 -171.5 -94.5t-100.5 -255.5z" />
<glyph unicode="e" horiz-adv-x="1001" d="M99 506l6 39q39 240 185 388q146 147 331 147h3q195 0 284 -131q64 -94 64 -232q0 -54 -10 -115l-22 -140h-613q-3 -29 -3 -55q0 -97 38 -159q48 -78 159 -78q84 0 153.5 24t134.5 67l49 -156q-63 -53 -161 -89.5t-221 -36.5q-204 0 -309 149q-78 110 -78 264 q0 54 10 114zM366 641l2 -5h368l4 25q5 33 5 62q1 62 -23 104q-34 62 -128 62q-75 0 -137 -70t-91 -178z" />
<glyph unicode="f" horiz-adv-x="670" d="M114 0l176 884h-149l35 176h149l26 124q36 186 143 275.5t272 89.5q32 0 65 -5.5t72 -14.5l-60 -184q-17 3 -39 6t-47 3q-66 0 -111 -44.5t-61 -125.5l-25 -124h196l-36 -176h-196l-176 -884h-234z" />
<glyph unicode="g" horiz-adv-x="1069" d="M33 -348l88 187q47 -30 110.5 -47t132.5 -17q106 0 178 66.5t96 182.5l12 57q-55 -50 -118 -76t-133 -26q-171 0 -258 155q-57 102 -57 235q0 68 15 145l4 21q54 271 173.5 408t306.5 137q81 0 147 -37.5t107 -104.5l42 122h201l-207 -1037q-45 -222 -186 -336.5 t-362 -114.5q-67 0 -149.5 22t-142.5 58zM333 514q-14 -70 -14 -127q0 -70 21 -121q38 -93 151 -93q61 0 111.5 34t91.5 96l94 473q-22 52 -66 80.5t-110 28.5q-102 0 -172.5 -95t-102.5 -255z" />
<glyph unicode="h" d="M32 0l306 1529h234l-118 -591q62 68 138 105t161 37q147 0 219 -108q45 -68 45 -178q0 -66 -16 -148l-130 -646h-234l129 648q12 61 12 105q0 53 -18 81q-32 52 -126 51q-57 0 -112.5 -29.5t-100.5 -80.5l-154 -775h-235z" />
<glyph unicode="i" horiz-adv-x="500" d="M50 0l212 1060h234l-212 -1060h-234zM314 1320l42 209h234l-42 -209h-234z" />
<glyph unicode="j" horiz-adv-x="505" d="M-228 -412l51 191q14 -5 36 -8.5t40 -3.5q51 0 91 42t58 129l224 1122h235l-225 -1122q-38 -186 -139.5 -276t-258.5 -90q-30 0 -57.5 4t-54.5 12zM319 1323l42 206h235l-41 -206h-236z" />
<glyph unicode="k" horiz-adv-x="993" d="M36 0l306 1529h233l-175 -874h91l315 405h268l2 -5l-410 -476l252 -579h-271l-189 464h-96l-92 -464h-234z" />
<glyph unicode="l" horiz-adv-x="500" d="M50 0l306 1529h234l-306 -1529h-234z" />
<glyph unicode="m" horiz-adv-x="1628" d="M36 0l212 1060h214l-13 -125q61 70 140 107.5t175 37.5q87 0 147.5 -45.5t80.5 -135.5q62 86 145.5 133.5t184.5 47.5q139 0 207 -111q42 -68 42 -177q0 -69 -17 -153l-127 -639h-235l128 640q14 71 14 120q0 50 -15 75q-29 50 -115 50q-61 0 -117.5 -42.5t-93.5 -112.5 q-3 -18 -4.5 -26t-2.5 -17l-137 -687h-235l129 640q13 66 13 112q0 52 -16 80q-30 53 -115 53q-60 0 -110 -29t-89 -80l-156 -776h-234z" />
<glyph unicode="n" d="M33 0l212 1060h215l-16 -141q64 78 144.5 119.5t171.5 41.5q144 0 214 -102q45 -65 45 -173q0 -62 -15 -139l-134 -666h-234l133 664q11 55 11 95q0 53 -19 79q-33 46 -127 47q-58 0 -113.5 -31.5t-100.5 -86.5l-152 -767h-235z" />
<glyph unicode="o" d="M95 519l3 21q39 246 182 393t357 147q205 0 306 -153q73 -111 74 -265q0 -58 -11 -122l-2 -21q-41 -248 -183.5 -394t-356.5 -146q-205 1 -306 153q-73 111 -73 265q0 58 10 122zM329 519q-11 -65 -10 -120q0 -79 22 -135q38 -94 153 -94q107 0 179 98.5t96 250.5l3 21 q10 63 10 115q0 81 -24 139q-38 95 -151 95q-107 0 -179 -99.5t-96 -249.5z" />
<glyph unicode="p" d="M-46 -408l293 1468h210l-8 -103q57 59 124.5 91t144.5 32q172 0 254 -168q52 -106 52 -243q0 -81 -18 -173l-3 -21q-50 -247 -166 -371.5t-299 -124.5q-79 0 -143.5 30.5t-105.5 87.5l-101 -505h-234zM323 269q20 -49 64.5 -74t114.5 -25q103 0 171 81.5t96 223.5l4 21 q17 82 17 150q0 74 -20 130q-38 109 -150 109q-58 0 -108.5 -34.5t-91.5 -94.5z" />
<glyph unicode="q" d="M97 514l4 21q54 271 172.5 408t304.5 137q79 0 142.5 -35t104.5 -97l40 112h202l-293 -1468h-234l97 486q-54 -49 -114.5 -74t-128.5 -25q-171 0 -256 155q-57 101 -57 233q0 69 16 147zM332 514q-14 -72 -14 -131q0 -68 19 -119q36 -94 149 -94q56 0 104.5 31t88.5 88 l100 504q-22 46 -65.5 71t-105.5 25q-102 0 -171 -96.5t-101 -257.5z" />
<glyph unicode="r" horiz-adv-x="678" d="M35 0l212 1060h215l-14 -140q52 77 117 118.5t140 41.5q19 0 42 -3.5t36 -8.5l-73 -225l-107 4q-58 0 -105 -29.5t-82 -82.5l-146 -735h-235z" />
<glyph unicode="s" horiz-adv-x="983" d="M69 328l2 6h218q-2 -18 -2 -34q0 -66 39 -100q49 -42 130 -42q78 0 129.5 35.5t61.5 94.5q2 11 2 22q0 42 -29 70q-36 36 -149 63q-170 41 -250 115q-63 59 -63 150q0 24 4 51q21 138 141 229.5t295 91.5q174 0 270 -96q74 -75 74 -177q0 -29 -6 -59l-2 -6h-225 q2 15 2 28q0 50 -28 86q-36 46 -114 46q-72 0 -120 -39.5t-57 -94.5q-2 -12 -2 -23q0 -41 26 -66q33 -32 147 -58q181 -41 259 -116q61 -59 62 -152q0 -25 -5 -52q-23 -148 -146.5 -235t-308.5 -87q-185 -1 -284 107q-77 84 -77 184q0 28 6 58z" />
<glyph unicode="t" horiz-adv-x="678" d="M123 884l36 176h148l52 258h234l-52 -258h175l-35 -176h-175l-117 -586q-6 -30 -7 -52q0 -30 12 -44q20 -26 64 -26q23 0 50.5 3.5t49.5 9.5l-11 -174q-37 -17 -86.5 -26.5t-102.5 -9.5q-116 1 -176 79q-38 50 -39 135q0 47 12 105l116 586h-148z" />
<glyph unicode="u" d="M116 426l126 634h233l-126 -636q-16 -78 -16 -130q0 -46 13 -70q28 -51 113 -51q71 0 131.5 32t103.5 91l153 764h234l-212 -1060h-207l12 134q-62 -76 -139.5 -115.5t-169.5 -39.5q-151 0 -223 111q-44 68 -44 178q0 71 18 158z" />
<glyph unicode="v" horiz-adv-x="960" d="M134 1060h242l83 -701l2 -73l5 -1l27 74l300 701h242l-518 -1060h-202z" />
<glyph unicode="w" horiz-adv-x="1403" d="M164 1060h224l7 -720l6 -1l342 721h169l57 -732l6 -1l292 733h225l-481 -1060h-191l-60 707l-6 1l-342 -708h-192z" />
<glyph unicode="x" horiz-adv-x="960" d="M-35 0l402 536l-224 524h266l109 -356l6 -1l227 357h268l-391 -524l230 -536h-266l-118 366l-6 1l-236 -367h-267z" />
<glyph unicode="y" horiz-adv-x="960" d="M-70 -409l63 185q12 -1 33 -3t33 -2q54 0 103 47.5t76 98.5l55 95l-147 1048h256l51 -635l1 -87l6 -1l351 723h257l-650 -1221q-61 -109 -149 -188t-219 -79q-26 0 -58.5 6t-61.5 13z" />
<glyph unicode="z" horiz-adv-x="960" d="M-1 0l31 156l632 707l-2 5h-479l39 192h773l-30 -151l-639 -714l2 -5h515l-38 -190h-804z" />
<glyph unicode="{" horiz-adv-x="637" d="M70 518l5 37l22 138q84 0 137 57.5t70 159.5l31 199q28 174 121 287t279 164l6 -2l22 -130q-91 -32 -139.5 -114.5t-66.5 -204.5l-32 -199q-17 -106 -69.5 -184.5t-140.5 -121.5q71 -47 99.5 -125.5t12.5 -175.5l-31 -199q-22 -128 0 -207t105 -112l-69 -138 q-170 54 -227.5 171.5t-30.5 285.5l32 199q16 106 -16 160.5t-120 54.5z" />
<glyph unicode="|" horiz-adv-x="486" d="M52 -265l270 1692h161l-270 -1692h-161z" />
<glyph unicode="}" horiz-adv-x="637" d="M-72 -220q91 33 140 114t68 203l32 199q16 111 70.5 190.5t148.5 122.5q-77 43 -107.5 120t-13.5 177l31 196q21 127 -2 207t-104 112l69 137q169 -54 226 -171t30 -285l-31 -196q-18 -107 15 -160t123 -53l-20 -132h-1l-6 -43q-86 0 -139.5 -59.5t-69.5 -162.5l-31 -199 q-29 -173 -121 -286t-278 -164l-6 2z" />
<glyph unicode="~" horiz-adv-x="1246" d="M113 451q23 153 117.5 250.5t220.5 97.5q75 0 141 -34t126 -99q41 -47 75.5 -67.5t76.5 -20.5q49 0 97.5 54t60.5 126l159 -23q-25 -154 -121.5 -255t-219.5 -101q-76 0 -139 32.5t-127 101.5q-43 45 -78 66.5t-76 21.5q-51 0 -97.5 -51t-57.5 -121z" />
<glyph unicode="&#xa1;" horiz-adv-x="513" d="M-24 -367l190 945h235l-189 -945h-236zM218 830l46 230h231l-46 -230h-231z" />
<glyph unicode="&#xa2;" horiz-adv-x="1059" d="M111 513l5 34q33 215 152 358t308 169l44 218h192l-46 -227q125 -34 187.5 -138t41.5 -247h-221q15 91 -25 150t-125 59q-115 0 -183 -99t-91 -243l-5 -34q-26 -155 8 -249t157 -94q75 0 137 51t74 129h213l2 -6q-19 -138 -128.5 -237.5t-257.5 -121.5l-44 -225h-192 l47 235q-151 42 -216.5 184t-33.5 334z" />
<glyph unicode="&#xa3;" horiz-adv-x="1112" d="M54 0l38 190h9q43 13 80.5 99.5t55.5 178.5l20 120h-143l38 191h136l38 233q42 217 169 326t311 109q178 0 269 -108.5t53 -279.5l-2 -5h-228q21 110 -16.5 156t-114.5 46q-68 0 -125.5 -65t-79.5 -179l-39 -233h347l-38 -191h-341l-18 -112q-17 -86 -51.5 -159 t-83.5 -127h659l-40 -190h-903z" />
<glyph unicode="&#xa4;" horiz-adv-x="1315" d="M28 116l156 139q-31 74 -39 160.5t12 180.5q20 105 63 196.5t103 165.5l-99 140l164 141l96 -135q77 51 162.5 78t174.5 27q82 0 155 -30t131 -85l163 146l108 -142l-169 -152q33 -77 41.5 -165.5t-9.5 -184.5q-21 -100 -60 -188t-94 -159l95 -133l-165 -142l-88 123 q-81 -58 -171.5 -87.5t-182.5 -29.5q-85 0 -160.5 32.5t-133.5 93.5l-146 -131zM334 596q-39 -193 42 -313.5t236 -120.5q141 0 277.5 127.5t172.5 306.5q38 192 -42.5 311.5t-234.5 119.5q-142 0 -279.5 -127.5t-171.5 -303.5z" />
<glyph unicode="&#xa5;" horiz-adv-x="1150" d="M94 232l38 191h320l22 113h-319l38 191h257l-222 700h262l160 -603l6 -1l400 604h262l-501 -700h246l-38 -191h-316l-23 -113h317l-39 -191h-316l-46 -232h-234l46 232h-320z" />
<glyph unicode="&#xa6;" horiz-adv-x="480" d="M-10 -265l156 779h221l-156 -779h-221zM180 684l148 743h221l-148 -743h-221z" />
<glyph unicode="&#xa7;" horiz-adv-x="1172" d="M-3 -55l3 6l225 1q-25 -128 37.5 -177.5t174.5 -49.5q100 0 174 49t90 123q15 80 -34 121t-209 98q-208 62 -294.5 153.5t-51.5 261.5q18 93 70.5 161t135.5 110q-50 49 -67.5 116.5t2.5 161.5q35 176 178 271.5t360 95.5q205 0 312.5 -111t64.5 -305l-2 -5h-227 q21 105 -27 167.5t-159 62.5q-107 0 -178.5 -50.5t-85.5 -123.5q-19 -90 26 -128.5t214 -91.5q210 -64 295 -155t52 -261q-20 -96 -72 -163.5t-134 -107.5q50 -49 67 -115.5t-2 -160.5q-37 -183 -178 -274t-358 -91q-196 0 -322 99.5t-80 311.5zM349 547q-19 -92 25 -133.5 t209 -96.5q42 -14 71 -24.5t56 -20.5q50 22 85 63t47 95q16 84 -33 128t-206 102q-39 11 -70.5 22t-59.5 24q-50 -23 -82 -64.5t-42 -94.5z" />
<glyph unicode="&#xa8;" horiz-adv-x="980" d="M282 1227l33 200h227l-32 -200h-228zM723 1227l33 200h228l-32 -200h-229z" />
<glyph unicode="&#xa9;" horiz-adv-x="1467" d="M127 714q51 321 271 526.5t494 205.5q258 0 417.5 -213.5t111.5 -518.5q-52 -321 -272 -528t-491 -207q-260 0 -420.5 214.5t-110.5 520.5zM243 714q-44 -268 82.5 -440t351.5 -172q212 0 399 178.5t229 433.5q43 268 -83 439t-350 171q-213 0 -401 -177.5t-228 -432.5z M432 656l19 116q27 176 129 278t251 102q139 0 210 -79t45 -224l-2 -5h-142q14 95 -18.5 135t-114.5 40q-80 0 -137 -68t-74 -178l-19 -117q-19 -117 15 -182t118 -65q78 0 125 41t62 134h140l2 -6q-21 -153 -112 -227.5t-238 -74.5q-141 0 -213.5 105.5t-45.5 274.5z" />
<glyph unicode="&#xaa;" horiz-adv-x="842" d="M206 902q22 114 109.5 170t239.5 56h119l10 50q13 65 -5 94.5t-69 29.5q-54 0 -92 -26t-47 -71l-154 13l-2 6q15 102 103.5 162.5t219.5 60.5q116 0 177.5 -71t36.5 -199l-62 -308q-11 -52 -13.5 -93t1.5 -84h-169q-3 20 -3 44t3 48q-41 -46 -96.5 -76t-125.5 -30 q-101 0 -151.5 61.5t-29.5 162.5zM374 906q-9 -46 11.5 -66.5t72.5 -20.5q40 0 94 28t78 62l21 104h-118q-61 0 -106 -32t-53 -75z" />
<glyph unicode="&#xab;" horiz-adv-x="922" d="M93 530l1 6l3 13l339 382h159l-301 -392l144 -391h-158zM427 530l1 6l3 13l339 382h159l-301 -392l144 -391h-158z" />
<glyph unicode="&#xac;" horiz-adv-x="1044" d="M162 621l33 168h764l-15 -76h1l-19 -92l-51 -254h-192l51 254h-572z" />
<glyph unicode="&#xad;" horiz-adv-x="627" d="M89 511l38 192h483l-39 -192h-482z" />
<glyph unicode="&#xae;" horiz-adv-x="1467" d="M128 714q51 321 271 526.5t493 205.5q259 0 418.5 -213.5t111.5 -518.5q-52 -321 -272.5 -528t-491.5 -207q-260 0 -420 214.5t-110 520.5zM244 714q-44 -268 82.5 -440t350.5 -172q212 0 399 178.5t229 433.5q43 268 -83 439t-350 171q-213 0 -400.5 -177.5 t-227.5 -432.5zM437 310l133 833h260q133 0 205 -66.5t53 -188.5q-10 -61 -45.5 -104.5t-94.5 -73.5q51 -28 69 -81t7 -124l-9 -55q-7 -41 -8.5 -72.5t4.5 -52.5l-2 -15h-148q-4 21 0 62t11 79l8 53q12 72 -12.5 104t-93.5 32h-140l-52 -330h-145zM656 771h125q61 0 107 30 t55 84q12 73 -17.5 100t-117.5 27h-114z" />
<glyph unicode="&#xaf;" horiz-adv-x="921" d="M267 1272l24 155h669l-24 -155h-669z" />
<glyph unicode="&#xb0;" horiz-adv-x="718" d="M272 1184q22 114 108 188.5t187 74.5q92 0 149.5 -78.5t37.5 -184.5q-24 -115 -107 -187t-183 -72q-95 0 -154 76.5t-38 182.5zM405 1184q-12 -55 13.5 -88.5t72.5 -33.5q42 0 81 35t50 87q11 57 -13 91t-69 34q-43 0 -84 -36.5t-51 -88.5z" />
<glyph unicode="&#xb1;" horiz-adv-x="1013" d="M57 0l38 192h761l-39 -192h-760zM135 693l32 195h319l61 376h207l-61 -376h309l-32 -195h-308l-61 -387h-207l62 387h-321z" />
<glyph unicode="&#xb2;" horiz-adv-x="802" d="M161 654l29 142l326 251q69 53 93 87t32 75q8 46 -8 72t-63 26q-49 0 -84.5 -30t-43.5 -76h-173l-2 6q16 108 107.5 175.5t226.5 67.5q121 0 183 -65t41 -177q-18 -86 -70 -138.5t-190 -159.5l-133 -108l2 -6h312l-28 -142h-557z" />
<glyph unicode="&#xb3;" horiz-adv-x="802" d="M189 871l2 5h175q-10 -45 14.5 -68.5t79.5 -23.5q52 0 92 26t48 69q12 58 -13 83.5t-87 25.5h-112l15 76l3 13l8 40h113q52 0 85 26t43 73q7 40 -15.5 65t-76.5 25q-43 0 -75.5 -22t-38.5 -55h-174l-2 6q15 103 104 158.5t212 55.5q128 0 200 -59.5t52 -165.5 q-12 -57 -53.5 -101.5t-102.5 -68.5q58 -25 83.5 -71t13.5 -110q-24 -116 -116.5 -173.5t-232.5 -57.5q-119 0 -195.5 60t-48.5 169z" />
<glyph unicode="&#xb4;" horiz-adv-x="649" d="M235 1188l215 260h265l-298 -260h-182z" />
<glyph unicode="&#xb5;" horiz-adv-x="1120" d="M-28 -408l293 1468h233l-128 -636q-27 -156 5.5 -204t117.5 -48q71 0 126 31t95 91l153 766h235l-212 -1060h-216l9 71q-49 -46 -106 -69t-122 -23q-51 0 -92 13.5t-70 40.5l-88 -441h-233z" />
<glyph unicode="&#xb6;" horiz-adv-x="964" d="M170 968q42 216 183 337.5t357 121.5h306l-285 -1427h-234l102 510h-73q-199 0 -298 129t-58 329z" />
<glyph unicode="&#xb7;" horiz-adv-x="543" d="M183 582l47 235h230l-47 -235h-230z" />
<glyph unicode="&#xb8;" horiz-adv-x="493" d="M-43 -431l19 127q49 0 86.5 22t47.5 65q9 46 -17.5 62.5t-99.5 21.5l57 136h170l-21 -53q54 -11 84 -51t15 -119q-22 -106 -108 -161t-228 -53z" />
<glyph unicode="&#xb9;" horiz-adv-x="531" d="M258 652l125 626h-114l30 147l302 23l-159 -796h-184z" />
<glyph unicode="&#xba;" horiz-adv-x="863" d="M229 1005l23 114q31 154 133.5 241t249.5 87q136 0 209 -93t45 -235l-23 -114q-31 -154 -133 -240.5t-250 -86.5q-136 0 -209 92.5t-45 234.5zM397 1005q-18 -88 10.5 -136t104.5 -48q66 0 118 51.5t69 132.5l22 114q17 86 -11.5 134.5t-102.5 48.5q-69 0 -120.5 -51.5 t-67.5 -131.5z" />
<glyph unicode="&#xbb;" horiz-adv-x="922" d="M32 148l300 391l-143 392h159l185 -382l-2 -6h1l-3 -13l-338 -382h-159zM379 148l300 391l-143 392h159l185 -382l-2 -6h1l-3 -13l-338 -382h-159z" />
<glyph unicode="&#xbc;" horiz-adv-x="1421" d="M227 185l872 1116l105 -71l-871 -1115zM308 651l125 626h-114l30 147l302 23l-159 -796h-184zM643 142l13 114l490 529h183l-100 -501h100l-28 -142h-100l-28 -142h-184l29 142h-375zM855 289l2 -5h189l52 266l-5 2l-11 -14z" />
<glyph unicode="&#xbd;" horiz-adv-x="1516" d="M232 185l872 1116l105 -71l-871 -1115zM300 651l125 626h-114l30 147l302 23l-159 -796h-184zM732 0l29 142l326 251q69 53 93 87t32 75q8 46 -8 72t-63 26q-49 0 -84.5 -30t-43.5 -76h-173l-2 6q16 108 107.5 175.5t226.5 67.5q121 0 183 -65t41 -177 q-18 -86 -70 -138.5t-190 -159.5l-133 -108l2 -6h312l-28 -142h-557z" />
<glyph unicode="&#xbe;" horiz-adv-x="1608" d="M192 872l2 5h175q-10 -45 14.5 -68.5t79.5 -23.5q52 0 92 26t48 69q12 58 -13 83.5t-87 25.5h-112l15 76l3 13l8 40h113q52 0 85 26t43 73q7 40 -15.5 65t-76.5 25q-43 0 -75.5 -22t-38.5 -55h-174l-2 6q15 103 104 158.5t212 55.5q128 0 200 -59.5t52 -165.5 q-12 -57 -53.5 -101.5t-102.5 -68.5q58 -25 83.5 -71t13.5 -110q-24 -116 -116.5 -173.5t-232.5 -57.5q-119 0 -195.5 60t-48.5 169zM407 185l872 1116l105 -71l-871 -1115zM812 142l13 114l490 529h183l-100 -501h100l-28 -142h-100l-28 -142h-184l29 142h-375zM1024 289 l2 -5h189l52 266l-5 2l-11 -14z" />
<glyph unicode="&#xbf;" horiz-adv-x="951" d="M11 8q25 132 109.5 232t210.5 193q61 48 83.5 92.5t40.5 130.5h233q-30 -142 -72 -201.5t-161 -149.5q-87 -80 -140.5 -146t-69.5 -147q-21 -101 15 -150.5t124 -49.5q66 0 128 45.5t82 131.5h225l2 -6q-34 -174 -166.5 -271.5t-310.5 -97.5q-182 0 -275.5 107t-57.5 287 zM488 832l45 228h237l-45 -228h-237z" />
<glyph unicode="&#xc0;" horiz-adv-x="1231" d="M-58 0l771 1427h222l195 -1427h-237l-38 333h-504l-173 -333h-236zM454 532h378l-67 590l-5 1zM586 1789h264l125 -260h-187z" />
<glyph unicode="&#xc1;" horiz-adv-x="1231" d="M-58 0l771 1427h222l195 -1427h-237l-38 333h-504l-173 -333h-236zM454 532h378l-67 590l-5 1zM754 1528l215 260h265l-298 -260h-182z" />
<glyph unicode="&#xc2;" horiz-adv-x="1231" d="M-58 0l771 1427h222l195 -1427h-237l-38 333h-504l-173 -333h-236zM454 532h378l-67 590l-5 1zM561 1565l6 25l292 237h134l198 -239l-5 -23h-186l-100 136l-154 -136h-185z" />
<glyph unicode="&#xc3;" horiz-adv-x="1231" d="M-58 0l771 1427h222l195 -1427h-237l-38 333h-504l-173 -333h-236zM454 532h378l-67 590l-5 1zM550 1605q14 95 79 161.5t149 66.5q48 0 124 -43.5t124 -43.5q33 0 63.5 31t37.5 76l119 -38q-16 -96 -81 -160t-150 -64q-60 0 -130 43.5t-117 43.5q-33 0 -63 -32t-37 -76z " />
<glyph unicode="&#xc4;" horiz-adv-x="1231" d="M-58 0l771 1427h222l195 -1427h-237l-38 333h-504l-173 -333h-236zM454 532h378l-67 590l-5 1zM538 1569l33 200h227l-32 -200h-228zM979 1569l33 200h228l-32 -200h-229z" />
<glyph unicode="&#xc5;" horiz-adv-x="1231" d="M-58 0l771 1427h222l195 -1427h-237l-38 333h-504l-173 -333h-236zM454 532h378l-67 590l-5 1zM703 1702q18 88 85 141t152 53q77 0 124.5 -56.5t31.5 -137.5q-19 -89 -84 -139.5t-148 -50.5q-79 0 -128.5 54t-32.5 136zM807 1702q-9 -45 12.5 -72t61.5 -27 q37 0 69.5 28.5t41.5 70.5q10 47 -10.5 74.5t-59.5 27.5q-38 0 -72 -29.5t-43 -72.5z" />
<glyph unicode="&#xc6;" horiz-adv-x="1771" d="M-92 0l1044 1427h919l-38 -193h-587l-65 -400h497l-38 -193h-489l-73 -449h602l-38 -192h-829l53 333h-446l-232 -333h-280zM568 544h333l97 605l-6 2z" />
<glyph unicode="&#xc7;" horiz-adv-x="1194" d="M132 584l54 271q56 282 213 437t388 155q220 0 345 -137.5t98 -359.5l-2 -5h-228q13 147 -44 229t-194 82q-120 0 -213 -112.5t-128 -286.5l-54 -273q-38 -186 25 -300t202 -114q120 0 191.5 71t117.5 220h225l2 -6q-60 -226 -196 -351t-362 -125q-221 0 -356 175.5 t-84 429.5zM359 -435l19 127q49 0 86.5 22t47.5 65q9 46 -17.5 62.5t-99.5 21.5l57 136h170l-21 -53q54 -11 84 -51t15 -119q-22 -106 -108 -161t-228 -53z" />
<glyph unicode="&#xc8;" horiz-adv-x="1092" d="M64 0l285 1427h895l-39 -191h-660l-80 -403h574l-38 -191h-575l-90 -452h668l-39 -190h-901zM510 1789h264l125 -260h-187z" />
<glyph unicode="&#xc9;" horiz-adv-x="1092" d="M64 0l285 1427h895l-39 -191h-660l-80 -403h574l-38 -191h-575l-90 -452h668l-39 -190h-901zM679 1528l215 260h265l-298 -260h-182z" />
<glyph unicode="&#xca;" horiz-adv-x="1092" d="M64 0l285 1427h895l-39 -191h-660l-80 -403h574l-38 -191h-575l-90 -452h668l-39 -190h-901zM485 1565l6 25l292 237h134l198 -239l-5 -23h-186l-100 136l-154 -136h-185z" />
<glyph unicode="&#xcb;" horiz-adv-x="1092" d="M64 0l285 1427h895l-39 -191h-660l-80 -403h574l-38 -191h-575l-90 -452h668l-39 -190h-901zM462 1569l33 200h227l-32 -200h-228zM903 1569l33 200h228l-32 -200h-229z" />
<glyph unicode="&#xcc;" horiz-adv-x="550" d="M74 0l286 1427h234l-285 -1427h-235zM219 1789h264l125 -260h-187z" />
<glyph unicode="&#xcd;" horiz-adv-x="550" d="M74 0l286 1427h234l-285 -1427h-235zM386 1528l215 260h265l-298 -260h-182z" />
<glyph unicode="&#xce;" horiz-adv-x="550" d="M74 0l286 1427h234l-285 -1427h-235zM194 1565l6 25l292 237h134l198 -239l-5 -23h-186l-100 136l-154 -136h-185z" />
<glyph unicode="&#xcf;" horiz-adv-x="550" d="M74 0l286 1427h234l-285 -1427h-235zM171 1569l33 200h227l-32 -200h-228zM612 1569l33 200h228l-32 -200h-229z" />
<glyph unicode="&#xd0;" horiz-adv-x="1266" d="M80 644l34 166h141l123 617h399q240 0 387.5 -178t96.5 -438l-44 -216q-58 -288 -227 -441.5t-426 -153.5h-471l128 644h-141zM366 190h230q149 0 249.5 110.5t137.5 294.5l44 218q37 190 -45 306.5t-250 116.5h-158l-85 -426h226l-33 -166h-226z" />
<glyph unicode="&#xd1;" horiz-adv-x="1337" d="M64 0l285 1427h234l365 -1020h6l203 1020h235l-286 -1427h-234l-364 1021h-6l-204 -1021h-234zM574 1605q14 95 79 161.5t149 66.5q48 0 124 -43.5t124 -43.5q33 0 63.5 31t37.5 76l119 -38q-16 -96 -81 -160t-150 -64q-60 0 -130 43.5t-117 43.5q-33 0 -63 -32t-37 -76z " />
<glyph unicode="&#xd2;" horiz-adv-x="1286" d="M132 591l51 257q56 281 221.5 440t406.5 159q231 0 371.5 -179.5t89.5 -432.5l-51 -257q-57 -281 -228 -440t-418 -159q-225 0 -360 179t-83 433zM366 591q-39 -188 31.5 -302.5t216.5 -114.5q136 0 237 112t137 292l52 259q36 186 -40 300t-228 114 q-129 0 -224.5 -111.5t-131.5 -289.5zM592 1810h264l125 -260h-187z" />
<glyph unicode="&#xd3;" horiz-adv-x="1286" d="M132 591l51 257q56 281 221.5 440t406.5 159q231 0 371.5 -179.5t89.5 -432.5l-51 -257q-57 -281 -228 -440t-418 -159q-225 0 -360 179t-83 433zM366 591q-39 -188 31.5 -302.5t216.5 -114.5q136 0 237 112t137 292l52 259q36 186 -40 300t-228 114 q-129 0 -224.5 -111.5t-131.5 -289.5zM760 1549l215 260h265l-298 -260h-182z" />
<glyph unicode="&#xd4;" horiz-adv-x="1286" d="M132 591l51 257q56 281 221.5 440t406.5 159q231 0 371.5 -179.5t89.5 -432.5l-51 -257q-57 -281 -228 -440t-418 -159q-225 0 -360 179t-83 433zM366 591q-39 -188 31.5 -302.5t216.5 -114.5q136 0 237 112t137 292l52 259q36 186 -40 300t-228 114 q-129 0 -224.5 -111.5t-131.5 -289.5zM567 1586l6 25l292 237h134l198 -239l-5 -23h-186l-100 136l-154 -136h-185z" />
<glyph unicode="&#xd5;" horiz-adv-x="1286" d="M132 591l51 257q56 281 221.5 440t406.5 159q231 0 371.5 -179.5t89.5 -432.5l-51 -257q-57 -281 -228 -440t-418 -159q-225 0 -360 179t-83 433zM366 591q-39 -188 31.5 -302.5t216.5 -114.5q136 0 237 112t137 292l52 259q36 186 -40 300t-228 114 q-129 0 -224.5 -111.5t-131.5 -289.5zM556 1625q14 95 79 161.5t149 66.5q48 0 124 -43.5t124 -43.5q33 0 63.5 31t37.5 76l119 -38q-16 -96 -81 -160t-150 -64q-60 0 -130 43.5t-117 43.5q-33 0 -63 -32t-37 -76z" />
<glyph unicode="&#xd6;" horiz-adv-x="1286" d="M132 591l51 257q56 281 221.5 440t406.5 159q231 0 371.5 -179.5t89.5 -432.5l-51 -257q-57 -281 -228 -440t-418 -159q-225 0 -360 179t-83 433zM366 591q-39 -188 31.5 -302.5t216.5 -114.5q136 0 237 112t137 292l52 259q36 186 -40 300t-228 114 q-129 0 -224.5 -111.5t-131.5 -289.5zM544 1590l33 200h227l-32 -200h-228zM985 1590l33 200h228l-32 -200h-229z" />
<glyph unicode="&#xd7;" horiz-adv-x="1007" d="M62 357l350 314l-226 317l173 147l221 -313l348 313l113 -147l-353 -317l224 -314l-171 -147l-222 309l-345 -309z" />
<glyph unicode="&#xd8;" horiz-adv-x="1291" d="M53 -93l167 225q-67 84 -91 201t3 252l52 257q55 277 235.5 441t423.5 164q81 0 153.5 -25.5t130.5 -72.5l103 139h140l-166 -223q57 -83 76 -192.5t-4 -230.5l-52 -257q-56 -278 -240 -442t-433 -164q-71 0 -133.5 19.5t-114.5 56.5l-110 -148h-140zM351 445.5 q1 -64.5 17 -107.5l5 -1l623 836q-34 37 -82.5 57.5t-109.5 20.5q-132 0 -241.5 -116.5t-145.5 -290.5l-51 -259q-16 -75 -15 -139.5zM431 227q30 -26 69.5 -39.5t89.5 -13.5q137 0 251.5 117.5t149.5 293.5l52 259q11 60 12.5 111.5t-6.5 91.5l-6 2z" />
<glyph unicode="&#xd9;" horiz-adv-x="1283" d="M134 470l191 957h235l-192 -957q-32 -159 28.5 -229.5t192.5 -70.5q125 0 223 76t128 224l191 957h234l-191 -957q-51 -252 -216.5 -371.5t-406.5 -119.5q-216 0 -340 129t-77 362zM586 1789h264l125 -260h-187z" />
<glyph unicode="&#xda;" horiz-adv-x="1283" d="M134 470l191 957h235l-192 -957q-32 -159 28.5 -229.5t192.5 -70.5q125 0 223 76t128 224l191 957h234l-191 -957q-51 -252 -216.5 -371.5t-406.5 -119.5q-216 0 -340 129t-77 362zM754 1528l215 260h265l-298 -260h-182z" />
<glyph unicode="&#xdb;" horiz-adv-x="1283" d="M134 470l191 957h235l-192 -957q-32 -159 28.5 -229.5t192.5 -70.5q125 0 223 76t128 224l191 957h234l-191 -957q-51 -252 -216.5 -371.5t-406.5 -119.5q-216 0 -340 129t-77 362zM561 1565l6 25l292 237h134l198 -239l-5 -23h-186l-100 136l-154 -136h-185z" />
<glyph unicode="&#xdc;" horiz-adv-x="1283" d="M134 470l191 957h235l-192 -957q-32 -159 28.5 -229.5t192.5 -70.5q125 0 223 76t128 224l191 957h234l-191 -957q-51 -252 -216.5 -371.5t-406.5 -119.5q-216 0 -340 129t-77 362zM538 1569l33 200h227l-32 -200h-228zM979 1569l33 200h228l-32 -200h-229z" />
<glyph unicode="&#xdd;" horiz-adv-x="1182" d="M222 1427h262l171 -670l6 -1l441 671h261l-643 -928l-100 -499h-233l103 516zM705 1528l215 260h265l-298 -260h-182z" />
<glyph unicode="&#xde;" horiz-adv-x="1127" d="M53 0l285 1427h234l-55 -275h216q208 0 315.5 -121t71.5 -308q-42 -205 -186.5 -317t-371.5 -112h-216l-59 -294h-234zM384 485h216q110 0 187.5 69.5t97.5 166.5q21 108 -24.5 174t-165.5 66h-214l-2 2z" />
<glyph unicode="&#xdf;" horiz-adv-x="1158" d="M44 0l215 1071q46 234 180.5 349.5t326.5 115.5q148 0 236 -91.5t55 -257.5q-24 -123 -97 -219.5t-84 -155.5q-16 -75 103 -210.5t92 -269.5q-38 -188 -151 -270.5t-302 -82.5q-70 0 -145 17.5t-105 43.5l86 193q32 -24 82.5 -43.5t107.5 -19.5q76 0 126 41.5t64 108.5 q17 84 -102.5 216t-91.5 272q18 93 96 192.5t93 170.5q16 83 -16.5 128.5t-89.5 45.5q-74 0 -140.5 -73.5t-91.5 -202.5l-214 -1069h-233z" />
<glyph unicode="&#xe0;" horiz-adv-x="1027" d="M68 299q32 164 158.5 244.5t335.5 80.5h154l19 93q18 89 -16 133.5t-116 44.5q-70 0 -124 -40t-65 -100h-225l-2 5q22 134 152 227t315 93q162 0 256 -96t60 -269l-94 -471q-15 -71 -18 -128.5t4 -115.5h-237q-4 33 -4.5 65.5t2.5 64.5q-60 -65 -139 -108t-164 -43 q-140 0 -211 88t-41 232zM303 303q-14 -65 13 -98.5t95 -33.5q64 0 132 35t107 85l37 184h-159q-84 0 -147.5 -52t-77.5 -120zM388 1473h264l125 -260h-187z" />
<glyph unicode="&#xe1;" horiz-adv-x="1027" d="M68 299q32 164 158.5 244.5t335.5 80.5h154l19 93q18 89 -16 133.5t-116 44.5q-70 0 -124 -40t-65 -100h-225l-2 5q22 134 152 227t315 93q162 0 256 -96t60 -269l-94 -471q-15 -71 -18 -128.5t4 -115.5h-237q-4 33 -4.5 65.5t2.5 64.5q-60 -65 -139 -108t-164 -43 q-140 0 -211 88t-41 232zM303 303q-14 -65 13 -98.5t95 -33.5q64 0 132 35t107 85l37 184h-159q-84 0 -147.5 -52t-77.5 -120zM556 1212l215 260h265l-298 -260h-182z" />
<glyph unicode="&#xe2;" horiz-adv-x="1027" d="M68 299q32 164 158.5 244.5t335.5 80.5h154l19 93q18 89 -16 133.5t-116 44.5q-70 0 -124 -40t-65 -100h-225l-2 5q22 134 152 227t315 93q162 0 256 -96t60 -269l-94 -471q-15 -71 -18 -128.5t4 -115.5h-237q-4 33 -4.5 65.5t2.5 64.5q-60 -65 -139 -108t-164 -43 q-140 0 -211 88t-41 232zM303 303q-14 -65 13 -98.5t95 -33.5q64 0 132 35t107 85l37 184h-159q-84 0 -147.5 -52t-77.5 -120zM363 1250l6 25l292 237h134l198 -239l-5 -23h-186l-100 136l-154 -136h-185z" />
<glyph unicode="&#xe3;" horiz-adv-x="1027" d="M68 299q32 164 158.5 244.5t335.5 80.5h154l19 93q18 89 -16 133.5t-116 44.5q-70 0 -124 -40t-65 -100h-225l-2 5q22 134 152 227t315 93q162 0 256 -96t60 -269l-94 -471q-15 -71 -18 -128.5t4 -115.5h-237q-4 33 -4.5 65.5t2.5 64.5q-60 -65 -139 -108t-164 -43 q-140 0 -211 88t-41 232zM303 303q-14 -65 13 -98.5t95 -33.5q64 0 132 35t107 85l37 184h-159q-84 0 -147.5 -52t-77.5 -120zM352 1289q14 95 79 161.5t149 66.5q48 0 124 -43.5t124 -43.5q33 0 63.5 31t37.5 76l119 -38q-16 -96 -81 -160t-150 -64q-60 0 -130 43.5 t-117 43.5q-33 0 -63 -32t-37 -76z" />
<glyph unicode="&#xe4;" horiz-adv-x="1027" d="M68 299q32 164 158.5 244.5t335.5 80.5h154l19 93q18 89 -16 133.5t-116 44.5q-70 0 -124 -40t-65 -100h-225l-2 5q22 134 152 227t315 93q162 0 256 -96t60 -269l-94 -471q-15 -71 -18 -128.5t4 -115.5h-237q-4 33 -4.5 65.5t2.5 64.5q-60 -65 -139 -108t-164 -43 q-140 0 -211 88t-41 232zM303 303q-14 -65 13 -98.5t95 -33.5q64 0 132 35t107 85l37 184h-159q-84 0 -147.5 -52t-77.5 -120zM340 1253l33 200h227l-32 -200h-228zM781 1253l33 200h228l-32 -200h-229z" />
<glyph unicode="&#xe5;" horiz-adv-x="1027" d="M68 299q32 164 158.5 244.5t335.5 80.5h154l19 93q18 89 -16 133.5t-116 44.5q-70 0 -124 -40t-65 -100h-225l-2 5q22 134 152 227t315 93q162 0 256 -96t60 -269l-94 -471q-15 -71 -18 -128.5t4 -115.5h-237q-4 33 -4.5 65.5t2.5 64.5q-60 -65 -139 -108t-164 -43 q-140 0 -211 88t-41 232zM303 303q-14 -65 13 -98.5t95 -33.5q64 0 132 35t107 85l37 184h-159q-84 0 -147.5 -52t-77.5 -120zM505 1387q18 88 85 141t152 53q77 0 124.5 -56.5t31.5 -137.5q-19 -89 -84 -139.5t-148 -50.5q-79 0 -128.5 54t-32.5 136zM609 1387 q-9 -45 12.5 -72t61.5 -27q37 0 69.5 28.5t41.5 70.5q10 47 -10.5 74.5t-59.5 27.5q-38 0 -72 -29.5t-43 -72.5z" />
<glyph unicode="&#xe6;" horiz-adv-x="1585" d="M26 306q34 164 158.5 243.5t339.5 79.5h184l13 70q19 94 -11.5 142t-105.5 48t-133 -44.5t-70 -107.5l-221 18l-2 5q26 147 152.5 233.5t313.5 86.5q88 0 158.5 -31t112.5 -90q69 60 153 90.5t177 30.5q184 0 272.5 -131t44.5 -349l-27 -138h-621q-21 -141 25.5 -216.5 t171.5 -75.5q84 0 150 24t144 66l38 -162q-60 -44 -160.5 -81.5t-223.5 -37.5q-112 0 -197 45t-133 126q-67 -73 -176 -122t-245 -49q-155 0 -232.5 89.5t-49.5 237.5zM262 302q-14 -68 17 -104.5t111 -36.5q54 0 127.5 35.5t119.5 82.5l37 187h-180q-88 0 -154 -49 t-78 -115zM956 635l3 -6h378l6 30q21 109 -10.5 169.5t-126.5 60.5q-84 0 -150.5 -71t-99.5 -183z" />
<glyph unicode="&#xe7;" horiz-adv-x="991" d="M91 513l5 34q38 239 178 386t361 147q173 0 270 -112t65 -283l-2 -5h-213q14 91 -26 150t-124 59q-116 0 -183.5 -99t-91.5 -243l-5 -34q-25 -155 9 -249t156 -94q75 0 137 51t75 129h211l2 -6q-20 -156 -153.5 -260.5t-301.5 -104.5q-212 0 -309 152.5t-60 381.5z M258 -435l19 127q49 0 86.5 22t47.5 65q9 46 -17.5 62.5t-99.5 21.5l57 136h170l-21 -53q54 -11 84 -51t15 -119q-22 -106 -108 -161t-228 -53z" />
<glyph unicode="&#xe8;" horiz-adv-x="1001" d="M99 506l6 39q38 240 184.5 388t334.5 147q195 0 284 -131t54 -347l-22 -140h-613q-13 -135 35 -213.5t159 -78.5q84 0 153.5 24t134.5 67l49 -156q-63 -53 -161 -89.5t-221 -36.5q-204 0 -309 149t-68 378zM352 1474h264l125 -260h-187zM366 641l2 -5h368l4 25 q16 104 -18.5 166t-127.5 62q-75 0 -137 -70t-91 -178z" />
<glyph unicode="&#xe9;" horiz-adv-x="1001" d="M99 506l6 39q38 240 184.5 388t334.5 147q195 0 284 -131t54 -347l-22 -140h-613q-13 -135 35 -213.5t159 -78.5q84 0 153.5 24t134.5 67l49 -156q-63 -53 -161 -89.5t-221 -36.5q-204 0 -309 149t-68 378zM366 641l2 -5h368l4 25q16 104 -18.5 166t-127.5 62 q-75 0 -137 -70t-91 -178zM520 1213l215 260h265l-298 -260h-182z" />
<glyph unicode="&#xea;" horiz-adv-x="1001" d="M99 506l6 39q38 240 184.5 388t334.5 147q195 0 284 -131t54 -347l-22 -140h-613q-13 -135 35 -213.5t159 -78.5q84 0 153.5 24t134.5 67l49 -156q-63 -53 -161 -89.5t-221 -36.5q-204 0 -309 149t-68 378zM327 1251l6 25l292 237h134l198 -239l-5 -23h-186l-100 136 l-154 -136h-185zM366 641l2 -5h368l4 25q16 104 -18.5 166t-127.5 62q-75 0 -137 -70t-91 -178z" />
<glyph unicode="&#xeb;" horiz-adv-x="1001" d="M99 506l6 39q38 240 184.5 388t334.5 147q195 0 284 -131t54 -347l-22 -140h-613q-13 -135 35 -213.5t159 -78.5q84 0 153.5 24t134.5 67l49 -156q-63 -53 -161 -89.5t-221 -36.5q-204 0 -309 149t-68 378zM304 1254l33 200h227l-32 -200h-228zM366 641l2 -5h368l4 25 q16 104 -18.5 166t-127.5 62q-75 0 -137 -70t-91 -178zM745 1254l33 200h228l-32 -200h-229z" />
<glyph unicode="&#xec;" horiz-adv-x="509" d="M49 0l212 1060h235l-212 -1060h-235zM128 1453h264l125 -260h-187z" />
<glyph unicode="&#xed;" horiz-adv-x="509" d="M49 0l212 1060h235l-212 -1060h-235zM295 1192l215 260h265l-298 -260h-182z" />
<glyph unicode="&#xee;" horiz-adv-x="509" d="M49 0l212 1060h235l-212 -1060h-235zM103 1229l6 25l292 237h134l198 -239l-5 -23h-186l-100 136l-154 -136h-185z" />
<glyph unicode="&#xef;" horiz-adv-x="509" d="M49 0l212 1060h235l-212 -1060h-235zM80 1233l33 200h227l-32 -200h-228zM521 1233l33 200h228l-32 -200h-229z" />
<glyph unicode="&#xf0;" horiz-adv-x="1114" d="M64 459q46 236 196 365.5t356 129.5q68 0 127 -28t98 -75l4 4q1 89 -20 161t-60 127l-258 -139l-53 106l222 120q-27 19 -58 35t-65 30l109 192q69 -20 129 -54.5t109 -81.5l221 120l53 -107l-198 -107q75 -116 97 -274t-16 -347l-17 -85q-54 -269 -219.5 -420.5 t-377.5 -151.5q-196 0 -308 140.5t-71 339.5zM299 459q-26 -126 23 -207.5t163 -81.5q103 0 195.5 109t125.5 272l17 87l5 25q-21 47 -79.5 76.5t-148.5 29.5q-102 0 -189 -90t-112 -220z" />
<glyph unicode="&#xf1;" d="M33 0l212 1060h215l-16 -141q64 78 144.5 119.5t171.5 41.5q144 0 214.5 -102.5t29.5 -311.5l-134 -666h-234l133 664q25 128 -8 174.5t-127 46.5q-58 0 -113.5 -31.5t-100.5 -86.5l-152 -767h-235zM376 1289q14 95 79 161.5t149 66.5q48 0 124 -43.5t124 -43.5 q33 0 63.5 31t37.5 76l119 -38q-16 -96 -81 -160t-150 -64q-60 0 -130 43.5t-117 43.5q-33 0 -63 -32t-37 -76z" />
<glyph unicode="&#xf2;" d="M95 519l3 21q39 246 182 393t357 147q205 0 306 -153t63 -387l-2 -21q-41 -248 -183.5 -394t-356.5 -146q-205 0 -306 152.5t-63 387.5zM329 519q-26 -161 12 -255t153 -94q107 0 179 98.5t96 250.5l3 21q25 159 -13.5 254t-151.5 95q-107 0 -179 -99.5t-96 -249.5z M376 1473h264l125 -260h-187z" />
<glyph unicode="&#xf3;" d="M95 519l3 21q39 246 182 393t357 147q205 0 306 -153t63 -387l-2 -21q-41 -248 -183.5 -394t-356.5 -146q-205 0 -306 152.5t-63 387.5zM329 519q-26 -161 12 -255t153 -94q107 0 179 98.5t96 250.5l3 21q25 159 -13.5 254t-151.5 95q-107 0 -179 -99.5t-96 -249.5z M545 1212l215 260h265l-298 -260h-182z" />
<glyph unicode="&#xf4;" d="M95 519l3 21q39 246 182 393t357 147q205 0 306 -153t63 -387l-2 -21q-41 -248 -183.5 -394t-356.5 -146q-205 0 -306 152.5t-63 387.5zM329 519q-26 -161 12 -255t153 -94q107 0 179 98.5t96 250.5l3 21q25 159 -13.5 254t-151.5 95q-107 0 -179 -99.5t-96 -249.5z M351 1250l6 25l292 237h134l198 -239l-5 -23h-186l-100 136l-154 -136h-185z" />
<glyph unicode="&#xf5;" d="M95 519l3 21q39 246 182 393t357 147q205 0 306 -153t63 -387l-2 -21q-41 -248 -183.5 -394t-356.5 -146q-205 0 -306 152.5t-63 387.5zM329 519q-26 -161 12 -255t153 -94q107 0 179 98.5t96 250.5l3 21q25 159 -13.5 254t-151.5 95q-107 0 -179 -99.5t-96 -249.5z M340 1289q14 95 79 161.5t149 66.5q48 0 124 -43.5t124 -43.5q33 0 63.5 31t37.5 76l119 -38q-16 -96 -81 -160t-150 -64q-60 0 -130 43.5t-117 43.5q-33 0 -63 -32t-37 -76z" />
<glyph unicode="&#xf6;" d="M95 519l3 21q39 246 182 393t357 147q205 0 306 -153t63 -387l-2 -21q-41 -248 -183.5 -394t-356.5 -146q-205 0 -306 152.5t-63 387.5zM328 1253l33 200h227l-32 -200h-228zM329 519q-26 -161 12 -255t153 -94q107 0 179 98.5t96 250.5l3 21q25 159 -13.5 254t-151.5 95 q-107 0 -179 -99.5t-96 -249.5zM769 1253l33 200h228l-32 -200h-229z" />
<glyph unicode="&#xf7;" horiz-adv-x="1076" d="M96 570l42 208h923l-42 -208h-923zM363 167l43 216h231l-43 -216h-231zM522 965l43 217h232l-43 -217h-232z" />
<glyph unicode="&#xf8;" horiz-adv-x="1071" d="M61 -135l140 213q-74 72 -101.5 187t-4.5 254l3 21q39 246 182 393t357 147q54 0 101.5 -12.5t89.5 -33.5l101 154h137l-149 -228q63 -73 86 -182.5t3 -237.5l-2 -21q-41 -248 -183.5 -394t-356.5 -146q-48 0 -90.5 9.5t-78.5 25.5l-98 -149h-136zM317.5 387.5 q0.5 -59.5 16.5 -96.5l6 -2l371 568q-20 15 -46 23.5t-58 8.5q-107 0 -179 -99.5t-96 -249.5l-3 -21q-12 -72 -11.5 -131.5zM409 188q16 -10 37.5 -14t47.5 -4q107 0 179 98.5t96 250.5l3 21q9 59 9.5 109t-7.5 84l-6 2z" />
<glyph unicode="&#xf9;" d="M116 426l126 634h233l-126 -636q-31 -149 -3 -200t113 -51q71 0 131.5 32t103.5 91l153 764h234l-212 -1060h-207l12 134q-62 -76 -139.5 -115.5t-169.5 -39.5q-150 0 -222.5 111t-26.5 336zM407 1453h264l125 -260h-187z" />
<glyph unicode="&#xfa;" d="M116 426l126 634h233l-126 -636q-31 -149 -3 -200t113 -51q71 0 131.5 32t103.5 91l153 764h234l-212 -1060h-207l12 134q-62 -76 -139.5 -115.5t-169.5 -39.5q-150 0 -222.5 111t-26.5 336zM576 1192l215 260h265l-298 -260h-182z" />
<glyph unicode="&#xfb;" d="M116 426l126 634h233l-126 -636q-31 -149 -3 -200t113 -51q71 0 131.5 32t103.5 91l153 764h234l-212 -1060h-207l12 134q-62 -76 -139.5 -115.5t-169.5 -39.5q-150 0 -222.5 111t-26.5 336zM382 1229l6 25l292 237h134l198 -239l-5 -23h-186l-100 136l-154 -136h-185z " />
<glyph unicode="&#xfc;" d="M116 426l126 634h233l-126 -636q-31 -149 -3 -200t113 -51q71 0 131.5 32t103.5 91l153 764h234l-212 -1060h-207l12 134q-62 -76 -139.5 -115.5t-169.5 -39.5q-150 0 -222.5 111t-26.5 336zM359 1233l33 200h227l-32 -200h-228zM800 1233l33 200h228l-32 -200h-229z" />
<glyph unicode="&#xfd;" horiz-adv-x="960" d="M-70 -409l63 185q12 -1 33 -3t33 -2q54 0 103 47.5t76 98.5l55 95l-147 1048h256l51 -635l1 -87l6 -1l351 723h257l-650 -1221q-61 -109 -149 -188t-219 -79q-26 0 -58.5 6t-61.5 13zM522 1192l215 260h265l-298 -260h-182z" />
<glyph unicode="&#xfe;" horiz-adv-x="1084" d="M-39 -408l81 408l16 81l196 979l94 469h234l-111 -556q54 51 118.5 79t135.5 28q172 0 254.5 -168.5t33.5 -415.5l-4 -21q-50 -247 -165.5 -371.5t-298.5 -124.5q-79 0 -143.5 30.5t-105.5 87.5l-20 -97l-81 -408h-234zM330 269q20 -49 64.5 -74t114.5 -25 q103 0 171 81.5t96 223.5l4 21q34 172 -3.5 280.5t-149.5 108.5q-58 0 -109 -35t-91 -94z" />
<glyph unicode="&#xff;" horiz-adv-x="960" d="M-70 -409l63 185q12 -1 33 -3t33 -2q54 0 103 47.5t76 98.5l55 95l-147 1048h256l51 -635l1 -87l6 -1l351 723h257l-650 -1221q-61 -109 -149 -188t-219 -79q-26 0 -58.5 6t-61.5 13zM306 1233l33 200h227l-32 -200h-228zM747 1233l33 200h228l-32 -200h-229z" />
<glyph unicode="&#x100;" horiz-adv-x="1231" d="M-58 0l771 1427h222l195 -1427h-237l-38 333h-504l-173 -333h-236zM454 532h378l-67 590l-5 1zM547 1591l24 155h669l-24 -155h-669z" />
<glyph unicode="&#x101;" horiz-adv-x="1027" d="M68 299q32 164 158.5 244.5t335.5 80.5h154l19 93q18 89 -16 133.5t-116 44.5q-70 0 -124 -40t-65 -100h-225l-2 5q22 134 152 227t315 93q162 0 256 -96t60 -269l-94 -471q-15 -71 -18 -128.5t4 -115.5h-237q-4 33 -4.5 65.5t2.5 64.5q-60 -65 -139 -108t-164 -43 q-140 0 -211 88t-41 232zM303 303q-14 -65 13 -98.5t95 -33.5q64 0 132 35t107 85l37 184h-159q-84 0 -147.5 -52t-77.5 -120zM349 1276l24 155h669l-24 -155h-669z" />
<glyph unicode="&#x102;" horiz-adv-x="1231" d="M-58 0l771 1427h222l195 -1427h-237l-38 333h-504l-173 -333h-236zM454 532h378l-67 590l-5 1zM627 1841l2 5h175q-10 -58 12.5 -93.5t82.5 -35.5q56 0 91.5 36.5t44.5 92.5h174l2 -6q-16 -124 -107 -197.5t-229 -73.5q-131 0 -201 76t-47 196z" />
<glyph unicode="&#x103;" horiz-adv-x="1027" d="M68 299q32 164 158.5 244.5t335.5 80.5h154l19 93q18 89 -16 133.5t-116 44.5q-70 0 -124 -40t-65 -100h-225l-2 5q22 134 152 227t315 93q162 0 256 -96t60 -269l-94 -471q-15 -71 -18 -128.5t4 -115.5h-237q-4 33 -4.5 65.5t2.5 64.5q-60 -65 -139 -108t-164 -43 q-140 0 -211 88t-41 232zM303 303q-14 -65 13 -98.5t95 -33.5q64 0 132 35t107 85l37 184h-159q-84 0 -147.5 -52t-77.5 -120zM429 1526l2 5h175q-10 -58 12.5 -93.5t82.5 -35.5q56 0 91.5 36.5t44.5 92.5h174l2 -6q-16 -124 -107 -197.5t-229 -73.5q-131 0 -201 76t-47 196 z" />
<glyph unicode="&#x104;" horiz-adv-x="1231" d="M-58 0l771 1427h222l195 -1427h-237l-38 333h-504l-173 -333h-236zM454 532h378l-67 590l-5 1zM735 -212q17 83 79.5 149.5t183.5 121.5l81 -59q-66 -49 -103.5 -91t-47.5 -92q-8 -36 6.5 -57.5t62.5 -21.5q22 0 44.5 7t45.5 16l6 -139q-37 -19 -81.5 -31t-99.5 -12 q-90 0 -142.5 56t-34.5 153z" />
<glyph unicode="&#x105;" horiz-adv-x="1027" d="M68 299q32 164 158.5 244.5t335.5 80.5h154l19 93q18 89 -16 133.5t-116 44.5q-70 0 -124 -40t-65 -100h-225l-2 5q22 134 152 227t315 93q162 0 256 -96t60 -269l-94 -471q-15 -71 -18 -128.5t4 -115.5h-237q-4 33 -4.5 65.5t2.5 64.5q-60 -65 -139 -108t-164 -43 q-140 0 -211 88t-41 232zM303 303q-14 -65 13 -98.5t95 -33.5q64 0 132 35t107 85l37 184h-159q-84 0 -147.5 -52t-77.5 -120zM467 -212q17 83 79.5 149.5t183.5 121.5l81 -59q-66 -49 -103.5 -91t-47.5 -92q-8 -36 6.5 -57.5t62.5 -21.5q22 0 44.5 7t45.5 16l6 -139 q-37 -19 -81.5 -31t-99.5 -12q-90 0 -142.5 56t-34.5 153z" />
<glyph unicode="&#x106;" horiz-adv-x="1194" d="M132 584l54 271q56 282 213 437t388 155q220 0 345 -137.5t98 -359.5l-2 -5h-228q13 147 -44 229t-194 82q-120 0 -213 -112.5t-128 -286.5l-54 -273q-38 -186 25 -300t202 -114q120 0 191.5 71t117.5 220h225l2 -6q-60 -226 -196 -351t-362 -125q-221 0 -356 175.5 t-84 429.5zM737 1549l215 260h265l-298 -260h-182z" />
<glyph unicode="&#x107;" horiz-adv-x="991" d="M91 513l5 34q38 239 178 386t361 147q173 0 270 -112t65 -283l-2 -5h-213q14 91 -26 150t-124 59q-116 0 -183.5 -99t-91.5 -243l-5 -34q-25 -155 9 -249t156 -94q75 0 137 51t75 129h211l2 -6q-20 -156 -153.5 -260.5t-301.5 -104.5q-212 0 -309 152.5t-60 381.5z M504 1212l215 260h265l-298 -260h-182z" />
<glyph unicode="&#x108;" horiz-adv-x="1194" d="M132 584l54 271q56 282 213 437t388 155q220 0 345 -137.5t98 -359.5l-2 -5h-228q13 147 -44 229t-194 82q-120 0 -213 -112.5t-128 -286.5l-54 -273q-38 -186 25 -300t202 -114q120 0 191.5 71t117.5 220h225l2 -6q-60 -226 -196 -351t-362 -125q-221 0 -356 175.5 t-84 429.5zM543 1586l6 25l292 237h134l198 -239l-5 -23h-186l-100 136l-154 -136h-185z" />
<glyph unicode="&#x109;" horiz-adv-x="991" d="M91 513l5 34q38 239 178 386t361 147q173 0 270 -112t65 -283l-2 -5h-213q14 91 -26 150t-124 59q-116 0 -183.5 -99t-91.5 -243l-5 -34q-25 -155 9 -249t156 -94q75 0 137 51t75 129h211l2 -6q-20 -156 -153.5 -260.5t-301.5 -104.5q-212 0 -309 152.5t-60 381.5z M310 1250l6 25l292 237h134l198 -239l-5 -23h-186l-100 136l-154 -136h-185z" />
<glyph unicode="&#x10a;" horiz-adv-x="1194" d="M132 584l54 271q56 282 213 437t388 155q220 0 345 -137.5t98 -359.5l-2 -5h-228q13 147 -44 229t-194 82q-120 0 -213 -112.5t-128 -286.5l-54 -273q-38 -186 25 -300t202 -114q120 0 191.5 71t117.5 220h225l2 -6q-60 -226 -196 -351t-362 -125q-221 0 -356 175.5 t-84 429.5zM730 1590l43 219h248l-43 -219h-248z" />
<glyph unicode="&#x10b;" horiz-adv-x="991" d="M91 513l5 34q38 239 178 386t361 147q173 0 270 -112t65 -283l-2 -5h-213q14 91 -26 150t-124 59q-116 0 -183.5 -99t-91.5 -243l-5 -34q-25 -155 9 -249t156 -94q75 0 137 51t75 129h211l2 -6q-20 -156 -153.5 -260.5t-301.5 -104.5q-212 0 -309 152.5t-60 381.5z M497 1254l43 219h248l-43 -219h-248z" />
<glyph unicode="&#x10c;" horiz-adv-x="1194" d="M132 584l54 271q56 282 213 437t388 155q220 0 345 -137.5t98 -359.5l-2 -5h-228q13 147 -44 229t-194 82q-120 0 -213 -112.5t-128 -286.5l-54 -273q-38 -186 25 -300t202 -114q120 0 191.5 71t117.5 220h225l2 -6q-60 -226 -196 -351t-362 -125q-221 0 -356 175.5 t-84 429.5zM582 1833l4 19h204l90 -132l143 132h206l-3 -17l-298 -245h-148z" />
<glyph unicode="&#x10d;" horiz-adv-x="991" d="M91 513l5 34q38 239 178 386t361 147q173 0 270 -112t65 -283l-2 -5h-213q14 91 -26 150t-124 59q-116 0 -183.5 -99t-91.5 -243l-5 -34q-25 -155 9 -249t156 -94q75 0 137 51t75 129h211l2 -6q-20 -156 -153.5 -260.5t-301.5 -104.5q-212 0 -309 152.5t-60 381.5z M349 1496l4 19h204l90 -132l143 132h206l-3 -17l-298 -245h-148z" />
<glyph unicode="&#x10e;" horiz-adv-x="1236" d="M64 0l285 1427h399q240 0 387.5 -178t96.5 -438l-44 -216q-58 -288 -227 -441.5t-426 -153.5h-471zM336 190h230q149 0 249.5 110.5t138.5 294.5l44 218q37 190 -45.5 306.5t-249.5 116.5h-158zM517 1812l4 19h204l90 -132l143 132h206l-3 -17l-298 -245h-148z" />
<glyph unicode="&#x10f;" horiz-adv-x="1217" d="M97 514l4 21q54 271 172.5 408t304.5 137q76 0 138 -32.5t103 -91.5l115 573h234l-306 -1529h-201l5 105q-57 -62 -126.5 -94t-145.5 -32q-171 0 -256.5 154.5t-40.5 380.5zM332 514q-31 -156 5 -248.5t149 -92.5q59 0 110.5 35t93.5 98l93 469q-22 52 -66.5 81 t-108.5 29q-103 0 -171.5 -94.5t-100.5 -255.5zM1155 1147l106 243l27 139h168l-30 -149l-167 -233h-104z" />
<glyph unicode="&#x110;" horiz-adv-x="1266" d="M80 644l34 166h141l123 617h399q240 0 387.5 -178t96.5 -438l-44 -216q-58 -288 -227 -441.5t-426 -153.5h-471l128 644h-141zM366 190h230q149 0 249.5 110.5t137.5 294.5l44 218q37 190 -45 306.5t-250 116.5h-158l-85 -426h226l-33 -166h-226z" />
<glyph unicode="&#x111;" horiz-adv-x="1099" d="M97 514l4 21q54 271 172.5 408t304.5 137q76 0 138 -32.5t103 -91.5l49 244h-211l33 167h212l32 162h234l-32 -162h156l-34 -167h-156l-240 -1200h-201l5 105q-57 -62 -126.5 -94t-145.5 -32q-171 0 -256.5 154.5t-40.5 380.5zM332 514q-31 -156 5 -248.5t149 -92.5 q59 0 110.5 35t93.5 98l93 469q-22 52 -66.5 81t-108.5 29q-103 0 -171.5 -94.5t-100.5 -255.5z" />
<glyph unicode="&#x112;" horiz-adv-x="1092" d="M64 0l285 1427h895l-39 -191h-660l-80 -403h574l-38 -191h-575l-90 -452h668l-39 -190h-901zM472 1591l24 155h669l-24 -155h-669z" />
<glyph unicode="&#x113;" horiz-adv-x="1001" d="M99 506l6 39q38 240 184.5 388t334.5 147q195 0 284 -131t54 -347l-22 -140h-613q-13 -135 35 -213.5t159 -78.5q84 0 153.5 24t134.5 67l49 -156q-63 -53 -161 -89.5t-221 -36.5q-204 0 -309 149t-68 378zM313 1277l24 155h669l-24 -155h-669zM366 641l2 -5h368l4 25 q16 104 -18.5 166t-127.5 62q-75 0 -137 -70t-91 -178z" />
<glyph unicode="&#x114;" horiz-adv-x="1092" d="M64 0l285 1427h895l-39 -191h-660l-80 -403h574l-38 -191h-575l-90 -452h668l-39 -190h-901zM551 1841l2 5h175q-10 -58 12.5 -93.5t82.5 -35.5q56 0 91.5 36.5t44.5 92.5h174l2 -6q-16 -124 -107 -197.5t-229 -73.5q-131 0 -201 76t-47 196z" />
<glyph unicode="&#x115;" horiz-adv-x="1001" d="M99 506l6 39q38 240 184.5 388t334.5 147q195 0 284 -131t54 -347l-22 -140h-613q-13 -135 35 -213.5t159 -78.5q84 0 153.5 24t134.5 67l49 -156q-63 -53 -161 -89.5t-221 -36.5q-204 0 -309 149t-68 378zM366 641l2 -5h368l4 25q16 104 -18.5 166t-127.5 62 q-75 0 -137 -70t-91 -178zM393 1527l2 5h175q-10 -58 12.5 -93.5t82.5 -35.5q56 0 91.5 36.5t44.5 92.5h174l2 -6q-16 -124 -107 -197.5t-229 -73.5q-131 0 -201 76t-47 196z" />
<glyph unicode="&#x116;" horiz-adv-x="1092" d="M64 0l285 1427h895l-39 -191h-660l-80 -403h574l-38 -191h-575l-90 -452h668l-39 -190h-901zM673 1570l43 219h248l-43 -219h-248z" />
<glyph unicode="&#x117;" horiz-adv-x="1001" d="M99 506l6 39q38 240 184.5 388t334.5 147q195 0 284 -131t54 -347l-22 -140h-613q-13 -135 35 -213.5t159 -78.5q84 0 153.5 24t134.5 67l49 -156q-63 -53 -161 -89.5t-221 -36.5q-204 0 -309 149t-68 378zM366 641l2 -5h368l4 25q16 104 -18.5 166t-127.5 62 q-75 0 -137 -70t-91 -178zM514 1255l43 219h248l-43 -219h-248z" />
<glyph unicode="&#x118;" horiz-adv-x="1092" d="M64 0l285 1427h895l-39 -191h-660l-80 -403h574l-38 -191h-575l-90 -452h668l-39 -190h-901zM381 -212q17 83 79.5 149.5t183.5 121.5l81 -59q-66 -49 -103.5 -91t-47.5 -92q-8 -36 6.5 -57.5t62.5 -21.5q22 0 44.5 7t45.5 16l6 -139q-37 -19 -81.5 -31t-99.5 -12 q-90 0 -142.5 56t-34.5 153z" />
<glyph unicode="&#x119;" horiz-adv-x="1001" d="M99 506l6 39q38 240 184.5 388t334.5 147q195 0 284 -131t54 -347l-22 -140h-613q-13 -135 35 -213.5t159 -78.5q84 0 153.5 24t134.5 67l49 -156q-63 -53 -161 -89.5t-221 -36.5q-204 0 -309 149t-68 378zM366 641l2 -5h368l4 25q16 104 -18.5 166t-127.5 62 q-75 0 -137 -70t-91 -178zM406 -161q17 83 79.5 149.5t183.5 121.5l81 -59q-66 -49 -103.5 -91t-47.5 -92q-8 -36 6.5 -57.5t62.5 -21.5q22 0 44.5 7t45.5 16l6 -139q-37 -19 -81.5 -31t-99.5 -12q-90 0 -142.5 56t-34.5 153z" />
<glyph unicode="&#x11a;" horiz-adv-x="1092" d="M64 0l285 1427h895l-39 -191h-660l-80 -403h574l-38 -191h-575l-90 -452h668l-39 -190h-901zM524 1812l4 19h204l90 -132l143 132h206l-3 -17l-298 -245h-148z" />
<glyph unicode="&#x11b;" horiz-adv-x="1001" d="M99 506l6 39q38 240 184.5 388t334.5 147q195 0 284 -131t54 -347l-22 -140h-613q-13 -135 35 -213.5t159 -78.5q84 0 153.5 24t134.5 67l49 -156q-63 -53 -161 -89.5t-221 -36.5q-204 0 -309 149t-68 378zM365 1497l4 19h204l90 -132l143 132h206l-3 -17l-298 -245h-148 zM366 641l2 -5h368l4 25q16 104 -18.5 166t-127.5 62q-75 0 -137 -70t-91 -178z" />
<glyph unicode="&#x11c;" horiz-adv-x="1269" d="M130 564l60 298q55 276 231 430.5t412 154.5q220 0 327.5 -123.5t89.5 -322.5l-2 -6h-223q4 122 -46.5 191.5t-180.5 69.5q-124 0 -232.5 -112t-142.5 -280l-59 -300q-37 -184 30 -289t211 -105q92 0 163 26t105 61l58 286h-253l35 178h487l-105 -528 q-71 -82 -204.5 -148t-324.5 -66q-225 0 -356 166t-80 419zM536 1586l6 25l292 237h134l198 -239l-5 -23h-186l-100 136l-154 -136h-185z" />
<glyph unicode="&#x11d;" horiz-adv-x="1069" d="M33 -348l88 187q47 -30 110.5 -47t132.5 -17q106 0 178 66.5t96 182.5l12 57q-55 -50 -118 -76t-133 -26q-171 0 -258 155t-42 380l4 21q54 271 173.5 408t306.5 137q81 0 147 -37.5t107 -104.5l42 122h201l-207 -1037q-45 -222 -186 -336.5t-362 -114.5q-67 0 -149.5 22 t-142.5 58zM333 514q-31 -155 7 -248t151 -93q61 0 111.5 34t91.5 96l94 473q-22 52 -66 80.5t-110 28.5q-102 0 -172.5 -95t-102.5 -255zM370 1250l6 25l292 237h134l198 -239l-5 -23h-186l-100 136l-154 -136h-185z" />
<glyph unicode="&#x11e;" horiz-adv-x="1269" d="M130 564l60 298q55 276 231 430.5t412 154.5q220 0 327.5 -123.5t89.5 -322.5l-2 -6h-223q4 122 -46.5 191.5t-180.5 69.5q-124 0 -232.5 -112t-142.5 -280l-59 -300q-37 -184 30 -289t211 -105q92 0 163 26t105 61l58 286h-253l35 178h487l-105 -528 q-71 -82 -204.5 -148t-324.5 -66q-225 0 -356 166t-80 419zM602 1862l2 5h175q-10 -58 12.5 -93.5t82.5 -35.5q56 0 91.5 36.5t44.5 92.5h174l2 -6q-16 -124 -107 -197.5t-229 -73.5q-131 0 -201 76t-47 196z" />
<glyph unicode="&#x11f;" horiz-adv-x="1069" d="M33 -348l88 187q47 -30 110.5 -47t132.5 -17q106 0 178 66.5t96 182.5l12 57q-55 -50 -118 -76t-133 -26q-171 0 -258 155t-42 380l4 21q54 271 173.5 408t306.5 137q81 0 147 -37.5t107 -104.5l42 122h201l-207 -1037q-45 -222 -186 -336.5t-362 -114.5q-67 0 -149.5 22 t-142.5 58zM333 514q-31 -155 7 -248t151 -93q61 0 111.5 34t91.5 96l94 473q-22 52 -66 80.5t-110 28.5q-102 0 -172.5 -95t-102.5 -255zM436 1526l2 5h175q-10 -58 12.5 -93.5t82.5 -35.5q56 0 91.5 36.5t44.5 92.5h174l2 -6q-16 -124 -107 -197.5t-229 -73.5 q-131 0 -201 76t-47 196z" />
<glyph unicode="&#x120;" horiz-adv-x="1269" d="M130 564l60 298q55 276 231 430.5t412 154.5q220 0 327.5 -123.5t89.5 -322.5l-2 -6h-223q4 122 -46.5 191.5t-180.5 69.5q-124 0 -232.5 -112t-142.5 -280l-59 -300q-37 -184 30 -289t211 -105q92 0 163 26t105 61l58 286h-253l35 178h487l-105 -528 q-71 -82 -204.5 -148t-324.5 -66q-225 0 -356 166t-80 419zM723 1590l43 219h248l-43 -219h-248z" />
<glyph unicode="&#x121;" horiz-adv-x="1069" d="M33 -348l88 187q47 -30 110.5 -47t132.5 -17q106 0 178 66.5t96 182.5l12 57q-55 -50 -118 -76t-133 -26q-171 0 -258 155t-42 380l4 21q54 271 173.5 408t306.5 137q81 0 147 -37.5t107 -104.5l42 122h201l-207 -1037q-45 -222 -186 -336.5t-362 -114.5q-67 0 -149.5 22 t-142.5 58zM333 514q-31 -155 7 -248t151 -93q61 0 111.5 34t91.5 96l94 473q-22 52 -66 80.5t-110 28.5q-102 0 -172.5 -95t-102.5 -255zM557 1254l43 219h248l-43 -219h-248z" />
<glyph unicode="&#x122;" horiz-adv-x="1269" d="M130 564l60 298q55 276 231 430.5t412 154.5q220 0 327.5 -123.5t89.5 -322.5l-2 -6h-223q4 122 -46.5 191.5t-180.5 69.5q-124 0 -232.5 -112t-142.5 -280l-59 -300q-37 -184 30 -289t211 -105q92 0 163 26t105 61l58 286h-253l35 178h487l-105 -528 q-71 -82 -204.5 -148t-324.5 -66q-225 0 -356 166t-80 419zM288 -490l106 243l27 139h168l-30 -149l-167 -233h-104z" />
<glyph unicode="&#x123;" horiz-adv-x="1069" d="M33 -348l88 187q47 -30 110.5 -47t132.5 -17q106 0 178 66.5t96 182.5l12 57q-55 -50 -118 -76t-133 -26q-171 0 -258 155t-42 380l4 21q54 271 173.5 408t306.5 137q81 0 147 -37.5t107 -104.5l42 122h201l-207 -1037q-45 -222 -186 -336.5t-362 -114.5q-67 0 -149.5 22 t-142.5 58zM333 514q-31 -155 7 -248t151 -93q61 0 111.5 34t91.5 96l94 473q-22 52 -66 80.5t-110 28.5q-102 0 -172.5 -95t-102.5 -255zM566 1229l33 161l162 250h120l-75 -260l-30 -151h-210z" />
<glyph unicode="&#x124;" horiz-adv-x="1337" d="M64 0l285 1427h234l-125 -627h575l125 627h234l-286 -1427h-233l122 609h-576l-121 -609h-234zM581 1565l6 25l292 237h134l198 -239l-5 -23h-186l-100 136l-154 -136h-185z" />
<glyph unicode="&#x125;" d="M32 0l306 1529h234l-118 -591q62 68 138 105t161 37q148 0 219.5 -108.5t28.5 -325.5l-130 -646h-234l129 648q27 134 -5.5 185.5t-126.5 51.5q-57 0 -112.5 -29.5t-100.5 -80.5l-154 -775h-235zM393 1565l6 25l292 237h134l198 -239l-5 -23h-186l-100 136l-154 -136 h-185z" />
<glyph unicode="&#x126;" horiz-adv-x="1327" d="M66 0l201 1005h-122l32 159h121l53 263h234l-53 -263h575l53 263h234l-53 -263h122l-32 -159h-122l-201 -1005h-233l122 609h-576l-121 -609h-234zM460 800h575l41 205h-575z" />
<glyph unicode="&#x127;" horiz-adv-x="1099" d="M62 0l239 1199h-146l33 166h146l34 164h234l-34 -164h222l-33 -166h-222l-52 -261q63 68 139 105t160 37q148 0 219.5 -108.5t28.5 -325.5l-129 -646h-235l130 648q26 134 -6 185.5t-127 51.5q-56 0 -112 -29.5t-100 -80.5l-155 -775h-234z" />
<glyph unicode="&#x128;" horiz-adv-x="550" d="M74 0l286 1427h234l-285 -1427h-235zM183 1605q14 95 79 161.5t149 66.5q48 0 124 -43.5t124 -43.5q33 0 63.5 31t37.5 76l119 -38q-16 -96 -81 -160t-150 -64q-60 0 -130 43.5t-117 43.5q-33 0 -63 -32t-37 -76z" />
<glyph unicode="&#x129;" horiz-adv-x="509" d="M49 0l212 1060h235l-212 -1060h-235zM92 1269q14 95 79 161.5t149 66.5q48 0 124 -43.5t124 -43.5q33 0 63.5 31t37.5 76l119 -38q-16 -96 -81 -160t-150 -64q-60 0 -130 43.5t-117 43.5q-33 0 -63 -32t-37 -76z" />
<glyph unicode="&#x12a;" horiz-adv-x="550" d="M74 0l286 1427h234l-285 -1427h-235zM181 1591l24 155h669l-24 -155h-669z" />
<glyph unicode="&#x12b;" horiz-adv-x="509" d="M49 0l212 1060h235l-212 -1060h-235zM90 1257l24 155h669l-24 -155h-669z" />
<glyph unicode="&#x12c;" horiz-adv-x="550" d="M74 0l286 1427h234l-285 -1427h-235zM260 1841l2 5h175q-10 -58 12.5 -93.5t82.5 -35.5q56 0 91.5 36.5t44.5 92.5h174l2 -6q-16 -124 -107 -197.5t-229 -73.5q-131 0 -201 76t-47 196z" />
<glyph unicode="&#x12d;" horiz-adv-x="509" d="M49 0l212 1060h235l-212 -1060h-235zM169 1505l2 5h175q-10 -58 12.5 -93.5t82.5 -35.5q56 0 91.5 36.5t44.5 92.5h174l2 -6q-16 -124 -107 -197.5t-229 -73.5q-131 0 -201 76t-47 196z" />
<glyph unicode="&#x12e;" horiz-adv-x="550" d="M-84 -212q17 83 79.5 149.5t183.5 121.5l81 -59q-66 -49 -103.5 -91t-47.5 -92q-8 -36 6.5 -57.5t62.5 -21.5q22 0 44.5 7t45.5 16l6 -139q-37 -19 -81.5 -31t-99.5 -12q-90 0 -142.5 56t-34.5 153zM74 0l286 1427h234l-285 -1427h-235z" />
<glyph unicode="&#x12f;" horiz-adv-x="500" d="M-109 -212q17 83 79.5 149.5t183.5 121.5l81 -59q-66 -49 -103.5 -91t-47.5 -92q-8 -36 6.5 -57.5t62.5 -21.5q22 0 44.5 7t45.5 16l6 -139q-37 -19 -81.5 -31t-99.5 -12q-90 0 -142.5 56t-34.5 153zM50 0l212 1060h234l-212 -1060h-234zM314 1320l42 209h234l-42 -209 h-234z" />
<glyph unicode="&#x130;" horiz-adv-x="550" d="M74 0l286 1427h234l-285 -1427h-235zM379 1570l43 219h248l-43 -219h-248z" />
<glyph unicode="&#x131;" horiz-adv-x="509" d="M49 0l212 1060h235l-212 -1060h-235z" />
<glyph unicode="&#x132;" horiz-adv-x="1608" d="M74 0l286 1427h234l-285 -1427h-235zM609 400l3 5h227q-26 -130 16 -182.5t140 -52.5q78 0 148 66.5t92 176.5l203 1014h234l-203 -1014q-43 -213 -182 -323.5t-330 -110.5q-188 0 -290.5 108.5t-57.5 312.5z" />
<glyph unicode="&#x133;" horiz-adv-x="1006" d="M50 0l212 1060h234l-212 -1060h-234zM273 -412l51 191q14 -5 36 -8.5t40 -3.5q51 0 91 42t58 129l224 1122h235l-225 -1122q-38 -186 -139.5 -276t-258.5 -90q-30 0 -57.5 4t-54.5 12zM314 1320l42 209h234l-42 -209h-234zM820 1323l42 206h235l-41 -206h-236z" />
<glyph unicode="&#x134;" horiz-adv-x="1057" d="M58 400l3 5h227q-26 -130 16 -182.5t140 -52.5q78 0 148 66.5t92 176.5l203 1014h234l-203 -1014q-43 -213 -182 -323.5t-330 -110.5q-188 0 -290.5 108.5t-57.5 312.5zM707 1557l6 25l292 237h134l198 -239l-5 -23h-186l-100 136l-154 -136h-185z" />
<glyph unicode="&#x135;" horiz-adv-x="519" d="M-223 -412l51 188q15 -5 41.5 -9t44.5 -4q47 0 85 47.5t55 127.5l224 1122h234l-225 -1122q-38 -186 -139.5 -276t-258.5 -90q-29 0 -57.5 4t-54.5 12zM108 1217l6 25l292 237h134l198 -239l-5 -23h-186l-100 136l-154 -136h-185z" />
<glyph unicode="&#x136;" horiz-adv-x="1214" d="M48 0l285 1427h235l-120 -600h125l461 600h295l2 -5l-598 -712l334 -710h-267l-274 615h-120l-123 -615h-235zM261 -476l106 243l27 139h168l-30 -149l-167 -233h-104z" />
<glyph unicode="&#x137;" horiz-adv-x="993" d="M36 0l306 1529h233l-175 -874h91l315 405h268l2 -5l-410 -476l252 -579h-271l-189 464h-96l-92 -464h-234zM178 -474l106 243l27 139h168l-30 -149l-167 -233h-104z" />
<glyph unicode="&#x138;" horiz-adv-x="1087" d="M49 0l212 1060h233l-84 -423h71l379 423h283l3 -6l-477 -498l290 -556h-297l-201 419h-95l-84 -419h-233z" />
<glyph unicode="&#x139;" horiz-adv-x="1023" d="M64 0l285 1427h234l-247 -1237h605l-38 -190h-839zM367 1488l215 260h265l-298 -260h-182z" />
<glyph unicode="&#x13a;" horiz-adv-x="500" d="M50 0l306 1529h234l-306 -1529h-234zM374 1589l215 260h265l-298 -260h-182z" />
<glyph unicode="&#x13b;" horiz-adv-x="1023" d="M64 0l285 1427h234l-247 -1237h605l-38 -190h-839zM240 -474l106 243l27 139h168l-30 -149l-167 -233h-104z" />
<glyph unicode="&#x13c;" horiz-adv-x="500" d="M-76 -474l106 243l27 139h168l-30 -149l-167 -233h-104zM50 0l306 1529h234l-306 -1529h-234z" />
<glyph unicode="&#x13d;" horiz-adv-x="1023" d="M64 0l285 1427h234l-247 -1237h605l-38 -190h-839zM677 1047l106 243l27 139h168l-30 -149l-167 -233h-104z" />
<glyph unicode="&#x13e;" horiz-adv-x="647" d="M50 0l306 1529h234l-306 -1529h-234zM593 1147l106 243l27 139h168l-30 -149l-167 -233h-104z" />
<glyph unicode="&#x13f;" horiz-adv-x="1023" d="M64 0l285 1427h234l-247 -1237h605l-38 -190h-839zM599 670l43 219h248l-43 -219h-248z" />
<glyph unicode="&#x140;" horiz-adv-x="716" d="M50 0l306 1529h234l-306 -1529h-234zM511 634l43 219h248l-43 -219h-248z" />
<glyph unicode="&#x141;" horiz-adv-x="976" d="M50 0l119 594l-110 -33l36 180l110 33l130 653h234l-115 -577l244 74l-36 -180l-245 -75l-95 -479h605l-38 -190h-839z" />
<glyph unicode="&#x142;" horiz-adv-x="539" d="M59 561l36 180l128 45l149 743h235l-131 -654l138 49l-36 -180l-138 -49l-139 -695h-234l120 606z" />
<glyph unicode="&#x143;" horiz-adv-x="1337" d="M64 0l285 1427h234l365 -1020h6l203 1020h235l-286 -1427h-234l-364 1021h-6l-204 -1021h-234zM778 1528l215 260h265l-298 -260h-182z" />
<glyph unicode="&#x144;" d="M33 0l212 1060h215l-16 -141q64 78 144.5 119.5t171.5 41.5q144 0 214.5 -102.5t29.5 -311.5l-134 -666h-234l133 664q25 128 -8 174.5t-127 46.5q-58 0 -113.5 -31.5t-100.5 -86.5l-152 -767h-235zM580 1212l215 260h265l-298 -260h-182z" />
<glyph unicode="&#x145;" horiz-adv-x="1337" d="M64 0l285 1427h234l365 -1020h6l203 1020h235l-286 -1427h-234l-364 1021h-6l-204 -1021h-234zM338 -474l106 243l27 139h168l-30 -149l-167 -233h-104z" />
<glyph unicode="&#x146;" d="M33 0l212 1060h215l-16 -141q64 78 144.5 119.5t171.5 41.5q144 0 214.5 -102.5t29.5 -311.5l-134 -666h-234l133 664q25 128 -8 174.5t-127 46.5q-58 0 -113.5 -31.5t-100.5 -86.5l-152 -767h-235zM203 -474l106 243l27 139h168l-30 -149l-167 -233h-104z" />
<glyph unicode="&#x147;" horiz-adv-x="1337" d="M64 0l285 1427h234l365 -1020h6l203 1020h235l-286 -1427h-234l-364 1021h-6l-204 -1021h-234zM623 1812l4 19h204l90 -132l143 132h206l-3 -17l-298 -245h-148z" />
<glyph unicode="&#x148;" d="M33 0l212 1060h215l-16 -141q64 78 144.5 119.5t171.5 41.5q144 0 214.5 -102.5t29.5 -311.5l-134 -666h-234l133 664q25 128 -8 174.5t-127 46.5q-58 0 -113.5 -31.5t-100.5 -86.5l-152 -767h-235zM425 1496l4 19h204l90 -132l143 132h206l-3 -17l-298 -245h-148z" />
<glyph unicode="&#x149;" d="M33 0l212 1060h215l-16 -141q64 78 144.5 119.5t171.5 41.5q144 0 214.5 -102.5t29.5 -311.5l-134 -666h-234l133 664q25 128 -8 174.5t-127 46.5q-58 0 -113.5 -31.5t-100.5 -86.5l-152 -767h-235zM121 1147l106 243l27 139h168l-30 -149l-167 -233h-104z" />
<glyph unicode="&#x14a;" horiz-adv-x="1308" d="M52 0l285 1427h234l366 -1007l6 1l202 1006h235l-298 -1489q-37 -186 -140 -276t-260 -90q-31 0 -58.5 4t-55.5 12l50 188q16 -5 43 -9t46 -4q47 0 85 47t55 128l11 62l-365 1008l-6 -1l-201 -1007h-234z" />
<glyph unicode="&#x14b;" d="M33 0l212 1060h215l-16 -134q63 75 142 114.5t169 39.5q145 0 215 -104t28 -316l-145 -722q-39 -186 -140.5 -276t-258.5 -90q-31 0 -58.5 4t-54.5 12l53 194q15 -4 40.5 -7.5t44.5 -3.5q47 0 85 43.5t54 123.5l144 720q27 131 -5 179t-122 48q-61 0 -115 -27.5 t-97 -76.5l-155 -781h-235z" />
<glyph unicode="&#x14c;" horiz-adv-x="1286" d="M132 591l51 257q56 281 221.5 440t406.5 159q231 0 371.5 -179.5t89.5 -432.5l-51 -257q-57 -281 -228 -440t-418 -159q-225 0 -360 179t-83 433zM366 591q-39 -188 31.5 -302.5t216.5 -114.5q136 0 237 112t137 292l52 259q36 186 -40 300t-228 114 q-129 0 -224.5 -111.5t-131.5 -289.5zM553 1612l24 155h669l-24 -155h-669z" />
<glyph unicode="&#x14d;" d="M95 519l3 21q39 246 182 393t357 147q205 0 306 -153t63 -387l-2 -21q-41 -248 -183.5 -394t-356.5 -146q-205 0 -306 152.5t-63 387.5zM329 519q-26 -161 12 -255t153 -94q107 0 179 98.5t96 250.5l3 21q25 159 -13.5 254t-151.5 95q-107 0 -179 -99.5t-96 -249.5z M338 1276l24 155h669l-24 -155h-669z" />
<glyph unicode="&#x14e;" horiz-adv-x="1286" d="M132 591l51 257q56 281 221.5 440t406.5 159q231 0 371.5 -179.5t89.5 -432.5l-51 -257q-57 -281 -228 -440t-418 -159q-225 0 -360 179t-83 433zM366 591q-39 -188 31.5 -302.5t216.5 -114.5q136 0 237 112t137 292l52 259q36 186 -40 300t-228 114 q-129 0 -224.5 -111.5t-131.5 -289.5zM633 1862l2 5h175q-10 -58 12.5 -93.5t82.5 -35.5q56 0 91.5 36.5t44.5 92.5h174l2 -6q-16 -124 -107 -197.5t-229 -73.5q-131 0 -201 76t-47 196z" />
<glyph unicode="&#x14f;" d="M95 519l3 21q39 246 182 393t357 147q205 0 306 -153t63 -387l-2 -21q-41 -248 -183.5 -394t-356.5 -146q-205 0 -306 152.5t-63 387.5zM329 519q-26 -161 12 -255t153 -94q107 0 179 98.5t96 250.5l3 21q25 159 -13.5 254t-151.5 95q-107 0 -179 -99.5t-96 -249.5z M417 1526l2 5h175q-10 -58 12.5 -93.5t82.5 -35.5q56 0 91.5 36.5t44.5 92.5h174l2 -6q-16 -124 -107 -197.5t-229 -73.5q-131 0 -201 76t-47 196z" />
<glyph unicode="&#x150;" horiz-adv-x="1286" d="M132 591l51 257q56 281 221.5 440t406.5 159q231 0 371.5 -179.5t89.5 -432.5l-51 -257q-57 -281 -228 -440t-418 -159q-225 0 -360 179t-83 433zM366 591q-39 -188 31.5 -302.5t216.5 -114.5q136 0 237 112t137 292l52 259q36 186 -40 300t-228 114 q-129 0 -224.5 -111.5t-131.5 -289.5zM630 1595l218 256h232l2 -6l-270 -255h-180zM911 1596l267 255h242l2 -6l-318 -255h-191z" />
<glyph unicode="&#x151;" d="M95 519l3 21q39 246 182 393t357 147q205 0 306 -153t63 -387l-2 -21q-41 -248 -183.5 -394t-356.5 -146q-205 0 -306 152.5t-63 387.5zM329 519q-26 -161 12 -255t153 -94q107 0 179 98.5t96 250.5l3 21q25 159 -13.5 254t-151.5 95q-107 0 -179 -99.5t-96 -249.5z M414 1258l218 256h232l2 -6l-270 -255h-180zM695 1259l267 255h242l2 -6l-318 -255h-191z" />
<glyph unicode="&#x152;" horiz-adv-x="1813" d="M125 564l60 298q55 277 230.5 431t419.5 154q58 0 124.5 -5.5t133.5 -14.5h824l-38 -191h-661l-80 -403h574l-38 -191h-574l-91 -452h668l-38 -190h-831q-86 -10 -145 -15.5t-119 -5.5q-224 0 -347 165.5t-72 419.5zM359 564q-41 -204 18.5 -298.5t204.5 -94.5 q43 0 92.5 3t99.5 11l211 1056q-50 7 -96 11t-92 4q-133 0 -237 -102t-142 -290z" />
<glyph unicode="&#x153;" horiz-adv-x="1690" d="M109 519l4 21q50 252 197 396t362 144q102 0 180 -43.5t124 -122.5q75 81 168 123.5t194 42.5q189 0 275 -132.5t44 -345.5l-28 -140h-614q-18 -138 26.5 -215t157.5 -77q81 0 153.5 24.5t137.5 66.5l44 -156q-67 -53 -166 -89.5t-221 -36.5q-103 0 -182.5 42.5 t-126.5 120.5q-75 -80 -172 -121.5t-211 -41.5q-199 0 -296 153.5t-50 386.5zM342 519q-33 -165 1.5 -257t149.5 -92q104 0 181.5 99t107.5 250l4 21q32 162 -2.5 255.5t-149.5 93.5q-104 0 -181.5 -100.5t-106.5 -248.5zM1060 642l3 -6h370l5 25q21 106 -11.5 167 t-127.5 61q-70 0 -136.5 -70.5t-102.5 -176.5z" />
<glyph unicode="&#x154;" horiz-adv-x="1246" d="M64 0l285 1427h496q209 0 315.5 -110t67.5 -306q-24 -118 -92.5 -196t-182.5 -125q99 -40 134 -127t12 -208l-24 -119q-14 -66 -10.5 -124t32.5 -89l-5 -23h-241q-31 32 -27.5 102t18.5 136l22 115q23 116 -18.5 177.5t-140.5 61.5h-289l-117 -592h-235zM455 783h250 q118 0 191.5 56.5t96.5 165.5q22 115 -22.5 173t-163.5 58h-261zM688 1528l215 260h265l-298 -260h-182z" />
<glyph unicode="&#x155;" horiz-adv-x="678" d="M35 0l212 1060h215l-14 -140q52 77 117 118.5t140 41.5q19 0 42 -3.5t36 -8.5l-73 -225l-107 4q-58 0 -105 -29.5t-82 -82.5l-146 -735h-235zM429 1212l215 260h265l-298 -260h-182z" />
<glyph unicode="&#x156;" horiz-adv-x="1246" d="M64 0l285 1427h496q209 0 315.5 -110t67.5 -306q-24 -118 -92.5 -196t-182.5 -125q99 -40 134 -127t12 -208l-24 -119q-14 -66 -10.5 -124t32.5 -89l-5 -23h-241q-31 32 -27.5 102t18.5 136l22 115q23 116 -18.5 177.5t-140.5 61.5h-289l-117 -592h-235zM248 -474 l106 243l27 139h168l-30 -149l-167 -233h-104zM455 783h250q118 0 191.5 56.5t96.5 165.5q22 115 -22.5 173t-163.5 58h-261z" />
<glyph unicode="&#x157;" horiz-adv-x="678" d="M-77 -474l106 243l27 139h168l-30 -149l-167 -233h-104zM35 0l212 1060h215l-14 -140q52 77 117 118.5t140 41.5q19 0 42 -3.5t36 -8.5l-73 -225l-107 4q-58 0 -105 -29.5t-82 -82.5l-146 -735h-235z" />
<glyph unicode="&#x158;" horiz-adv-x="1246" d="M64 0l285 1427h496q209 0 315.5 -110t67.5 -306q-24 -118 -92.5 -196t-182.5 -125q99 -40 134 -127t12 -208l-24 -119q-14 -66 -10.5 -124t32.5 -89l-5 -23h-241q-31 32 -27.5 102t18.5 136l22 115q23 116 -18.5 177.5t-140.5 61.5h-289l-117 -592h-235zM455 783h250 q118 0 191.5 56.5t96.5 165.5q22 115 -22.5 173t-163.5 58h-261zM533 1812l4 19h204l90 -132l143 132h206l-3 -17l-298 -245h-148z" />
<glyph unicode="&#x159;" horiz-adv-x="678" d="M35 0l212 1060h215l-14 -140q52 77 117 118.5t140 41.5q19 0 42 -3.5t36 -8.5l-73 -225l-107 4q-58 0 -105 -29.5t-82 -82.5l-146 -735h-235zM276 1496l4 19h204l90 -132l143 132h206l-3 -17l-298 -245h-148z" />
<glyph unicode="&#x15a;" horiz-adv-x="1168" d="M109 416l2 6h225q-28 -142 52.5 -197t210.5 -55q85 0 157.5 48t87.5 120q20 103 -31.5 160.5t-203.5 113.5q-215 74 -310 181.5t-58 293.5q34 174 172 267t335 93q214 0 333 -117t75 -320l-3 -6h-225q23 114 -37.5 183t-180.5 69q-85 0 -153 -48.5t-82 -118.5 q-21 -106 28.5 -157t220.5 -118q211 -74 300.5 -179.5t52.5 -294.5q-36 -182 -174.5 -271.5t-341.5 -89.5q-213 0 -357.5 107t-94.5 330zM689 1549l215 260h265l-298 -260h-182z" />
<glyph unicode="&#x15b;" horiz-adv-x="983" d="M69 328l2 6h218q-12 -92 37 -134t130 -42q78 0 129.5 35.5t61.5 94.5q9 56 -27 92t-149 63q-170 40 -250 114.5t-59 201.5q21 138 141 229.5t295 91.5q174 0 269.5 -96.5t68.5 -235.5l-2 -6h-225q10 67 -26 113.5t-114 46.5q-72 0 -120 -39.5t-57 -94.5q-9 -57 24 -89 t147 -58q181 -41 259 -116t57 -204q-23 -148 -146.5 -235t-308.5 -87t-284 107.5t-71 241.5zM500 1212l215 260h265l-298 -260h-182z" />
<glyph unicode="&#x15c;" horiz-adv-x="1168" d="M109 416l2 6h225q-28 -142 52.5 -197t210.5 -55q85 0 157.5 48t87.5 120q20 103 -31.5 160.5t-203.5 113.5q-215 74 -310 181.5t-58 293.5q34 174 172 267t335 93q214 0 333 -117t75 -320l-3 -6h-225q23 114 -37.5 183t-180.5 69q-85 0 -153 -48.5t-82 -118.5 q-21 -106 28.5 -157t220.5 -118q211 -74 300.5 -179.5t52.5 -294.5q-36 -182 -174.5 -271.5t-341.5 -89.5q-213 0 -357.5 107t-94.5 330zM495 1586l6 25l292 237h134l198 -239l-5 -23h-186l-100 136l-154 -136h-185z" />
<glyph unicode="&#x15d;" horiz-adv-x="983" d="M69 328l2 6h218q-12 -92 37 -134t130 -42q78 0 129.5 35.5t61.5 94.5q9 56 -27 92t-149 63q-170 40 -250 114.5t-59 201.5q21 138 141 229.5t295 91.5q174 0 269.5 -96.5t68.5 -235.5l-2 -6h-225q10 67 -26 113.5t-114 46.5q-72 0 -120 -39.5t-57 -94.5q-9 -57 24 -89 t147 -58q181 -41 259 -116t57 -204q-23 -148 -146.5 -235t-308.5 -87t-284 107.5t-71 241.5zM308 1250l6 25l292 237h134l198 -239l-5 -23h-186l-100 136l-154 -136h-185z" />
<glyph unicode="&#x15e;" horiz-adv-x="1168" d="M109 416l2 6h225q-28 -142 52.5 -197t210.5 -55q85 0 157.5 48t87.5 120q20 103 -31.5 160.5t-203.5 113.5q-215 74 -310 181.5t-58 293.5q34 174 172 267t335 93q214 0 333 -117t75 -320l-3 -6h-225q23 114 -37.5 183t-180.5 69q-85 0 -153 -48.5t-82 -118.5 q-21 -106 28.5 -157t220.5 -118q211 -74 300.5 -179.5t52.5 -294.5q-36 -182 -174.5 -271.5t-341.5 -89.5q-213 0 -357.5 107t-94.5 330zM323 -439l19 127q49 0 86.5 22t47.5 65q9 46 -17.5 62.5t-99.5 21.5l57 136h170l-21 -53q54 -11 84 -51t15 -119q-22 -106 -108 -161 t-228 -53z" />
<glyph unicode="&#x15f;" horiz-adv-x="983" d="M69 328l2 6h218q-12 -92 37 -134t130 -42q78 0 129.5 35.5t61.5 94.5q9 56 -27 92t-149 63q-170 40 -250 114.5t-59 201.5q21 138 141 229.5t295 91.5q174 0 269.5 -96.5t68.5 -235.5l-2 -6h-225q10 67 -26 113.5t-114 46.5q-72 0 -120 -39.5t-57 -94.5q-9 -57 24 -89 t147 -58q181 -41 259 -116t57 -204q-23 -148 -146.5 -235t-308.5 -87t-284 107.5t-71 241.5zM244 -439l19 127q49 0 86.5 22t47.5 65q9 46 -17.5 62.5t-99.5 21.5l57 136h170l-21 -53q54 -11 84 -51t15 -119q-22 -106 -108 -161t-228 -53z" />
<glyph unicode="&#x160;" horiz-adv-x="1168" d="M109 416l2 6h225q-28 -142 52.5 -197t210.5 -55q85 0 157.5 48t87.5 120q20 103 -31.5 160.5t-203.5 113.5q-215 74 -310 181.5t-58 293.5q34 174 172 267t335 93q214 0 333 -117t75 -320l-3 -6h-225q23 114 -37.5 183t-180.5 69q-85 0 -153 -48.5t-82 -118.5 q-21 -106 28.5 -157t220.5 -118q211 -74 300.5 -179.5t52.5 -294.5q-36 -182 -174.5 -271.5t-341.5 -89.5q-213 0 -357.5 107t-94.5 330zM534 1833l4 19h204l90 -132l143 132h206l-3 -17l-298 -245h-148z" />
<glyph unicode="&#x161;" horiz-adv-x="983" d="M69 328l2 6h218q-12 -92 37 -134t130 -42q78 0 129.5 35.5t61.5 94.5q9 56 -27 92t-149 63q-170 40 -250 114.5t-59 201.5q21 138 141 229.5t295 91.5q174 0 269.5 -96.5t68.5 -235.5l-2 -6h-225q10 67 -26 113.5t-114 46.5q-72 0 -120 -39.5t-57 -94.5q-9 -57 24 -89 t147 -58q181 -41 259 -116t57 -204q-23 -148 -146.5 -235t-308.5 -87t-284 107.5t-71 241.5zM345 1496l4 19h204l90 -132l143 132h206l-3 -17l-298 -245h-148z" />
<glyph unicode="&#x162;" horiz-adv-x="1086" d="M195 1236l38 191h1024l-38 -191h-395l-247 -1236h-234l247 1236h-395zM218 -474l106 243l27 139h168l-30 -149l-167 -233h-104z" />
<glyph unicode="&#x163;" horiz-adv-x="678" d="M86 -484l106 243l27 139h168l-30 -149l-167 -233h-104zM123 884l36 176h148l52 258h234l-52 -258h175l-35 -176h-175l-117 -586q-15 -71 5.5 -96.5t63.5 -25.5q23 0 50.5 3.5t49.5 9.5l-11 -174q-37 -17 -86.5 -26.5t-102.5 -9.5q-117 0 -176.5 78.5t-26.5 240.5l116 586 h-148z" />
<glyph unicode="&#x164;" horiz-adv-x="1086" d="M195 1236l38 191h1024l-38 -191h-395l-247 -1236h-234l247 1236h-395zM502 1812l4 19h204l90 -132l143 132h206l-3 -17l-298 -245h-148z" />
<glyph unicode="&#x165;" horiz-adv-x="717" d="M123 884l36 176h148l52 258h234l-52 -258h175l-35 -176h-175l-117 -586q-15 -71 5.5 -96.5t63.5 -25.5q23 0 50.5 3.5t49.5 9.5l-11 -174q-37 -17 -86.5 -26.5t-102.5 -9.5q-117 0 -176.5 78.5t-26.5 240.5l116 586h-148zM686 1176l106 243l27 139h168l-30 -149 l-167 -233h-104z" />
<glyph unicode="&#x166;" horiz-adv-x="1086" d="M195 1236l38 191h1024l-38 -191h-395l-60 -299h185l-34 -167h-184l-154 -770h-234l154 770h-183l33 167h183l60 299h-395z" />
<glyph unicode="&#x167;" horiz-adv-x="678" d="M24 556l33 166h182l32 162h-148l36 176h148l52 258h234l-52 -258h175l-35 -176h-175l-33 -162h186l-34 -166h-185l-51 -258q-15 -71 5.5 -96.5t63.5 -25.5q23 0 50.5 3.5t49.5 9.5l-11 -174q-37 -17 -86.5 -26.5t-102.5 -9.5q-117 0 -176.5 78.5t-26.5 240.5l51 258h-182 z" />
<glyph unicode="&#x168;" horiz-adv-x="1283" d="M134 470l191 957h235l-192 -957q-32 -159 28.5 -229.5t192.5 -70.5q125 0 223 76t128 224l191 957h234l-191 -957q-51 -252 -216.5 -371.5t-406.5 -119.5q-216 0 -340 129t-77 362zM550 1605q14 95 79 161.5t149 66.5q48 0 124 -43.5t124 -43.5q33 0 63.5 31t37.5 76 l119 -38q-16 -96 -81 -160t-150 -64q-60 0 -130 43.5t-117 43.5q-33 0 -63 -32t-37 -76z" />
<glyph unicode="&#x169;" d="M116 426l126 634h233l-126 -636q-31 -149 -3 -200t113 -51q71 0 131.5 32t103.5 91l153 764h234l-212 -1060h-207l12 134q-62 -76 -139.5 -115.5t-169.5 -39.5q-150 0 -222.5 111t-26.5 336zM372 1269q14 95 79 161.5t149 66.5q48 0 124 -43.5t124 -43.5q33 0 63.5 31 t37.5 76l119 -38q-16 -96 -81 -160t-150 -64q-60 0 -130 43.5t-117 43.5q-33 0 -63 -32t-37 -76z" />
<glyph unicode="&#x16a;" horiz-adv-x="1283" d="M134 470l191 957h235l-192 -957q-32 -159 28.5 -229.5t192.5 -70.5q125 0 223 76t128 224l191 957h234l-191 -957q-51 -252 -216.5 -371.5t-406.5 -119.5q-216 0 -340 129t-77 362zM547 1591l24 155h669l-24 -155h-669z" />
<glyph unicode="&#x16b;" d="M116 426l126 634h233l-126 -636q-31 -149 -3 -200t113 -51q71 0 131.5 32t103.5 91l153 764h234l-212 -1060h-207l12 134q-62 -76 -139.5 -115.5t-169.5 -39.5q-150 0 -222.5 111t-26.5 336zM369 1257l24 155h669l-24 -155h-669z" />
<glyph unicode="&#x16c;" horiz-adv-x="1283" d="M134 470l191 957h235l-192 -957q-32 -159 28.5 -229.5t192.5 -70.5q125 0 223 76t128 224l191 957h234l-191 -957q-51 -252 -216.5 -371.5t-406.5 -119.5q-216 0 -340 129t-77 362zM627 1841l2 5h175q-10 -58 12.5 -93.5t82.5 -35.5q56 0 91.5 36.5t44.5 92.5h174l2 -6 q-16 -124 -107 -197.5t-229 -73.5q-131 0 -201 76t-47 196z" />
<glyph unicode="&#x16d;" d="M116 426l126 634h233l-126 -636q-31 -149 -3 -200t113 -51q71 0 131.5 32t103.5 91l153 764h234l-212 -1060h-207l12 134q-62 -76 -139.5 -115.5t-169.5 -39.5q-150 0 -222.5 111t-26.5 336zM448 1505l2 5h175q-10 -58 12.5 -93.5t82.5 -35.5q56 0 91.5 36.5t44.5 92.5 h174l2 -6q-16 -124 -107 -197.5t-229 -73.5q-131 0 -201 76t-47 196z" />
<glyph unicode="&#x16e;" horiz-adv-x="1283" d="M134 470l191 957h235l-192 -957q-32 -159 28.5 -229.5t192.5 -70.5q125 0 223 76t128 224l191 957h234l-191 -957q-51 -252 -216.5 -371.5t-406.5 -119.5q-216 0 -340 129t-77 362zM703 1702q18 88 85 141t152 53q77 0 124.5 -56.5t31.5 -137.5q-19 -89 -84 -139.5 t-148 -50.5q-79 0 -128.5 54t-32.5 136zM807 1702q-9 -45 12.5 -72t61.5 -27q37 0 69.5 28.5t41.5 70.5q10 47 -10.5 74.5t-59.5 27.5q-38 0 -72 -29.5t-43 -72.5z" />
<glyph unicode="&#x16f;" d="M116 426l126 634h233l-126 -636q-31 -149 -3 -200t113 -51q71 0 131.5 32t103.5 91l153 764h234l-212 -1060h-207l12 134q-62 -76 -139.5 -115.5t-169.5 -39.5q-150 0 -222.5 111t-26.5 336zM524 1366q18 88 85 141t152 53q77 0 124.5 -56.5t31.5 -137.5 q-19 -89 -84 -139.5t-148 -50.5q-79 0 -128.5 54t-32.5 136zM628 1366q-9 -45 12.5 -72t61.5 -27q37 0 69.5 28.5t41.5 70.5q10 47 -10.5 74.5t-59.5 27.5q-38 0 -72 -29.5t-43 -72.5z" />
<glyph unicode="&#x170;" horiz-adv-x="1283" d="M134 470l191 957h235l-192 -957q-32 -159 28.5 -229.5t192.5 -70.5q125 0 223 76t128 224l191 957h234l-191 -957q-51 -252 -216.5 -371.5t-406.5 -119.5q-216 0 -340 129t-77 362zM624 1574l218 256h232l2 -6l-270 -255h-180zM905 1575l267 255h242l2 -6l-318 -255h-191 z" />
<glyph unicode="&#x171;" d="M116 426l126 634h233l-126 -636q-31 -149 -3 -200t113 -51q71 0 131.5 32t103.5 91l153 764h234l-212 -1060h-207l12 134q-62 -76 -139.5 -115.5t-169.5 -39.5q-150 0 -222.5 111t-26.5 336zM446 1238l218 256h232l2 -6l-270 -255h-180zM727 1239l267 255h242l2 -6 l-318 -255h-191z" />
<glyph unicode="&#x172;" horiz-adv-x="1283" d="M134 470l191 957h235l-192 -957q-32 -159 28.5 -229.5t192.5 -70.5q125 0 223 76t128 224l191 957h234l-191 -957q-51 -252 -216.5 -371.5t-406.5 -119.5q-216 0 -340 129t-77 362zM476 -212q17 83 79.5 149.5t183.5 121.5l81 -59q-66 -49 -103.5 -91t-47.5 -92 q-8 -36 6.5 -57.5t62.5 -21.5q22 0 44.5 7t45.5 16l6 -139q-37 -19 -81.5 -31t-99.5 -12q-90 0 -142.5 56t-34.5 153z" />
<glyph unicode="&#x173;" d="M116 426l126 634h233l-126 -636q-31 -149 -3 -200t113 -51q71 0 131.5 32t103.5 91l153 764h234l-212 -1060h-207l12 134q-62 -76 -139.5 -115.5t-169.5 -39.5q-150 0 -222.5 111t-26.5 336zM473 -212q17 83 79.5 149.5t183.5 121.5l81 -59q-66 -49 -103.5 -91t-47.5 -92 q-8 -36 6.5 -57.5t62.5 -21.5q22 0 44.5 7t45.5 16l6 -139q-37 -19 -81.5 -31t-99.5 -12q-90 0 -142.5 56t-34.5 153z" />
<glyph unicode="&#x174;" horiz-adv-x="1658" d="M200 1427h230l37 -1015l6 -1l418 1016h186l94 -1017l6 -1l363 1018h229l-540 -1427h-213l-96 1004l-6 1l-418 -1005h-214zM694 1565l6 25l292 237h134l198 -239l-5 -23h-186l-100 136l-154 -136h-185z" />
<glyph unicode="&#x175;" horiz-adv-x="1403" d="M164 1060h224l7 -720l6 -1l342 721h169l57 -732l6 -1l292 733h225l-481 -1060h-191l-60 707l-6 1l-342 -708h-192zM551 1229l6 25l292 237h134l198 -239l-5 -23h-186l-100 136l-154 -136h-185z" />
<glyph unicode="&#x176;" horiz-adv-x="1182" d="M222 1427h262l171 -670l6 -1l441 671h261l-643 -928l-100 -499h-233l103 516zM512 1565l6 25l292 237h134l198 -239l-5 -23h-186l-100 136l-154 -136h-185z" />
<glyph unicode="&#x177;" horiz-adv-x="960" d="M-70 -409l63 185q12 -1 33 -3t33 -2q54 0 103 47.5t76 98.5l55 95l-147 1048h256l51 -635l1 -87l6 -1l351 723h257l-650 -1221q-61 -109 -149 -188t-219 -79q-26 0 -58.5 6t-61.5 13zM329 1229l6 25l292 237h134l198 -239l-5 -23h-186l-100 136l-154 -136h-185z" />
<glyph unicode="&#x178;" horiz-adv-x="1182" d="M222 1427h262l171 -670l6 -1l441 671h261l-643 -928l-100 -499h-233l103 516zM489 1569l33 200h227l-32 -200h-228zM930 1569l33 200h228l-32 -200h-229z" />
<glyph unicode="&#x179;" horiz-adv-x="1117" d="M26 0l3 149l768 1087h-558l38 191h839l-28 -143l-771 -1094h631l-39 -190h-883zM668 1529l215 260h265l-298 -260h-182z" />
<glyph unicode="&#x17a;" horiz-adv-x="960" d="M-1 0l31 156l632 707l-2 5h-479l39 192h773l-30 -151l-639 -714l2 -5h515l-38 -190h-804zM527 1192l215 260h265l-298 -260h-182z" />
<glyph unicode="&#x17b;" horiz-adv-x="1117" d="M26 0l3 149l768 1087h-558l38 191h839l-28 -143l-771 -1094h631l-39 -190h-883zM662 1571l43 219h248l-43 -219h-248z" />
<glyph unicode="&#x17c;" horiz-adv-x="960" d="M-1 0l31 156l632 707l-2 5h-479l39 192h773l-30 -151l-639 -714l2 -5h515l-38 -190h-804zM521 1234l43 219h248l-43 -219h-248z" />
<glyph unicode="&#x17d;" horiz-adv-x="1117" d="M26 0l3 149l768 1087h-558l38 191h839l-28 -143l-771 -1094h631l-39 -190h-883zM513 1813l4 19h204l90 -132l143 132h206l-3 -17l-298 -245h-148z" />
<glyph unicode="&#x17e;" horiz-adv-x="960" d="M-1 0l31 156l632 707l-2 5h-479l39 192h773l-30 -151l-639 -714l2 -5h515l-38 -190h-804zM372 1476l4 19h204l90 -132l143 132h206l-3 -17l-298 -245h-148z" />
<glyph unicode="&#x17f;" horiz-adv-x="493" d="M46 0l237 1184q37 186 143 275.5t273 89.5q30 0 64.5 -5.5t71.5 -14.5l-60 -181q-19 4 -38 7t-42 3q-66 0 -114.5 -46.5t-64.5 -127.5l-237 -1184h-233z" />
<glyph unicode="&#x192;" horiz-adv-x="671" d="M-158 -412l43 188q15 -5 41.5 -9t45.5 -4q48 0 83.5 47t49.5 128l151 946h-149l28 176h149l20 124q29 182 133.5 273.5t269.5 91.5q31 0 64.5 -5t73.5 -15l-54 -184q-18 3 -39.5 6t-46.5 3q-68 0 -110.5 -44t-55.5 -126l-20 -124h177l-29 -176h-176l-151 -946 q-30 -182 -129.5 -274t-255.5 -92q-31 0 -57.5 4t-55.5 12z" />
<glyph unicode="&#x1a0;" horiz-adv-x="1298" d="M127 585l52 257q55 277 235.5 441t423.5 164q107 0 195.5 -42.5t149.5 -117.5q101 21 173 103.5t98 211.5h193l3 -5q-37 -196 -135 -314.5t-250 -159.5q18 -64 19.5 -135t-13.5 -146l-52 -257q-56 -278 -240 -442t-433 -164q-224 0 -347.5 174.5t-71.5 431.5zM361 585 q-39 -192 20.5 -301.5t203.5 -109.5q137 0 251.5 117.5t149.5 293.5l52 259q38 189 -25.5 298t-213.5 109q-132 0 -241.5 -116.5t-144.5 -290.5z" />
<glyph unicode="&#x1a1;" horiz-adv-x="1091" d="M94 519l3 21q39 246 182 393t357 147q97 0 172.5 -37t125.5 -104q70 24 119.5 93.5t70.5 169.5h180l2 -4q-28 -155 -107.5 -250t-205.5 -130q17 -61 20.5 -132t-8.5 -146l-2 -21q-41 -248 -183.5 -394t-356.5 -146q-205 0 -306 152.5t-63 387.5zM328 519 q-26 -161 12 -255t153 -94q107 0 179 98.5t96 250.5l3 21q25 159 -13.5 254t-151.5 95q-107 0 -179 -99.5t-96 -249.5z" />
<glyph unicode="&#x1af;" horiz-adv-x="1331" d="M134 470l191 957h235l-192 -957q-32 -159 28.5 -229.5t192.5 -70.5q125 0 223 76t128 224l191 957h234l-33 -168l6 -2q71 27 124 108t78 201h193l2 -5q-42 -218 -151.5 -338.5t-288.5 -148.5l-121 -604q-51 -252 -216.5 -371.5t-406.5 -119.5q-216 0 -340 129t-77 362z " />
<glyph unicode="&#x1b0;" horiz-adv-x="1185" d="M116 426l126 634h233l-126 -636q-31 -149 -3 -200t113 -51q71 0 131.5 32t103.5 91l153 764h234l-23 -110l5 -2q58 12 95.5 66.5t56.5 146.5h160l3 -6q-30 -165 -114 -250t-235 -104l-160 -801h-207l12 134q-62 -76 -139.5 -115.5t-169.5 -39.5q-150 0 -222.5 111 t-26.5 336z" />
<glyph unicode="&#x1f0;" horiz-adv-x="519" d="M-223 -412l51 188q15 -5 41.5 -9t44.5 -4q47 0 85 47.5t55 127.5l224 1122h234l-225 -1122q-38 -186 -139.5 -276t-258.5 -90q-29 0 -57.5 4t-54.5 12zM147 1464l4 19h204l90 -132l143 132h206l-3 -17l-298 -245h-148z" />
<glyph unicode="&#x1fa;" horiz-adv-x="1231" d="M-58 0l771 1427h222l195 -1427h-237l-38 333h-504l-173 -333h-236zM454 532h378l-67 590l-5 1zM718 1657q15 79 74.5 126.5t135.5 47.5q66 0 107.5 -50.5t28.5 -123.5q-16 -80 -74.5 -125t-130.5 -45q-70 0 -113.5 48t-27.5 122zM812 1657q-9 -39 10 -62t55 -23 q29 0 57 24.5t36 60.5q8 40 -9.5 64t-49.5 24t-62 -26t-37 -62zM879 1884l183 188h216l2 -6l-258 -188h-141z" />
<glyph unicode="&#x1fb;" horiz-adv-x="1027" d="M68 299q32 164 158.5 244.5t335.5 80.5h154l19 93q18 89 -16 133.5t-116 44.5q-70 0 -124 -40t-65 -100h-225l-2 5q22 134 152 227t315 93q162 0 256 -96t60 -269l-94 -471q-15 -71 -18 -128.5t4 -115.5h-237q-4 33 -4.5 65.5t2.5 64.5q-60 -65 -139 -108t-164 -43 q-140 0 -211 88t-41 232zM303 303q-14 -65 13 -98.5t95 -33.5q64 0 132 35t107 85l37 184h-159q-84 0 -147.5 -52t-77.5 -120zM520 1341q15 79 74.5 126.5t135.5 47.5q66 0 107.5 -50.5t28.5 -123.5q-16 -80 -74.5 -125t-130.5 -45q-70 0 -113.5 48t-27.5 122zM614 1341 q-9 -39 10 -62t55 -23q29 0 57 24.5t36 60.5q8 40 -9.5 64t-49.5 24t-62 -26t-37 -62zM681 1568l183 188h216l2 -6l-258 -188h-141z" />
<glyph unicode="&#x1fc;" horiz-adv-x="1771" d="M-92 0l1044 1427h919l-38 -193h-587l-65 -400h497l-38 -193h-489l-73 -449h602l-38 -192h-829l53 333h-446l-232 -333h-280zM568 544h333l97 605l-6 2zM965 1528l215 260h265l-298 -260h-182z" />
<glyph unicode="&#x1fd;" horiz-adv-x="1585" d="M26 306q34 164 158.5 243.5t339.5 79.5h184l13 70q19 94 -11.5 142t-105.5 48t-133 -44.5t-70 -107.5l-221 18l-2 5q26 147 152.5 233.5t313.5 86.5q88 0 158.5 -31t112.5 -90q69 60 153 90.5t177 30.5q184 0 272.5 -131t44.5 -349l-27 -138h-621q-21 -141 25.5 -216.5 t171.5 -75.5q84 0 150 24t144 66l38 -162q-60 -44 -160.5 -81.5t-223.5 -37.5q-112 0 -197 45t-133 126q-67 -73 -176 -122t-245 -49q-155 0 -232.5 89.5t-49.5 237.5zM262 302q-14 -68 17 -104.5t111 -36.5q54 0 127.5 35.5t119.5 82.5l37 187h-180q-88 0 -154 -49 t-78 -115zM838 1213l215 260h265l-298 -260h-182zM956 635l3 -6h378l6 30q21 109 -10.5 169.5t-126.5 60.5q-84 0 -150.5 -71t-99.5 -183z" />
<glyph unicode="&#x1fe;" horiz-adv-x="1291" d="M53 -93l167 225q-67 84 -91 201t3 252l52 257q55 277 235.5 441t423.5 164q81 0 153.5 -25.5t130.5 -72.5l103 139h140l-166 -223q57 -83 76 -192.5t-4 -230.5l-52 -257q-56 -278 -240 -442t-433 -164q-71 0 -133.5 19.5t-114.5 56.5l-110 -148h-140zM351 445.5 q1 -64.5 17 -107.5l5 -1l623 836q-34 37 -82.5 57.5t-109.5 20.5q-132 0 -241.5 -116.5t-145.5 -290.5l-51 -259q-16 -75 -15 -139.5zM431 227q30 -26 69.5 -39.5t89.5 -13.5q137 0 251.5 117.5t149.5 293.5l52 259q11 60 12.5 111.5t-6.5 91.5l-6 2zM771 1589l215 260h265 l-298 -260h-182z" />
<glyph unicode="&#x1ff;" horiz-adv-x="1071" d="M61 -135l140 213q-74 72 -101.5 187t-4.5 254l3 21q39 246 182 393t357 147q54 0 101.5 -12.5t89.5 -33.5l101 154h137l-149 -228q63 -73 86 -182.5t3 -237.5l-2 -21q-41 -248 -183.5 -394t-356.5 -146q-48 0 -90.5 9.5t-78.5 25.5l-98 -149h-136zM317.5 387.5 q0.5 -59.5 16.5 -96.5l6 -2l371 568q-20 15 -46 23.5t-58 8.5q-107 0 -179 -99.5t-96 -249.5l-3 -21q-12 -72 -11.5 -131.5zM409 188q16 -10 37.5 -14t47.5 -4q107 0 179 98.5t96 250.5l3 21q9 59 9.5 109t-7.5 84l-6 2zM547 1210l215 260h265l-298 -260h-182z" />
<glyph unicode="&#x218;" horiz-adv-x="1168" d="M109 416l2 6h225q-28 -142 52.5 -197t210.5 -55q85 0 157.5 48t87.5 120q20 103 -31.5 160.5t-203.5 113.5q-215 74 -310 181.5t-58 293.5q34 174 172 267t335 93q214 0 333 -117t75 -320l-3 -6h-225q23 114 -37.5 183t-180.5 69q-85 0 -153 -48.5t-82 -118.5 q-21 -106 28.5 -157t220.5 -118q211 -74 300.5 -179.5t52.5 -294.5q-36 -182 -174.5 -271.5t-341.5 -89.5q-213 0 -357.5 107t-94.5 330zM248 -493l106 243l27 139h168l-30 -149l-167 -233h-104z" />
<glyph unicode="&#x219;" horiz-adv-x="983" d="M69 328l2 6h218q-12 -92 37 -134t130 -42q78 0 129.5 35.5t61.5 94.5q9 56 -27 92t-149 63q-170 40 -250 114.5t-59 201.5q21 138 141 229.5t295 91.5q174 0 269.5 -96.5t68.5 -235.5l-2 -6h-225q10 67 -26 113.5t-114 46.5q-72 0 -120 -39.5t-57 -94.5q-9 -57 24 -89 t147 -58q181 -41 259 -116t57 -204q-23 -148 -146.5 -235t-308.5 -87t-284 107.5t-71 241.5zM170 -493l106 243l27 139h168l-30 -149l-167 -233h-104z" />
<glyph unicode="&#x21a;" horiz-adv-x="1086" d="M195 1236l38 191h1024l-38 -191h-395l-247 -1236h-234l247 1236h-395zM292 -421l19 127q49 0 86.5 22t47.5 65q9 46 -17.5 62.5t-99.5 21.5l57 136h170l-21 -53q54 -11 84 -51t15 -119q-22 -106 -108 -161t-228 -53z" />
<glyph unicode="&#x21b;" horiz-adv-x="678" d="M123 884l36 176h148l52 258h234l-52 -258h175l-35 -176h-175l-117 -586q-15 -71 5.5 -96.5t63.5 -25.5q23 0 50.5 3.5t49.5 9.5l-11 -174q-37 -17 -86.5 -26.5t-102.5 -9.5q-117 0 -176.5 78.5t-26.5 240.5l116 586h-148zM161 -431l19 127q49 0 86.5 22t47.5 65 q9 46 -17.5 62.5t-99.5 21.5l57 136h170l-21 -53q54 -11 84 -51t15 -119q-22 -106 -108 -161t-228 -53z" />
<glyph unicode="&#x237;" horiz-adv-x="519" d="M-223 -412l51 188q15 -5 41.5 -9t44.5 -4q47 0 85 47.5t55 127.5l224 1122h234l-225 -1122q-38 -186 -139.5 -276t-258.5 -90q-29 0 -57.5 4t-54.5 12z" />
<glyph unicode="&#x259;" horiz-adv-x="1001" d="M95 459l27 140h613q19 135 -26 213.5t-155 78.5q-83 0 -155.5 -25t-136.5 -66l-44 156q65 52 165 89t223 37q198 0 299.5 -151t56.5 -376l-7 -40q-49 -247 -200 -391t-341 -143q-191 0 -276.5 131.5t-42.5 346.5zM315 400q-23 -108 9.5 -168t127.5 -60q70 0 136 70 t102 176l-3 6h-368z" />
<glyph unicode="&#x2bc;" horiz-adv-x="392" d="M181 996l123 341l38 192h214l-39 -190l-222 -343h-114z" />
<glyph unicode="&#x2c6;" horiz-adv-x="932" d="M308 1227l6 25l292 237h134l198 -239l-5 -23h-186l-100 136l-154 -136h-185z" />
<glyph unicode="&#x2c7;" horiz-adv-x="882" d="M325 1470l4 19h204l90 -132l143 132h206l-3 -17l-298 -245h-148z" />
<glyph unicode="&#x2d8;" horiz-adv-x="825" d="M274 1422l2 5h175q-10 -58 12.5 -93.5t82.5 -35.5q56 0 91.5 36.5t44.5 92.5h174l2 -6q-16 -124 -107 -197.5t-229 -73.5q-131 0 -201 76t-47 196z" />
<glyph unicode="&#x2d9;" horiz-adv-x="559" d="M305 1214l43 219h248l-43 -219h-248z" />
<glyph unicode="&#x2da;" horiz-adv-x="640" d="M290 1276q18 88 85 141t152 53q77 0 124.5 -56.5t31.5 -137.5q-19 -89 -84 -139.5t-148 -50.5q-79 0 -128.5 54t-32.5 136zM394 1276q-9 -45 12.5 -72t61.5 -27q37 0 69.5 28.5t41.5 70.5q10 47 -10.5 74.5t-59.5 27.5q-38 0 -72 -29.5t-43 -72.5z" />
<glyph unicode="&#x2db;" horiz-adv-x="554" d="M-56 -212q17 83 79.5 149.5t183.5 121.5l81 -59q-66 -49 -103.5 -91t-47.5 -92q-8 -36 6.5 -57.5t62.5 -21.5q22 0 44.5 7t45.5 16l6 -139q-37 -19 -81.5 -31t-99.5 -12q-90 0 -142.5 56t-34.5 153z" />
<glyph unicode="&#x2dc;" horiz-adv-x="918" d="M257 1248q14 95 79 161.5t149 66.5q48 0 124 -43.5t124 -43.5q33 0 63.5 31t37.5 76l119 -38q-16 -96 -81 -160t-150 -64q-60 0 -130 43.5t-117 43.5q-33 0 -63 -32t-37 -76z" />
<glyph unicode="&#x2dd;" horiz-adv-x="754" d="M276 1232l218 256h232l2 -6l-270 -255h-180zM557 1233l267 255h242l2 -6l-318 -255h-191z" />
<glyph unicode="&#x2f3;" horiz-adv-x="620" d="M31 -226q14 71 67.5 113t121.5 42q59 0 96.5 -45t24.5 -110q-15 -71 -66.5 -111.5t-116.5 -40.5q-63 0 -101.5 43.5t-25.5 108.5zM126 -226q-5 -30 8 -48t40 -18q23 0 45 19.5t28 46.5q5 31 -8 49.5t-37 18.5q-26 0 -48.5 -19.5t-27.5 -48.5z" />
<glyph unicode="&#x300;" horiz-adv-x="9" d="M-518 1502h199l49 -323h-146z" />
<glyph unicode="&#x301;" horiz-adv-x="9" d="M-503 1182l182 324h197l-241 -324h-138z" />
<glyph unicode="&#x303;" horiz-adv-x="9" d="M-691 1248q14 95 79 161.5t149 66.5q48 0 124 -43.5t124 -43.5q33 0 63.5 31t37.5 76l119 -38q-16 -96 -81 -160t-150 -64q-60 0 -130 43.5t-117 43.5q-33 0 -63 -32t-37 -76z" />
<glyph unicode="&#x309;" horiz-adv-x="9" d="M-465 1229l22 143q70 4 99.5 17.5t36.5 49.5q8 36 -25.5 53t-91.5 17l31 121q156 0 225.5 -47.5t49.5 -140.5q-12 -67 -57.5 -102.5t-104.5 -42.5l-14 -68h-171z" />
<glyph unicode="&#x30f;" horiz-adv-x="9" d="M-701 1483l2 5h244l168 -261h-199zM-364 1488h240l116 -261h-186z" />
<glyph unicode="&#x323;" horiz-adv-x="9" d="M-822 -340l43 218h258l-43 -218h-258z" />
<glyph unicode="&#x384;" horiz-adv-x="567" d="M368 1245l135 370h230l-253 -370h-112z" />
<glyph unicode="&#x385;" horiz-adv-x="1008" d="M309 1227l40 200h213l-41 -200h-212zM632 1444l97 267h235l-192 -267h-140zM794 1227l40 200h212l-41 -200h-211z" />
<glyph unicode="&#x386;" horiz-adv-x="1231" d="M-58 0l771 1427h222l195 -1427h-237l-38 333h-504l-173 -333h-236zM342 1245l135 370h230l-253 -370h-112zM454 532h378l-67 590l-5 1z" />
<glyph unicode="&#x387;" horiz-adv-x="543" d="M183 582l47 235h230l-47 -235h-230z" />
<glyph unicode="&#x388;" horiz-adv-x="1190" d="M98 1247l135 370h230l-253 -370h-112zM162 0l285 1427h895l-39 -191h-660l-80 -403h574l-38 -191h-575l-90 -452h668l-39 -190h-901z" />
<glyph unicode="&#x389;" horiz-adv-x="1435" d="M142 1245l135 370h230l-253 -370h-112zM162 0l285 1427h234l-125 -627h575l125 627h234l-286 -1427h-233l122 609h-576l-121 -609h-234z" />
<glyph unicode="&#x38a;" horiz-adv-x="648" d="M147 1247l135 370h230l-253 -370h-112zM172 0l286 1427h234l-285 -1427h-235z" />
<glyph unicode="&#x38c;" horiz-adv-x="1306" d="M152 591l51 257q56 281 221.5 440t406.5 159q231 0 371.5 -179.5t89.5 -432.5l-51 -257q-57 -281 -228 -440t-418 -159q-225 0 -360 179t-83 433zM197 1245l135 370h230l-253 -370h-112zM386 591q-39 -188 31.5 -302.5t216.5 -114.5q136 0 237 112t137 292l52 259 q36 186 -40 300t-228 114q-129 0 -224.5 -111.5t-131.5 -289.5z" />
<glyph unicode="&#x38e;" horiz-adv-x="1280" d="M35 1245l135 370h230l-253 -370h-112zM320 1427h262l171 -670l6 -1l441 671h261l-643 -928l-100 -499h-233l103 516z" />
<glyph unicode="&#x38f;" horiz-adv-x="1282" d="M51 0l39 192h214q-86 93 -119.5 237t-0.5 301l20 101q57 290 231.5 453t410.5 163q217 0 334.5 -174t64.5 -442l-21 -101q-33 -166 -120.5 -307.5t-206.5 -230.5h212l-38 -192h-461l38 192l1 4q112 27 195.5 160.5t131.5 373.5l21 103q43 219 -7.5 320t-181.5 101 q-121 0 -218 -109.5t-137 -311.5l-20 -103q-52 -257 -20.5 -382t138.5 -152l-23 -119h-1l-15 -77h-461zM184 1245l135 370h230l-253 -370h-112z" />
<glyph unicode="&#x390;" horiz-adv-x="635" d="M83 1160l40 200h213l-41 -200h-212zM135 297l152 762h234l-153 -769q-14 -70 1.5 -93t54.5 -23q23 0 44.5 5.5t45.5 16.5l1 -173q-49 -25 -91.5 -34.5t-93.5 -9.5q-117 0 -172 78.5t-23 239.5zM406 1377l97 267h235l-192 -267h-140zM568 1160l40 200h212l-41 -200h-211z " />
<glyph unicode="&#x391;" horiz-adv-x="1231" d="M-58 0l771 1427h222l195 -1427h-237l-38 333h-504l-173 -333h-236zM454 532h378l-67 590l-5 1z" />
<glyph unicode="&#x392;" horiz-adv-x="1211" d="M64 0l285 1427h448q207 0 319 -99t75 -290q-21 -103 -87.5 -177.5t-166.5 -110.5q114 -29 158 -123t19 -217q-44 -214 -183 -312t-362 -98h-505zM336 190h272q103 0 177 57.5t96 162.5q24 120 -13 179.5t-144 59.5h-297zM463 826h240q90 0 161 53.5t91 147.5 q21 113 -28.5 161t-167.5 48h-214z" />
<glyph unicode="&#x393;" horiz-adv-x="1050" d="M64 0l285 1427h843l-39 -191h-607l-247 -1236h-235z" />
<glyph unicode="&#x395;" horiz-adv-x="1092" d="M64 0l285 1427h895l-39 -191h-660l-80 -403h574l-38 -191h-575l-90 -452h668l-39 -190h-901z" />
<glyph unicode="&#x396;" horiz-adv-x="1117" d="M26 0l3 149l768 1087h-558l38 191h839l-28 -143l-771 -1094h631l-39 -190h-883z" />
<glyph unicode="&#x397;" horiz-adv-x="1337" d="M64 0l285 1427h234l-125 -627h575l125 627h234l-286 -1427h-233l122 609h-576l-121 -609h-234z" />
<glyph unicode="&#x398;" horiz-adv-x="1291" d="M131 591l51 257q56 281 221.5 440t406.5 159q231 0 371.5 -179.5t89.5 -432.5l-51 -257q-57 -281 -228 -440t-418 -159q-225 0 -360 179t-83 433zM365 591q-39 -188 31.5 -302.5t216.5 -114.5q136 0 237 112t137 292l52 259q36 186 -40 300t-228 114 q-129 0 -224.5 -111.5t-130.5 -289.5zM493 620l38 191h399l-38 -191h-399z" />
<glyph unicode="&#x399;" horiz-adv-x="550" d="M74 0l286 1427h234l-285 -1427h-235z" />
<glyph unicode="&#x39a;" horiz-adv-x="1214" d="M48 0l285 1427h235l-120 -600h125l461 600h295l2 -5l-598 -712l334 -710h-267l-274 615h-120l-123 -615h-235z" />
<glyph unicode="&#x39b;" horiz-adv-x="1229" d="M-50 0l754 1427h221l184 -1427h-243l-114 1099l-6 1l-554 -1100h-242z" />
<glyph unicode="&#x39c;" horiz-adv-x="1647" d="M64 0l285 1427h304l151 -1096l5 -1l589 1097h303l-285 -1427h-234l97 486l142 594l-6 3l-598 -1083h-156l-164 1080h-6l-96 -594l-97 -486h-234z" />
<glyph unicode="&#x39d;" horiz-adv-x="1337" d="M64 0l285 1427h234l365 -1020h6l203 1020h235l-286 -1427h-234l-364 1021h-6l-204 -1021h-234z" />
<glyph unicode="&#x39e;" horiz-adv-x="1078" d="M24 0l38 190h876l-38 -190h-876zM239 640l37 187h697l-37 -187h-697zM279 1236l39 191h845l-38 -191h-846z" />
<glyph unicode="&#x39f;" horiz-adv-x="1286" d="M132 591l51 257q56 281 221.5 440t406.5 159q231 0 371.5 -179.5t89.5 -432.5l-51 -257q-57 -281 -228 -440t-418 -159q-225 0 -360 179t-83 433zM366 591q-39 -188 31.5 -302.5t216.5 -114.5q136 0 237 112t137 292l52 259q36 186 -40 300t-228 114 q-129 0 -224.5 -111.5t-131.5 -289.5z" />
<glyph unicode="&#x3a0;" horiz-adv-x="1338" d="M64 0l285 1427h1044l-286 -1427h-233l247 1236h-576l-247 -1236h-234z" />
<glyph unicode="&#x3a1;" horiz-adv-x="1222" d="M64 0l285 1427h526q206 0 314 -124.5t69 -318.5q-43 -213 -189 -328t-371 -115h-292l-108 -541h-234zM444 732h292q110 0 188 72.5t99 177.5q23 116 -21.5 185t-164.5 69h-292z" />
<glyph unicode="&#x3a3;" horiz-adv-x="1078" d="M-13 0l30 149l529 565l-303 564l29 149h908l-38 -191h-611l265 -512l-4 -19l-465 -509l2 -5h637l-38 -191h-941z" />
<glyph unicode="&#x3a4;" horiz-adv-x="1086" d="M195 1236l38 191h1024l-38 -191h-395l-247 -1236h-234l247 1236h-395z" />
<glyph unicode="&#x3a5;" horiz-adv-x="1182" d="M222 1427h262l171 -670l6 -1l441 671h261l-643 -928l-100 -499h-233l103 516z" />
<glyph unicode="&#x3a6;" horiz-adv-x="1394" d="M129 706q50 256 221.5 400t399.5 146l35 175h233l-35 -175q207 -3 327.5 -156t73.5 -388q-51 -255 -221.5 -397t-396.5 -144l-33 -167h-233l33 167q-209 1 -330.5 152t-73.5 387zM360 706q-36 -171 19.5 -254.5t188.5 -79.5l6 1l135 671l-5 3q-121 3 -217 -90t-127 -251z M808 375l4 -3q118 -4 213.5 88t126.5 248q35 171 -19.5 256.5t-184.5 82.5l-6 -1z" />
<glyph unicode="&#x3a7;" horiz-adv-x="1199" d="M-19 0l529 719l-291 708h275l181 -527l353 527h278l-518 -708l305 -719h-282l-190 536l-361 -536h-279z" />
<glyph unicode="&#x3a8;" horiz-adv-x="1329" d="M161 895l106 532h233l-106 -532q-34 -169 9.5 -260t151.5 -108l6 1l179 899h233l-179 -896l6 -3q111 20 196 115.5t117 251.5l106 532h234l-105 -532q-54 -264 -211 -406.5t-384 -165.5l-65 -323h-233l64 324q-201 27 -304 177.5t-54 393.5z" />
<glyph unicode="&#x3aa;" horiz-adv-x="550" d="M74 0l286 1427h234l-285 -1427h-235zM171 1569l33 200h227l-32 -200h-228zM612 1569l33 200h228l-32 -200h-229z" />
<glyph unicode="&#x3ab;" horiz-adv-x="1182" d="M222 1427h262l171 -670l6 -1l441 671h261l-643 -928l-100 -499h-233l103 516zM489 1569l33 200h227l-32 -200h-228zM930 1569l33 200h228l-32 -200h-229z" />
<glyph unicode="&#x3ac;" horiz-adv-x="1064" d="M96 495l4 20q53 270 183 417.5t318 147.5q78 0 134 -39t88 -112l45 130h201l-148 -742q-16 -82 -6 -109t41 -27q5 0 12 1t11 3l-12 -176q-32 -17 -61.5 -23.5t-63.5 -6.5q-69 0 -112 38t-54 116q-61 -75 -135 -114.5t-162 -39.5q-170 0 -249 145t-34 371zM331 495 q-31 -157 2 -241t144 -84q60 0 112 34.5t95 97.5l3 15l88 443q-16 60 -54 94.5t-99 34.5q-102 0 -178 -106.5t-109 -267.5zM656 1226l135 370h230l-253 -370h-112z" />
<glyph unicode="&#x3ad;" horiz-adv-x="1029" d="M68 300q18 95 78.5 157t157.5 92q-71 36 -104.5 94.5t-20.5 126.5q32 157 159 233t324 76q160 0 264.5 -88t72.5 -226l-2 -5h-226q13 62 -30.5 99t-122.5 37q-82 0 -139 -41.5t-67 -95.5q-14 -66 21 -99.5t124 -33.5h184l-11 -50h1l-15 -70l-9 -49h-185q-87 0 -145.5 -37 t-72.5 -110q-14 -65 30 -106t137 -41q82 0 148 45t79 107h223l2 -6q-29 -171 -166.5 -250t-314.5 -79q-181 0 -292.5 87.5t-81.5 232.5zM607 1225l135 370h230l-253 -370h-112z" />
<glyph unicode="&#x3ae;" d="M33 0l212 1060h215l-16 -134q63 75 142 114.5t169 39.5q146 0 216 -100.5t27 -319.5l-214 -1067h-234l212 1065q27 132 -5 181.5t-122 49.5q-61 0 -114.5 -28t-97.5 -78l-155 -783h-235zM616 1226l135 370h230l-253 -370h-112z" />
<glyph unicode="&#x3af;" horiz-adv-x="635" d="M135 297l152 762h234l-153 -769q-14 -70 1.5 -93t54.5 -23q23 0 44.5 5.5t45.5 16.5l1 -173q-49 -25 -91.5 -34.5t-93.5 -9.5q-117 0 -172 78.5t-23 239.5zM368 1205l135 370h230l-253 -370h-112z" />
<glyph unicode="&#x3b0;" d="M127 463l120 597h233l-119 -599q-34 -164 5.5 -227.5t130.5 -63.5q99 0 176.5 115.5t108.5 269.5q23 121 20.5 246t-22.5 259h231q27 -102 31 -228.5t-26 -276.5q-55 -272 -186.5 -424t-361.5 -152q-195 0 -292 121t-49 363zM349 1161l40 200h213l-41 -200h-212z M672 1378l97 267h235l-192 -267h-140zM834 1161l40 200h212l-41 -200h-211z" />
<glyph unicode="&#x3b1;" horiz-adv-x="1064" d="M96 495l4 20q53 270 183 417.5t318 147.5q78 0 134 -39t88 -112l45 130h201l-148 -742q-16 -82 -6 -109t41 -27q5 0 12 1t11 3l-12 -176q-32 -17 -61.5 -23.5t-63.5 -6.5q-69 0 -112 38t-54 116q-61 -75 -135 -114.5t-162 -39.5q-170 0 -249 145t-34 371zM331 495 q-31 -157 2 -241t144 -84q60 0 112 34.5t95 97.5l3 15l88 443q-16 60 -54 94.5t-99 34.5q-102 0 -178 -106.5t-109 -267.5z" />
<glyph unicode="&#x3b2;" horiz-adv-x="1124" d="M-23 -385l285 1419q37 187 183.5 300t329.5 113q177 0 274 -107t62 -280q-20 -100 -81 -176t-151 -121q96 -45 139 -137.5t19 -212.5q-44 -218 -175 -326t-322 -108q-66 0 -129 20.5t-110 60.5l-89 -445h-235zM337 241q30 -35 80.5 -53t119.5 -18q93 0 168.5 68.5 t97.5 173.5q22 112 -15.5 181t-128.5 69h-109l36 182h65q88 0 147 55.5t78 152.5q18 88 -18 146t-121 58q-79 0 -151 -63.5t-90 -158.5z" />
<glyph unicode="&#x3b3;" horiz-adv-x="960" d="M162 1060h242l54 -701l-1 -74l6 -1l29 75l328 701h242l-535 -1014l-91 -455h-234l91 458z" />
<glyph unicode="&#x3b4;" d="M98 506l4 20q41 207 168 337.5t307 158.5l4 2q-50 64 -107.5 126.5t-117.5 115.5l32 161h698l-37 -189h-381q169 -136 277.5 -315t67.5 -383l-4 -21q-51 -253 -198 -396.5t-363 -143.5q-199 0 -297.5 149.5t-52.5 377.5zM335 519q-33 -165 1 -257t150 -92q103 0 181 99 t108 250l4 21q24 121 -7 205.5t-98 134.5q-11 4 -22 6.5t-25 2.5q-104 0 -181.5 -100.5t-106.5 -248.5z" />
<glyph unicode="&#x3b5;" horiz-adv-x="1029" d="M68 300q18 95 78.5 157t157.5 92q-71 36 -104.5 94.5t-20.5 126.5q32 157 159 233t324 76q160 0 264.5 -88t72.5 -226l-2 -5h-226q13 62 -30.5 99t-122.5 37q-82 0 -139 -41.5t-67 -95.5q-14 -66 21 -99.5t124 -33.5h184l-11 -50h1l-15 -70l-9 -49h-185q-87 0 -145.5 -37 t-72.5 -110q-14 -65 30 -106t137 -41q82 0 148 45t79 107h223l2 -6q-29 -171 -166.5 -250t-314.5 -79q-181 0 -292.5 87.5t-81.5 232.5z" />
<glyph unicode="&#x3b6;" horiz-adv-x="976" d="M138 375q28 143 118 285t257 311l259 259l-2 6h-509l38 191h798l-27 -135l-396 -420q-137 -139 -204.5 -240t-94.5 -233q-22 -113 10.5 -162t121.5 -49h32q136 0 209.5 -68t49.5 -195q-26 -118 -121.5 -208.5t-222.5 -134.5l-54 161q65 29 111 66.5t58 97.5q9 47 -19 70 t-104 23h-41q-157 0 -228 109t-39 266z" />
<glyph unicode="&#x3b7;" d="M33 0l212 1060h215l-16 -134q63 75 142 114.5t169 39.5q146 0 216 -100.5t27 -319.5l-214 -1067h-234l212 1065q27 132 -5 181.5t-122 49.5q-61 0 -114.5 -28t-97.5 -78l-155 -783h-235z" />
<glyph unicode="&#x3b8;" horiz-adv-x="1090" d="M134 550l66 326q59 296 201.5 433.5t349.5 137.5q189 0 283.5 -149t40.5 -422l-66 -326q-59 -297 -201.5 -434t-347.5 -137q-190 0 -285.5 148.5t-40.5 422.5zM359.5 248.5q36.5 -78.5 138.5 -78.5q93 0 164 85.5t106 259.5l21 106h-407l-20 -106q-39 -188 -2.5 -266.5z M419 808h407l22 104q37 187 1.5 265.5t-137.5 78.5q-93 0 -165 -86t-106 -258z" />
<glyph unicode="&#x3b9;" horiz-adv-x="635" d="M135 297l152 762h234l-153 -769q-14 -70 1.5 -93t54.5 -23q23 0 44.5 5.5t45.5 16.5l1 -173q-49 -25 -91.5 -34.5t-93.5 -9.5q-117 0 -172 78.5t-23 239.5z" />
<glyph unicode="&#x3ba;" horiz-adv-x="1087" d="M49 0l212 1060h233l-84 -423h71l379 423h283l3 -6l-477 -498l290 -556h-297l-201 419h-95l-84 -419h-233z" />
<glyph unicode="&#x3bb;" horiz-adv-x="1045" d="M-47 0l552 1022l-25 123q-13 65 -43 108t-80 43q-11 0 -30 -2t-32 -3l34 178q32 8 61.5 13.5t58.5 5.5q122 0 185 -82t79 -185l149 -902q6 -58 27.5 -95t58.5 -41q13 -1 20.5 -1t23.5 3l-49 -188q-21 -6 -45 -9.5t-43 -1.5q-111 5 -164 83t-73 210l-64 435h-6l-36 -88 l-303 -626h-256z" />
<glyph unicode="&#x3bc;" horiz-adv-x="1120" d="M-28 -408l293 1468h233l-128 -636q-27 -156 5.5 -204t117.5 -48q71 0 126 31t95 91l153 766h235l-212 -1060h-216l9 71q-49 -46 -106 -69t-122 -23q-51 0 -92 13.5t-70 40.5l-88 -441h-233z" />
<glyph unicode="&#x3bd;" horiz-adv-x="960" d="M134 1060h242l83 -701l2 -73l5 -1l27 74l300 701h242l-518 -1060h-202z" />
<glyph unicode="&#x3be;" horiz-adv-x="984" d="M91 406q29 146 117 237.5t233 132.5q-84 37 -124.5 99.5t-23.5 141.5q14 75 52 128t98 87h-183l39 195h777l-39 -195h-274q-92 -8 -154 -60.5t-77 -129.5q-18 -86 28 -130t166 -44h134l-27 -140h-1l-11 -55h-131q-145 0 -241.5 -70t-123.5 -201q-21 -108 25.5 -168.5 t155.5 -60.5h85q135 0 209 -67t49 -195q-28 -126 -120 -214t-225 -136l-48 150q61 29 108.5 67.5t60.5 100.5q10 50 -13.5 75t-86.5 25h-64q-194 0 -302 115t-68 312z" />
<glyph unicode="&#x3bf;" d="M95 519l3 21q39 246 182 393t357 147q205 0 306 -153t63 -387l-2 -21q-41 -248 -183.5 -394t-356.5 -146q-205 0 -306 152.5t-63 387.5zM329 519q-26 -161 12 -255t153 -94q107 0 179 98.5t96 250.5l3 21q25 159 -13.5 254t-151.5 95q-107 0 -179 -99.5t-96 -249.5z" />
<glyph unicode="&#x3c0;" horiz-adv-x="1172" d="M118 0l174 875h-123l36 185h995l-36 -185h-120l-117 -585q-14 -70 2 -93t55 -23q22 0 44 5.5t45 16.5l2 -173q-49 -25 -91.5 -34.5t-93.5 -9.5q-118 0 -173 78.5t-22 239.5l114 578h-284l-174 -875h-233z" />
<glyph unicode="&#x3c1;" d="M-46 -408l194 972q50 252 194.5 384t340.5 132q197 0 285.5 -158t38.5 -407l-3 -20q-50 -247 -175 -381.5t-310 -134.5q-78 0 -135.5 30.5t-94.5 89.5l-101 -507h-234zM325 278q18 -52 58 -80t107 -28q102 0 176 91t103 234l4 20q35 177 5.5 275.5t-139.5 98.5 q-88 0 -160.5 -103t-98.5 -234z" />
<glyph unicode="&#x3c2;" horiz-adv-x="992" d="M95 513l7 34q48 242 193.5 387.5t359.5 145.5q166 0 259 -108.5t57 -291.5h-219q18 96 -14 152.5t-122 56.5q-102 0 -177 -102t-102 -240l-7 -34q-29 -144 18 -223.5t183 -101.5q167 -28 235.5 -86t42.5 -185q-25 -117 -120.5 -207.5t-222.5 -134.5l-53 160 q64 30 110 67.5t59 97.5q8 45 -23.5 67t-109.5 35q-223 35 -310.5 166t-43.5 345z" />
<glyph unicode="&#x3c3;" horiz-adv-x="1078" d="M100 519l4 21q48 243 194.5 381.5t363.5 138.5h521l-38 -192h-240q63 -67 89 -162.5t5 -205.5l-4 -21q-45 -223 -191.5 -361.5t-355.5 -138.5q-200 0 -297.5 153.5t-50.5 386.5zM334 519q-33 -165 1 -257t151 -92q100 0 175.5 99t105.5 250l4 21q31 152 -3 240t-145 88 q-105 0 -181 -94.5t-104 -233.5z" />
<glyph unicode="&#x3c4;" horiz-adv-x="991" d="M157 871l37 189h861l-37 -189h-315l-174 -871h-234l173 871h-311z" />
<glyph unicode="&#x3c5;" d="M127 463l120 597h233l-119 -599q-34 -164 5.5 -227.5t130.5 -63.5q99 0 176.5 115.5t108.5 269.5q23 121 20.5 246t-22.5 259h231q27 -102 31 -228.5t-26 -276.5q-55 -272 -186.5 -424t-361.5 -152q-195 0 -292 121t-49 363z" />
<glyph unicode="&#x3c6;" horiz-adv-x="1373" d="M92 568q30 156 82.5 272t124.5 220h228q-73 -130 -124 -252t-77 -240q-31 -152 10.5 -252.5t172.5 -125.5h5l175 870h235q209 0 327 -163t75 -377q-46 -227 -195 -368.5t-422 -166.5l-91 -453h-235l91 456q-235 35 -331 197.5t-51 382.5zM750 190l5 -3q136 24 223 117 t113 216q26 147 -24 246t-177 95l-6 -1z" />
<glyph unicode="&#x3c7;" horiz-adv-x="1037" d="M-74 -408l495 764l-71 377q-12 65 -45.5 106t-85.5 41q-10 0 -29.5 -2t-32.5 -3l34 182q31 8 63.5 13.5t63.5 5.5q121 0 182.5 -82t75.5 -185l31 -159l5 -1l267 411h235l-453 -701l85 -450q11 -60 31 -93.5t56 -37.5h21t21 2l-46 -195q-19 -5 -44 -8t-47 -2 q-105 5 -155 84t-68 210l-37 196l-6 1l-306 -474h-240z" />
<glyph unicode="&#x3c8;" horiz-adv-x="1367" d="M106 581l95 479h234l-96 -481q-38 -188 8 -280t156 -110l6 1l174 870h235l-173 -866l6 -3q134 29 224.5 134t119.5 243q20 120 17 242.5t-23 249.5h228q30 -100 35 -223t-23 -269q-50 -249 -201.5 -403t-424.5 -180l-91 -453h-235l91 456q-213 33 -314 181t-48 412z" />
<glyph unicode="&#x3c9;" horiz-adv-x="1603" d="M115 555q32 160 93.5 280t149.5 225h231q-88 -128 -149.5 -254.5t-90.5 -250.5q-36 -180 -15 -282.5t115 -102.5q77 0 144 73t98 227l64 319h242l-64 -319q-34 -166 1 -233t120 -67q87 0 154 109.5t100 275.5q21 123 9.5 249.5t-48.5 255.5h232q43 -101 57 -227.5 t-15 -277.5q-55 -273 -178.5 -424.5t-337.5 -151.5q-103 0 -172 56.5t-93 164.5q-63 -113 -154.5 -167t-206.5 -54q-198 0 -267 163t-19 413z" />
<glyph unicode="&#x3ca;" horiz-adv-x="635" d="M116 1232l33 200h227l-32 -200h-228zM135 297l152 762h234l-153 -769q-14 -70 1.5 -93t54.5 -23q23 0 44.5 5.5t45.5 16.5l1 -173q-49 -25 -91.5 -34.5t-93.5 -9.5q-117 0 -172 78.5t-23 239.5zM557 1232l33 200h228l-32 -200h-229z" />
<glyph unicode="&#x3cb;" d="M127 463l120 597h233l-119 -599q-34 -164 5.5 -227.5t130.5 -63.5q99 0 176.5 115.5t108.5 269.5q23 121 20.5 246t-22.5 259h231q27 -102 31 -228.5t-26 -276.5q-55 -272 -186.5 -424t-361.5 -152q-195 0 -292 121t-49 363zM383 1233l33 200h227l-32 -200h-228z M824 1233l33 200h228l-32 -200h-229z" />
<glyph unicode="&#x3cc;" d="M95 519l3 21q39 246 182 393t357 147q205 0 306 -153t63 -387l-2 -21q-41 -248 -183.5 -394t-356.5 -146q-205 0 -306 152.5t-63 387.5zM329 519q-26 -161 12 -255t153 -94q107 0 179 98.5t96 250.5l3 21q25 159 -13.5 254t-151.5 95q-107 0 -179 -99.5t-96 -249.5z M581 1226l135 370h230l-253 -370h-112z" />
<glyph unicode="&#x3cd;" d="M127 463l120 597h233l-119 -599q-34 -164 5.5 -227.5t130.5 -63.5q99 0 176.5 115.5t108.5 269.5q23 121 20.5 246t-22.5 259h231q27 -102 31 -228.5t-26 -276.5q-55 -272 -186.5 -424t-361.5 -152q-195 0 -292 121t-49 363zM636 1206l135 370h230l-253 -370h-112z" />
<glyph unicode="&#x3ce;" horiz-adv-x="1603" d="M115 555q32 160 93.5 280t149.5 225h231q-88 -128 -149.5 -254.5t-90.5 -250.5q-36 -180 -15 -282.5t115 -102.5q77 0 144 73t98 227l64 319h242l-64 -319q-34 -166 1 -233t120 -67q87 0 154 109.5t100 275.5q21 123 9.5 249.5t-48.5 255.5h232q43 -101 57 -227.5 t-15 -277.5q-55 -273 -178.5 -424.5t-337.5 -151.5q-103 0 -172 56.5t-93 164.5q-63 -113 -154.5 -167t-206.5 -54q-198 0 -267 163t-19 413zM882 1206l135 370h230l-253 -370h-112z" />
<glyph unicode="&#x3d1;" horiz-adv-x="1223" d="M139 564l132 663l243 2l-134 -665q-36 -181 17.5 -283.5t184.5 -102.5q121 0 220.5 101t136.5 273q-174 12 -274 132.5t-64 294.5l16 82q37 188 149 287t265 99q141 0 213 -104.5t38 -281.5l-100 -497q-57 -282 -228.5 -433.5t-410.5 -151.5q-217 0 -335.5 169t-68.5 416 zM827 977q-21 -103 17.5 -165t127.5 -67l6 1l67 330q16 88 0.5 126.5t-63.5 38.5q-44 0 -81.5 -43t-52.5 -122z" />
<glyph unicode="&#x3d2;" horiz-adv-x="1052" d="M175 1236l18 188q23 12 47 16.5t54 4.5q89 0 143.5 -56.5t77.5 -189.5l72 -386l1 -62l6 -1l26 63l224 383q78 136 152 192.5t170 56.5q27 0 50.5 -4.5t43.5 -16.5l-60 -188q-3 2 -14.5 3.5t-22.5 1.5q-28 0 -57.5 -21.5t-48.5 -59.5l-396 -643l-104 -517h-234l104 517 l-139 643q-7 39 -26 60t-47 21q-12 0 -24.5 -1.5t-15.5 -3.5z" />
<glyph unicode="&#x3d6;" horiz-adv-x="1515" d="M130 555q19 94 47.5 174t66.5 152h-99l35 179h1432l-35 -179h-116q8 -74 4.5 -156t-19.5 -170q-55 -273 -168.5 -424.5t-303.5 -151.5q-99 0 -164.5 56t-88.5 163q-62 -112 -150 -165.5t-199 -53.5q-175 0 -233.5 163t-8.5 413zM338 274q11 -102 81 -97l6 -2 q69 -4 132 69t95 226l44 222h241l-44 -222q-35 -167 -3 -233t111 -61l4 -1q62 -4 118 105.5t89 274.5q14 80 15 162t-9 164h-730q-43 -84 -75 -165.5t-49 -160.5q-37 -179 -26 -281z" />
<glyph unicode="&#x400;" horiz-adv-x="1092" d="M64 0l285 1427h895l-39 -191h-660l-80 -403h574l-38 -191h-575l-90 -452h668l-39 -190h-901zM510 1789h264l125 -260h-187z" />
<glyph unicode="&#x401;" horiz-adv-x="1092" d="M64 0l285 1427h895l-39 -191h-660l-80 -403h574l-38 -191h-575l-90 -452h668l-39 -190h-901zM462 1569l33 200h227l-32 -200h-228zM903 1569l33 200h228l-32 -200h-229z" />
<glyph unicode="&#x402;" horiz-adv-x="1410" d="M199 1236l38 191h1034l-38 -191h-445l-80 -400q72 18 134 29t110 11q213 0 325.5 -118.5t70.5 -328.5q-44 -215 -183.5 -328.5t-378.5 -110.5l-5 3l33 175q130 0 202 69.5t95 184.5q23 121 -26.5 188t-173.5 67q-53 0 -115.5 -8t-125.5 -22l-129 -647h-234l247 1236h-355 z" />
<glyph unicode="&#x403;" horiz-adv-x="1050" d="M64 0l285 1427h843l-39 -191h-607l-247 -1236h-235zM681 1528l215 260h265l-298 -260h-182z" />
<glyph unicode="&#x404;" horiz-adv-x="1233" d="M139 585l54 271q56 282 213 437t388 155q220 0 345 -137.5t98 -359.5l-2 -5h-229q14 147 -43 229t-194 82q-120 0 -213 -112.5t-128 -286.5l-9 -44h459l-38 -191h-459l-8 -38q-37 -186 26 -300t202 -114q120 0 191 71t117 220h226l2 -6q-60 -226 -196 -351t-362 -125 q-221 0 -356 175.5t-84 429.5z" />
<glyph unicode="&#x405;" horiz-adv-x="1168" d="M109 416l2 6h225q-28 -142 52.5 -197t210.5 -55q85 0 157.5 48t87.5 120q20 103 -31.5 160.5t-203.5 113.5q-215 74 -310 181.5t-58 293.5q34 174 172 267t335 93q214 0 333 -117t75 -320l-3 -6h-225q23 114 -37.5 183t-180.5 69q-85 0 -153 -48.5t-82 -118.5 q-21 -106 28.5 -157t220.5 -118q211 -74 300.5 -179.5t52.5 -294.5q-36 -182 -174.5 -271.5t-341.5 -89.5q-213 0 -357.5 107t-94.5 330z" />
<glyph unicode="&#x406;" horiz-adv-x="550" d="M74 0l286 1427h234l-285 -1427h-235z" />
<glyph unicode="&#x407;" horiz-adv-x="550" d="M74 0l286 1427h234l-285 -1427h-235zM171 1569l33 200h227l-32 -200h-228zM612 1569l33 200h228l-32 -200h-229z" />
<glyph unicode="&#x408;" horiz-adv-x="1057" d="M58 400l3 5h227q-26 -130 16 -182.5t140 -52.5q78 0 148 66.5t92 176.5l203 1014h234l-203 -1014q-43 -213 -182 -323.5t-330 -110.5q-188 0 -290.5 108.5t-57.5 312.5z" />
<glyph unicode="&#x409;" horiz-adv-x="2000" d="M-37 0l38 190h37q125 0 209 134t145 441l129 662h866l-105 -522h277q205 0 314 -128.5t69 -324.5q-43 -214 -192 -333t-372 -119h-512l247 1236h-396l-92 -471q-78 -400 -227 -582.5t-390 -182.5h-45zM1140 190h276q109 0 190.5 78t103.5 186q23 113 -23 186t-166 73 h-277z" />
<glyph unicode="&#x40a;" horiz-adv-x="2007" d="M64 0l285 1427h235l-121 -608h574l121 608h236l-112 -556h277q207 0 316 -121.5t72 -310.5q-42 -208 -190 -323.5t-372 -115.5h-512l126 628h-575l-125 -628h-235zM1148 198h276q110 0 189.5 71t100.5 172q22 108 -25.5 173.5t-167.5 65.5h-277z" />
<glyph unicode="&#x40b;" horiz-adv-x="1496" d="M218 1236l38 191h1024l-38 -191h-451l-73 -360q61 13 125 20t133 7q217 0 326 -111.5t63 -342.5l-90 -449h-233l90 449q30 158 -15.5 209.5t-178.5 51.5q-56 0 -124 -7.5t-134 -20.5l-136 -682h-234l247 1236h-339z" />
<glyph unicode="&#x40c;" horiz-adv-x="1214" d="M48 0l285 1427h235l-120 -600h125l461 600h295l2 -5l-598 -712l334 -710h-267l-274 615h-120l-123 -615h-235zM655 1528l215 260h265l-298 -260h-182z" />
<glyph unicode="&#x40d;" horiz-adv-x="1331" d="M59 0l285 1427h234l-199 -999l5 -2l768 1001h235l-285 -1427h-236l199 998l-5 2l-767 -1000h-234zM606 1789h264l125 -260h-187z" />
<glyph unicode="&#x40e;" horiz-adv-x="1185" d="M166 -15l38 188q9 -1 37 -2t42 -1q62 0 101.5 36t79.5 105l39 65l-236 1051h255l118 -645l17 -125l5 -1l418 771h259l-685 -1174q-85 -136 -169 -205t-226 -69q-22 0 -53 2t-40 4zM578 1841l2 5h175q-10 -58 12.5 -93.5t82.5 -35.5q56 0 91.5 36.5t44.5 92.5h174l2 -6 q-16 -124 -107 -197.5t-229 -73.5q-131 0 -201 76t-47 196z" />
<glyph unicode="&#x40f;" horiz-adv-x="1333" d="M58 0l285 1427h235l-247 -1237h575l246 1237h236l-286 -1427h-395l-71 -353h-234l70 353h-414z" />
<glyph unicode="&#x410;" horiz-adv-x="1231" d="M-58 0l771 1427h222l195 -1427h-237l-38 333h-504l-173 -333h-236zM454 532h378l-67 590l-5 1z" />
<glyph unicode="&#x411;" horiz-adv-x="1183" d="M53 0l285 1427h843l-38 -191h-608l-72 -361h277q208 0 317.5 -119.5t70.5 -313.5q-43 -213 -190.5 -327.5t-373.5 -114.5h-511zM326 190h277q109 0 189 74t103 180q21 112 -26 176t-167 64h-278z" />
<glyph unicode="&#x412;" horiz-adv-x="1211" d="M64 0l285 1427h448q207 0 319 -99t75 -290q-21 -103 -87.5 -177.5t-166.5 -110.5q114 -29 158 -123t19 -217q-44 -214 -183 -312t-362 -98h-505zM336 190h272q103 0 177 57.5t96 162.5q24 120 -13 179.5t-144 59.5h-297zM463 826h240q90 0 161 53.5t91 147.5 q21 113 -28.5 161t-167.5 48h-214z" />
<glyph unicode="&#x413;" horiz-adv-x="1050" d="M64 0l285 1427h843l-39 -191h-607l-247 -1236h-235z" />
<glyph unicode="&#x414;" horiz-adv-x="1423" d="M-91 -352l82 542h111q84 73 168 224.5t145 428.5l151 584h842l-247 -1237h175l-132 -541h-211l70 351h-876l-70 -352h-208zM362 190h565l209 1046h-385l-100 -393q-52 -224 -126 -385t-163 -268z" />
<glyph unicode="&#x415;" horiz-adv-x="1092" d="M64 0l285 1427h895l-39 -191h-660l-80 -403h574l-38 -191h-575l-90 -452h668l-39 -190h-901z" />
<glyph unicode="&#x416;" horiz-adv-x="1797" d="M-56 0l576 763l-261 664h281l190 -600h141l121 600h233l-121 -600h138l426 600h281l-524 -663l269 -764h-291l-192 622h-147l-124 -622h-233l124 622h-152l-444 -622h-291z" />
<glyph unicode="&#x417;" horiz-adv-x="1136" d="M72 390l2 6h227q-21 -102 34.5 -164t167.5 -62q114 0 202.5 65t107.5 164q26 127 -24.5 180.5t-177.5 53.5h-154l9 50l18 87l11 52h154q110 0 182 59t91 159q20 99 -30 157.5t-173 58.5q-91 0 -171 -59.5t-97 -148.5h-225l-2 6q33 187 183.5 290t350.5 103 q208 0 322.5 -107.5t75.5 -299.5q-21 -105 -92.5 -186t-179.5 -125q99 -44 143.5 -128.5t22.5 -200.5q-44 -210 -200.5 -315.5t-384.5 -105.5q-186 0 -312 106.5t-81 304.5z" />
<glyph unicode="&#x418;" horiz-adv-x="1331" d="M59 0l285 1427h234l-199 -999l5 -2l768 1001h235l-285 -1427h-236l199 998l-5 2l-767 -1000h-234z" />
<glyph unicode="&#x419;" horiz-adv-x="1331" d="M59 0l285 1427h234l-199 -999l5 -2l768 1001h235l-285 -1427h-236l199 998l-5 2l-767 -1000h-234zM647 1841l2 5h175q-10 -58 12.5 -93.5t82.5 -35.5q56 0 91.5 36.5t44.5 92.5h174l2 -6q-16 -124 -107 -197.5t-229 -73.5q-131 0 -201 76t-47 196z" />
<glyph unicode="&#x41a;" horiz-adv-x="1214" d="M48 0l285 1427h235l-120 -600h125l461 600h295l2 -5l-598 -712l334 -710h-267l-274 615h-120l-123 -615h-235z" />
<glyph unicode="&#x41b;" horiz-adv-x="1331" d="M-35 0l38 190h36q126 5 200.5 133.5t135.5 441.5l130 662h882l-285 -1427h-236l247 1236h-412l-92 -471q-79 -401 -219.5 -583t-366.5 -182h-58z" />
<glyph unicode="&#x41c;" horiz-adv-x="1647" d="M64 0l285 1427h304l151 -1096l5 -1l589 1097h303l-285 -1427h-234l97 486l142 594l-6 3l-598 -1083h-156l-164 1080h-6l-96 -594l-97 -486h-234z" />
<glyph unicode="&#x41d;" horiz-adv-x="1337" d="M64 0l285 1427h234l-125 -627h575l125 627h234l-286 -1427h-233l122 609h-576l-121 -609h-234z" />
<glyph unicode="&#x41e;" horiz-adv-x="1286" d="M132 591l51 257q56 281 221.5 440t406.5 159q231 0 371.5 -179.5t89.5 -432.5l-51 -257q-57 -281 -228 -440t-418 -159q-225 0 -360 179t-83 433zM366 591q-39 -188 31.5 -302.5t216.5 -114.5q136 0 237 112t137 292l52 259q36 186 -40 300t-228 114 q-129 0 -224.5 -111.5t-131.5 -289.5z" />
<glyph unicode="&#x41f;" horiz-adv-x="1338" d="M64 0l285 1427h1044l-286 -1427h-233l247 1236h-576l-247 -1236h-234z" />
<glyph unicode="&#x420;" horiz-adv-x="1222" d="M64 0l285 1427h526q206 0 314 -124.5t69 -318.5q-43 -213 -189 -328t-371 -115h-292l-108 -541h-234zM444 732h292q110 0 188 72.5t99 177.5q23 116 -21.5 185t-164.5 69h-292z" />
<glyph unicode="&#x421;" horiz-adv-x="1194" d="M132 584l54 271q56 282 213 437t388 155q220 0 345 -137.5t98 -359.5l-2 -5h-228q13 147 -44 229t-194 82q-120 0 -213 -112.5t-128 -286.5l-54 -273q-38 -186 25 -300t202 -114q120 0 191.5 71t117.5 220h225l2 -6q-60 -226 -196 -351t-362 -125q-221 0 -356 175.5 t-84 429.5z" />
<glyph unicode="&#x422;" horiz-adv-x="1086" d="M195 1236l38 191h1024l-38 -191h-395l-247 -1236h-234l247 1236h-395z" />
<glyph unicode="&#x423;" horiz-adv-x="1185" d="M166 -15l38 188q9 -1 37 -2t42 -1q62 0 101.5 36t79.5 105l39 65l-236 1051h255l118 -645l17 -125l5 -1l418 771h259l-685 -1174q-85 -136 -169 -205t-226 -69q-22 0 -53 2t-40 4z" />
<glyph unicode="&#x424;" horiz-adv-x="1509" d="M135 706q55 276 239.5 431t427.5 155h15l40 194h234l-39 -194h13q223 0 353 -165t79 -419q-54 -275 -238.5 -427.5t-426.5 -152.5h-13l-37 -187h-234l37 187h-17q-222 0 -353 162.5t-80 415.5zM367 706q-40 -192 23.5 -286t218.5 -94h15l154 768h-17q-141 0 -250 -104.5 t-144 -283.5zM858 326h16q139 0 247.5 102.5t143.5 279.5q38 194 -23.5 290t-214.5 96h-15z" />
<glyph unicode="&#x425;" horiz-adv-x="1199" d="M-19 0l529 719l-291 708h275l181 -527l353 527h278l-518 -708l305 -719h-282l-190 536l-361 -536h-279z" />
<glyph unicode="&#x426;" horiz-adv-x="1407" d="M59 0l285 1427h234l-247 -1237h575l247 1237h235l-247 -1234h158l-126 -537h-213l69 344h-970z" />
<glyph unicode="&#x427;" horiz-adv-x="1306" d="M243 977l90 450h235l-90 -450q-32 -159 13.5 -210.5t179.5 -51.5q71 0 158 11.5t165 32.5l133 668h234l-285 -1427h-234l113 565q-74 -20 -155 -31t-167 -11q-217 0 -327 111.5t-63 342.5z" />
<glyph unicode="&#x428;" horiz-adv-x="1788" d="M64 0l285 1427h234l-247 -1237h399l247 1237h233l-247 -1237h394l247 1237h235l-285 -1427h-1495z" />
<glyph unicode="&#x429;" horiz-adv-x="1882" d="M64 0l285 1427h234l-247 -1237h399l247 1237h233l-247 -1237h394l247 1237h235l-247 -1236h165l-126 -535h-214l69 344h-1427z" />
<glyph unicode="&#x42a;" horiz-adv-x="1429" d="M195 1236l38 191h585l-110 -552h277q208 0 317.5 -119.5t70.5 -313.5q-43 -213 -190.5 -327.5t-373.5 -114.5h-511l247 1236h-350zM571 190h277q109 0 189 74t103 180q21 112 -26 176t-167 64h-278z" />
<glyph unicode="&#x42b;" horiz-adv-x="1646" d="M64 0l285 1427h235l-111 -552h278q207 0 317 -119.5t71 -313.5q-43 -213 -190.5 -327.5t-373.5 -114.5h-511zM337 190h276q110 0 190 74t103 180q21 112 -26 176t-168 64h-277zM1180 0l285 1427h234l-285 -1427h-234z" />
<glyph unicode="&#x42c;" horiz-adv-x="1186" d="M53 0l285 1427h235l-110 -552h277q208 0 317.5 -119.5t70.5 -313.5q-43 -213 -190.5 -327.5t-373.5 -114.5h-511zM326 190h277q109 0 189 74t103 180q21 112 -26 176t-167 64h-278z" />
<glyph unicode="&#x42d;" horiz-adv-x="1231" d="M143 461l2 5h226q-31 -153 21 -224t187 -71q121 0 221 116t135 289l12 59h-471l38 192h470l5 23q37 188 -12 297.5t-180 109.5q-124 0 -211 -78t-115 -219h-225l-2 6q41 229 199 355.5t392 126.5q213 0 326.5 -171t62.5 -427l-54 -272q-57 -279 -227 -438.5t-402 -159.5 q-219 0 -333 130t-65 351z" />
<glyph unicode="&#x42e;" horiz-adv-x="1717" d="M72 0l285 1427h234l-128 -642h162l13 63q56 281 221.5 440t406.5 159q230 0 371 -179.5t90 -432.5l-51 -257q-57 -281 -228 -440t-418 -159q-225 0 -360 179t-83 433v2h-163l-118 -593h-234zM820 591q-38 -188 32.5 -302.5t216.5 -114.5q135 0 236 112t138 292l51 259 q37 186 -39 300t-228 114q-129 0 -225 -111.5t-131 -289.5z" />
<glyph unicode="&#x42f;" horiz-adv-x="1176" d="M-41 0l420 609q-107 55 -147 147.5t-11 236.5q41 204 198.5 319t369.5 115h446l-285 -1427h-236l107 538h-246l-365 -538h-251zM453 987q-23 -116 31.5 -190t169.5 -74h204l103 513h-210q-125 0 -199 -62t-99 -187z" />
<glyph unicode="&#x430;" horiz-adv-x="1027" d="M68 299q32 164 158.5 244.5t335.5 80.5h154l19 93q18 89 -16 133.5t-116 44.5q-70 0 -124 -40t-65 -100h-225l-2 5q22 134 152 227t315 93q162 0 256 -96t60 -269l-94 -471q-15 -71 -18 -128.5t4 -115.5h-237q-4 33 -4.5 65.5t2.5 64.5q-60 -65 -139 -108t-164 -43 q-140 0 -211 88t-41 232zM303 303q-14 -65 13 -98.5t95 -33.5q64 0 132 35t107 85l37 184h-159q-84 0 -147.5 -52t-77.5 -120z" />
<glyph unicode="&#x431;" horiz-adv-x="1058" d="M97 493l4 21l19 117q52 333 207.5 521t367.5 232q101 19 151.5 47t60.5 93h180l2 -6q-28 -191 -115.5 -244.5t-286.5 -88.5q-111 -21 -195 -92.5t-125 -202.5l2 -5q61 52 138.5 84.5t157.5 32.5q190 0 284 -138.5t60 -349.5l-4 -21q-38 -236 -179 -375t-356 -139 q-204 0 -306.5 145t-66.5 369zM331 493q-24 -149 15.5 -236t154.5 -87q108 0 178.5 91t92.5 232l4 21q21 134 -20 215t-155 81q-107 0 -176.5 -84.5t-89.5 -211.5z" />
<glyph unicode="&#x432;" horiz-adv-x="1077" d="M49 0l212 1060h404q187 0 287.5 -75t71.5 -219q-16 -78 -69.5 -135.5t-141.5 -86.5q96 -25 137 -90t24 -151q-32 -159 -147.5 -231t-309.5 -72h-468zM321 188h234q76 0 125 34.5t62 96.5q13 67 -18.5 100t-115.5 33h-234zM409 622h180q81 1 132.5 32t63.5 88 q14 69 -25 99t-132 30h-169z" />
<glyph unicode="&#x433;" horiz-adv-x="790" d="M40 0l212 1060h653l-39 -192h-419l-174 -868h-233z" />
<glyph unicode="&#x434;" horiz-adv-x="1177" d="M-84 -316l79 507h82q101 95 156 195.5t104 296.5l85 377h696l-173 -870h141l-121 -506h-213l62 316h-620l-63 -316h-215zM344 190h367l134 666h-234l-40 -173q-42 -166 -98.5 -287.5t-128.5 -205.5z" />
<glyph unicode="&#x435;" horiz-adv-x="1001" d="M99 506l6 39q38 240 184.5 388t334.5 147q195 0 284 -131t54 -347l-22 -140h-613q-13 -135 35 -213.5t159 -78.5q84 0 153.5 24t134.5 67l49 -156q-63 -53 -161 -89.5t-221 -36.5q-204 0 -309 149t-68 378zM366 641l2 -5h368l4 25q16 104 -18.5 166t-127.5 62 q-75 0 -137 -70t-91 -178z" />
<glyph unicode="&#x436;" horiz-adv-x="1522" d="M-58 0l441 570l-208 490h290l124 -416h100l83 416h235l-83 -416h101l291 416h283l3 -5l-400 -485l213 -570h-298l-123 426h-113l-85 -426h-235l85 426h-112l-295 -426h-297z" />
<glyph unicode="&#x437;" horiz-adv-x="964" d="M58 309l2 6h226q-14 -67 26 -109.5t123 -42.5q76 0 129.5 43t65.5 104q16 81 -15 113.5t-115 32.5h-161l10 50l24 121h161q71 0 114 35t56 97q11 60 -16.5 98.5t-106.5 38.5q-67 0 -123.5 -39.5t-67.5 -96.5h-223l-2 5q24 150 150 232t296 82t263 -82t65 -227 q-16 -76 -67.5 -135.5t-129.5 -91.5q73 -33 105.5 -95t15.5 -148q-31 -159 -158 -239.5t-314 -80.5q-157 0 -263 85.5t-70 243.5z" />
<glyph unicode="&#x438;" horiz-adv-x="1085" d="M41 0l212 1060h233l-136 -680l5 -3l501 683h234l-212 -1060h-234l135 681l-5 3l-500 -684h-233z" />
<glyph unicode="&#x439;" horiz-adv-x="1085" d="M41 0l212 1060h233l-136 -680l5 -3l501 683h234l-212 -1060h-234l135 681l-5 3l-500 -684h-233zM460 1505l2 5h175q-10 -58 12.5 -93.5t82.5 -35.5q56 0 91.5 36.5t44.5 92.5h174l2 -6q-16 -124 -107 -197.5t-229 -73.5q-131 0 -201 76t-47 196z" />
<glyph unicode="&#x43a;" horiz-adv-x="1051" d="M50 0l212 1060h234l-84 -423h91l348 423h281l2 -5l-450 -500l272 -555h-305l-178 419h-105l-84 -419h-234z" />
<glyph unicode="&#x43b;" horiz-adv-x="1086" d="M-51 0l41 201h33q87 0 140.5 92.5t97.5 315.5l90 451h741l-212 -1060h-235l173 868h-271l-52 -259q-67 -334 -177 -471.5t-320 -137.5h-49z" />
<glyph unicode="&#x43c;" horiz-adv-x="1417" d="M49 0l212 1060h295l124 -758l5 -1l428 759h294l-211 -1060h-235l132 662l-5 2l-386 -664h-159l-121 663h-6l-132 -663h-235z" />
<glyph unicode="&#x43d;" horiz-adv-x="1084" d="M41 0l212 1060h234l-88 -442h366l89 442h235l-212 -1060h-235l85 428h-366l-86 -428h-234z" />
<glyph unicode="&#x43e;" d="M95 519l3 21q39 246 182 393t357 147q205 0 306 -153t63 -387l-2 -21q-41 -248 -183.5 -394t-356.5 -146q-205 0 -306 152.5t-63 387.5zM329 519q-26 -161 12 -255t153 -94q107 0 179 98.5t96 250.5l3 21q25 159 -13.5 254t-151.5 95q-107 0 -179 -99.5t-96 -249.5z" />
<glyph unicode="&#x43f;" horiz-adv-x="1085" d="M41 0l212 1060h837l-212 -1060h-235l173 868h-367l-174 -868h-234z" />
<glyph unicode="&#x440;" d="M-46 -408l293 1468h210l-8 -103q57 59 124.5 91t144.5 32q172 0 254.5 -168.5t33.5 -415.5l-3 -21q-50 -247 -166 -371.5t-299 -124.5q-79 0 -143.5 30.5t-105.5 87.5l-101 -505h-234zM323 269q20 -49 64.5 -74t114.5 -25q103 0 171 81.5t96 223.5l4 21q35 172 -3 280.5 t-150 108.5q-58 0 -108.5 -34.5t-91.5 -94.5z" />
<glyph unicode="&#x441;" horiz-adv-x="991" d="M91 513l5 34q38 239 178 386t361 147q173 0 270 -112t65 -283l-2 -5h-213q14 91 -26 150t-124 59q-116 0 -183.5 -99t-91.5 -243l-5 -34q-25 -155 9 -249t156 -94q75 0 137 51t75 129h211l2 -6q-20 -156 -153.5 -260.5t-301.5 -104.5q-212 0 -309 152.5t-60 381.5z" />
<glyph unicode="&#x442;" horiz-adv-x="936" d="M128 871l38 189h861l-37 -189h-317l-173 -871h-234l173 871h-311z" />
<glyph unicode="&#x443;" horiz-adv-x="960" d="M-70 -409l63 185q12 -1 33 -3t33 -2q54 0 103 47.5t76 98.5l55 95l-147 1048h256l51 -635l1 -87l6 -1l351 723h257l-650 -1221q-61 -109 -149 -188t-219 -79q-26 0 -58.5 6t-61.5 13z" />
<glyph unicode="&#x444;" horiz-adv-x="1369" d="M94 495l4 20q54 271 175.5 418t298.5 147q33 0 61.5 -7.5t55.5 -19.5l95 476h233l-95 -476q32 12 66 19.5t72 7.5q163 0 231.5 -158t18.5 -407l-4 -20q-50 -248 -169 -382t-294 -134q-38 0 -70.5 8t-59.5 22l-83 -417h-233l81 410q-29 -11 -61 -17t-66 -6 q-161 0 -232 144.5t-25 371.5zM322 253q26 -83 129 -83q15 0 31 1.5t32 5.5l141 704q-14 3 -29 5.5t-31 2.5q-93 0 -161.5 -105.5t-101.5 -268.5l-4 -20q-32 -159 -6 -242zM747 177q13 -4 30.5 -5.5t36.5 -1.5q93 0 160.5 90.5t96.5 234.5l4 20q34 176 7.5 275t-126.5 99 q-19 0 -36 -3t-33 -8z" />
<glyph unicode="&#x445;" horiz-adv-x="960" d="M-35 0l402 536l-224 524h266l109 -356l6 -1l227 357h268l-391 -524l230 -536h-266l-118 366l-6 1l-236 -367h-267z" />
<glyph unicode="&#x446;" horiz-adv-x="1143" d="M41 0l212 1060h234l-173 -870h367l174 870h235l-175 -870h139l-121 -505h-213l63 315h-742z" />
<glyph unicode="&#x447;" horiz-adv-x="1039" d="M154 736l66 325h234l-66 -325q-24 -121 10.5 -166.5t131.5 -45.5q42 0 86 5.5t91 16.5l102 514h235l-212 -1060h-234l70 352q-43 -10 -87.5 -15t-88.5 -5q-185 0 -281.5 103t-56.5 301z" />
<glyph unicode="&#x448;" horiz-adv-x="1544" d="M41 0l212 1060h234l-173 -870h292l173 870h235l-173 -870h294l173 870h234l-212 -1060h-1289z" />
<glyph unicode="&#x449;" horiz-adv-x="1637" d="M33 0l212 1060h234l-173 -870h292l173 870h235l-173 -870h294l173 870h234l-175 -870h176l-121 -505h-213l63 315h-1231z" />
<glyph unicode="&#x44a;" horiz-adv-x="1197" d="M122 869l39 191h515l-67 -337h208q176 0 267.5 -101.5t60.5 -258.5q-35 -170 -159 -266.5t-314 -96.5h-443l174 869h-281zM503 190h207q79 0 132 48.5t67 119.5q15 77 -15 125.5t-115 48.5h-209z" />
<glyph unicode="&#x44b;" horiz-adv-x="1521" d="M49 0l212 1060h235l-68 -337h209q175 0 267 -101.5t60 -258.5q-34 -170 -158 -266.5t-314 -96.5h-443zM322 190h208q79 0 131.5 48.5t67.5 119.5q15 77 -15 125.5t-115 48.5h-209zM1048 0l211 1060h235l-211 -1060h-235z" />
<glyph unicode="&#x44c;" horiz-adv-x="1040" d="M49 0l212 1060h235l-68 -337h209q175 0 267 -101.5t60 -258.5q-34 -170 -158 -266.5t-314 -96.5h-443zM322 190h208q79 0 131.5 48.5t67.5 119.5q15 77 -15 125.5t-115 48.5h-209z" />
<glyph unicode="&#x44d;" horiz-adv-x="997" d="M72 373l2 5h215q-19 -94 18 -151t117 -57q89 0 158.5 81t101.5 199l-3 5h-286l32 164h294q14 123 -22 196.5t-133 73.5q-69 0 -132.5 -52t-77.5 -128h-213l-2 5q27 159 162.5 262.5t301.5 103.5q195 0 289.5 -155.5t50.5 -377.5l-7 -34q-49 -243 -195 -388.5t-357 -145.5 q-166 0 -259.5 112.5t-54.5 281.5z" />
<glyph unicode="&#x44e;" horiz-adv-x="1530" d="M50 0l212 1060h235l-85 -425h169q55 206 190.5 325.5t328.5 119.5q204 0 305 -153t64 -387l-3 -21q-40 -248 -182.5 -394t-357.5 -146q-187 0 -288.5 129t-88.5 335h-176l-88 -443h-235zM792 519q-27 -161 11.5 -255t152.5 -94q107 0 179 98.5t97 250.5l3 21 q24 159 -14 254t-152 95q-107 0 -179 -99.5t-95 -249.5z" />
<glyph unicode="&#x44f;" horiz-adv-x="1047" d="M-50 0l322 433q-80 42 -115.5 117.5t-16.5 170.5q32 159 156.5 249t315.5 90h429l-212 -1060h-233l77 389h-190l-290 -389h-243zM373 715q-12 -64 19 -107t111 -43h206l61 306h-196q-77 0 -133 -47.5t-68 -108.5z" />
<glyph unicode="&#x450;" horiz-adv-x="1001" d="M99 506l6 39q38 240 184.5 388t334.5 147q195 0 284 -131t54 -347l-22 -140h-613q-13 -135 35 -213.5t159 -78.5q84 0 153.5 24t134.5 67l49 -156q-63 -53 -161 -89.5t-221 -36.5q-204 0 -309 149t-68 378zM352 1474h264l125 -260h-187zM366 641l2 -5h368l4 25 q16 104 -18.5 166t-127.5 62q-75 0 -137 -70t-91 -178z" />
<glyph unicode="&#x451;" horiz-adv-x="1001" d="M99 506l6 39q38 240 184.5 388t334.5 147q195 0 284 -131t54 -347l-22 -140h-613q-13 -135 35 -213.5t159 -78.5q84 0 153.5 24t134.5 67l49 -156q-63 -53 -161 -89.5t-221 -36.5q-204 0 -309 149t-68 378zM304 1254l33 200h227l-32 -200h-228zM366 641l2 -5h368l4 25 q16 104 -18.5 166t-127.5 62q-75 0 -137 -70t-91 -178zM745 1254l33 200h228l-32 -200h-229z" />
<glyph unicode="&#x452;" horiz-adv-x="1071" d="M32 0l235 1174h-140l34 167h139l38 188h234l-38 -188h228l-33 -167h-228l-47 -236q62 68 138 105t161 37q148 0 219.5 -108.5t28.5 -325.5l-39 -191l-9 -48l-82 -407h-1l-12 -62q-37 -187 -138.5 -276.5t-257.5 -89.5q-31 0 -59.5 4t-54.5 12l52 188q14 -5 40 -9t45 -4 q46 0 84.5 47t54.5 128l57 285l85 425q27 134 -5.5 185.5t-126.5 51.5q-57 0 -112.5 -29.5t-100.5 -80.5l-154 -775h-235z" />
<glyph unicode="&#x453;" horiz-adv-x="790" d="M40 0l212 1060h653l-39 -192h-419l-174 -868h-233zM440 1192l215 260h265l-298 -260h-182z" />
<glyph unicode="&#x454;" horiz-adv-x="998" d="M97 513l5 34q38 239 177.5 386t361.5 147q173 0 269.5 -112t65.5 -283l-2 -5h-214q15 91 -25 150t-124 59q-103 0 -168 -79.5t-90 -197.5l3 -5h298l-34 -165h-299q-10 -125 28.5 -198.5t146.5 -73.5q75 0 137 51t75 129h211l2 -6q-20 -156 -153.5 -260.5t-301.5 -104.5 q-212 0 -309 152.5t-60 381.5z" />
<glyph unicode="&#x455;" horiz-adv-x="983" d="M69 328l2 6h218q-12 -92 37 -134t130 -42q78 0 129.5 35.5t61.5 94.5q9 56 -27 92t-149 63q-170 40 -250 114.5t-59 201.5q21 138 141 229.5t295 91.5q174 0 269.5 -96.5t68.5 -235.5l-2 -6h-225q10 67 -26 113.5t-114 46.5q-72 0 -120 -39.5t-57 -94.5q-9 -57 24 -89 t147 -58q181 -41 259 -116t57 -204q-23 -148 -146.5 -235t-308.5 -87t-284 107.5t-71 241.5z" />
<glyph unicode="&#x456;" horiz-adv-x="500" d="M50 0l212 1060h234l-212 -1060h-234zM314 1320l42 209h234l-42 -209h-234z" />
<glyph unicode="&#x457;" horiz-adv-x="509" d="M49 0l212 1060h235l-212 -1060h-235zM80 1233l33 200h227l-32 -200h-228zM521 1233l33 200h228l-32 -200h-229z" />
<glyph unicode="&#x458;" horiz-adv-x="505" d="M-228 -412l51 191q14 -5 36 -8.5t40 -3.5q51 0 91 42t58 129l224 1122h235l-225 -1122q-38 -186 -139.5 -276t-258.5 -90q-30 0 -57.5 4t-54.5 12zM319 1323l42 206h235l-41 -206h-236z" />
<glyph unicode="&#x459;" horiz-adv-x="1599" d="M-50 0l39 193l34 1q83 0 145.5 102t105.5 313l91 451h701l-74 -369h208q176 0 268.5 -97t63.5 -246q-34 -164 -157 -256t-313 -92h-443l174 868h-231l-52 -259q-67 -330 -183.5 -469.5t-328.5 -139.5h-48zM892 188h208q78 0 131 48t67 114q13 67 -18 109t-118 42h-207z " />
<glyph unicode="&#x45a;" horiz-adv-x="1617" d="M41 0l212 1060h234l-80 -402h366l81 402h235l-75 -369h209q175 0 268 -97t63 -246q-33 -164 -156 -256t-313 -92h-443l93 467h-367l-93 -467h-234zM914 188h208q78 0 131 48t67 114q14 67 -18 109t-117 42h-208z" />
<glyph unicode="&#x45b;" horiz-adv-x="1071" d="M32 0l237 1181h-120l33 167h120l36 181h234l-36 -181h248l-33 -167h-248l-49 -243q62 68 138 105t161 37q148 0 219.5 -108.5t28.5 -325.5l-130 -646h-234l129 648q27 134 -5.5 185.5t-126.5 51.5q-57 0 -112.5 -29.5t-100.5 -80.5l-154 -775h-235z" />
<glyph unicode="&#x45c;" horiz-adv-x="1051" d="M50 0l212 1060h234l-84 -423h91l348 423h281l2 -5l-450 -500l272 -555h-305l-178 419h-105l-84 -419h-234zM555 1191l215 260h265l-298 -260h-182z" />
<glyph unicode="&#x45d;" horiz-adv-x="1085" d="M41 0l212 1060h233l-136 -680l5 -3l501 683h234l-212 -1060h-234l135 681l-5 3l-500 -684h-233zM419 1453h264l125 -260h-187z" />
<glyph unicode="&#x45e;" horiz-adv-x="960" d="M-70 -409l63 185q12 -1 33 -3t33 -2q54 0 103 47.5t76 98.5l55 95l-147 1048h256l51 -635l1 -87l6 -1l351 723h257l-650 -1221q-61 -109 -149 -188t-219 -79q-26 0 -58.5 6t-61.5 13zM395 1505l2 5h175q-10 -58 12.5 -93.5t82.5 -35.5q56 0 91.5 36.5t44.5 92.5h174l2 -6 q-16 -124 -107 -197.5t-229 -73.5q-131 0 -201 76t-47 196z" />
<glyph unicode="&#x45f;" horiz-adv-x="1085" d="M41 0l212 1060h234l-173 -870h367l174 870h235l-212 -1060h-300l-70 -351h-236l71 351h-302z" />
<glyph unicode="&#x460;" horiz-adv-x="1705" d="M129 413l203 1014h234l-202 -1014q-26 -129 8.5 -186t114.5 -57q84 0 152 61.5t92 181.5l203 1014h238l-203 -1014q-25 -129 12.5 -186t124.5 -57q80 0 143 61.5t88 181.5l203 1014h234l-203 -1014q-45 -224 -178.5 -329t-324.5 -105q-91 0 -161.5 40.5t-105.5 117.5 q-66 -81 -156 -119.5t-196 -38.5q-171 0 -266 114t-54 320z" />
<glyph unicode="&#x461;" horiz-adv-x="1469" d="M96 387l134 673h235l-135 -673q-23 -117 0.5 -167t86.5 -50q71 0 127 55t77 162l135 673h235l-134 -673q-24 -117 3.5 -167t99.5 -50q61 0 112 55t73 162l134 673h234l-134 -673q-42 -210 -163 -309t-294 -99q-79 0 -140.5 34t-93.5 101q-59 -70 -137.5 -102.5 t-171.5 -32.5q-156 0 -239 107t-44 301z" />
<glyph unicode="&#x462;" horiz-adv-x="1186" d="M53 0l215 1073h-177l33 167h177l37 187h235l-37 -187h190l-33 -167h-190l-40 -198h277q208 0 317.5 -119.5t70.5 -313.5q-43 -213 -190.5 -327.5t-373.5 -114.5h-511zM326 190h277q109 0 189 74t103 180q21 112 -26 176t-167 64h-278z" />
<glyph unicode="&#x463;" horiz-adv-x="1039" d="M48 0l212 1059h-156l33 168h156l61 302h235l-61 -302h262l-33 -168h-262l-61 -303h208q175 0 266.5 -106t58.5 -270q-37 -179 -161.5 -279.5t-314.5 -100.5h-443zM321 190h208q79 0 132.5 54t70.5 132q16 83 -13.5 135.5t-114.5 52.5h-208z" />
<glyph unicode="&#x464;" horiz-adv-x="1680" d="M64 0l285 1427h234l-119 -596h163l5 25q56 282 213 437t388 155q220 0 345 -137.5t98 -359.5l-2 -5h-228q13 147 -44 229t-194 82q-120 0 -213 -112.5t-128 -286.5l-6 -27h447l-39 -192h-446l-11 -54q-37 -186 26 -300t202 -114q120 0 191 71t117 220h226l2 -6 q-60 -226 -196 -351t-362 -125q-221 0 -356 175.5t-84 429.5l11 54h-164l-127 -639h-234z" />
<glyph unicode="&#x465;" horiz-adv-x="1412" d="M40 0l212 1060h235l-89 -447h126q49 212 185 339.5t342 127.5q173 0 269.5 -112t65.5 -283l-2 -5h-214q15 91 -25.5 150t-124.5 59q-102 0 -166 -77t-90 -193l3 -6h336l-33 -167h-338q-12 -128 26.5 -202t147.5 -74q75 0 136.5 51t74.5 129h212l2 -6 q-21 -156 -154 -260.5t-302 -104.5q-195 0 -293.5 131.5t-82.5 335.5h-134l-90 -446h-235z" />
<glyph unicode="&#x466;" horiz-adv-x="1186" d="M-49 0l757 1427h221l179 -1427h-242l-44 402h-112l-79 -402h-213l80 402h-100l-206 -402h-241zM492 585h311l-53 492l-6 1z" />
<glyph unicode="&#x467;" horiz-adv-x="1033" d="M-72 0l597 1060h224l174 -1060h-238l-39 273h-74l-55 -273h-187l55 273h-71l-147 -273h-239zM405 443h216l-36 257l-3 75l-5 2l-34 -77z" />
<glyph unicode="&#x468;" horiz-adv-x="1707" d="M82 0l286 1427h234l-169 -841h319l446 841h221l179 -1427h-242l-44 402h-112l-79 -402h-213l80 402h-100l-206 -402h-241l213 402h-257l-80 -402h-235zM982 585h311l-53 492l-6 1z" />
<glyph unicode="&#x469;" horiz-adv-x="1462" d="M61 0l211 1060h236l-124 -617h221l348 617h223l174 -1060h-238l-39 273h-73l-55 -273h-187l54 273h-71l-147 -273h-238l154 273h-160l-54 -273h-235zM832 443h217l-37 257l-3 75l-5 2l-34 -77z" />
<glyph unicode="&#x46a;" horiz-adv-x="1637" d="M39 0l70 349q50 251 186.5 348.5t375.5 97.5h8l-219 632h1145l-472 -632q210 -5 311.5 -112.5t56.5 -333.5l-69 -349h-234l69 349q31 152 -14 202.5t-174 50.5h-90l-13 -17l-117 -585h-233l121 601l-1 1h-113q-119 0 -190.5 -56.5t-99.5 -196.5l-70 -349h-234zM781 1234 l129 -415l296 415h-425z" />
<glyph unicode="&#x46b;" horiz-adv-x="1394" d="M37 0l34 166q45 226 156 322t298 107l-158 465h931l-346 -467q161 -17 236 -121t35 -306l-33 -166h-234l33 166q28 148 -5.5 197t-136.5 49h-31v-1l-82 -411h-233l82 412h-37q-96 0 -155.5 -55t-85.5 -191l-34 -166h-234zM670 889l72 -265l6 -1l178 266h-256z" />
<glyph unicode="&#x46c;" horiz-adv-x="2171" d="M74 0l286 1427h234l-127 -632h745l-219 632h1145l-472 -632q210 -5 312 -112.5t56 -333.5l-69 -349h-234l69 349q31 152 -14 202.5t-174 50.5h-90l-13 -17l-116 -585h-234l121 601l-1 1h-113q-118 0 -189.5 -56.5t-100.5 -196.5l-69 -349h-235l70 349q16 79 40.5 142.5 t57.5 111.5h-311l-120 -603h-235zM1314 1234l130 -415l296 415h-426z" />
<glyph unicode="&#x46d;" horiz-adv-x="1886" d="M49 0l212 1060h235l-93 -462h614l-158 462h931l-345 -467q161 -17 236 -121t35 -306l-33 -166h-235l34 166q28 148 -5.5 197t-136.5 49h-31v-1l-82 -411h-233l81 412h-36q-96 0 -155.5 -55t-85.5 -191l-34 -166h-234l34 166q14 77 37.5 139t56.5 111h-291l-83 -416h-235z M1163 889l72 -265l6 -1l178 266h-256z" />
<glyph unicode="&#x46e;" horiz-adv-x="974" d="M-69 -97q30 144 127 207.5t254 63.5h44q94 0 167.5 63t92.5 159q25 125 -28.5 181.5t-184.5 56.5h-133l28 136l12 59h136q108 0 178.5 57t88.5 150q19 93 -25.5 145t-155.5 52h-254l39 194h253q193 0 304 -101t77 -279q-25 -117 -97.5 -197t-183.5 -120 q107 -43 155.5 -128t26.5 -202q-44 -211 -183.5 -316t-344.5 -105h-46q-56 0 -90.5 -27t-43.5 -74q-14 -67 16.5 -101.5t86.5 -65.5l-109 -150q-115 39 -172 128.5t-35 213.5zM434 1855l4 19h204l90 -134l143 134h206l-3 -17l-298 -247h-148z" />
<glyph unicode="&#x46f;" horiz-adv-x="929" d="M-56 -97q28 136 121 196.5t243 60.5h44q84 0 146.5 39.5t74.5 101.5q16 75 -33 109.5t-161 34.5h-140l8 41l17 80l8 45h144q91 0 147.5 38t70.5 102q12 60 -30 94t-138 34h-257l36 181h258q180 0 287 -79t79 -220q-16 -83 -72 -141.5t-143 -92.5q87 -33 128 -92t26 -137 q-33 -159 -158.5 -239t-312.5 -80h-45q-59 0 -96 -27t-46 -74q-14 -67 15 -101.5t82 -65.5l-108 -143q-103 45 -159.5 131.5t-35.5 203.5zM329 1497l4 19h204l90 -133l143 133h206l-3 -17l-298 -247h-148z" />
<glyph unicode="&#x470;" horiz-adv-x="1329" d="M161 895l106 532h233l-106 -532q-34 -169 9.5 -260t151.5 -108l6 1l179 899h233l-179 -896l6 -3q111 20 196 115.5t117 251.5l106 532h234l-105 -532q-54 -264 -211 -406.5t-384 -165.5l-65 -323h-233l64 324q-201 27 -304 177.5t-54 393.5z" />
<glyph unicode="&#x471;" horiz-adv-x="1367" d="M106 581l95 479h234l-96 -481q-38 -188 8 -280t156 -110l6 1l174 870h235l-173 -866l6 -3q134 29 224.5 134t119.5 243q20 120 17 242.5t-23 249.5h228q30 -100 35 -223t-23 -269q-50 -249 -201.5 -403t-424.5 -180l-91 -453h-235l91 456q-213 33 -314 181t-48 412z" />
<glyph unicode="&#x472;" horiz-adv-x="1291" d="M132 585l52 257q55 277 235.5 441t423.5 164q228 0 356 -175t77 -430l-52 -257q-56 -278 -240 -442t-433 -164q-224 0 -347.5 174.5t-71.5 431.5zM366 585q-39 -192 20.5 -301.5t203.5 -109.5q137 0 251.5 117.5t149.5 293.5l8 41h-626zM408 794h625l10 50 q38 189 -25.5 298t-213.5 109q-132 0 -241.5 -116.5t-145.5 -290.5z" />
<glyph unicode="&#x473;" horiz-adv-x="1068" d="M94 519l3 21q39 246 182 393t357 147q205 0 306 -153t63 -387l-2 -21q-41 -248 -183.5 -394t-356.5 -146q-205 0 -306 152.5t-63 387.5zM319 448q-10 -130 31 -204t143 -74q93 0 159.5 75.5t96.5 196.5l-3 6h-427zM352 621l3 -6h425q8 127 -33.5 200.5t-140.5 73.5 q-93 0 -159.5 -75.5t-94.5 -192.5z" />
<glyph unicode="&#x474;" horiz-adv-x="1204" d="M221 1427h250l85 -1040l4 -98l4 -2l44 98l354 750q80 162 162.5 236.5t195.5 74.5l45 -1l-42 -204h-20q-38 0 -70.5 -31t-62.5 -96l-555 -1114h-221z" />
<glyph unicode="&#x475;" horiz-adv-x="959" d="M162 1060h242l35 -701l-1 -69l6 -1l27 70l192 437q71 142 154 213t177 71q27 0 50 -5t43 -17l-59 -188q-3 2 -14.5 4t-21.5 2q-29 0 -60.5 -27.5t-47.5 -66.5l-398 -782h-204z" />
<glyph unicode="&#x476;" horiz-adv-x="1204" d="M221 1427h250l85 -1040l4 -98l4 -2l44 98l354 750q80 162 162.5 236.5t195.5 74.5l45 -1l-42 -204h-20q-38 0 -70.5 -31t-62.5 -96l-555 -1114h-221zM354 1818l2 5h244l168 -261h-199zM691 1823h240l116 -261h-186z" />
<glyph unicode="&#x477;" horiz-adv-x="959" d="M162 1060h242l35 -701l-1 -69l6 -1l27 70l192 437q71 142 154 213t177 71q27 0 50 -5t43 -17l-59 -188q-3 2 -14.5 4t-21.5 2q-29 0 -60.5 -27.5t-47.5 -66.5l-398 -782h-204zM209 1550l2 5h244l168 -261h-199zM546 1555h240l116 -261h-186z" />
<glyph unicode="&#x478;" horiz-adv-x="2247" d="M132 591l51 257q56 281 221.5 440t406.5 159q231 0 371.5 -179.5t89.5 -432.5l-51 -257q-57 -281 -228 -440t-418 -159q-225 0 -360 179t-83 433zM366 591q-39 -188 31.5 -302.5t216.5 -114.5q136 0 237 112t137 292l52 259q36 186 -40 300t-228 114 q-129 0 -224.5 -111.5t-131.5 -289.5zM1217 -409l63 185q12 -1 33 -3t33 -2q54 0 103 47.5t76 98.5l55 95l-147 1048h256l51 -635l1 -87l6 -1l351 723h257l-650 -1221q-61 -109 -149 -188t-219 -79q-26 0 -58.5 6t-61.5 13z" />
<glyph unicode="&#x479;" horiz-adv-x="2030" d="M95 519l3 21q39 246 182 393t357 147q205 0 306 -153t63 -387l-2 -21q-41 -248 -183.5 -394t-356.5 -146q-205 0 -306 152.5t-63 387.5zM329 519q-26 -161 12 -255t153 -94q107 0 179 98.5t96 250.5l3 21q25 159 -13.5 254t-151.5 95q-107 0 -179 -99.5t-96 -249.5z M1000 -409l63 185q12 -1 33 -3t33 -2q54 0 103 47.5t76 98.5l55 95l-147 1048h256l51 -635l1 -87l6 -1l351 723h257l-650 -1221q-61 -109 -149 -188t-219 -79q-26 0 -58.5 6t-61.5 13z" />
<glyph unicode="&#x47a;" horiz-adv-x="1291" d="M134 591l51 257q56 281 222 440q145 140 348 157l21 105h190l-23 -119q143 -37 241 -164q141 -179 90 -432l-51 -257q-57 -281 -228 -440q-143 -133 -341 -155l-24 -118h-189l25 126q-149 34 -249 167q-135 179 -83 433zM368 591q-39 -188 32 -303q41 -67 108 -94l19 98 h189l-21 -108q87 24 158 102q101 112 137 292l52 259q36 186 -40 300q-40 60 -100 88l-19 -92h-190l22 113q-93 -21 -166 -106q-95 -112 -131 -290z" />
<glyph unicode="&#x47b;" horiz-adv-x="1071" d="M95 519l3 21q39 246 182 393q122 124 294 143l21 104h190l-24 -118q114 -33 182 -135q101 -153 63 -387l-2 -21q-41 -248 -184 -394q-114 -118 -277 -140l-21 -103h-189l22 110q-126 31 -197 139q-101 153 -63 388zM329 519q-26 -161 12 -255q19 -45 54 -69l20 95h189 l-21 -101q50 25 89 79q73 99 97 251l3 21q25 159 -13 254q-15 35 -40 58l-14 -73h-191l20 96q-61 -22 -107 -86q-71 -99 -95 -249z" />
<glyph unicode="&#x47c;" horiz-adv-x="1701" d="M134 438l106 529q47 235 178.5 346.5t312.5 106.5l5 -3l-36 -181q-74 0 -136.5 -69t-89.5 -200l-106 -529q-28 -143 5 -205.5t114 -62.5q84 0 152 61.5t92 181.5l77 387h228l-78 -387q-25 -129 15 -186t133 -57q74 0 136 68t89 200l106 529q28 142 -5 205.5t-113 63.5 l36 183l6 2q167 4 260 -116.5t50 -337.5l-106 -529q-47 -236 -179 -347.5t-318 -111.5q-92 0 -163.5 38.5t-109.5 112.5q-66 -77 -154 -114t-192 -37q-172 0 -265.5 120.5t-49.5 338.5zM792 1574l8 36q22 114 86.5 163.5t168.5 49.5q57 0 187 -59t234 -59h32l-26 -131h-35 q-106 0 -241 58.5t-173 58.5q-39 0 -70 -25t-40 -74l-4 -18h-127zM912 1337l75 109l27 141h176l-25 -123l-187 -187z" />
<glyph unicode="&#x47d;" horiz-adv-x="1465" d="M106 406l48 240q44 219 164.5 322t288.5 98l5 -3l-37 -181q-61 0 -112.5 -60.5t-74.5 -175.5l-48 -240q-25 -126 -3 -181t82 -55q64 0 118.5 55t75.5 162l40 194h227l-39 -194q-24 -116 6 -166.5t103 -50.5q54 0 102 60t71 176l48 240q25 125 -0.5 180.5t-92.5 55.5 l36 183l6 2q153 4 239.5 -107.5t45.5 -313.5l-48 -240q-44 -221 -162.5 -324t-283.5 -103q-78 0 -139 35t-93 103q-58 -71 -134 -104.5t-164 -33.5q-153 0 -234.5 112t-40.5 315zM633 1228l7 36q22 114 86 163.5t170 49.5q57 0 186.5 -59t233.5 -59h33l-25 -131h-34 q-108 0 -243.5 59t-172.5 59q-39 0 -69.5 -25.5t-40.5 -74.5l-3 -18h-128zM744 998l84 108l26 135h187l-27 -117l-204 -186z" />
<glyph unicode="&#x47e;" horiz-adv-x="1705" d="M129 413l203 1014h234l-202 -1014q-26 -129 8.5 -186t114.5 -57q84 0 152 61.5t92 181.5l203 1014h238l-203 -1014q-25 -129 12.5 -186t124.5 -57q80 0 143 61.5t88 181.5l203 1014h234l-203 -1014q-45 -224 -178.5 -329t-324.5 -105q-91 0 -161.5 40.5t-105.5 117.5 q-66 -81 -156 -119.5t-196 -38.5q-171 0 -266 114t-54 320zM694 1653l22 110h789l-22 -110h-316l-24 -124h-175l25 124h-299z" />
<glyph unicode="&#x47f;" horiz-adv-x="1470" d="M96 387l134 673h235l-135 -673q-23 -117 0.5 -167t86.5 -50q71 0 127 55t77 162l135 673h235l-134 -673q-24 -117 3.5 -167t99.5 -50q61 0 112 55t73 162l134 673h234l-134 -673q-42 -210 -163 -309t-294 -99q-79 0 -140.5 34t-93.5 101q-59 -70 -137.5 -102.5 t-171.5 -32.5q-156 0 -239 107t-44 301zM548 1318l21 110h760l-17 -110h-306l-24 -124h-174l25 124h-285z" />
<glyph unicode="&#x480;" horiz-adv-x="1206" d="M131 577l54 272q56 278 227 438t405 160q218 0 330.5 -130t64.5 -351l-3 -5h-227q30 152 -19.5 223.5t-183.5 71.5q-121 0 -223.5 -117t-136.5 -288l-54 -274q-39 -189 12.5 -298t185.5 -109h144l-108 -537h-233l70 355q-176 36 -264 198.5t-41 390.5z" />
<glyph unicode="&#x481;" horiz-adv-x="1014" d="M106 513l7 34q48 242 193.5 387.5t357.5 145.5q164 0 257.5 -113t56.5 -282l-3 -5h-214q18 93 -18.5 151t-116.5 58q-101 0 -176.5 -102t-101.5 -240l-7 -34q-31 -155 -0.5 -249t143.5 -94h140l-108 -538h-235l72 358q-152 36 -219.5 182t-27.5 341z" />
<glyph unicode="&#x482;" horiz-adv-x="1179" d="M76 0l284 390l-231 168l91 125l235 -168l252 353l-231 168l94 127l233 -167l229 319h162l-286 -397l234 -167l-96 -125l-229 167l-254 -353l229 -169l-92 -125l-233 167l-227 -313h-164z" />
<glyph unicode="&#x483;" horiz-adv-x="9" d="M-695 1163l48 233h502l21 106l169 -1l-43 -215h-503l-24 -124z" />
<glyph unicode="&#x484;" horiz-adv-x="9" d="M-653 1277l26 131h32q106 0 261 59t212 59q107 0 152 -49.5t23 -163.5l-7 -36h-129l3 18q10 49 -11 74.5t-60 25.5q-38 0 -198.5 -59t-268.5 -59h-35z" />
<glyph unicode="&#x485;" horiz-adv-x="9" d="M-372 1470l25 129h178l-30 -147l31 -109l-91 -67z" />
<glyph unicode="&#x486;" horiz-adv-x="9" d="M-360 1343l75 109l28 147h180l-26 -129l-193 -194z" />
<glyph unicode="&#x488;" horiz-adv-x="9" d="M-1422 483q13 82 73 130.5t149 48.5q83 0 127 -51.5t23 -128.5l-2 -5h-96q10 45 -5.5 72t-63.5 27q-41 0 -70.5 -29t-38.5 -70h-94zM-1372 -25q12 82 72.5 130t148.5 48q84 0 128.5 -52t23.5 -127l-2 -5h-96q9 45 -6.5 72t-63.5 27q-41 0 -70.5 -29t-37.5 -70h-95z M-1162 976q12 82 72.5 130t149.5 48q82 0 126.5 -51t23.5 -128l-2 -5h-95q10 45 -6.5 72t-63.5 27q-42 0 -70.5 -29t-37.5 -70h-95zM-892 -304q13 84 72.5 131.5t149.5 47.5q82 0 126.5 -51.5t24.5 -128.5l-2 -5h-95q8 46 -8 72.5t-63 26.5q-42 0 -71.5 -28.5t-37.5 -70.5 h-94zM-586 1248q13 82 72.5 130t148.5 48q83 0 127 -51.5t23 -127.5l-2 -5h-95q10 45 -6 72t-63 27q-41 0 -70.5 -29t-38.5 -70h-94zM-311 -25q12 82 72.5 130t147.5 48q83 0 126.5 -51.5t24.5 -127.5l-2 -5h-95q9 45 -7 72t-64 27q-41 0 -70 -29t-37 -70h-94zM-102 976 q13 81 72.5 129.5t148.5 48.5q82 0 126.5 -51t24.5 -128l-1 -5h-97q9 45 -7.5 72t-63.5 27q-41 0 -69.5 -29t-36.5 -70h-95zM-31 483q12 82 72 130.5t149 48.5q82 0 126.5 -51.5t24.5 -128.5l-2 -5h-96q9 45 -7 72t-63 27q-42 0 -71 -29t-37 -70h-94z" />
<glyph unicode="&#x489;" horiz-adv-x="0" d="M-1381 534l20 96l301 -69l-27 -137l-15 -11zM-1326 -78l308 196l68 -97l-5 -17l-322 -150zM-999 1164l73 68l122 -293l-108 -96l-16 2zM-822 -405l134 346h124l7 -14l-177 -332h-88zM-517 1117l178 331h87l-133 -345h-124zM-281 61l108 97l15 -2l72 -319l-75 -69z M-134 982l6 16l320 150l50 -67q-39 -23 -307 -196zM-17 482l28 136l14 12l280 -121l-20 -96z" />
<glyph unicode="&#x48a;" horiz-adv-x="1331" d="M59 0l285 1427h234l-199 -999l5 -2l768 1001h235l-285 -1427h-236l199 998l-5 2l-767 -1000h-234zM647 1841l2 5h175q-10 -58 12.5 -93.5t82.5 -35.5q56 0 91.5 36.5t44.5 92.5h174l2 -6q-16 -124 -107 -197.5t-229 -73.5q-131 0 -201 76t-47 196zM950 -313l126 314 l39 191h221l-40 -200l-210 -305h-136z" />
<glyph unicode="&#x48b;" horiz-adv-x="1085" d="M41 0l212 1060h233l-136 -680l5 -3l501 683h234l-212 -1060h-234l135 681l-5 3l-500 -684h-233zM460 1505l2 5h175q-10 -58 12.5 -93.5t82.5 -35.5q56 0 91.5 36.5t44.5 92.5h174l2 -6q-16 -124 -107 -197.5t-229 -73.5q-131 0 -201 76t-47 196zM726 -313l126 314l39 191 h221l-40 -200l-210 -305h-136z" />
<glyph unicode="&#x48c;" horiz-adv-x="1186" d="M53 0l215 1073h-177l33 167h177l37 187h235l-37 -187h190l-33 -167h-190l-40 -198h277q208 0 317.5 -119.5t70.5 -313.5q-43 -213 -190.5 -327.5t-373.5 -114.5h-511zM326 190h277q109 0 189 74t103 180q21 112 -26 176t-167 64h-278z" />
<glyph unicode="&#x48d;" horiz-adv-x="1039" d="M48 0l252 1259h-156l33 168h156l35 174h236l-36 -174h262l-33 -168h-262l-101 -503h208q175 0 266.5 -106t58.5 -270q-37 -179 -161.5 -279.5t-314.5 -100.5h-443zM321 190h208q79 0 132.5 54t70.5 132q16 83 -13.5 135.5t-114.5 52.5h-208z" />
<glyph unicode="&#x48e;" horiz-adv-x="1195" d="M64 0l285 1427h526q206 0 314 -124.5t69 -318.5q-41 -202 -174 -316l87 -132l-124 -98l-97 148q-111 -45 -252 -45h-292l-108 -541h-234zM444 732h292q57 0 105 20l-81 124l124 98l81 -124q42 58 58 132q23 116 -21.5 185t-164.5 69h-292z" />
<glyph unicode="&#x48f;" horiz-adv-x="1066" d="M-46 -408l293 1468h210l-8 -103q57 59 124.5 91t144.5 32q172 0 254.5 -168.5t33.5 -415.5l-3 -21q-49 -239 -159 -363l62 -99l-125 -97l-64 101q-79 -38 -179 -38q-79 0 -143.5 30.5t-105.5 87.5l-101 -505h-234zM323 269q20 -49 64.5 -74t114.5 -25q58 0 104 25 l-81 129l126 98l65 -104q35 66 53 157l4 21q35 172 -3 280.5t-150 108.5q-58 0 -108.5 -34.5t-91.5 -94.5z" />
<glyph unicode="&#x490;" horiz-adv-x="1039" d="M53 0l285 1427h617l69 345h234l-107 -536h-616l-247 -1236h-235z" />
<glyph unicode="&#x491;" horiz-adv-x="860" d="M33 0l212 1060h440l62 308h234l-100 -500h-441l-173 -868h-234z" />
<glyph unicode="&#x492;" horiz-adv-x="1050" d="M36 658l34 166h158l121 603h843l-39 -191h-607l-82 -412h207l-33 -166h-208l-131 -658h-235l131 658h-159z" />
<glyph unicode="&#x493;" horiz-adv-x="790" d="M-12 456l34 166h143l87 438h653l-39 -192h-419l-49 -246h225l-33 -166h-225l-92 -456h-233l91 456h-143z" />
<glyph unicode="&#x494;" horiz-adv-x="1116" d="M64 0l285 1427h843l-39 -191h-607l-83 -418h157q242 0 365.5 -151.5t70.5 -419.5q-53 -266 -196.5 -409.5t-375.5 -138.5l-5 3l34 173q123 0 200 102.5t108 262.5q37 188 -22.5 284t-218.5 96h-158l-123 -620h-235z" />
<glyph unicode="&#x495;" horiz-adv-x="975" d="M33 0l212 1060h653l-39 -192h-419l-45 -224h70q205 0 322 -127t73 -346q-28 -141 -142.5 -272.5t-295.5 -178.5l-48 169q108 39 170 109t82 173q25 132 -29 203.5t-172 71.5h-69l-89 -446h-234z" />
<glyph unicode="&#x496;" horiz-adv-x="1797" d="M-56 0l576 763l-261 664h281l190 -600h141l121 600h233l-121 -600h138l426 600h281l-524 -663l269 -764h-291l-192 622h-147l-124 -622h-233l124 622h-152l-444 -622h-291zM1477 -351l106 529h235l-106 -529h-235z" />
<glyph unicode="&#x497;" horiz-adv-x="1522" d="M-58 0l441 570l-208 490h290l124 -416h100l83 416h235l-83 -416h101l291 416h283l3 -5l-400 -485l213 -570h-298l-123 426h-113l-85 -426h-235l85 426h-112l-295 -426h-297zM1161 -351l106 529h235l-106 -529h-235z" />
<glyph unicode="&#x498;" horiz-adv-x="1136" d="M72 390l2 6h227q-21 -102 34.5 -164t167.5 -62q114 0 202.5 65t107.5 164q26 127 -24.5 180.5t-177.5 53.5h-154l9 50l18 87l11 52h154q110 0 182 59t91 159q20 99 -30 157.5t-173 58.5q-91 0 -171 -59.5t-97 -148.5h-225l-2 6q33 187 183.5 290t350.5 103 q208 0 322.5 -107.5t75.5 -299.5q-21 -105 -92.5 -186t-179.5 -125q99 -44 143.5 -128.5t22.5 -200.5q-44 -210 -200.5 -315.5t-384.5 -105.5q-186 0 -312 106.5t-81 304.5zM275 -444l106 529h235l-106 -529h-235z" />
<glyph unicode="&#x499;" horiz-adv-x="964" d="M58 309l2 6h226q-14 -67 26 -109.5t123 -42.5q76 0 129.5 43t65.5 104q16 81 -15 113.5t-115 32.5h-161l10 50l24 121h161q71 0 114 35t56 97q11 60 -16.5 98.5t-106.5 38.5q-67 0 -123.5 -39.5t-67.5 -96.5h-223l-2 5q24 150 150 232t296 82t263 -82t65 -227 q-16 -76 -67.5 -135.5t-129.5 -91.5q73 -33 105.5 -95t15.5 -148q-31 -159 -158 -239.5t-314 -80.5q-157 0 -263 85.5t-70 243.5zM197 -443l106 529h235l-106 -529h-235z" />
<glyph unicode="&#x49a;" horiz-adv-x="1214" d="M48 0l285 1427h235l-120 -600h125l461 600h295l2 -5l-598 -712l334 -710h-267l-274 615h-120l-123 -615h-235zM886 -351l106 529h235l-106 -529h-235z" />
<glyph unicode="&#x49b;" horiz-adv-x="1051" d="M50 0l212 1060h234l-84 -423h91l348 423h281l2 -5l-450 -500l272 -555h-305l-178 419h-105l-84 -419h-234zM709 -351l106 529h235l-106 -529h-235z" />
<glyph unicode="&#x49c;" horiz-adv-x="1221" d="M53 0l285 1427h235l-121 -607h75l50 249h156l-50 -249h49l375 607h282l-485 -662l233 -765h-295l-142 615h-58l-45 -229h-156l45 229h-75l-123 -615h-235z" />
<glyph unicode="&#x49d;" horiz-adv-x="1108" d="M49 0l212 1060h233l-84 -423h73l39 195h148l-39 -195h31l265 423h289l-388 -501l197 -559h-297l-104 419h-37l-34 -174h-148l34 174h-73l-84 -419h-233z" />
<glyph unicode="&#x49e;" horiz-adv-x="1233" d="M68 0l224 1123h-180l33 167h180l28 137h235l-27 -137h186l-34 -167h-186l-60 -296h126l461 600h294l2 -5l-597 -712l334 -710h-268l-273 615h-121l-122 -615h-235z" />
<glyph unicode="&#x49f;" horiz-adv-x="1013" d="M56 0l237 1187h-190l33 166h190l36 176h233l-35 -176h178l-33 -166h-179l-107 -532h92l314 405h269l2 -5l-410 -476l252 -579h-272l-189 464h-96l-92 -464h-233z" />
<glyph unicode="&#x4a0;" horiz-adv-x="1550" d="M213 1236l38 191h653l-121 -600h125l461 600h295l2 -5l-598 -712l334 -710h-267l-274 615h-120l-123 -615h-235l247 1236h-417z" />
<glyph unicode="&#x4a1;" horiz-adv-x="1336" d="M153 868l38 192h605l-85 -423h92l348 423h281l2 -5l-450 -500l271 -555h-304l-178 419h-106l-83 -419h-234l173 868h-370z" />
<glyph unicode="&#x4a2;" horiz-adv-x="1337" d="M64 0l285 1427h234l-125 -627h575l125 627h234l-286 -1427h-233l122 609h-576l-121 -609h-234zM957 -351l106 529h235l-106 -529h-235z" />
<glyph unicode="&#x4a3;" horiz-adv-x="1084" d="M41 0l212 1060h234l-88 -442h366l89 442h235l-212 -1060h-235l85 428h-366l-86 -428h-234zM728 -351l106 529h235l-106 -529h-235z" />
<glyph unicode="&#x4a4;" horiz-adv-x="1824" d="M64 0l285 1427h234l-125 -627h575l125 627h794l-38 -191h-561l-247 -1236h-233l122 609h-576l-121 -609h-234z" />
<glyph unicode="&#x4a5;" horiz-adv-x="1328" d="M33 0l212 1060h234l-88 -442h367l88 442h545l-39 -192h-309l-174 -868h-235l85 428h-366l-85 -428h-235z" />
<glyph unicode="&#x4a6;" horiz-adv-x="1943" d="M65 0l285 1427h1044l-123 -611h117q242 0 365.5 -151t70.5 -420q-54 -266 -197 -409.5t-376 -138.5l-4 3l33 173q123 0 200 102.5t109 262.5q36 188 -23.5 284t-217.5 96h-116l-124 -618h-233l247 1236h-576l-247 -1236h-234z" />
<glyph unicode="&#x4a7;" horiz-adv-x="1637" d="M33 0l212 1060h837l-82 -412h117q215 0 337.5 -127t79.5 -347q-29 -134 -145 -269t-294 -182l-48 170q106 38 168.5 108.5t82.5 172.5q25 133 -34 204t-186 71h-119l-89 -449h-235l173 868h-367l-173 -868h-235z" />
<glyph unicode="&#x4a8;" horiz-adv-x="1446" d="M147 657l35 178q56 279 209.5 445t348.5 160l5 -3l-37 -189q-87 0 -167.5 -118t-116.5 -293l-36 -180q-45 -224 24 -351.5t235 -127.5q24 0 48.5 2.5t49.5 9.5q-85 97 -117 227.5t-2 282.5l41 207q49 246 184 392.5t308 146.5q166 0 250.5 -159t36.5 -401l-43 -208 q-31 -152 -98.5 -277.5t-165.5 -216.5q37 -9 79.5 -12.5t92.5 -3.5l-38 -192q-94 0 -180 18.5t-159 53.5q-76 -34 -158 -51.5t-168 -17.5q-246 0 -382.5 196t-78.5 482zM846.5 460q21.5 -103 88.5 -165l6 -1q83 64 143.5 164.5t84.5 219.5l45 225q36 179 11 261t-103 77 l-6 1q-65 4 -128 -87.5t-92 -245.5l-43 -211q-28 -135 -6.5 -238z" />
<glyph unicode="&#x4a9;" horiz-adv-x="1180" d="M116 541l14 73q40 197 171 330.5t274 127.5l5 -2l-37 -188q-58 -4 -102 -73t-69 -193l-15 -75q-32 -156 17.5 -259.5t154.5 -103.5h13t11 1q-46 70 -58.5 161.5t10.5 202.5l24 124q35 178 146 295.5t240 117.5q143 0 203.5 -120t20.5 -324l-25 -123q-20 -100 -70.5 -189 t-123.5 -159q34 -11 72 -16t81 -5l-32 -162q-93 0 -169.5 13t-138.5 40q-60 -27 -121.5 -41.5t-121.5 -14.5q-220 0 -323 152t-51 410zM700 390.5q14 -66.5 55 -110.5l5 -1q43 39 73.5 100.5t47.5 140.5l25 126q20 100 8.5 167t-50.5 62l-6 1q-41 5 -75 -52t-55 -160 l-26 -129q-16 -78 -2 -144.5z" />
<glyph unicode="&#x4aa;" horiz-adv-x="1194" d="M132 584l54 271q56 282 213 437t388 155q220 0 345 -137.5t98 -359.5l-2 -5h-228q13 147 -44 229t-194 82q-120 0 -213 -112.5t-128 -286.5l-54 -273q-38 -186 25 -300t202 -114q120 0 191.5 71t117.5 220h225l2 -6q-60 -226 -196 -351t-362 -125q-221 0 -356 175.5 t-84 429.5zM328 -440l106 529h235l-106 -529h-235z" />
<glyph unicode="&#x4ab;" horiz-adv-x="991" d="M91 513l5 34q38 239 178 386t361 147q173 0 270 -112t65 -283l-2 -5h-213q14 91 -26 150t-124 59q-116 0 -183.5 -99t-91.5 -243l-5 -34q-25 -155 9 -249t156 -94q75 0 137 51t75 129h211l2 -6q-20 -156 -153.5 -260.5t-301.5 -104.5q-212 0 -309 152.5t-60 381.5z M227 -440l106 529h235l-106 -529h-235z" />
<glyph unicode="&#x4ac;" horiz-adv-x="1086" d="M195 1236l38 191h1024l-38 -191h-395l-247 -1236h-234l247 1236h-395zM428 -351l106 529h235l-106 -529h-235z" />
<glyph unicode="&#x4ad;" horiz-adv-x="936" d="M128 871l38 189h861l-37 -189h-317l-173 -871h-234l173 871h-311zM350 -351l106 529h235l-106 -529h-235z" />
<glyph unicode="&#x4ae;" horiz-adv-x="1182" d="M222 1427h262l171 -670l6 -1l441 671h261l-643 -928l-100 -499h-233l103 516z" />
<glyph unicode="&#x4af;" horiz-adv-x="960" d="M162 1060h242l54 -701l-1 -74l6 -1l29 75l328 701h242l-535 -1014l-91 -455h-234l91 458z" />
<glyph unicode="&#x4b0;" horiz-adv-x="1182" d="M222 1427h262l171 -670l6 -1l441 671h261l-518 -748h94l-33 -166h-177l-9 -14l-100 -499h-233l102 513h-185l33 166h105z" />
<glyph unicode="&#x4b1;" horiz-adv-x="960" d="M105 -1l33 167h140l-116 894h242l54 -701l-1 -74l6 -1l29 75l328 701h242l-472 -894h150l-33 -167h-190l-81 -408h-234l81 408h-178z" />
<glyph unicode="&#x4b2;" horiz-adv-x="1199" d="M-19 0l529 719l-291 708h275l181 -527l353 527h278l-518 -708l305 -719h-282l-190 536l-361 -536h-279zM813 -351l106 529h235l-106 -529h-235z" />
<glyph unicode="&#x4b3;" horiz-adv-x="960" d="M-35 0l402 536l-224 524h266l109 -356l6 -1l227 357h268l-391 -524l230 -536h-266l-118 366l-6 1l-236 -367h-267zM590 -351l106 529h235l-106 -529h-235z" />
<glyph unicode="&#x4b4;" horiz-adv-x="1697" d="M213 1236l38 191h873l-38 -191h-318l-208 -1046h575l247 1237h234l-247 -1234h159l-127 -537h-212l68 344h-970l247 1236h-321z" />
<glyph unicode="&#x4b5;" horiz-adv-x="1285" d="M130 869l40 192h645l-39 -192h-194l-135 -679h367l174 870h235l-174 -870h138l-121 -505h-212l62 315h-742l174 869h-218z" />
<glyph unicode="&#x4b6;" horiz-adv-x="1306" d="M243 977l90 450h235l-90 -450q-32 -159 13.5 -210.5t179.5 -51.5q71 0 158 11.5t165 32.5l133 668h234l-285 -1427h-234l113 565q-74 -20 -155 -31t-167 -11q-217 0 -327 111.5t-63 342.5zM927 -351l106 529h235l-106 -529h-235z" />
<glyph unicode="&#x4b7;" horiz-adv-x="1039" d="M154 736l66 325h234l-66 -325q-24 -121 10.5 -166.5t131.5 -45.5q42 0 86 5.5t91 16.5l102 514h235l-212 -1060h-234l70 352q-43 -10 -87.5 -15t-88.5 -5q-185 0 -281.5 103t-56.5 301zM683 -351l106 529h235l-106 -529h-235z" />
<glyph unicode="&#x4b8;" horiz-adv-x="1287" d="M230 977l90 450h236l-90 -450q-33 -159 12 -211q45 -51 179 -51l59 295h156l-57 -284h1q88 12 165 33l133 668h234l-285 -1427h-234l113 565q-74 -20 -155 -31q-5 -1 -11 -2l-47 -238h-156l45 229q-216 0 -325 111q-110 112 -63 343z" />
<glyph unicode="&#x4b9;" horiz-adv-x="1048" d="M171 736l65 325h234l-65 -325q-25 -121 10 -167q18 -23 52 -34l52 260h157l-54 -267q5 1 10 1q44 6 91 17l103 514h234l-211 -1060h-235l71 352q-43 -10 -88 -15q-6 -1 -13 -2l-26 -135h-157l27 137q-127 19 -202 98q-96 103 -55 301z" />
<glyph unicode="&#x4ba;" horiz-adv-x="1305" d="M200 0l285 1427h234l-112 -566q74 20 154.5 31.5t166.5 11.5q217 0 326.5 -112t63.5 -342l-90 -450h-235l90 450q31 158 -14.5 209.5t-178.5 51.5q-72 0 -159 -11.5t-164 -31.5l-133 -668h-234z" />
<glyph unicode="&#x4bb;" d="M32 0l306 1529h234l-118 -591q62 68 138 105t161 37q148 0 219.5 -108.5t28.5 -325.5l-130 -646h-234l129 648q27 134 -5.5 185.5t-126.5 51.5q-57 0 -112.5 -29.5t-100.5 -80.5l-154 -775h-235z" />
<glyph unicode="&#x4bc;" horiz-adv-x="1448" d="M164 1060h170q-18 -90 1.5 -145.5t79.5 -74.5q56 281 236 443.5t403 162.5q230 0 331 -180t41 -483l-27 -129h-787l-11 -59q-40 -198 22.5 -308.5t246.5 -110.5q90 0 173 21.5t152 50.5l8 -184q-47 -30 -145 -58.5t-228 -28.5q-262 0 -390.5 172.5t-73.5 445.5l14 73 q-131 25 -189.5 129t-26.5 263zM649 833h552l6 30q37 185 -5 284t-188 99q-124 0 -227 -118.5t-137 -289.5z" />
<glyph unicode="&#x4bd;" horiz-adv-x="1123" d="M41 850h163q-14 -70 -3.5 -116.5t45.5 -71.5q60 192 194 305t298 113q195 0 283.5 -131t54.5 -347l-22 -140h-613q-14 -135 34 -213.5t160 -78.5q83 0 153 24t135 67l49 -156q-64 -53 -162 -89.5t-220 -36.5q-201 0 -306.5 145t-72.5 368q-106 31 -152 125t-18 233z M479 641l2 -5h369l4 25q15 104 -19 166t-127 62q-75 0 -137 -70t-92 -178z" />
<glyph unicode="&#x4be;" horiz-adv-x="1448" d="M164 1060h170q-18 -90 1.5 -145.5t79.5 -74.5q56 281 236 443.5t403 162.5q230 0 331 -180t41 -483l-27 -129h-787l-11 -59q-40 -198 22.5 -308.5t246.5 -110.5q90 0 173 21.5t152 50.5l8 -184q-47 -30 -145 -58.5t-228 -28.5q-262 0 -390.5 172.5t-73.5 445.5l14 73 q-131 25 -189.5 129t-26.5 263zM599 -435l106 529h235l-106 -529h-235zM649 833h552l6 30q37 185 -5 284t-188 99q-124 0 -227 -118.5t-137 -289.5z" />
<glyph unicode="&#x4bf;" horiz-adv-x="1123" d="M41 850h163q-14 -70 -3.5 -116.5t45.5 -71.5q60 192 194 305t298 113q195 0 283.5 -131t54.5 -347l-22 -140h-613q-14 -135 34 -213.5t160 -78.5q83 0 153 24t135 67l49 -156q-64 -53 -162 -89.5t-220 -36.5q-201 0 -306.5 145t-72.5 368q-106 31 -152 125t-18 233z M371 -431l106 529h235l-106 -529h-235zM479 641l2 -5h369l4 25q15 104 -19 166t-127 62q-75 0 -137 -70t-92 -178z" />
<glyph unicode="&#x4c0;" horiz-adv-x="550" d="M74 0l286 1427h234l-285 -1427h-235z" />
<glyph unicode="&#x4c1;" horiz-adv-x="1797" d="M-56 0l576 763l-261 664h281l190 -600h141l121 600h233l-121 -600h138l426 600h281l-524 -663l269 -764h-291l-192 622h-147l-124 -622h-233l124 622h-152l-444 -622h-291zM888 1841l2 5h175q-10 -58 12.5 -93.5t82.5 -35.5q56 0 91.5 36.5t44.5 92.5h174l2 -6 q-16 -124 -107 -197.5t-229 -73.5q-131 0 -201 76t-47 196z" />
<glyph unicode="&#x4c2;" horiz-adv-x="1522" d="M-58 0l441 570l-208 490h290l124 -416h100l83 416h235l-83 -416h101l291 416h283l3 -5l-400 -485l213 -570h-298l-123 426h-113l-85 -426h-235l85 426h-112l-295 -426h-297zM712 1505l2 5h175q-10 -58 12.5 -93.5t82.5 -35.5q56 0 91.5 36.5t44.5 92.5h174l2 -6 q-16 -124 -107 -197.5t-229 -73.5q-131 0 -201 76t-47 196z" />
<glyph unicode="&#x4c3;" horiz-adv-x="1210" d="M53 0l285 1427h235l-118 -595h97l520 595h275l1 -5l-563 -614q196 -30 289 -177t46 -385q-54 -267 -196.5 -410.5t-375.5 -138.5l-5 3l33 173q124 0 201 103t109 263q36 188 -23.5 283.5t-218.5 95.5h-224v1h-8l-124 -619h-235z" />
<glyph unicode="&#x4c4;" horiz-adv-x="1059" d="M49 0l212 1060h233l-85 -423h72l368 423h281l3 -6l-431 -460q141 -41 210 -150.5t36 -278.5q-27 -131 -141.5 -261t-292.5 -176l-48 169q106 36 167.5 103t80.5 165q23 120 -28.5 183.5t-166.5 70.5h-153l-84 -419h-233z" />
<glyph unicode="&#x4c5;" horiz-adv-x="1331" d="M-35 0l38 190h36q126 5 200.5 133.5t135.5 441.5l130 662h882l-285 -1427h-236l247 1236h-412l-92 -471q-79 -401 -219.5 -583t-366.5 -182h-58zM950 -313l126 314l39 191h221l-40 -200l-210 -305h-136z" />
<glyph unicode="&#x4c6;" horiz-adv-x="1086" d="M-51 0l41 201h33q87 0 140.5 92.5t97.5 315.5l90 451h741l-212 -1060h-235l173 868h-271l-52 -259q-67 -334 -177 -471.5t-320 -137.5h-49zM728 -313l126 314l39 191h221l-40 -200l-210 -305h-136z" />
<glyph unicode="&#x4c7;" horiz-adv-x="1338" d="M64 0l285 1427h235l-125 -627h574l125 627h235l-298 -1489q-38 -186 -140 -276t-258 -90q-33 0 -60.5 4t-54.5 12l51 188q15 -5 41.5 -9t45.5 -4q46 0 85 47.5t55 127.5l135 671h-575l-121 -609h-235z" />
<glyph unicode="&#x4c8;" d="M33 0l212 1060h234l-88 -442h367l88 442h235l-224 -1122q-38 -186 -140.5 -276t-258.5 -90q-32 0 -60 4t-55 12l51 188q15 -5 42 -9t46 -4q45 0 84 47.5t55 127.5l98 490h-366l-85 -428h-235z" />
<glyph unicode="&#x4c9;" horiz-adv-x="1337" d="M64 0l285 1427h234l-125 -627h575l125 627h234l-286 -1427h-233l122 609h-576l-121 -609h-234zM955 -313l126 314l39 191h221l-40 -200l-210 -305h-136z" />
<glyph unicode="&#x4ca;" horiz-adv-x="1084" d="M41 0l212 1060h234l-88 -442h366l89 442h235l-212 -1060h-235l85 428h-366l-86 -428h-234zM725 -313l126 314l39 191h221l-40 -200l-210 -305h-136z" />
<glyph unicode="&#x4cb;" horiz-adv-x="1306" d="M243 977l90 450h235l-90 -450q-32 -159 13.5 -210.5t179.5 -51.5q71 0 158 11.5t165 32.5l133 668h234l-285 -1427h-234l113 565q-74 -20 -155 -31t-167 -11q-217 0 -327 111.5t-63 342.5zM609 -351l106 529h235l-106 -529h-235z" />
<glyph unicode="&#x4cc;" horiz-adv-x="1039" d="M154 736l66 325h234l-66 -325q-24 -121 10.5 -166.5t131.5 -45.5q42 0 86 5.5t91 16.5l102 514h235l-212 -1060h-234l70 352q-43 -10 -87.5 -15t-88.5 -5q-185 0 -281.5 103t-56.5 301zM365 -351l106 529h235l-106 -529h-235z" />
<glyph unicode="&#x4cd;" horiz-adv-x="1647" d="M64 0l285 1427h304l151 -1096l5 -1l589 1097h303l-285 -1427h-234l97 486l142 594l-6 3l-598 -1083h-156l-164 1080h-6l-96 -594l-97 -486h-234zM1264 -313l126 314l39 191h221l-40 -200l-210 -305h-136z" />
<glyph unicode="&#x4ce;" horiz-adv-x="1417" d="M49 0l212 1060h295l124 -758l5 -1l428 759h294l-211 -1060h-235l132 662l-5 2l-386 -664h-159l-121 663h-6l-132 -663h-235zM1044 -313l126 314l39 191h221l-40 -200l-210 -305h-136z" />
<glyph unicode="&#x4cf;" horiz-adv-x="550" d="M74 0l286 1427h234l-285 -1427h-235z" />
<glyph unicode="&#x4d0;" horiz-adv-x="1231" d="M-58 0l771 1427h222l195 -1427h-237l-38 333h-504l-173 -333h-236zM454 532h378l-67 590l-5 1zM627 1841l2 5h175q-10 -58 12.5 -93.5t82.5 -35.5q56 0 91.5 36.5t44.5 92.5h174l2 -6q-16 -124 -107 -197.5t-229 -73.5q-131 0 -201 76t-47 196z" />
<glyph unicode="&#x4d1;" horiz-adv-x="1027" d="M68 299q32 164 158.5 244.5t335.5 80.5h154l19 93q18 89 -16 133.5t-116 44.5q-70 0 -124 -40t-65 -100h-225l-2 5q22 134 152 227t315 93q162 0 256 -96t60 -269l-94 -471q-15 -71 -18 -128.5t4 -115.5h-237q-4 33 -4.5 65.5t2.5 64.5q-60 -65 -139 -108t-164 -43 q-140 0 -211 88t-41 232zM303 303q-14 -65 13 -98.5t95 -33.5q64 0 132 35t107 85l37 184h-159q-84 0 -147.5 -52t-77.5 -120zM429 1526l2 5h175q-10 -58 12.5 -93.5t82.5 -35.5q56 0 91.5 36.5t44.5 92.5h174l2 -6q-16 -124 -107 -197.5t-229 -73.5q-131 0 -201 76t-47 196 z" />
<glyph unicode="&#x4d2;" horiz-adv-x="1231" d="M-58 0l771 1427h222l195 -1427h-237l-38 333h-504l-173 -333h-236zM454 532h378l-67 590l-5 1zM538 1569l33 200h227l-32 -200h-228zM979 1569l33 200h228l-32 -200h-229z" />
<glyph unicode="&#x4d3;" horiz-adv-x="1027" d="M68 299q32 164 158.5 244.5t335.5 80.5h154l19 93q18 89 -16 133.5t-116 44.5q-70 0 -124 -40t-65 -100h-225l-2 5q22 134 152 227t315 93q162 0 256 -96t60 -269l-94 -471q-15 -71 -18 -128.5t4 -115.5h-237q-4 33 -4.5 65.5t2.5 64.5q-60 -65 -139 -108t-164 -43 q-140 0 -211 88t-41 232zM303 303q-14 -65 13 -98.5t95 -33.5q64 0 132 35t107 85l37 184h-159q-84 0 -147.5 -52t-77.5 -120zM340 1253l33 200h227l-32 -200h-228zM781 1253l33 200h228l-32 -200h-229z" />
<glyph unicode="&#x4d4;" horiz-adv-x="1771" d="M-92 0l1044 1427h919l-38 -193h-587l-65 -400h497l-38 -193h-489l-73 -449h602l-38 -192h-829l53 333h-446l-232 -333h-280zM568 544h333l97 605l-6 2z" />
<glyph unicode="&#x4d5;" horiz-adv-x="1585" d="M26 306q34 164 158.5 243.5t339.5 79.5h184l13 70q19 94 -11.5 142t-105.5 48t-133 -44.5t-70 -107.5l-221 18l-2 5q26 147 152.5 233.5t313.5 86.5q88 0 158.5 -31t112.5 -90q69 60 153 90.5t177 30.5q184 0 272.5 -131t44.5 -349l-27 -138h-621q-21 -141 25.5 -216.5 t171.5 -75.5q84 0 150 24t144 66l38 -162q-60 -44 -160.5 -81.5t-223.5 -37.5q-112 0 -197 45t-133 126q-67 -73 -176 -122t-245 -49q-155 0 -232.5 89.5t-49.5 237.5zM262 302q-14 -68 17 -104.5t111 -36.5q54 0 127.5 35.5t119.5 82.5l37 187h-180q-88 0 -154 -49 t-78 -115zM956 635l3 -6h378l6 30q21 109 -10.5 169.5t-126.5 60.5q-84 0 -150.5 -71t-99.5 -183z" />
<glyph unicode="&#x4d6;" horiz-adv-x="1092" d="M64 0l285 1427h895l-39 -191h-660l-80 -403h574l-38 -191h-575l-90 -452h668l-39 -190h-901zM551 1841l2 5h175q-10 -58 12.5 -93.5t82.5 -35.5q56 0 91.5 36.5t44.5 92.5h174l2 -6q-16 -124 -107 -197.5t-229 -73.5q-131 0 -201 76t-47 196z" />
<glyph unicode="&#x4d7;" horiz-adv-x="1001" d="M99 506l6 39q38 240 184.5 388t334.5 147q195 0 284 -131t54 -347l-22 -140h-613q-13 -135 35 -213.5t159 -78.5q84 0 153.5 24t134.5 67l49 -156q-63 -53 -161 -89.5t-221 -36.5q-204 0 -309 149t-68 378zM366 641l2 -5h368l4 25q16 104 -18.5 166t-127.5 62 q-75 0 -137 -70t-91 -178zM393 1527l2 5h175q-10 -58 12.5 -93.5t82.5 -35.5q56 0 91.5 36.5t44.5 92.5h174l2 -6q-16 -124 -107 -197.5t-229 -73.5q-131 0 -201 76t-47 196z" />
<glyph unicode="&#x4d8;" horiz-adv-x="1297" d="M121 641l25 129h886l4 21q43 215 -27 336t-273 121q-96 0 -183.5 -22t-159.5 -50l-9 184q49 29 151.5 58t239.5 29q278 0 415 -183.5t79 -472.5l-31 -159q-61 -304 -252 -479t-426 -174q-261 0 -381 179.5t-58 482.5zM338 561q-37 -186 20.5 -284.5t240.5 -98.5 q129 0 239 117.5t152 289.5l-3 6h-642z" />
<glyph unicode="&#x4d9;" horiz-adv-x="1000" d="M258 459l22 140h613q13 134 -35 213t-159 79q-84 0 -153.5 -24t-134.5 -67l-49 156q63 52 161 88.5t221 36.5q204 0 309 -149t68 -377l-6 -40q-38 -240 -184.5 -388t-334.5 -147q-195 0 -284 131t-54 348zM480 400q-15 -105 19 -166.5t127 -61.5q75 0 137 70t92 177l-2 5 h-369z" />
<glyph unicode="&#x4da;" horiz-adv-x="1297" d="M121 641l25 129h886l4 21q43 215 -27 336t-273 121q-96 0 -183.5 -22t-159.5 -50l-9 184q49 29 151.5 58t239.5 29q278 0 415 -183.5t79 -472.5l-31 -159q-61 -304 -252 -479t-426 -174q-261 0 -381 179.5t-58 482.5zM338 561q-37 -186 20.5 -284.5t240.5 -98.5 q129 0 239 117.5t152 289.5l-3 6h-642zM470 1519l33 200h227l-32 -200h-228zM911 1519l33 200h228l-32 -200h-229z" />
<glyph unicode="&#x4db;" horiz-adv-x="1000" d="M258 459l22 140h613q13 134 -35 213t-159 79q-84 0 -153.5 -24t-134.5 -67l-49 156q63 52 161 88.5t221 36.5q204 0 309 -149t68 -377l-6 -40q-38 -240 -184.5 -388t-334.5 -147q-195 0 -284 131t-54 348zM353 1253l33 200h227l-32 -200h-228zM480 400 q-15 -105 19 -166.5t127 -61.5q75 0 137 70t92 177l-2 5h-369zM794 1253l33 200h228l-32 -200h-229z" />
<glyph unicode="&#x4dc;" horiz-adv-x="1797" d="M-56 0l576 763l-261 664h281l190 -600h141l121 600h233l-121 -600h138l426 600h281l-524 -663l269 -764h-291l-192 622h-147l-124 -622h-233l124 622h-152l-444 -622h-291zM799 1569l33 200h227l-32 -200h-228zM1240 1569l33 200h228l-32 -200h-229z" />
<glyph unicode="&#x4dd;" horiz-adv-x="1522" d="M-58 0l441 570l-208 490h290l124 -416h100l83 416h235l-83 -416h101l291 416h283l3 -5l-400 -485l213 -570h-298l-123 426h-113l-85 -426h-235l85 426h-112l-295 -426h-297zM623 1233l33 200h227l-32 -200h-228zM1064 1233l33 200h228l-32 -200h-229z" />
<glyph unicode="&#x4de;" horiz-adv-x="1136" d="M72 390l2 6h227q-21 -102 34.5 -164t167.5 -62q114 0 202.5 65t107.5 164q26 127 -24.5 180.5t-177.5 53.5h-154l9 50l18 87l11 52h154q110 0 182 59t91 159q20 99 -30 157.5t-173 58.5q-91 0 -171 -59.5t-97 -148.5h-225l-2 6q33 187 183.5 290t350.5 103 q208 0 322.5 -107.5t75.5 -299.5q-21 -105 -92.5 -186t-179.5 -125q99 -44 143.5 -128.5t22.5 -200.5q-44 -210 -200.5 -315.5t-384.5 -105.5q-186 0 -312 106.5t-81 304.5zM463 1590l33 200h227l-32 -200h-228zM904 1590l33 200h228l-32 -200h-229z" />
<glyph unicode="&#x4df;" horiz-adv-x="964" d="M58 309l2 6h226q-14 -67 26 -109.5t123 -42.5q76 0 129.5 43t65.5 104q16 81 -15 113.5t-115 32.5h-161l10 50l24 121h161q71 0 114 35t56 97q11 60 -16.5 98.5t-106.5 38.5q-67 0 -123.5 -39.5t-67.5 -96.5h-223l-2 5q24 150 150 232t296 82t263 -82t65 -227 q-16 -76 -67.5 -135.5t-129.5 -91.5q73 -33 105.5 -95t15.5 -148q-31 -159 -158 -239.5t-314 -80.5q-157 0 -263 85.5t-70 243.5zM317 1252l33 200h227l-32 -200h-228zM758 1252l33 200h228l-32 -200h-229z" />
<glyph unicode="&#x4e0;" horiz-adv-x="1095" d="M88 391l2 5h228q-21 -102 25 -164t143 -62q103 0 183.5 65t99.5 164q31 153 -22 214.5t-190 61.5h-133l9 45l25 123l394 387l-2 6h-548l38 191h827l-29 -152l-438 -435q172 -25 257 -139.5t48 -300.5q-43 -210 -192.5 -315.5t-364.5 -105.5q-174 0 -289 106.5t-71 305.5z " />
<glyph unicode="&#x4e1;" horiz-adv-x="1095" d="M15 24l2 4h228q-21 -100 25 -162t143 -62q102 0 182.5 65.5t101.5 162.5q30 153 -22.5 214.5t-189.5 61.5h-135l9 45l7 36l16 82l1 4l382 387l-3 6h-537l39 192h830l-30 -152l-429 -437q170 -26 251.5 -140t45.5 -299q-42 -207 -192 -313t-366 -106q-172 0 -287 106.5 t-72 304.5z" />
<glyph unicode="&#x4e2;" horiz-adv-x="1331" d="M59 0l285 1427h234l-199 -999l5 -2l768 1001h235l-285 -1427h-236l199 998l-5 2l-767 -1000h-234zM568 1591l24 155h669l-24 -155h-669z" />
<glyph unicode="&#x4e3;" horiz-adv-x="1085" d="M41 0l212 1060h233l-136 -680l5 -3l501 683h234l-212 -1060h-234l135 681l-5 3l-500 -684h-233zM381 1257l24 155h669l-24 -155h-669z" />
<glyph unicode="&#x4e4;" horiz-adv-x="1331" d="M59 0l285 1427h234l-199 -999l5 -2l768 1001h235l-285 -1427h-236l199 998l-5 2l-767 -1000h-234zM558 1569l33 200h227l-32 -200h-228zM999 1569l33 200h228l-32 -200h-229z" />
<glyph unicode="&#x4e5;" horiz-adv-x="1085" d="M41 0l212 1060h233l-136 -680l5 -3l501 683h234l-212 -1060h-234l135 681l-5 3l-500 -684h-233zM371 1233l33 200h227l-32 -200h-228zM812 1233l33 200h228l-32 -200h-229z" />
<glyph unicode="&#x4e6;" horiz-adv-x="1286" d="M132 591l51 257q56 281 221.5 440t406.5 159q231 0 371.5 -179.5t89.5 -432.5l-51 -257q-57 -281 -228 -440t-418 -159q-225 0 -360 179t-83 433zM366 591q-39 -188 31.5 -302.5t216.5 -114.5q136 0 237 112t137 292l52 259q36 186 -40 300t-228 114 q-129 0 -224.5 -111.5t-131.5 -289.5zM544 1590l33 200h227l-32 -200h-228zM985 1590l33 200h228l-32 -200h-229z" />
<glyph unicode="&#x4e7;" d="M95 519l3 21q39 246 182 393t357 147q205 0 306 -153t63 -387l-2 -21q-41 -248 -183.5 -394t-356.5 -146q-205 0 -306 152.5t-63 387.5zM328 1253l33 200h227l-32 -200h-228zM329 519q-26 -161 12 -255t153 -94q107 0 179 98.5t96 250.5l3 21q25 159 -13.5 254t-151.5 95 q-107 0 -179 -99.5t-96 -249.5zM769 1253l33 200h228l-32 -200h-229z" />
<glyph unicode="&#x4e8;" horiz-adv-x="1291" d="M132 585l52 257q55 277 235.5 441t423.5 164q228 0 356 -175t77 -430l-52 -257q-56 -278 -240 -442t-433 -164q-224 0 -347.5 174.5t-71.5 431.5zM366 585q-39 -192 20.5 -301.5t203.5 -109.5q137 0 251.5 117.5t149.5 293.5l8 41h-626zM408 794h625l10 50 q38 189 -25.5 298t-213.5 109q-132 0 -241.5 -116.5t-145.5 -290.5z" />
<glyph unicode="&#x4e9;" horiz-adv-x="1068" d="M94 519l3 21q39 246 182 393t357 147q205 0 306 -153t63 -387l-2 -21q-41 -248 -183.5 -394t-356.5 -146q-205 0 -306 152.5t-63 387.5zM319 448q-10 -130 31 -204t143 -74q93 0 159.5 75.5t96.5 196.5l-3 6h-427zM352 621l3 -6h425q8 127 -33.5 200.5t-140.5 73.5 q-93 0 -159.5 -75.5t-94.5 -192.5z" />
<glyph unicode="&#x4ea;" horiz-adv-x="1291" d="M132 585l52 257q55 277 235.5 441t423.5 164q228 0 356 -175t77 -430l-52 -257q-56 -278 -240 -442t-433 -164q-224 0 -347.5 174.5t-71.5 431.5zM366 585q-39 -192 20.5 -301.5t203.5 -109.5q137 0 251.5 117.5t149.5 293.5l8 41h-626zM408 794h625l10 50 q38 189 -25.5 298t-213.5 109q-132 0 -241.5 -116.5t-145.5 -290.5zM559 1564l33 200h227l-32 -200h-228zM1000 1564l33 200h228l-32 -200h-229z" />
<glyph unicode="&#x4eb;" horiz-adv-x="1068" d="M94 519l3 21q39 246 182 393t357 147q205 0 306 -153t63 -387l-2 -21q-41 -248 -183.5 -394t-356.5 -146q-205 0 -306 152.5t-63 387.5zM319 448q-10 -130 31 -204t143 -74q93 0 159.5 75.5t96.5 196.5l-3 6h-427zM352 621l3 -6h425q8 127 -33.5 200.5t-140.5 73.5 q-93 0 -159.5 -75.5t-94.5 -192.5zM353 1281l33 200h227l-32 -200h-228zM794 1281l33 200h228l-32 -200h-229z" />
<glyph unicode="&#x4ec;" horiz-adv-x="1231" d="M143 461l2 5h226q-31 -153 21 -224t187 -71q121 0 221 116t135 289l12 59h-471l38 192h470l5 23q37 188 -12 297.5t-180 109.5q-124 0 -211 -78t-115 -219h-225l-2 6q41 229 199 355.5t392 126.5q213 0 326.5 -171t62.5 -427l-54 -272q-57 -279 -227 -438.5t-402 -159.5 q-219 0 -333 130t-65 351zM513 1591l33 200h227l-32 -200h-228zM954 1591l33 200h228l-32 -200h-229z" />
<glyph unicode="&#x4ed;" horiz-adv-x="997" d="M72 373l2 5h215q-19 -94 18 -151t117 -57q89 0 158.5 81t101.5 199l-3 5h-286l32 164h294q14 123 -22 196.5t-133 73.5q-69 0 -132.5 -52t-77.5 -128h-213l-2 5q27 159 162.5 262.5t301.5 103.5q195 0 289.5 -155.5t50.5 -377.5l-7 -34q-49 -243 -195 -388.5t-357 -145.5 q-166 0 -259.5 112.5t-54.5 281.5zM330 1253l33 200h227l-32 -200h-228zM771 1253l33 200h228l-32 -200h-229z" />
<glyph unicode="&#x4ee;" horiz-adv-x="1185" d="M166 -15l38 188q9 -1 37 -2t42 -1q62 0 101.5 36t79.5 105l39 65l-236 1051h255l118 -645l17 -125l5 -1l418 771h259l-685 -1174q-85 -136 -169 -205t-226 -69q-22 0 -53 2t-40 4zM498 1591l24 155h669l-24 -155h-669z" />
<glyph unicode="&#x4ef;" horiz-adv-x="960" d="M-70 -409l63 185q12 -1 33 -3t33 -2q54 0 103 47.5t76 98.5l55 95l-147 1048h256l51 -635l1 -87l6 -1l351 723h257l-650 -1221q-61 -109 -149 -188t-219 -79q-26 0 -58.5 6t-61.5 13zM315 1257l24 155h669l-24 -155h-669z" />
<glyph unicode="&#x4f0;" horiz-adv-x="1185" d="M166 -15l38 188q9 -1 37 -2t42 -1q62 0 101.5 36t79.5 105l39 65l-236 1051h255l118 -645l17 -125l5 -1l418 771h259l-685 -1174q-85 -136 -169 -205t-226 -69q-22 0 -53 2t-40 4zM489 1569l33 200h227l-32 -200h-228zM930 1569l33 200h228l-32 -200h-229z" />
<glyph unicode="&#x4f1;" horiz-adv-x="960" d="M-70 -409l63 185q12 -1 33 -3t33 -2q54 0 103 47.5t76 98.5l55 95l-147 1048h256l51 -635l1 -87l6 -1l351 723h257l-650 -1221q-61 -109 -149 -188t-219 -79q-26 0 -58.5 6t-61.5 13zM306 1233l33 200h227l-32 -200h-228zM747 1233l33 200h228l-32 -200h-229z" />
<glyph unicode="&#x4f2;" horiz-adv-x="1185" d="M166 -15l38 188q9 -1 37 -2t42 -1q62 0 101.5 36t79.5 105l39 65l-236 1051h255l118 -645l17 -125l5 -1l418 771h259l-685 -1174q-85 -136 -169 -205t-226 -69q-22 0 -53 2t-40 4zM575 1574l218 256h232l2 -6l-270 -255h-180zM856 1575l267 255h242l2 -6l-318 -255h-191z " />
<glyph unicode="&#x4f3;" horiz-adv-x="960" d="M-70 -409l63 185q12 -1 33 -3t33 -2q54 0 103 47.5t76 98.5l55 95l-147 1048h256l51 -635l1 -87l6 -1l351 723h257l-650 -1221q-61 -109 -149 -188t-219 -79q-26 0 -58.5 6t-61.5 13zM392 1238l218 256h232l2 -6l-270 -255h-180zM673 1239l267 255h242l2 -6l-318 -255 h-191z" />
<glyph unicode="&#x4f4;" horiz-adv-x="1306" d="M243 977l90 450h235l-90 -450q-32 -159 13.5 -210.5t179.5 -51.5q71 0 158 11.5t165 32.5l133 668h234l-285 -1427h-234l113 565q-74 -20 -155 -31t-167 -11q-217 0 -327 111.5t-63 342.5zM558 1569l33 200h227l-32 -200h-228zM999 1569l33 200h228l-32 -200h-229z" />
<glyph unicode="&#x4f5;" horiz-adv-x="1039" d="M154 736l66 325h234l-66 -325q-24 -121 10.5 -166.5t131.5 -45.5q42 0 86 5.5t91 16.5l102 514h235l-212 -1060h-234l70 352q-43 -10 -87.5 -15t-88.5 -5q-185 0 -281.5 103t-56.5 301zM327 1233l33 200h227l-32 -200h-228zM768 1233l33 200h228l-32 -200h-229z" />
<glyph unicode="&#x4f6;" horiz-adv-x="1050" d="M64 0l285 1427h843l-39 -191h-607l-247 -1236h-235zM149 -351l106 529h235l-106 -529h-235z" />
<glyph unicode="&#x4f7;" horiz-adv-x="790" d="M40 0l212 1060h653l-39 -192h-419l-174 -868h-233zM87 -351l106 529h235l-106 -529h-235z" />
<glyph unicode="&#x4f8;" horiz-adv-x="1646" d="M64 0l285 1427h235l-110 -552h277q208 0 317.5 -119.5t70.5 -313.5q-43 -213 -190.5 -327.5t-373.5 -114.5h-511zM337 190h277q109 0 189 74t103 180q21 112 -26 176t-167 64h-278zM714 1569l33 200h227l-32 -200h-228zM1155 1569l33 200h228l-32 -200h-229zM1179 0 l286 1427h234l-285 -1427h-235z" />
<glyph unicode="&#x4f9;" horiz-adv-x="1521" d="M49 0l212 1060h235l-68 -337h209q175 0 267 -101.5t60 -258.5q-34 -170 -158 -266.5t-314 -96.5h-443zM322 190h208q79 0 131.5 48.5t67.5 119.5q15 77 -15 125.5t-115 48.5h-209zM575 1233l33 200h227l-32 -200h-228zM1016 1233l33 200h228l-32 -200h-229zM1048 0 l212 1060h235l-212 -1060h-235z" />
<glyph unicode="&#x4fa;" horiz-adv-x="1130" d="M72 -412l52 194q14 -4 40 -7.5t45 -3.5q48 0 85.5 43.5t53.5 123.5l53 263h234l-53 -263q-38 -186 -139.5 -276t-258.5 -90q-30 0 -57.5 4t-54.5 12zM114 674l33 167h602l-33 -167h-602zM144 0l285 1427h843l-39 -191h-607l-247 -1236h-235z" />
<glyph unicode="&#x4fb;" horiz-adv-x="785" d="M30 -413l52 194q14 -4 40 -7.5t45 -3.5q48 0 85.5 43.5t53.5 123.5l53 263h234l-53 -263q-38 -186 -139.5 -276t-258.5 -90q-30 0 -57.5 4t-54.5 12zM73 504l33 167h602l-33 -167h-602zM123 0l212 1060h653l-39 -192h-419l-174 -868h-233z" />
<glyph unicode="&#x4fc;" horiz-adv-x="1199" d="M-19 0l529 719l-291 708h275l181 -527l353 527h278l-518 -708l305 -719h-282l-190 536l-361 -536h-279zM674 -412l52 194q14 -4 40 -7.5t45 -3.5q48 0 85.5 43.5t53.5 123.5l53 263h234l-53 -263q-38 -186 -139.5 -276t-258.5 -90q-30 0 -57.5 4t-54.5 12z" />
<glyph unicode="&#x4fd;" horiz-adv-x="960" d="M-35 0l402 536l-224 524h266l109 -356l6 -1l227 357h268l-391 -524l230 -536h-266l-118 366l-6 1l-236 -367h-267zM451 -412l52 194q14 -4 40 -7.5t45 -3.5q48 0 85.5 43.5t53.5 123.5l53 263h234l-53 -263q-38 -186 -139.5 -276t-258.5 -90q-30 0 -57.5 4t-54.5 12z" />
<glyph unicode="&#x4fe;" horiz-adv-x="1199" d="M-19 0l476 648h-119l33 166h99l-251 613h275l181 -527l353 527h278l-448 -613h115l-33 -166h-122l275 -648h-282l-190 536l-361 -536h-279z" />
<glyph unicode="&#x4ff;" horiz-adv-x="960" d="M-35 0l346 462h-137l34 166h119l-184 432h266l109 -356l6 -1l227 357h268l-322 -432h112l-33 -166h-116l198 -462h-266l-118 366l-6 1l-236 -367h-267z" />
<glyph unicode="&#x500;" horiz-adv-x="1197" d="M90 452q42 212 189.5 329t374.5 117h277l106 529h233l-285 -1427h-511q-206 0 -314.5 128t-69.5 324zM325 454q-24 -118 21.5 -191t166.5 -73h277l103 517h-278q-110 0 -189.5 -74.5t-100.5 -178.5z" />
<glyph unicode="&#x501;" d="M97 514l4 21q54 271 172.5 408t304.5 137q76 0 138 -32.5t103 -91.5l115 573h234l-306 -1529h-201l5 105q-57 -62 -126.5 -94t-145.5 -32q-171 0 -256.5 154.5t-40.5 380.5zM332 514q-31 -156 5 -248.5t149 -92.5q59 0 110.5 35t93.5 98l93 469q-22 52 -66.5 81 t-108.5 29q-103 0 -171.5 -94.5t-100.5 -255.5z" />
<glyph unicode="&#x502;" horiz-adv-x="1641" d="M108 452q42 212 189.5 329t373.5 117h278l105 529h234l-247 -1237l63 1q88 1 147.5 60.5t84.5 164.5q15 74 17 155t-9 159h228q10 -101 12 -172.5t-14 -141.5q-44 -200 -186.5 -308t-317.5 -108h-574q-207 0 -315 128t-69 324zM343 454q-25 -118 21 -191t166 -73h278 l102 517h-277q-111 0 -190 -74.5t-100 -178.5z" />
<glyph unicode="&#x503;" horiz-adv-x="1611" d="M104 495l4 20q53 270 182.5 417.5t317.5 147.5q68 0 121 -31t88 -88l114 568h235l-235 -1177q-19 -81 5 -130.5t83 -49.5q104 0 180 93t110 253q20 97 26.5 196.5t-1.5 198.5h227q6 -122 4 -213t-21 -182q-55 -259 -213.5 -399t-349.5 -140q-116 -2 -187 39.5t-94 129.5 q-64 -82 -142.5 -125.5t-171.5 -43.5q-169 0 -248 145t-34 371zM339 495q-31 -156 1.5 -239t144.5 -83q58 0 110 29t93 81q2 23 3.5 37.5t4.5 31.5l87 438q-21 45 -59.5 70t-93.5 25q-103 0 -179 -105t-108 -265z" />
<glyph unicode="&#x504;" horiz-adv-x="1485" d="M223 1234l39 193h319q214 0 320.5 -106.5t68.5 -301.5q-25 -120 -98 -199t-196 -125q109 -37 149 -121.5t18 -203.5l-14 -66q-13 -59 6.5 -95.5t64.5 -36.5q91 0 159.5 92.5t103.5 253.5q20 97 26.5 196.5t-1.5 198.5h227q6 -128 4 -216.5t-21 -178.5 q-56 -260 -208.5 -399.5t-334.5 -139.5q-152 -3 -220 75.5t-40 249.5l1 3l12 61q21 111 -21 172.5t-136 61.5h-195l38 193h139q130 0 205 56t98 170q22 107 -23.5 160t-169.5 53h-320z" />
<glyph unicode="&#x505;" horiz-adv-x="1213" d="M125 405l35 185h163q84 0 135.5 35t63.5 97q14 72 -18.5 109.5t-121.5 37.5h-238l32 191h244q181 0 276 -84.5t65 -231.5q-16 -84 -67.5 -138t-139.5 -89q83 -26 115.5 -85.5t16.5 -140.5l-12 -61v1q-9 -41 0.5 -64t43.5 -23q77 1 133.5 71t85.5 196q15 74 17 154.5 t-9 157.5h227q11 -104 12.5 -173.5t-13.5 -138.5q-47 -211 -181 -324t-298 -113q-149 -3 -211.5 52.5t-44.5 183.5l15 73q12 62 -16.5 92t-95.5 30h-214z" />
<glyph unicode="&#x506;" horiz-adv-x="1059" d="M172 592l38 191h184q120 0 194 57t96 166q23 114 -22 172t-164 58h-263l35 191h266q207 0 314 -110t69 -305q-24 -119 -92.5 -197t-184.5 -125q100 -40 135 -127t12 -208l-24 -118l-2 -6h170l-40 -200l-210 -305h-136l110 274h-116q-30 32 -27 99.5t18 139.5l23 114 q23 117 -19 178t-141 61h-223z" />
<glyph unicode="&#x507;" horiz-adv-x="1005" d="M164 404l35 175h208q83 0 138 37.5t68 101.5q14 72 -22 112.5t-125 40.5h-258l32 189h263q181 0 279.5 -89t69.5 -239q-17 -85 -69.5 -142t-140.5 -93q78 -32 106.5 -97.5t11.5 -154.5l-5 -29h157l-40 -200l-210 -306h-136l117 290h-125q-22 20 -19.5 68.5t12.5 94.5 l16 81q16 80 -19.5 120t-118.5 40h-225z" />
<glyph unicode="&#x508;" horiz-adv-x="1816" d="M-17 0l39 192h37q113 0 198 134.5t145 426.5l134 674h843l-215 -1075q-17 -81 7 -130.5t82 -49.5q103 0 179 93t111 253q19 97 25.5 196.5t-1.5 198.5h227q6 -122 4 -213t-21 -182q-55 -259 -213.5 -399t-348.5 -140q-168 -3 -242 87t-44 286l175 882h-373l-96 -481 q-83 -414 -219.5 -583.5t-384.5 -169.5h-48z" />
<glyph unicode="&#x509;" horiz-adv-x="1556" d="M-20 0l45 207l38 1q83 0 142.5 96t101.5 306l90 450h687l-141 -708q-18 -81 8.5 -130.5t88.5 -49.5q78 0 138.5 81.5t91.5 224.5q19 91 24 185.5t-3 188.5h227q7 -116 5.5 -202.5t-19.5 -171.5q-52 -240 -193 -369.5t-309 -129.5q-173 -3 -249 87.5t-45 285.5l101 514 h-217l-51 -256q-67 -331 -180 -470.5t-322 -139.5h-59z" />
<glyph unicode="&#x50a;" horiz-adv-x="1881" d="M56 0l285 1427h235l-125 -627h580l125 627h234l-215 -1075q-18 -81 6.5 -130.5t82.5 -49.5q105 0 180.5 92.5t110.5 253.5q20 96 26 195.5t-2 199.5h227q7 -119 5 -211.5t-22 -183.5q-55 -259 -213.5 -399t-349.5 -140q-168 -3 -241.5 87.5t-42.5 285.5l51 257h-580 l-122 -609h-235z" />
<glyph unicode="&#x50b;" horiz-adv-x="1554" d="M27 0l212 1060h234l-87 -436h378l88 436h235l-141 -708q-19 -81 7 -130.5t89 -49.5q79 0 140 81.5t92 224.5q19 90 23.5 184.5t-2.5 189.5h226q7 -122 5.5 -206t-19.5 -168q-52 -240 -193.5 -369.5t-309.5 -129.5q-172 -3 -248 87.5t-46 285.5l16 81h-378l-86 -433h-235z " />
<glyph unicode="&#x50c;" horiz-adv-x="1180" d="M123 585l52 257q56 279 240 442t434 163q97 0 178 -22.5t134 -64.5l-95 -172q-54 32 -116.5 49t-139.5 17q-136 0 -251.5 -120t-148.5 -290l-52 -259q-38 -188 25 -300.5t211 -112.5q108 0 181 67t99 184q18 80 23 166t1 181h226q2 -154 1 -213t-18 -134 q-47 -214 -201.5 -329t-349.5 -115q-229 0 -356 174t-77 432z" />
<glyph unicode="&#x50d;" horiz-adv-x="984" d="M98 510l8 41q47 235 197 382t364 147q81 0 146 -17.5t101 -47.5l-80 -185q-37 27 -89.5 42t-115.5 15q-102 0 -182 -103t-107 -233l-8 -41q-29 -145 10.5 -241.5t163.5 -96.5q68 0 103.5 34t51.5 103q10 56 16.5 110t8.5 107h227q-1 -64 -4.5 -117t-13.5 -100 q-37 -163 -152.5 -246.5t-275.5 -83.5q-205 0 -309 156.5t-60 374.5z" />
<glyph unicode="&#x50e;" horiz-adv-x="1331" d="M200 1234l38 193h1050l-38 -193h-411l-176 -882q-17 -81 7.5 -130.5t82.5 -49.5q104 0 179 92.5t112 253.5q19 96 25 195.5t-2 199.5h228q6 -119 4 -211.5t-22 -183.5q-55 -259 -213.5 -399t-349.5 -140q-167 -3 -241 87.5t-44 285.5l176 882h-405z" />
<glyph unicode="&#x50f;" horiz-adv-x="1203" d="M157 869l38 191h827l-38 -191h-303l-103 -517q-17 -85 8.5 -132.5t88.5 -47.5q79 0 135.5 65t83.5 179q14 72 15.5 149.5t-10.5 149.5h226q12 -96 15 -164t-12 -135q-46 -210 -184.5 -323.5t-306.5 -113.5q-171 -3 -246.5 87.5t-46.5 285.5l103 517h-290z" />
<glyph unicode="&#x510;" horiz-adv-x="1258" d="M124 400q26 131 106 214.5t210 122.5q-95 48 -141 128.5t-27 174.5q42 209 197.5 308t400.5 99q194 0 321 -110.5t88 -282.5l-2 -6h-227q18 97 -44 152.5t-174 55.5q-129 0 -218.5 -62.5t-106.5 -153.5q-22 -109 31 -163.5t192 -54.5h174l-11 -52l-18 -87l-10 -50h-173 q-134 0 -222 -58.5t-111 -175.5q-22 -107 45.5 -168t210.5 -61q114 0 208.5 66t114.5 160h224l2 -6q-39 -216 -205.5 -313.5t-381.5 -97.5q-225 0 -358.5 113.5t-94.5 307.5z" />
<glyph unicode="&#x511;" horiz-adv-x="1029" d="M68 300q18 95 78.5 157t157.5 92q-71 36 -104.5 94.5t-20.5 126.5q32 157 159 233t324 76q160 0 264.5 -88t72.5 -226l-2 -5h-226q13 62 -30.5 99t-122.5 37q-82 0 -139 -41.5t-67 -95.5q-14 -66 21 -99.5t124 -33.5h184l-11 -50h1l-15 -70l-9 -49h-185q-87 0 -145.5 -37 t-72.5 -110q-14 -65 30 -106t137 -41q82 0 148 45t79 107h223l2 -6q-29 -171 -166.5 -250t-314.5 -79q-181 0 -292.5 87.5t-81.5 232.5z" />
<glyph unicode="&#x512;" horiz-adv-x="1331" d="M-35 0l38 190h36q126 5 200.5 133.5t135.5 441.5l130 662h882l-285 -1427h-236l247 1236h-412l-92 -471q-79 -401 -219.5 -583t-366.5 -182h-58zM813 -412l52 194q14 -4 40 -7.5t45 -3.5q48 0 85.5 43.5t53.5 123.5l53 263h234l-53 -263q-38 -186 -139.5 -276t-258.5 -90 q-30 0 -57.5 4t-54.5 12z" />
<glyph unicode="&#x513;" horiz-adv-x="1086" d="M-51 0l41 201h33q87 0 140.5 92.5t97.5 315.5l90 451h741l-212 -1060h-235l173 868h-271l-52 -259q-67 -334 -177 -471.5t-320 -137.5h-49zM591 -412l52 194q14 -4 40 -7.5t45 -3.5q48 0 85.5 43.5t53.5 123.5l53 263h234l-53 -263q-38 -186 -139.5 -276t-258.5 -90 q-30 0 -57.5 4t-54.5 12z" />
<glyph unicode="&#x1e00;" horiz-adv-x="1231" d="M-58 0l771 1427h222l195 -1427h-237l-38 333h-504l-173 -333h-236zM343 -226q14 71 67.5 113t121.5 42q59 0 96.5 -45t24.5 -110q-15 -71 -66.5 -111.5t-116.5 -40.5q-63 0 -101.5 43.5t-25.5 108.5zM438 -226q-5 -30 8 -48t40 -18q23 0 45 19.5t28 46.5q5 31 -8 49.5 t-37 18.5q-26 0 -48.5 -19.5t-27.5 -48.5zM454 532h378l-67 590l-5 1z" />
<glyph unicode="&#x1e01;" horiz-adv-x="1027" d="M68 299q32 164 158.5 244.5t335.5 80.5h154l19 93q18 89 -16 133.5t-116 44.5q-70 0 -124 -40t-65 -100h-225l-2 5q22 134 152 227t315 93q162 0 256 -96t60 -269l-94 -471q-15 -71 -18 -128.5t4 -115.5h-237q-4 33 -4.5 65.5t2.5 64.5q-60 -65 -139 -108t-164 -43 q-140 0 -211 88t-41 232zM161 -219q14 71 67.5 113t121.5 42q59 0 96.5 -45t24.5 -110q-15 -71 -66.5 -111.5t-116.5 -40.5q-63 0 -101.5 43.5t-25.5 108.5zM256 -219q-5 -30 8 -48t40 -18q23 0 45 19.5t28 46.5q5 31 -8 49.5t-37 18.5q-26 0 -48.5 -19.5t-27.5 -48.5z M303 303q-14 -65 13 -98.5t95 -33.5q64 0 132 35t107 85l37 184h-159q-84 0 -147.5 -52t-77.5 -120z" />
<glyph unicode="&#x1e3e;" horiz-adv-x="1647" d="M64 0l285 1427h304l151 -1096l5 -1l589 1097h303l-285 -1427h-234l97 486l142 594l-6 3l-598 -1083h-156l-164 1080h-6l-96 -594l-97 -486h-234zM934 1528l215 260h265l-298 -260h-182z" />
<glyph unicode="&#x1e3f;" horiz-adv-x="1628" d="M36 0l212 1060h214l-13 -125q61 70 140 107.5t175 37.5q87 0 147.5 -45.5t80.5 -135.5q62 86 145.5 133.5t184.5 47.5q139 0 207 -111t25 -330l-127 -639h-235l128 640q28 145 -1 195t-115 50q-61 0 -117.5 -42.5t-93.5 -112.5q-3 -18 -4.5 -26t-2.5 -17l-137 -687h-235 l129 640q27 139 -3 192t-115 53q-60 0 -110 -29t-89 -80l-156 -776h-234zM884 1212l215 260h265l-298 -260h-182z" />
<glyph unicode="&#x1e80;" horiz-adv-x="1658" d="M200 1427h230l37 -1015l6 -1l418 1016h186l94 -1017l6 -1l363 1018h229l-540 -1427h-213l-96 1004l-6 1l-418 -1005h-214zM719 1789h264l125 -260h-187z" />
<glyph unicode="&#x1e81;" horiz-adv-x="1403" d="M164 1060h224l7 -720l6 -1l342 721h169l57 -732l6 -1l292 733h225l-481 -1060h-191l-60 707l-6 1l-342 -708h-192zM576 1453h264l125 -260h-187z" />
<glyph unicode="&#x1e82;" horiz-adv-x="1658" d="M200 1427h230l37 -1015l6 -1l418 1016h186l94 -1017l6 -1l363 1018h229l-540 -1427h-213l-96 1004l-6 1l-418 -1005h-214zM888 1528l215 260h265l-298 -260h-182z" />
<glyph unicode="&#x1e83;" horiz-adv-x="1403" d="M164 1060h224l7 -720l6 -1l342 721h169l57 -732l6 -1l292 733h225l-481 -1060h-191l-60 707l-6 1l-342 -708h-192zM745 1192l215 260h265l-298 -260h-182z" />
<glyph unicode="&#x1e84;" horiz-adv-x="1658" d="M200 1427h230l37 -1015l6 -1l418 1016h186l94 -1017l6 -1l363 1018h229l-540 -1427h-213l-96 1004l-6 1l-418 -1005h-214zM671 1569l33 200h227l-32 -200h-228zM1112 1569l33 200h228l-32 -200h-229z" />
<glyph unicode="&#x1e85;" horiz-adv-x="1403" d="M164 1060h224l7 -720l6 -1l342 721h169l57 -732l6 -1l292 733h225l-481 -1060h-191l-60 707l-6 1l-342 -708h-192zM528 1233l33 200h227l-32 -200h-228zM969 1233l33 200h228l-32 -200h-229z" />
<glyph unicode="&#x1ea0;" horiz-adv-x="1231" d="M-58 0l771 1427h222l195 -1427h-237l-38 333h-504l-173 -333h-236zM357 -340l43 218h258l-43 -218h-258zM454 532h378l-67 590l-5 1z" />
<glyph unicode="&#x1ea1;" horiz-adv-x="1027" d="M68 299q32 164 158.5 244.5t335.5 80.5h154l19 93q18 89 -16 133.5t-116 44.5q-70 0 -124 -40t-65 -100h-225l-2 5q22 134 152 227t315 93q162 0 256 -96t60 -269l-94 -471q-15 -71 -18 -128.5t4 -115.5h-237q-4 33 -4.5 65.5t2.5 64.5q-60 -65 -139 -108t-164 -43 q-140 0 -211 88t-41 232zM176 -333l43 218h258l-43 -218h-258zM303 303q-14 -65 13 -98.5t95 -33.5q64 0 132 35t107 85l37 184h-159q-84 0 -147.5 -52t-77.5 -120z" />
<glyph unicode="&#x1ea2;" horiz-adv-x="1231" d="M-58 0l771 1427h222l195 -1427h-237l-38 333h-504l-173 -333h-236zM454 532h378l-67 590l-5 1zM785 1550l22 143q70 4 99.5 17.5t36.5 49.5q8 36 -25.5 53t-91.5 17l31 121q156 0 225.5 -47.5t49.5 -140.5q-12 -67 -57.5 -102.5t-104.5 -42.5l-14 -68h-171z" />
<glyph unicode="&#x1ea3;" horiz-adv-x="1027" d="M68 299q32 164 158.5 244.5t335.5 80.5h154l19 93q18 89 -16 133.5t-116 44.5q-70 0 -124 -40t-65 -100h-225l-2 5q22 134 152 227t315 93q162 0 256 -96t60 -269l-94 -471q-15 -71 -18 -128.5t4 -115.5h-237q-4 33 -4.5 65.5t2.5 64.5q-60 -65 -139 -108t-164 -43 q-140 0 -211 88t-41 232zM303 303q-14 -65 13 -98.5t95 -33.5q64 0 132 35t107 85l37 184h-159q-84 0 -147.5 -52t-77.5 -120zM588 1235l22 143q70 4 99.5 17.5t36.5 49.5q8 36 -25.5 53t-91.5 17l31 121q156 0 225.5 -47.5t49.5 -140.5q-12 -67 -57.5 -102.5t-104.5 -42.5 l-14 -68h-171z" />
</font>
</defs>
</svg>
