<?xml version="1.0" standalone="no"?>
<!DOCTYPE svg PUBLIC "-//W3C//DTD SVG 1.1//EN" "http://www.w3.org/Graphics/SVG/1.1/DTD/svg11.dtd" >
<svg xmlns="http://www.w3.org/2000/svg" xmlns:xlink="http://www.w3.org/1999/xlink" version="1.1">
<metadata></metadata>
<defs>
<font id="robotoregular" horiz-adv-x="1140" >
<font-face units-per-em="2048" ascent="1638" descent="-410" />
<missing-glyph horiz-adv-x="498" />
<glyph unicode="fi" horiz-adv-x="1117" d="M27 917v143h167v115q0 178 104.5 276t289.5 98q66 0 129.5 -15t149.5 -44l-33 -157q-52 20 -111 35t-120 15q-115 0 -165.5 -51t-50.5 -157v-115h211v-143h-211v-917h-193v917h-167zM767 0v1060h194v-1060h-194z" />
<glyph unicode=" "  horiz-adv-x="498" />
<glyph unicode="&#x09;" horiz-adv-x="498" />
<glyph unicode="&#xa0;" horiz-adv-x="498" />
<glyph unicode="!" horiz-adv-x="528" d="M168 0v200h194v-200h-194zM168 468v959h193v-959h-193z" />
<glyph unicode="&#x22;" horiz-adv-x="654" d="M78 1019l1 235v275h193v-265l-99 -245h-95zM381 1019l1 243v267h193v-265l-99 -245h-95z" />
<glyph unicode="#" horiz-adv-x="1250" d="M69 402v137h258l67 341h-251v139h278l81 408h148l-81 -408h250l81 408h148l-81 -408h195v-139h-221l-67 -341h215v-137h-242l-79 -402h-149l79 402h-250l-79 -402h-148l79 402h-231zM475 539h250l67 341h-250z" />
<glyph unicode="$" horiz-adv-x="1129" d="M112 416l2 4h186q0 -150 76 -214.5t187 -64.5q126 0 197 60.5t71 166.5q0 88 -62.5 150.5t-205.5 111.5q-198 60 -299 160t-101 266q0 162 92.5 264t255.5 123v216h154v-217q165 -24 255.5 -141t90.5 -314h-192q0 133 -61.5 215.5t-171.5 82.5q-116 0 -173 -60.5 t-57 -165.5q0 -95 59 -153.5t214 -111.5q201 -65 298 -161.5t97 -262.5q0 -168 -101 -267.5t-277 -118.5v-188h-154v187q-169 18 -276.5 123.5t-103.5 309.5z" />
<glyph unicode="%" horiz-adv-x="1468" d="M102 1077v75q0 125 80.5 210t214.5 85t214.5 -84.5t80.5 -210.5v-75q0 -124 -80 -208.5t-213 -84.5q-135 0 -216 84.5t-81 208.5zM245 1077q0 -73 39.5 -123t114.5 -50q71 0 110.5 50t39.5 123v75q0 73 -40 124.5t-112 51.5q-74 0 -113 -51.5t-39 -124.5v-75zM342 173 l697 1116l107 -66l-697 -1115zM793 273v77q0 124 80.5 209t214.5 85q133 0 214 -85t81 -209v-77q0 -125 -80.5 -209.5t-212.5 -84.5q-135 0 -216 84.5t-81 209.5zM936 273q0 -73 39.5 -123.5t114.5 -50.5q71 0 110.5 50.5t39.5 123.5v77q0 72 -40.5 123t-111.5 51 q-73 0 -112.5 -51t-39.5 -123v-77z" />
<glyph unicode="&#x26;" horiz-adv-x="1250" d="M63 384q0 120 69 209.5t206 179.5q-76 97 -113.5 173t-37.5 156q0 166 95.5 255.5t263.5 89.5q155 0 252 -89t97 -214q0 -96 -51.5 -166.5t-152.5 -143.5l-107 -78l333 -401q40 63 63 140.5t23 164.5h172q0 -130 -38 -239.5t-111 -197.5l181 -218l-2 -5h-224l-83 100 q-79 -59 -174 -90t-197 -31q-212 0 -338 113t-126 292zM256 384q0 -111 69.5 -182.5t201.5 -71.5q71 0 139.5 24t129.5 69l-354 427l-39 -29q-89 -66 -118 -127t-29 -110zM380 1104q0 -51 26.5 -107.5t79.5 -123.5l135 93q56 38 76 81.5t20 96.5q0 59 -47.5 105.5 t-123.5 46.5q-80 0 -123 -55.5t-43 -136.5z" />
<glyph unicode="'" horiz-adv-x="351" d="M78 1034l1 260v235h193v-219l-99 -276h-95z" />
<glyph unicode="(" horiz-adv-x="665" d="M129 570v9q0 386 156 659.5t327 364.5l6 -1l38 -113q-135 -105 -234.5 -336.5t-99.5 -571.5v-13q0 -340 99 -571t235 -345l-38 -106h-6q-171 91 -327 364t-156 660z" />
<glyph unicode=")" horiz-adv-x="673" d="M6 -348q132 103 232.5 338.5t100.5 577.5v13q0 335 -103.5 572t-229.5 344l37 106h6q171 -91 327 -364.5t156 -659.5v-9q0 -387 -156 -660t-327 -364h-6z" />
<glyph unicode="*" horiz-adv-x="866" d="M27 1050l48 150l291 -108l-10 335h158l-10 -341l287 108l47 -153l-296 -87l189 -265l-128 -94l-178 281l-172 -273l-130 91l195 268z" />
<glyph unicode="+" horiz-adv-x="1138" d="M76 593v174h394v415h193v-415h391v-174h-391v-450h-193v450h-394z" />
<glyph unicode="," horiz-adv-x="395" d="M47 -253l69 310v160h193v-170l-147 -300h-115z" />
<glyph unicode="-" horiz-adv-x="549" d="M34 527v151h480v-151h-480z" />
<glyph unicode="." horiz-adv-x="537" d="M158 0v198h193v-198h-193z" />
<glyph unicode="/" horiz-adv-x="833" d="M16 -122l596 1549h163l-595 -1549h-164z" />
<glyph unicode="0" horiz-adv-x="1130" d="M111 544v338q0 272 122 418.5t331 146.5q211 0 333 -146.5t122 -418.5v-338q0 -274 -121 -419.5t-332 -145.5q-210 0 -332.5 146t-122.5 419zM304 505q0 -186 67.5 -280.5t194.5 -94.5q128 0 194 94t66 281v418q0 185 -67 279t-195 94q-127 0 -193.5 -94t-66.5 -279v-418 z" />
<glyph unicode="1" horiz-adv-x="1129" d="M182 1235v139l485 53v-1427h-193v1239z" />
<glyph unicode="2" horiz-adv-x="1129" d="M95 1012q-5 185 122.5 310t352.5 125q192 0 306.5 -112t114.5 -285q0 -117 -69 -234t-194 -252l-375 -408l2 -5h686v-151h-925v132l467 520q126 140 170.5 222t44.5 169q0 107 -62.5 180t-165.5 73q-148 0 -218 -76t-70 -214h-185z" />
<glyph unicode="3" horiz-adv-x="1129" d="M98 370l3 6h184q0 -112 69 -179t190 -67q122 0 192 67t70 197q0 132 -62 195t-195 63h-169v151h169q128 0 181.5 64t53.5 179q0 122 -61 186t-179 64q-113 0 -181 -66.5t-68 -175.5h-185l-2 5q-5 162 117 275t319 113q198 0 315.5 -105t117.5 -300q0 -88 -53.5 -176 t-160.5 -134q129 -42 182.5 -132t53.5 -202q0 -195 -128 -307t-327 -112q-195 0 -323 105.5t-123 285.5z" />
<glyph unicode="4" horiz-adv-x="1129" d="M54 329v109l629 989h204v-947h197v-151h-197v-329h-192v329h-641zM260 480h435v670l-6 1l-19 -49z" />
<glyph unicode="5" horiz-adv-x="1129" d="M154 369l2 6h174q0 -116 67.5 -180.5t173.5 -64.5q123 0 190.5 86.5t67.5 236.5q0 137 -68.5 225t-189.5 88q-113 0 -164 -34t-75 -105l-160 17l82 783h714v-172h-551l-47 -400q46 33 101 55t128 24q197 2 310 -128.5t113 -350.5q0 -215 -115 -345.5t-336 -130.5 q-181 0 -301.5 99t-115.5 291z" />
<glyph unicode="6" horiz-adv-x="1129" d="M129 560v272q0 274 153 444.5t380 170.5q73 0 145 -16.5t119 -41.5l-41 -148q-48 24 -100.5 39.5t-122.5 15.5q-153 0 -247 -122.5t-94 -319.5v-23q63 55 144 86t174 31q191 0 304.5 -132.5t113.5 -335.5q0 -221 -121 -361t-323 -140q-209 0 -346.5 152t-137.5 429z M321 541q0 -197 83.5 -304t208.5 -107q119 0 185 100.5t66 249.5q0 141 -71 232.5t-197 91.5q-99 0 -168.5 -40.5t-106.5 -106.5v-116z" />
<glyph unicode="7" horiz-adv-x="1129" d="M75 1275v152h966v-152q-259 -308 -349.5 -545.5t-130.5 -575.5l-16 -154h-193l16 154q41 337 159.5 602.5t324.5 518.5h-777z" />
<glyph unicode="8" horiz-adv-x="1129" d="M100 386q0 121 72.5 213t195.5 135q-106 41 -167 125t-61 195q0 189 116 291t308 102q188 0 307 -102t119 -291q0 -111 -63 -195t-169 -125q123 -43 197 -135t74 -213q0 -198 -129 -302.5t-335 -104.5q-209 0 -337 104.5t-128 302.5zM293 390q0 -121 74.5 -190.5 t197.5 -69.5q121 0 196.5 70t75.5 190q0 118 -77.5 193.5t-195.5 75.5q-121 0 -196 -75.5t-75 -193.5zM333 1051q0 -109 64.5 -175t167.5 -66q102 0 167 66t65 175q0 105 -66.5 175t-166.5 70q-103 0 -167 -67.5t-64 -177.5z" />
<glyph unicode="9" horiz-adv-x="1129" d="M81 958q0 215 129 352t313 137q224 0 352.5 -139.5t128.5 -410.5v-340q0 -280 -139.5 -429t-363.5 -149q-76 0 -153.5 14.5t-139.5 43.5l29 148q58 -30 120 -42.5t144 -12.5q141 0 225.5 107t84.5 318v64q-48 -69 -120 -105t-160 -36q-207 0 -328.5 128t-121.5 352z M274 958q0 -147 69.5 -238t187.5 -91q107 0 178 46t102 118v123q0 187 -72 283.5t-210 96.5q-106 0 -180.5 -95t-74.5 -243z" />
<glyph unicode=":" horiz-adv-x="506" d="M158 0v198h193v-198h-193zM158 858v198h193v-198h-193z" />
<glyph unicode=";" horiz-adv-x="514" d="M97 -253l69 310v160h193v-170l-147 -300h-115zM159 858v198h193v-198h-193z" />
<glyph unicode="&#x3c;" horiz-adv-x="1019" d="M70 457v146l799 370v-197l-548 -228l-83 -18v-6l83 -18l548 -224v-197z" />
<glyph unicode="=" horiz-adv-x="1129" d="M149 399v161h817v-161h-817zM149 807v160h817v-160h-817z" />
<glyph unicode="&#x3e;" horiz-adv-x="1050" d="M133 85v192l586 234l84 16v6l-84 20l-586 229v191l839 -370v-146z" />
<glyph unicode="?" horiz-adv-x="954" d="M60 1100q-3 157 111 252t291 95q193 0 299.5 -98.5t106.5 -274.5q0 -126 -69 -231t-183 -215q-52 -53 -63.5 -95t-11.5 -131h-193q1 142 24.5 197t123.5 145q97 114 138 176t41 149q0 104 -55.5 160t-157.5 56q-90 0 -152.5 -48.5t-62.5 -142.5h-184zM346 0v204h202v-204 h-202z" />
<glyph unicode="@" horiz-adv-x="1796" d="M112 468q18 415 243.5 674.5t590.5 259.5q371 0 569.5 -245t181.5 -665q-8 -210 -117 -361.5t-326 -151.5q-71 0 -123 41t-75 115q-49 -78 -119.5 -117t-164.5 -39q-122 0 -190 118.5t-50 310.5q23 254 135 407t274 153q103 0 165.5 -25.5t136.5 -78.5l-4 -4h6l-50 -573 q-9 -108 21 -148.5t80 -40.5q120 0 192.5 111t80.5 283q16 374 -141 583.5t-486 209.5q-302 0 -486 -226.5t-198 -590.5q-18 -368 146.5 -582t472.5 -214q86 0 175 21t149 55l38 -105q-66 -41 -167.5 -64t-198.5 -23q-372 0 -575.5 244.5t-185.5 667.5zM706 408 q-11 -139 21 -212t104 -73q63 0 115 24.5t95 85.5q-1 12 -0.5 25t2.5 29l46 527q-26 12 -54 19t-58 7q-122 0 -187 -107.5t-84 -324.5z" />
<glyph unicode="A" horiz-adv-x="1299" d="M20 0l551 1427h166l543 -1427h-197l-133 368h-598l-135 -368h-197zM412 529h480l-235 650h-6z" />
<glyph unicode="B" horiz-adv-x="1282" d="M176 0v1427h466q223 0 349.5 -96.5t126.5 -289.5q0 -95 -60.5 -170t-159.5 -111q129 -28 203 -127t74 -230q0 -196 -127 -299.5t-344 -103.5h-528zM369 151h335q131 0 204.5 65t73.5 185q0 125 -61.5 196.5t-188.5 71.5h-363v-518zM369 820h313q108 0 175.5 59.5 t67.5 165.5q0 115 -73 172.5t-210 57.5h-273v-455z" />
<glyph unicode="C" horiz-adv-x="1271" d="M116 586v254q0 263 152 435t394 172q243 -1 386 -129q139 -125 139 -329v-12l-2 -6h-185q0 150 -88.5 237.5t-249.5 87.5t-257 -130.5t-96 -323.5v-256q0 -195 96 -325.5t257 -130.5t249.5 87t88.5 240h185l2 -6v-11q0 -194 -141 -326q-145 -136 -384 -135 q-242 0 -394 171.5t-152 435.5z" />
<glyph unicode="D" horiz-adv-x="1322" d="M176 0v1427h438q281 0 450.5 -172t169.5 -445v-195q0 -273 -169.5 -444t-450.5 -171h-438zM369 151h245q198 0 312.5 130.5t114.5 333.5v197q0 202 -114.5 332.5t-312.5 130.5h-245v-1124z" />
<glyph unicode="E" horiz-adv-x="1173" d="M176 0v1427h936v-152h-743v-462h654v-151h-654v-511h754v-151h-947z" />
<glyph unicode="F" horiz-adv-x="1169" d="M176 0v1427h944v-152h-751v-492h651v-152h-651v-631h-193z" />
<glyph unicode="G" horiz-adv-x="1368" d="M118 566v294q0 260 155.5 423.5t401.5 163.5q245 0 385 -120.5t143 -310.5l-2 -6h-184q-9 125 -94.5 205.5t-247.5 80.5q-163 0 -263 -122.5t-100 -311.5v-296q0 -190 111.5 -313t284.5 -123q121 0 198.5 32.5t110.5 73.5v325h-312v151h505v-523q-51 -78 -177 -144 t-325 -66q-256 0 -423 164t-167 423z" />
<glyph unicode="H" horiz-adv-x="1431" d="M176 0v1427h193v-645h693v645h193v-1427h-193v630h-693v-630h-193z" />
<glyph unicode="I" horiz-adv-x="567" d="M186 0v1427h194v-1427h-194z" />
<glyph unicode="J" horiz-adv-x="1107" d="M65 387l2 6h185q0 -132 67 -197.5t190 -65.5q106 0 174 72t68 193v1032h193v-1032q0 -191 -121 -303.5t-314 -112.5q-206 0 -327 105q-117 100 -117 287v16z" />
<glyph unicode="K" horiz-adv-x="1290" d="M176 0v1427h193v-631h149l511 631h214l3 -5l-554 -685l594 -732l-3 -5h-230l-517 644h-167v-644h-193z" />
<glyph unicode="L" horiz-adv-x="1083" d="M176 0v1427h193v-1276h676v-151h-869z" />
<glyph unicode="M" horiz-adv-x="1763" d="M176 0v1427h247l455 -1159h6l455 1159h247v-1427h-193v564l19 581l-5 1l-462 -1146h-129l-460 1143l-5 -1l18 -578v-564h-193z" />
<glyph unicode="N" horiz-adv-x="1431" d="M176 0v1427h193l687 -1102l6 2v1100h193v-1427h-193l-687 1103l-6 -1v-1102h-193z" />
<glyph unicode="O" horiz-adv-x="1368" d="M111 586v254q0 261 156 434t406 173q259 0 421 -172.5t162 -434.5v-254q0 -262 -162 -434.5t-421 -172.5q-250 0 -406 172.5t-156 434.5zM304 586q0 -198 100.5 -323.5t268.5 -125.5q180 0 285 125t105 324v256q0 196 -105.5 321.5t-284.5 125.5q-168 0 -268.5 -125.5 t-100.5 -321.5v-256z" />
<glyph unicode="P" horiz-adv-x="1285" d="M176 0v1427h546q229 0 355 -117.5t126 -309.5q0 -195 -126 -311.5t-355 -116.5h-353v-572h-193zM369 723h353q145 0 216.5 78t71.5 197q0 118 -72 197.5t-216 79.5h-353v-552z" />
<glyph unicode="Q" horiz-adv-x="1368" d="M111 586v254q0 261 156 434t406 173q259 0 421 -172.5t162 -434.5v-254q0 -139 -49 -257.5t-137 -201.5l242 -228l-132 -126l-271 251q-54 -22 -113.5 -33.5t-122.5 -11.5q-250 0 -406 172.5t-156 434.5zM304 586q0 -198 100.5 -323.5t268.5 -125.5q180 0 285 125 t105 324v256q0 196 -105.5 321.5t-284.5 125.5q-168 0 -268.5 -125.5t-100.5 -321.5v-256z" />
<glyph unicode="R" horiz-adv-x="1329" d="M176 0v1426h517q234 0 357.5 -104t123.5 -302q0 -110 -57.5 -191t-166.5 -129q117 -38 168.5 -124t51.5 -212v-135q0 -66 15 -119t51 -86v-24h-199q-38 33 -49 98t-11 133v131q0 115 -67.5 185.5t-181.5 70.5h-359v-618h-193zM369 770h304q164 0 236 62.5t72 189.5 q0 121 -70 187t-218 66h-324v-505z" />
<glyph unicode="S" horiz-adv-x="1251" d="M100 405l2 6h184q0 -138 101 -209.5t250 -71.5q146 0 231.5 62t85.5 168q0 98 -73.5 164t-261.5 111q-226 54 -353 159t-127 263q0 167 137 278.5t354 111.5q234 0 373 -128q134 -124 134 -286v-12l-2 -6h-184q0 126 -83 203.5t-238 77.5q-144 0 -221 -65.5t-77 -170.5 q0 -93 83.5 -155t270.5 -109q225 -56 343 -165t118 -269q0 -173 -141.5 -278t-368.5 -105q-214 0 -378 116q-159 113 -159 299v11z" />
<glyph unicode="T" horiz-adv-x="1176" d="M33 1275v152h1110v-152h-459v-1275h-193v1275h-458z" />
<glyph unicode="U" horiz-adv-x="1358" d="M144 460v967h193v-967q0 -162 92 -246t243 -84q159 0 256.5 84t97.5 246v967h193v-967q0 -234 -151.5 -357.5t-395.5 -123.5q-235 0 -381.5 124t-146.5 357z" />
<glyph unicode="V" horiz-adv-x="1269" d="M22 1427h209l369 -1072l32 -113h6l32 113l369 1072h209l-531 -1427h-165z" />
<glyph unicode="W" horiz-adv-x="1772" d="M53 1427h192l218 -933l26 -178l6 -1l38 179l262 933h170l264 -933l39 -183h6l28 183l213 933h193l-344 -1427h-172l-282 990l-25 128h-6l-24 -128l-287 -990h-172z" />
<glyph unicode="X" horiz-adv-x="1269" d="M65 0l462 719l-453 708h232l331 -557l333 557h233l-452 -708l462 -719h-230l-342 566l-343 -566h-233z" />
<glyph unicode="Y" horiz-adv-x="1225" d="M20 1427h220l372 -725l373 725h220l-500 -925v-502h-192v514z" />
<glyph unicode="Z" horiz-adv-x="1200" d="M95 0v143l763 1132h-752v152h972v-138l-765 -1138h797v-151h-1015z" />
<glyph unicode="[" horiz-adv-x="540" d="M140 -306v1937h377v-152h-184v-1633h184v-152h-377z" />
<glyph unicode="\" horiz-adv-x="829" d="M38 1427h182l596 -1549h-182z" />
<glyph unicode="]" horiz-adv-x="540" d="M11 -154h185v1633h-185v152h378v-1937h-378v152z" />
<glyph unicode="^" horiz-adv-x="838" d="M60 714l293 713h131l292 -713h-177l-163 411l-16 69h-5l-16 -69l-160 -411h-179z" />
<glyph unicode="_" horiz-adv-x="912" d="M4 0h904v-151h-904v151z" />
<glyph unicode="`" horiz-adv-x="628" d="M80 1442l3 5h226l171 -260h-155z" />
<glyph unicode="a" horiz-adv-x="1103" d="M104 298q0 152 123 237.5t334 85.5h209v105q0 93 -56.5 147.5t-160.5 54.5q-93 0 -151.5 -47.5t-58.5 -114.5h-184l-2 6v11q0 109 109 201q115 96 298 96q180 0 289.5 -91.5t109.5 -264.5v-510q0 -57 6 -110t22 -104h-199q-10 48 -15.5 85t-6.5 74q-54 -77 -140.5 -128.5 t-186.5 -51.5q-166 0 -252.5 85t-86.5 234zM297 294q0 -71 44 -112t130 -41q105 0 189.5 54t109.5 123v173h-216q-117 0 -187 -59t-70 -138z" />
<glyph unicode="b" d="M140 0v1529h193v-594q50 70 124 107.5t173 37.5q196 0 306 -157t110 -412v-21q0 -229 -110.5 -370t-303.5 -141q-105 0 -182.5 41t-128.5 120l-23 -140h-158zM333 303q37 -79 97.5 -123t152.5 -44q136 0 203 97t67 257v21q0 182 -67.5 297t-204.5 115q-89 0 -150.5 -43.5 t-97.5 -117.5v-459z" />
<glyph unicode="c" horiz-adv-x="1065" d="M95 510v41q0 226 123 377.5t353 151.5q187 0 305 -110q114 -106 114 -259v-10l-2 -6h-175q0 97 -68.5 165t-173.5 68q-152 0 -217 -109t-65 -268v-41q0 -163 64.5 -271.5t217.5 -108.5q96 0 169 59.5t73 145.5h174l2 -6v-10q0 -131 -122 -233q-127 -106 -296 -107 q-231 0 -353.5 151t-122.5 380z" />
<glyph unicode="d" d="M96 490v21q0 255 109.5 412t306.5 157q93 0 165 -34.5t123 -99.5v583h193v-1529h-158l-23 130q-52 -74 -127 -112.5t-175 -38.5q-194 0 -304 141t-110 370zM289 490q0 -161 65.5 -257.5t204.5 -96.5q86 0 144.5 39.5t96.5 109.5v495q-38 66 -97 104.5t-142 38.5 q-140 0 -206 -114.5t-66 -297.5v-21z" />
<glyph unicode="e" horiz-adv-x="1061" d="M97 510v43q0 226 135 376.5t319 150.5q214 0 324 -129.5t110 -344.5v-121h-688l-3 -5q3 -153 77.5 -251.5t208.5 -98.5q98 0 172 28t128 77l76 -125q-57 -56 -150.5 -93.5t-225.5 -37.5q-221 0 -352 147.5t-131 383.5zM301 641l2 -5h489v26q0 113 -61 189.5t-180 76.5 q-97 0 -165.5 -82t-84.5 -205z" />
<glyph unicode="f" horiz-adv-x="692" d="M55 917v143h165v135q0 169 89 261.5t248 92.5q33 0 67 -5t75 -15l-24 -147q-17 4 -42 7t-53 3q-84 0 -125 -50.5t-41 -146.5v-135h220v-143h-220v-917h-194v917h-165z" />
<glyph unicode="g" d="M98 490v21q0 255 111.5 412t308.5 157q101 0 177.5 -40.5t127.5 -117.5l24 138h154v-1066q0 -204 -119 -313t-342 -109q-76 0 -165 21t-156 57l49 150q51 -29 124.5 -47.5t145.5 -18.5q141 0 205.5 64.5t64.5 195.5v120q-52 -67 -124.5 -101t-167.5 -34 q-195 0 -306.5 141.5t-111.5 369.5zM291 490q0 -160 67.5 -257t205.5 -97q88 0 146.5 40t97.5 112v488q-38 68 -97.5 107.5t-144.5 39.5q-138 0 -206.5 -115.5t-68.5 -296.5v-21z" />
<glyph unicode="h" d="M140 0v1529h193v-611q55 77 135 119.5t177 42.5q169 0 264 -102t95 -314v-664h-194v666q0 132 -56 194.5t-168 62.5q-80 0 -145.5 -37.5t-107.5 -102.5v-783h-193z" />
<glyph unicode="i" horiz-adv-x="505" d="M156 0v1060h193v-1060h-193zM156 1332v197h193v-197h-193z" />
<glyph unicode="j" horiz-adv-x="519" d="M-65 -411l14 152q14 -5 39.5 -8t41.5 -3q64 0 102 43t38 140v1147h193v-1147q0 -164 -84.5 -252.5t-234.5 -88.5q-30 0 -55 4.5t-54 12.5zM164 1336v193h193v-193h-193z" />
<glyph unicode="k" horiz-adv-x="1029" d="M141 0v1529h193v-886h124l290 417h231l-363 -482l415 -578h-227l-344 489h-126v-489h-193z" />
<glyph unicode="l" horiz-adv-x="505" d="M156 0v1529h193v-1529h-193z" />
<glyph unicode="m" horiz-adv-x="1754" d="M140 0v1060h173l13 -139q52 76 132 117.5t186 41.5t182 -49t114 -147q50 90 132 143t192 53q162 0 256 -111t94 -335v-634h-193v636q0 157 -54 222t-161 65q-99 0 -160 -68.5t-72 -173.5v-8v-673h-194v636q0 149 -55.5 218t-159.5 69q-88 0 -144.5 -36t-87.5 -102v-785 h-193z" />
<glyph unicode="n" d="M140 0v1060h173l13 -157q53 84 133 130.5t182 46.5q171 0 265.5 -100.5t94.5 -310.5v-669h-193v665q0 141 -55.5 199.5t-169.5 58.5q-83 0 -147.5 -40t-102.5 -110v-773h-193z" />
<glyph unicode="o" d="M95 518v22q0 235 127.5 387.5t345.5 152.5q221 0 349 -152t128 -388v-22q0 -237 -127.5 -388t-347.5 -151q-219 0 -347 151.5t-128 387.5zM288 518q0 -168 71 -278t211 -110q139 0 210.5 110t71.5 278v22q0 167 -72 277.5t-212 110.5q-138 0 -209 -110.5t-71 -277.5v-22z " />
<glyph unicode="p" d="M140 -408v1468h148l30 -137q52 77 129.5 117t180.5 40q197 0 306.5 -156.5t109.5 -412.5v-21q0 -229 -110 -370t-303 -141q-98 0 -172 33t-126 99v-519h-193zM333 270q36 -66 95 -103t144 -37q138 0 208.5 100.5t70.5 259.5v21q0 180 -71 296t-210 116q-83 0 -142 -37.5 t-95 -103.5v-512z" />
<glyph unicode="q" d="M96 490v21q0 255 109.5 412t306.5 157q97 0 170.5 -37t124.5 -107l28 124h147v-1468h-193v508q-51 -60 -120.5 -90.5t-158.5 -30.5q-194 0 -304 141t-110 370zM289 490q0 -161 66 -260.5t204 -99.5q79 0 135.5 35.5t94.5 99.5v535q-38 59 -94.5 93.5t-133.5 34.5 q-139 0 -205.5 -117t-66.5 -300v-21z" />
<glyph unicode="r" horiz-adv-x="687" d="M140 0v1060h173l18 -154q45 82 111.5 128t152.5 46q21 0 41 -3.5t32 -7.5l-26 -179l-99 6q-77 0 -129 -36.5t-81 -101.5v-758h-193z" />
<glyph unicode="s" horiz-adv-x="1049" d="M107 322l2 6h184q5 -103 76.5 -150.5t167.5 -47.5q103 0 161.5 42t58.5 109q0 64 -48.5 105t-184.5 72q-193 42 -290.5 114t-97.5 196q0 130 110 221t286 91q184 0 294 -95q105 -91 105 -219v-12l-2 -6h-184q0 69 -58.5 124.5t-154.5 55.5q-103 0 -153 -45t-50 -109 q0 -63 44 -99t180 -64q201 -44 299 -118t98 -198q0 -141 -114.5 -228.5t-298.5 -87.5q-203 0 -319 103q-111 98 -111 227v13z" />
<glyph unicode="t" horiz-adv-x="693" d="M33 917v143h169v256h193v-256h201v-143h-201v-644q0 -74 31 -104.5t82 -30.5q16 0 36 4t36 10l26 -132q-22 -18 -63.5 -29.5t-83.5 -11.5q-118 0 -187.5 71.5t-69.5 222.5v644h-169z" />
<glyph unicode="u" d="M136 435v625h193v-627q0 -169 50 -233t156 -64q103 0 170 42t102 118v764h193v-1060h-174l-13 157q-50 -85 -128 -131.5t-181 -46.5q-174 0 -271 111t-97 345z" />
<glyph unicode="v" horiz-adv-x="1009" d="M45 1060h198l251 -747l17 -75h5l19 75l244 747h197l-390 -1060h-146z" />
<glyph unicode="w" horiz-adv-x="1519" d="M44 1060h192l176 -674l22 -128h6l27 128l212 674h155l213 -674l30 -143h6l28 143l167 674h192l-308 -1060h-156l-204 646l-44 180l-6 -1l-42 -179l-202 -646h-156z" />
<glyph unicode="x" horiz-adv-x="1009" d="M45 0l354 536l-344 524h222l223 -391l225 391h226l-344 -524l353 -536h-221l-235 401l-235 -401h-224z" />
<glyph unicode="y" horiz-adv-x="1009" d="M25 1060h216l224 -667l34 -133h6l260 800h215l-446 -1223q-40 -107 -115 -186t-202 -79q-24 0 -60 5.5t-56 9.5l20 152q-6 1 34.5 -2t51.5 -3q62 0 101 55t65 122l46 111z" />
<glyph unicode="z" horiz-adv-x="1009" d="M92 0v135l573 772h-566v153h803v-131l-580 -778h613v-151h-843z" />
<glyph unicode="{" horiz-adv-x="682" d="M62 532v144q104 0 154.5 60.5t50.5 170.5v202q0 168 80 285t271 171l40 -115q-108 -34 -153 -122.5t-45 -218.5v-202q0 -102 -42 -180.5t-125 -122.5q83 -45 125 -124t42 -180v-201q0 -129 45 -217t153 -123l-40 -116q-191 54 -271 171.5t-80 284.5v201q0 110 -50.5 171 t-154.5 61z" />
<glyph unicode="|" horiz-adv-x="496" d="M172 -265v1692h154v-1692h-154z" />
<glyph unicode="}" horiz-adv-x="682" d="M21 -241q106 35 152.5 123t46.5 217v201q0 105 44 183.5t136 120.5q-92 40 -136 118.5t-44 184.5v202q0 130 -46.5 218.5t-152.5 122.5l40 115q190 -54 271 -171t81 -285v-202q0 -110 49.5 -170.5t154.5 -60.5v-144q-105 0 -154.5 -61t-49.5 -171v-201q0 -167 -81 -284.5 t-271 -171.5z" />
<glyph unicode="~" horiz-adv-x="1363" d="M125 465q0 133 84 227.5t213 94.5q87 0 160.5 -34t156.5 -102q57 -50 104 -72.5t98 -22.5q64 0 112 55.5t48 131.5l138 -18q0 -134 -85.5 -233t-212.5 -99q-88 0 -160 32.5t-156 104.5q-58 47 -106 70.5t-97 23.5q-65 0 -111.5 -52t-46.5 -125z" />
<glyph unicode="&#xa1;" horiz-adv-x="496" d="M141 -367v959h193v-959h-193zM141 858v202h193v-202h-193z" />
<glyph unicode="&#xa2;" horiz-adv-x="1099" d="M105 510v41q0 195 93 337.5t270 179.5v224h194v-219q154 -23 248 -127.5t91 -245.5l-2 -5h-176q0 97 -68.5 165t-173.5 68q-152 0 -217 -109t-65 -268v-41q0 -163 64.5 -271.5t217.5 -108.5q96 0 169 59.5t73 145.5h175l3 -6q3 -119 -96 -218t-243 -124v-227h-194v231 q-178 35 -270.5 178.5t-92.5 340.5z" />
<glyph unicode="&#xa3;" horiz-adv-x="1170" d="M69 603v152h154l-9 264q0 200 109.5 314t293.5 114q196 0 304 -102t104 -271l-2 -6h-186q0 116 -62 172t-158 56q-97 0 -153.5 -73t-56.5 -204l9 -264h410v-152h-405l6 -146q0 -89 -15 -168.5t-44 -137.5h721l-1 -151h-957v151h10q47 13 70.5 109t23.5 197l-6 146h-160z " />
<glyph unicode="&#xa4;" horiz-adv-x="1426" d="M102 110l135 137q-49 74 -75 163t-26 186q0 100 28 192t81 168l-143 146l136 137l140 -143q73 54 160 83.5t181 29.5q95 0 182.5 -30t160.5 -85l143 146l138 -138l-147 -149q51 -77 78.5 -167.5t27.5 -189.5q0 -96 -26 -184t-73 -162l140 -140l-138 -136l-130 132 q-75 -61 -166 -93.5t-190 -32.5t-189.5 32t-163.5 92l-128 -129zM315 596q0 -184 118 -314t286 -130q167 0 285 130t118 314q0 182 -118 311.5t-285 129.5q-168 0 -286 -129.5t-118 -311.5z" />
<glyph unicode="&#xa5;" horiz-adv-x="1218" d="M29 1427h222l352 -650l353 650h219l-410 -704h306v-152h-375v-132h375v-152h-375v-287h-193v287h-368v152h368v132h-368v152h305z" />
<glyph unicode="&#xa6;" horiz-adv-x="489" d="M142 -265v777h193v-777h-193zM142 684v743h193v-743h-193z" />
<glyph unicode="&#xa7;" horiz-adv-x="1233" d="M92 540q0 89 46 158t132 110q-67 49 -100.5 117t-33.5 163q0 162 131.5 260.5t350.5 98.5q229 0 356.5 -109t123.5 -307l-3 -6h-185q0 116 -77 193.5t-215 77.5q-142 0 -215.5 -58.5t-73.5 -147.5q0 -97 66 -145.5t272 -105.5q239 -68 348.5 -156.5t109.5 -260.5 q0 -92 -47 -160.5t-132 -107.5q67 -50 101.5 -116.5t34.5 -162.5q0 -169 -130.5 -264.5t-350.5 -95.5q-217 0 -365 100.5t-143 315.5l2 6l184 2q0 -140 94.5 -206t227.5 -66q134 0 211 58t77 148q0 89 -70.5 138.5t-270.5 110.5q-234 62 -345 153.5t-111 264.5zM285 542 q0 -98 66.5 -148.5t272.5 -108.5q55 -16 91.5 -27t68.5 -23q71 20 110 68.5t39 115.5q0 90 -72 142t-270 114q-46 12 -86.5 24t-76.5 27q-71 -18 -107 -67t-36 -117z" />
<glyph unicode="&#xa8;" horiz-adv-x="1000" d="M167 1231v196h214v-196h-214zM627 1231v196h215v-196h-215z" />
<glyph unicode="&#xa9;" horiz-adv-x="1571" d="M86 714q0 309 203 520.5t493 211.5q289 0 492 -211.5t203 -520.5t-203.5 -522t-491.5 -213q-290 0 -493 213t-203 522zM205 714q0 -259 168 -437.5t409 -178.5q240 0 408.5 178.5t168.5 437.5q0 258 -168.5 435.5t-408.5 177.5q-241 0 -409 -177.5t-168 -435.5zM427 656 v116q0 170 92.5 275t248.5 105q154 0 241 -77.5t83 -223.5l-2 -6h-143q0 93 -44.5 135.5t-134.5 42.5q-92 0 -142 -69t-50 -181v-117q0 -115 50 -183.5t142 -68.5q90 0 134 42t44 138h143l2 -6q4 -148 -82.5 -225t-240.5 -77q-156 0 -248.5 104.5t-92.5 275.5z" />
<glyph unicode="&#xaa;" horiz-adv-x="898" d="M118 902q0 107 82.5 166t240.5 59h136v51q0 62 -29.5 95t-85.5 33q-66 0 -102 -26.5t-36 -74.5l-158 13l-1 6q-6 96 76.5 159.5t220.5 63.5q131 0 207.5 -69.5t76.5 -200.5v-308q0 -49 6 -92t19 -85h-170q-8 20 -13 44t-8 49q-32 -46 -87.5 -76.5t-130.5 -30.5 q-117 0 -180.5 60t-63.5 164zM287 906q0 -45 28.5 -68.5t87.5 -23.5q50 0 103.5 29.5t70.5 63.5v108h-135q-74 0 -114.5 -32t-40.5 -77z" />
<glyph unicode="&#xab;" horiz-adv-x="946" d="M96 497v19l289 381h145l-250 -391l250 -390h-145zM424 497v19l289 381h145l-250 -391l250 -390h-145z" />
<glyph unicode="&#xac;" horiz-adv-x="1114" d="M124 624v162h819v-418h-194v256h-625z" />
<glyph unicode="&#xad;" horiz-adv-x="549" d="M34 527v151h480v-151h-480z" />
<glyph unicode="&#xae;" horiz-adv-x="1571" d="M86 714q0 309 203 520.5t493 211.5q289 0 492 -211.5t203 -520.5t-203.5 -522t-491.5 -213q-290 0 -493 213t-203 522zM205 714q0 -260 168 -438t409 -178q239 0 407.5 178.5t168.5 437.5t-168 436t-408 177q-241 0 -409 -177t-168 -436zM494 310v833h274 q149 0 234 -64.5t85 -187.5q0 -61 -32.5 -107t-94.5 -76q65 -26 94 -78t29 -125v-55q0 -40 3.5 -72t13.5 -53v-15h-150q-9 20 -11 60t-2 81v53q0 70 -33 103.5t-108 33.5h-156v-331h-146zM640 768h149q64 1 108.5 32t44.5 86q0 71 -39 100t-135 29h-128v-247z" />
<glyph unicode="&#xaf;" horiz-adv-x="931" d="M121 1284v143h706v-143h-706z" />
<glyph unicode="&#xb0;" horiz-adv-x="747" d="M125 1192q0 104 74.5 179.5t177.5 75.5q101 0 174 -75.5t73 -179.5q0 -106 -72.5 -179t-174.5 -73q-104 0 -178 73t-74 179zM254 1192q0 -54 35.5 -89.5t87.5 -35.5q51 0 86 35.5t35 89.5t-35.5 90.5t-85.5 36.5q-52 0 -87.5 -36.5t-35.5 -90.5z" />
<glyph unicode="&#xb1;" horiz-adv-x="1075" d="M97 688v151h373v403h174v-403h351v-151h-351v-405h-174v405h-373zM133 4v152h819v-152h-819z" />
<glyph unicode="&#xb2;" horiz-adv-x="850" d="M117 1215q-6 97 76 165.5t221 68.5q132 0 206.5 -62.5t74.5 -176.5q0 -78 -43.5 -133t-157.5 -158l-150 -132l2 -6h354v-127h-580v127l296 257q67 59 88.5 95.5t21.5 77.5q0 49 -28 79.5t-84 30.5q-66 0 -102 -31.5t-36 -80.5h-157z" />
<glyph unicode="&#xb3;" horiz-adv-x="858" d="M110 864l1 6h159q0 -45 37 -73t99 -28q70 0 111.5 29t41.5 76q0 61 -36 89t-107 28h-130v123h130q65 0 97 28t32 79q0 42 -36 70.5t-103 28.5q-55 0 -89 -23.5t-34 -62.5h-159l-2 6q-5 92 77.5 150t206.5 58q142 0 224 -58t82 -166q0 -54 -34.5 -98.5t-95.5 -70.5 q69 -22 106 -69t37 -114q0 -109 -88 -169.5t-231 -60.5q-125 0 -213.5 57t-82.5 165z" />
<glyph unicode="&#xb4;" horiz-adv-x="640" d="M128 1187l182 260h225l2 -5l-265 -255h-144z" />
<glyph unicode="&#xb5;" d="M150 -408v1468h192v-629q2 -174 56.5 -237.5t152.5 -63.5q96 0 155 35.5t91 104.5v790h193v-1060h-174l-8 106q-44 -62 -106 -94.5t-143 -32.5q-71 0 -124.5 16.5t-92.5 50.5v-454h-192z" />
<glyph unicode="&#xb6;" horiz-adv-x="985" d="M62 968q0 203 127 331t355 128h275v-1427h-193v510h-82q-228 0 -355 126.5t-127 331.5z" />
<glyph unicode="&#xb7;" horiz-adv-x="529" d="M158 612v207h194v-207h-194z" />
<glyph unicode="&#xb8;" horiz-adv-x="498" d="M117 -319q70 0 113 24t43 72q0 47 -35 65.5t-120 25.5l31 132h137l-12 -51q64 -11 106 -51t42 -118q0 -95 -77 -150.5t-222 -55.5z" />
<glyph unicode="&#xb9;" horiz-adv-x="545" d="M93 1294v131l295 22v-795h-170v642h-125z" />
<glyph unicode="&#xba;" horiz-adv-x="914" d="M118 1004v115q0 145 92 236.5t246 91.5q155 0 247 -91.5t92 -236.5v-115q0 -146 -91.5 -236.5t-245.5 -90.5q-155 0 -247.5 90.5t-92.5 236.5zM287 1004q0 -86 43 -137.5t128 -51.5q81 0 124.5 52t43.5 137v115q0 82 -44 134.5t-126 52.5q-83 0 -126 -52.5t-43 -134.5 v-115z" />
<glyph unicode="&#xbb;" horiz-adv-x="946" d="M108 149l250 390l-250 391h145l289 -381v-19l-289 -381h-145zM447 149l250 390l-250 391h145l289 -381v-19l-289 -381h-145z" />
<glyph unicode="&#xbc;" horiz-adv-x="1563" d="M180 1293v131l295 23v-796h-170v642h-125zM332 181l697 1116l106 -66l-696 -1115zM769 249l414 536h169v-509h124v-127h-124v-149h-166v149h-409zM948 276h238v304l-6 1l-13 -21z" />
<glyph unicode="&#xbd;" horiz-adv-x="1673" d="M180 1293v131l295 23v-796h-170v642h-125zM345 181l697 1116l106 -66l-696 -1115zM912 562q-6 97 76 165.5t221 68.5q132 0 206.5 -63t74.5 -176q0 -79 -43.5 -134t-157.5 -157l-150 -133l2 -6h354v-127h-580v127l296 257q67 59 88.5 95.5t21.5 78.5q0 49 -28 79t-84 30 q-66 0 -102 -31t-36 -80h-157z" />
<glyph unicode="&#xbe;" horiz-adv-x="1745" d="M126 866l1 6h159q0 -46 37 -73.5t99 -27.5q70 0 111.5 28.5t41.5 75.5q0 61 -36 89t-107 28h-130v124h130q65 0 97 27.5t32 78.5q0 43 -36 71t-103 28q-55 0 -89 -23.5t-34 -62.5h-159l-2 6q-5 92 77.5 150.5t206.5 58.5q142 0 224 -58.5t82 -166.5q0 -54 -34.5 -98.5 t-95.5 -69.5q69 -23 106 -70t37 -113q0 -109 -88 -170t-231 -61q-125 0 -213.5 57t-82.5 166zM512 181l697 1116l106 -66l-696 -1115zM954 249l414 536h169v-509h124v-127h-124v-149h-166v149h-409zM1133 276h238v304l-6 1l-13 -21z" />
<glyph unicode="&#xbf;" horiz-adv-x="992" d="M112 -13q0 125 68.5 229t183.5 216q52 52 63.5 94t11.5 133h193q-2 -144 -25.5 -198.5t-122.5 -143.5q-98 -116 -138.5 -178t-40.5 -147q0 -104 55 -159.5t158 -55.5q89 0 152 48.5t63 142.5h184l3 -6q2 -158 -112 -253t-290 -95q-194 0 -300 98.5t-106 274.5zM432 857 v204h202v-204h-202z" />
<glyph unicode="&#xc0;" horiz-adv-x="1299" d="M20 0l551 1427h166l543 -1427h-197l-133 368h-598l-135 -368h-197zM370 1784l3 5h226l171 -260h-155zM412 529h480l-235 650h-6z" />
<glyph unicode="&#xc1;" horiz-adv-x="1299" d="M20 0l551 1427h166l543 -1427h-197l-133 368h-598l-135 -368h-197zM412 529h480l-235 650h-6zM600 1525l182 260h225l2 -5l-265 -255h-144z" />
<glyph unicode="&#xc2;" horiz-adv-x="1299" d="M20 0l551 1427h166l543 -1427h-197l-133 368h-598l-135 -368h-197zM349 1569v25l241 233h117l243 -234v-24h-157l-145 145l-143 -145h-156zM412 529h480l-235 650h-6z" />
<glyph unicode="&#xc3;" horiz-adv-x="1299" d="M20 0l551 1427h166l543 -1427h-197l-133 368h-598l-135 -368h-197zM309 1596q0 91 58 158t147 67q55 0 137.5 -46t133.5 -46q40 0 69.5 31.5t29.5 78.5l105 -32q0 -92 -58 -155.5t-146 -63.5q-70 0 -145.5 45.5t-125.5 45.5q-42 0 -70.5 -32t-28.5 -77zM412 529h480 l-235 650h-6z" />
<glyph unicode="&#xc4;" horiz-adv-x="1299" d="M20 0l551 1427h166l543 -1427h-197l-133 368h-598l-135 -368h-197zM313 1573v196h214v-196h-214zM412 529h480l-235 650h-6zM773 1573v196h215v-196h-215z" />
<glyph unicode="&#xc5;" horiz-adv-x="1299" d="M20 0l551 1427h166l543 -1427h-197l-133 368h-598l-135 -368h-197zM412 529h480l-235 650h-6zM448 1699q0 82 59.5 138t144.5 56q83 0 142 -55.5t59 -138.5q0 -84 -58.5 -137t-142.5 -53q-85 0 -144.5 53t-59.5 137zM549 1699q0 -42 30.5 -72t72.5 -30q41 0 70.5 29 t29.5 73t-29.5 74.5t-70.5 30.5q-42 0 -72.5 -30.5t-30.5 -74.5z" />
<glyph unicode="&#xc6;" horiz-adv-x="1883" d="M-20 0l863 1427h947v-152h-677l20 -457h578v-152h-572l21 -515h691v-151h-877l-15 343h-545l-198 -343h-236zM514 518h439l-31 696l-5 2z" />
<glyph unicode="&#xc7;" horiz-adv-x="1271" d="M116 586v254q0 263 152 435t394 172q243 0 386 -128.5t139 -341.5l-2 -6h-185q0 150 -88.5 237.5t-249.5 87.5t-257 -130.5t-96 -323.5v-256q0 -195 96 -325.5t257 -130.5t249.5 87t88.5 240h185l2 -6q4 -201 -141 -336.5t-384 -135.5q-242 0 -394 171.5t-152 435.5z M570 -327q70 0 113 24t43 72q0 47 -35 65.5t-120 25.5l31 132h137l-12 -51q64 -11 106 -51t42 -118q0 -95 -77 -150.5t-222 -55.5z" />
<glyph unicode="&#xc8;" horiz-adv-x="1173" d="M176 0v1427h936v-152h-743v-462h654v-151h-654v-511h754v-151h-947zM297 1784l3 5h226l171 -260h-155z" />
<glyph unicode="&#xc9;" horiz-adv-x="1173" d="M176 0v1427h936v-152h-743v-462h654v-151h-654v-511h754v-151h-947zM527 1525l182 260h225l2 -5l-265 -255h-144z" />
<glyph unicode="&#xca;" horiz-adv-x="1173" d="M176 0v1427h936v-152h-743v-462h654v-151h-654v-511h754v-151h-947zM316 1569v25l241 233h117l243 -234v-24h-157l-145 145l-143 -145h-156z" />
<glyph unicode="&#xcb;" horiz-adv-x="1173" d="M176 0v1427h936v-152h-743v-462h654v-151h-654v-511h754v-151h-947zM279 1573v196h214v-196h-214zM739 1573v196h215v-196h-215z" />
<glyph unicode="&#xcc;" horiz-adv-x="567" d="M-34 1784l3 5h226l171 -260h-155zM186 0v1427h194v-1427h-194z" />
<glyph unicode="&#xcd;" horiz-adv-x="567" d="M186 0v1427h194v-1427h-194zM195 1525l182 260h225l2 -5l-265 -255h-144z" />
<glyph unicode="&#xce;" horiz-adv-x="567" d="M-14 1569v25l241 233h117l243 -234v-24h-157l-145 145l-143 -145h-156zM186 0v1427h194v-1427h-194z" />
<glyph unicode="&#xcf;" horiz-adv-x="567" d="M-52 1573v196h214v-196h-214zM186 0v1427h194v-1427h-194zM408 1573v196h215v-196h-215z" />
<glyph unicode="&#xd0;" horiz-adv-x="1351" d="M41 650v152h165v625h438q280 0 449.5 -172t169.5 -445v-195q0 -273 -169.5 -444t-449.5 -171h-438v650h-165zM399 151h245q198 0 312 130.5t114 333.5v197q0 202 -114 332.5t-312 130.5h-245v-473h270v-152h-270v-499z" />
<glyph unicode="&#xd1;" horiz-adv-x="1431" d="M176 0v1427h193l687 -1102l6 2v1100h193v-1427h-193l-687 1103l-6 -1v-1102h-193zM373 1596q0 91 58 158t147 67q55 0 137.5 -46t133.5 -46q40 0 69.5 31.5t29.5 78.5l105 -32q0 -92 -58 -155.5t-146 -63.5q-70 0 -145.5 45.5t-125.5 45.5q-42 0 -70.5 -32t-28.5 -77z " />
<glyph unicode="&#xd2;" horiz-adv-x="1368" d="M111 586v254q0 261 156 434t406 173q259 0 421 -172.5t162 -434.5v-254q0 -262 -162 -434.5t-421 -172.5q-250 0 -406 172.5t-156 434.5zM304 586q0 -198 100.5 -323.5t268.5 -125.5q180 0 285 125t105 324v256q0 196 -105.5 321.5t-284.5 125.5q-168 0 -268.5 -125.5 t-100.5 -321.5v-256zM365 1805l3 5h226l171 -260h-155z" />
<glyph unicode="&#xd3;" horiz-adv-x="1368" d="M111 586v254q0 261 156 434t406 173q259 0 421 -172.5t162 -434.5v-254q0 -262 -162 -434.5t-421 -172.5q-250 0 -406 172.5t-156 434.5zM304 586q0 -198 100.5 -323.5t268.5 -125.5q180 0 285 125t105 324v256q0 196 -105.5 321.5t-284.5 125.5q-168 0 -268.5 -125.5 t-100.5 -321.5v-256zM595 1546l182 260h225l2 -5l-265 -255h-144z" />
<glyph unicode="&#xd4;" horiz-adv-x="1368" d="M111 586v254q0 261 156 434t406 173q259 0 421 -172.5t162 -434.5v-254q0 -262 -162 -434.5t-421 -172.5q-250 0 -406 172.5t-156 434.5zM304 586q0 -198 100.5 -323.5t268.5 -125.5q180 0 285 125t105 324v256q0 196 -105.5 321.5t-284.5 125.5q-168 0 -268.5 -125.5 t-100.5 -321.5v-256zM385 1590v25l241 233h117l243 -234v-24h-157l-145 145l-143 -145h-156z" />
<glyph unicode="&#xd5;" horiz-adv-x="1368" d="M111 586v254q0 261 156 434t406 173q259 0 421 -172.5t162 -434.5v-254q0 -262 -162 -434.5t-421 -172.5q-250 0 -406 172.5t-156 434.5zM304 586q0 -198 100.5 -323.5t268.5 -125.5q180 0 285 125t105 324v256q0 196 -105.5 321.5t-284.5 125.5q-168 0 -268.5 -125.5 t-100.5 -321.5v-256zM344 1617q0 91 58 158t147 67q55 0 137.5 -46t133.5 -46q40 0 69.5 31.5t29.5 78.5l105 -32q0 -92 -58 -155.5t-146 -63.5q-70 0 -145.5 45.5t-125.5 45.5q-42 0 -70.5 -32t-28.5 -77z" />
<glyph unicode="&#xd6;" horiz-adv-x="1368" d="M111 586v254q0 261 156 434t406 173q259 0 421 -172.5t162 -434.5v-254q0 -262 -162 -434.5t-421 -172.5q-250 0 -406 172.5t-156 434.5zM304 586q0 -198 100.5 -323.5t268.5 -125.5q180 0 285 125t105 324v256q0 196 -105.5 321.5t-284.5 125.5q-168 0 -268.5 -125.5 t-100.5 -321.5v-256zM347 1594v196h214v-196h-214zM807 1594v196h215v-196h-215z" />
<glyph unicode="&#xd7;" horiz-adv-x="1074" d="M86 344l321 327l-321 328l124 123l319 -326l321 326l123 -123l-321 -328l321 -327l-123 -124l-321 326l-319 -326z" />
<glyph unicode="&#xd8;" horiz-adv-x="1368" d="M111 586v254q0 261 156 434t406 173q92 0 175 -25t154 -70l79 135h146l-129 -217q75 -82 116.5 -193t41.5 -237v-254q0 -262 -162 -434.5t-421 -172.5q-83 0 -157 20.5t-137 59.5l-89 -151h-146l136 229q-82 83 -125.5 198.5t-43.5 250.5zM304 586q0 -83 18.5 -154.5 t52.5 -122.5l6 -1l533 897q-49 41 -109.5 62.5t-131.5 21.5q-168 0 -268.5 -125.5t-100.5 -321.5v-256zM466 204q43 -33 94.5 -50t112.5 -17q180 0 285 125t105 324v256q0 73 -16 139t-45 115l-6 1z" />
<glyph unicode="&#xd9;" horiz-adv-x="1358" d="M144 460v967h193v-967q0 -162 92 -246t243 -84q159 0 256.5 84t97.5 246v967h193v-967q0 -234 -151.5 -357.5t-395.5 -123.5q-235 0 -381.5 124t-146.5 357zM364 1784l3 5h226l171 -260h-155z" />
<glyph unicode="&#xda;" horiz-adv-x="1358" d="M144 460v967h193v-967q0 -162 92 -246t243 -84q159 0 256.5 84t97.5 246v967h193v-967q0 -234 -151.5 -357.5t-395.5 -123.5q-235 0 -381.5 124t-146.5 357zM594 1525l182 260h225l2 -5l-265 -255h-144z" />
<glyph unicode="&#xdb;" horiz-adv-x="1358" d="M144 460v967h193v-967q0 -162 92 -246t243 -84q159 0 256.5 84t97.5 246v967h193v-967q0 -234 -151.5 -357.5t-395.5 -123.5q-235 0 -381.5 124t-146.5 357zM384 1569v25l241 233h117l243 -234v-24h-157l-145 145l-143 -145h-156z" />
<glyph unicode="&#xdc;" horiz-adv-x="1358" d="M144 460v967h193v-967q0 -162 92 -246t243 -84q159 0 256.5 84t97.5 246v967h193v-967q0 -234 -151.5 -357.5t-395.5 -123.5q-235 0 -381.5 124t-146.5 357zM346 1573v196h214v-196h-214zM806 1573v196h215v-196h-215z" />
<glyph unicode="&#xdd;" horiz-adv-x="1225" d="M20 1427h220l372 -725l373 725h220l-500 -925v-502h-192v514zM524 1524l182 260h225l2 -5l-265 -255h-144z" />
<glyph unicode="&#xde;" horiz-adv-x="1184" d="M160 0v1427h193v-287h263q228 0 355.5 -116t127.5 -301q0 -186 -127.5 -301t-355.5 -115h-263v-307h-193zM353 458h263q144 0 216.5 76.5t72.5 186.5q0 112 -72.5 190t-216.5 78h-263v-531z" />
<glyph unicode="&#xdf;" horiz-adv-x="1196" d="M134 0v1060q0 219 115.5 341.5t294.5 122.5q158 0 257 -84.5t99 -247.5q0 -116 -63.5 -224t-63.5 -163q0 -81 170 -220t170 -275q0 -164 -102.5 -247.5t-276.5 -83.5q-82 0 -169 20.5t-123 49.5l43 156q42 -28 106 -51.5t123 -23.5q106 0 156 46.5t50 123.5 q0 82 -170 222.5t-170 284.5q0 78 69 186.5t69 182.5q0 91 -50 144t-114 53q-102 0 -165 -82t-63 -231v-1060h-192z" />
<glyph unicode="&#xe0;" horiz-adv-x="1103" d="M104 298q0 152 123 237.5t334 85.5h209v105q0 93 -56.5 147.5t-160.5 54.5q-93 0 -151.5 -47.5t-58.5 -114.5h-184l-2 6q-6 116 109 212t298 96q180 0 289.5 -91.5t109.5 -264.5v-510q0 -57 6 -110t22 -104h-199q-10 48 -15.5 85t-6.5 74q-54 -77 -140.5 -128.5 t-186.5 -51.5q-166 0 -252.5 85t-86.5 234zM225 1468l3 5h226l171 -260h-155zM297 294q0 -71 44 -112t130 -41q105 0 189.5 54t109.5 123v173h-216q-117 0 -187 -59t-70 -138z" />
<glyph unicode="&#xe1;" horiz-adv-x="1103" d="M104 298q0 152 123 237.5t334 85.5h209v105q0 93 -56.5 147.5t-160.5 54.5q-93 0 -151.5 -47.5t-58.5 -114.5h-184l-2 6q-6 116 109 212t298 96q180 0 289.5 -91.5t109.5 -264.5v-510q0 -57 6 -110t22 -104h-199q-10 48 -15.5 85t-6.5 74q-54 -77 -140.5 -128.5 t-186.5 -51.5q-166 0 -252.5 85t-86.5 234zM297 294q0 -71 44 -112t130 -41q105 0 189.5 54t109.5 123v173h-216q-117 0 -187 -59t-70 -138zM455 1210l182 260h225l2 -5l-265 -255h-144z" />
<glyph unicode="&#xe2;" horiz-adv-x="1103" d="M104 298q0 152 123 237.5t334 85.5h209v105q0 93 -56.5 147.5t-160.5 54.5q-93 0 -151.5 -47.5t-58.5 -114.5h-184l-2 6q-6 116 109 212t298 96q180 0 289.5 -91.5t109.5 -264.5v-510q0 -57 6 -110t22 -104h-199q-10 48 -15.5 85t-6.5 74q-54 -77 -140.5 -128.5 t-186.5 -51.5q-166 0 -252.5 85t-86.5 234zM244 1253v25l241 233h117l243 -234v-24h-157l-145 145l-143 -145h-156zM297 294q0 -71 44 -112t130 -41q105 0 189.5 54t109.5 123v173h-216q-117 0 -187 -59t-70 -138z" />
<glyph unicode="&#xe3;" horiz-adv-x="1103" d="M104 298q0 152 123 237.5t334 85.5h209v105q0 93 -56.5 147.5t-160.5 54.5q-93 0 -151.5 -47.5t-58.5 -114.5h-184l-2 6q-6 116 109 212t298 96q180 0 289.5 -91.5t109.5 -264.5v-510q0 -57 6 -110t22 -104h-199q-10 48 -15.5 85t-6.5 74q-54 -77 -140.5 -128.5 t-186.5 -51.5q-166 0 -252.5 85t-86.5 234zM204 1280q0 91 58 158t147 67q55 0 137.5 -46t133.5 -46q40 0 69.5 31.5t29.5 78.5l105 -32q0 -92 -58 -155.5t-146 -63.5q-70 0 -145.5 45.5t-125.5 45.5q-42 0 -70.5 -32t-28.5 -77zM297 294q0 -71 44 -112t130 -41 q105 0 189.5 54t109.5 123v173h-216q-117 0 -187 -59t-70 -138z" />
<glyph unicode="&#xe4;" horiz-adv-x="1103" d="M104 298q0 152 123 237.5t334 85.5h209v105q0 93 -56.5 147.5t-160.5 54.5q-93 0 -151.5 -47.5t-58.5 -114.5h-184l-2 6q-6 116 109 212t298 96q180 0 289.5 -91.5t109.5 -264.5v-510q0 -57 6 -110t22 -104h-199q-10 48 -15.5 85t-6.5 74q-54 -77 -140.5 -128.5 t-186.5 -51.5q-166 0 -252.5 85t-86.5 234zM207 1257v196h214v-196h-214zM297 294q0 -71 44 -112t130 -41q105 0 189.5 54t109.5 123v173h-216q-117 0 -187 -59t-70 -138zM667 1257v196h215v-196h-215z" />
<glyph unicode="&#xe5;" horiz-adv-x="1103" d="M104 298q0 152 123 237.5t334 85.5h209v105q0 93 -56.5 147.5t-160.5 54.5q-93 0 -151.5 -47.5t-58.5 -114.5h-184l-2 6q-6 116 109 212t298 96q180 0 289.5 -91.5t109.5 -264.5v-510q0 -57 6 -110t22 -104h-199q-10 48 -15.5 85t-6.5 74q-54 -77 -140.5 -128.5 t-186.5 -51.5q-166 0 -252.5 85t-86.5 234zM297 294q0 -71 44 -112t130 -41q105 0 189.5 54t109.5 123v173h-216q-117 0 -187 -59t-70 -138zM339 1384q0 82 59.5 138t144.5 56q83 0 142 -55.5t59 -138.5q0 -84 -58.5 -137t-142.5 -53q-85 0 -144.5 53t-59.5 137zM440 1384 q0 -42 30.5 -72t72.5 -30q41 0 70.5 29t29.5 73t-29.5 74.5t-70.5 30.5q-42 0 -72.5 -30.5t-30.5 -74.5z" />
<glyph unicode="&#xe6;" horiz-adv-x="1694" d="M57 298q0 155 112.5 239.5t328.5 84.5h224v84q0 103 -50.5 162.5t-146.5 59.5q-101 0 -160.5 -54t-59.5 -130l-184 17l-2 6q-5 136 107 224.5t299 88.5q112 0 197.5 -39.5t135.5 -115.5q62 74 148 114.5t185 40.5q209 0 322.5 -127.5t113.5 -350.5v-117h-695l-2 -5 q1 -156 78 -253t229 -97q101 0 166 27t141 77l66 -135q-52 -43 -144 -81.5t-229 -38.5q-134 0 -235.5 47.5t-166.5 136.5q-55 -78 -164 -131t-266 -53q-167 0 -257.5 85.5t-90.5 233.5zM250 294q0 -73 49 -118.5t144 -45.5q74 0 155.5 43t123.5 98v212h-222q-118 0 -184 -55 t-66 -134zM934 632l2 -5h498v31q0 119 -59 194.5t-184 75.5q-111 0 -178.5 -83t-78.5 -213z" />
<glyph unicode="&#xe7;" horiz-adv-x="1065" d="M95 510v41q0 226 123 377.5t353 151.5q187 0 305 -110t114 -269l-2 -6h-175q0 97 -68.5 165t-173.5 68q-152 0 -217 -109t-65 -268v-41q0 -163 64.5 -271.5t217.5 -108.5q96 0 169 59.5t73 145.5h174l2 -6q5 -137 -122 -243.5t-296 -106.5q-231 0 -353.5 151t-122.5 380z M432 -327q70 0 113 24t43 72q0 47 -35 65.5t-120 25.5l31 132h137l-12 -51q64 -11 106 -51t42 -118q0 -95 -77 -150.5t-222 -55.5z" />
<glyph unicode="&#xe8;" horiz-adv-x="1061" d="M97 510v43q0 226 135 376.5t319 150.5q214 0 324 -129.5t110 -344.5v-121h-688l-3 -5q3 -153 77.5 -251.5t208.5 -98.5q98 0 172 28t128 77l76 -125q-57 -56 -150.5 -93.5t-225.5 -37.5q-221 0 -352 147.5t-131 383.5zM228 1469l3 5h226l171 -260h-155zM301 641l2 -5h489 v26q0 113 -61 189.5t-180 76.5q-97 0 -165.5 -82t-84.5 -205z" />
<glyph unicode="&#xe9;" horiz-adv-x="1061" d="M97 510v43q0 226 135 376.5t319 150.5q214 0 324 -129.5t110 -344.5v-121h-688l-3 -5q3 -153 77.5 -251.5t208.5 -98.5q98 0 172 28t128 77l76 -125q-57 -56 -150.5 -93.5t-225.5 -37.5q-221 0 -352 147.5t-131 383.5zM301 641l2 -5h489v26q0 113 -61 189.5t-180 76.5 q-97 0 -165.5 -82t-84.5 -205zM458 1211l182 260h225l2 -5l-265 -255h-144z" />
<glyph unicode="&#xea;" horiz-adv-x="1061" d="M97 510v43q0 226 135 376.5t319 150.5q214 0 324 -129.5t110 -344.5v-121h-688l-3 -5q3 -153 77.5 -251.5t208.5 -98.5q98 0 172 28t128 77l76 -125q-57 -56 -150.5 -93.5t-225.5 -37.5q-221 0 -352 147.5t-131 383.5zM247 1254v25l241 233h117l243 -234v-24h-157 l-145 145l-143 -145h-156zM301 641l2 -5h489v26q0 113 -61 189.5t-180 76.5q-97 0 -165.5 -82t-84.5 -205z" />
<glyph unicode="&#xeb;" horiz-adv-x="1061" d="M97 510v43q0 226 135 376.5t319 150.5q214 0 324 -129.5t110 -344.5v-121h-688l-3 -5q3 -153 77.5 -251.5t208.5 -98.5q98 0 172 28t128 77l76 -125q-57 -56 -150.5 -93.5t-225.5 -37.5q-221 0 -352 147.5t-131 383.5zM210 1258v196h214v-196h-214zM301 641l2 -5h489v26 q0 113 -61 189.5t-180 76.5q-97 0 -165.5 -82t-84.5 -205zM670 1258v196h215v-196h-215z" />
<glyph unicode="&#xec;" horiz-adv-x="504" d="M-70 1448l3 5h226l171 -260h-155zM150 0v1060h193v-1060h-193z" />
<glyph unicode="&#xed;" horiz-adv-x="504" d="M150 0v1060h193v-1060h-193zM158 1189l182 260h225l2 -5l-265 -255h-144z" />
<glyph unicode="&#xee;" horiz-adv-x="504" d="M-51 1233v25l241 233h117l243 -234v-24h-157l-145 145l-143 -145h-156zM150 0v1060h193v-1060h-193z" />
<glyph unicode="&#xef;" horiz-adv-x="504" d="M-88 1237v196h214v-196h-214zM150 0v1060h193v-1060h-193zM372 1237v196h215v-196h-215z" />
<glyph unicode="&#xf0;" horiz-adv-x="1177" d="M71 457q0 223 135 362t344 139q88 0 166 -36t129 -95l4 5q-9 107 -50.5 193t-108.5 151l-284 -162l-76 100l251 143q-38 22 -78.5 38.5t-84.5 30.5l59 161q78 -19 148.5 -51.5t132.5 -77.5l213 123l76 -100l-191 -110q93 -102 144 -236.5t51 -294.5v-216 q0 -240 -141.5 -392.5t-351.5 -152.5q-214 0 -350.5 137.5t-136.5 340.5zM264 457q0 -130 80 -228.5t218 -98.5q130 0 213 112t83 282v145q-35 58 -114 98t-194 40q-129 0 -207.5 -102t-78.5 -248z" />
<glyph unicode="&#xf1;" d="M140 0v1060h173l13 -157q53 84 133 130.5t182 46.5q171 0 265.5 -100.5t94.5 -310.5v-669h-193v665q0 141 -55.5 199.5t-169.5 58.5q-83 0 -147.5 -40t-102.5 -110v-773h-193zM226 1280q0 91 58 158t147 67q55 0 137.5 -46t133.5 -46q40 0 69.5 31.5t29.5 78.5l105 -32 q0 -92 -58 -155.5t-146 -63.5q-70 0 -145.5 45.5t-125.5 45.5q-42 0 -70.5 -32t-28.5 -77z" />
<glyph unicode="&#xf2;" d="M95 518v22q0 235 127.5 387.5t345.5 152.5q221 0 349 -152t128 -388v-22q0 -237 -127.5 -388t-347.5 -151q-219 0 -347 151.5t-128 387.5zM252 1468l3 5h226l171 -260h-155zM288 518q0 -168 71 -278t211 -110q139 0 210.5 110t71.5 278v22q0 167 -72 277.5t-212 110.5 q-138 0 -209 -110.5t-71 -277.5v-22z" />
<glyph unicode="&#xf3;" d="M95 518v22q0 235 127.5 387.5t345.5 152.5q221 0 349 -152t128 -388v-22q0 -237 -127.5 -388t-347.5 -151q-219 0 -347 151.5t-128 387.5zM288 518q0 -168 71 -278t211 -110q139 0 210.5 110t71.5 278v22q0 167 -72 277.5t-212 110.5q-138 0 -209 -110.5t-71 -277.5v-22z M482 1210l182 260h225l2 -5l-265 -255h-144z" />
<glyph unicode="&#xf4;" d="M95 518v22q0 235 127.5 387.5t345.5 152.5q221 0 349 -152t128 -388v-22q0 -237 -127.5 -388t-347.5 -151q-219 0 -347 151.5t-128 387.5zM271 1253v25l241 233h117l243 -234v-24h-157l-145 145l-143 -145h-156zM288 518q0 -168 71 -278t211 -110q139 0 210.5 110 t71.5 278v22q0 167 -72 277.5t-212 110.5q-138 0 -209 -110.5t-71 -277.5v-22z" />
<glyph unicode="&#xf5;" d="M95 518v22q0 235 127.5 387.5t345.5 152.5q221 0 349 -152t128 -388v-22q0 -237 -127.5 -388t-347.5 -151q-219 0 -347 151.5t-128 387.5zM230 1280q0 91 58 158t147 67q55 0 137.5 -46t133.5 -46q40 0 69.5 31.5t29.5 78.5l105 -32q0 -92 -58 -155.5t-146 -63.5 q-70 0 -145.5 45.5t-125.5 45.5q-42 0 -70.5 -32t-28.5 -77zM288 518q0 -168 71 -278t211 -110q139 0 210.5 110t71.5 278v22q0 167 -72 277.5t-212 110.5q-138 0 -209 -110.5t-71 -277.5v-22z" />
<glyph unicode="&#xf6;" d="M95 518v22q0 235 127.5 387.5t345.5 152.5q221 0 349 -152t128 -388v-22q0 -237 -127.5 -388t-347.5 -151q-219 0 -347 151.5t-128 387.5zM234 1257v196h214v-196h-214zM288 518q0 -168 71 -278t211 -110q139 0 210.5 110t71.5 278v22q0 167 -72 277.5t-212 110.5 q-138 0 -209 -110.5t-71 -277.5v-22zM694 1257v196h215v-196h-215z" />
<glyph unicode="&#xf7;" horiz-adv-x="1146" d="M70 585v184h978v-184h-978zM463 176v199h194v-199h-194zM463 979v199h194v-199h-194z" />
<glyph unicode="&#xf8;" d="M95 518v22q0 235 127.5 387.5t345.5 152.5q55 0 105.5 -11t95.5 -30l73 146h126l-102 -207q87 -72 133 -186t46 -252v-22q0 -237 -127.5 -388t-347.5 -151q-50 0 -95 8.5t-86 24.5l-71 -144h-126l98 200q-94 69 -144.5 186.5t-50.5 263.5zM288 518q0 -89 19.5 -163 t60.5 -121h5l326 661q-29 15 -61.5 24t-69.5 9q-138 0 -209 -110.5t-71 -277.5v-22zM460 153q23 -12 50.5 -17.5t59.5 -5.5q139 0 210.5 110t71.5 278v22q0 78 -17.5 147.5t-48.5 115.5h-6z" />
<glyph unicode="&#xf9;" d="M136 435v625h193v-627q0 -169 50 -233t156 -64q103 0 170 42t102 118v764h193v-1060h-174l-13 157q-50 -85 -128 -131.5t-181 -46.5q-174 0 -271 111t-97 345zM250 1448l3 5h226l171 -260h-155z" />
<glyph unicode="&#xfa;" d="M136 435v625h193v-627q0 -169 50 -233t156 -64q103 0 170 42t102 118v764h193v-1060h-174l-13 157q-50 -85 -128 -131.5t-181 -46.5q-174 0 -271 111t-97 345zM480 1189l182 260h225l2 -5l-265 -255h-144z" />
<glyph unicode="&#xfb;" d="M136 435v625h193v-627q0 -169 50 -233t156 -64q103 0 170 42t102 118v764h193v-1060h-174l-13 157q-50 -85 -128 -131.5t-181 -46.5q-174 0 -271 111t-97 345zM269 1233v25l241 233h117l243 -234v-24h-157l-145 145l-143 -145h-156z" />
<glyph unicode="&#xfc;" d="M136 435v625h193v-627q0 -169 50 -233t156 -64q103 0 170 42t102 118v764h193v-1060h-174l-13 157q-50 -85 -128 -131.5t-181 -46.5q-174 0 -271 111t-97 345zM232 1237v196h214v-196h-214zM692 1237v196h215v-196h-215z" />
<glyph unicode="&#xfd;" horiz-adv-x="1009" d="M25 1060h216l224 -667l34 -133h6l260 800h215l-446 -1223q-40 -107 -115 -186t-202 -79q-24 0 -60 5.5t-56 9.5l20 152q-6 1 34.5 -2t51.5 -3q62 0 101 55t65 122l46 111zM415 1189l182 260h225l2 -5l-265 -255h-144z" />
<glyph unicode="&#xfe;" horiz-adv-x="1162" d="M150 -408v1937h193v-586q52 66 125.5 101.5t169.5 35.5q197 0 306.5 -156.5t109.5 -412.5v-21q0 -229 -110 -370t-303 -141q-98 0 -172 33t-126 99v-519h-193zM343 270q36 -66 95 -103t144 -37q137 0 207.5 100.5t70.5 259.5v21q0 180 -71 296t-209 116q-83 0 -142 -37.5 t-95 -103.5v-512z" />
<glyph unicode="&#xff;" horiz-adv-x="1009" d="M25 1060h216l224 -667l34 -133h6l260 800h215l-446 -1223q-40 -107 -115 -186t-202 -79q-24 0 -60 5.5t-56 9.5l20 152q-6 1 34.5 -2t51.5 -3q62 0 101 55t65 122l46 111zM167 1237v196h214v-196h-214zM627 1237v196h215v-196h-215z" />
<glyph unicode="&#x100;" horiz-adv-x="1299" d="M20 0l551 1427h166l543 -1427h-197l-133 368h-598l-135 -368h-197zM297 1607v143h706v-143h-706zM412 529h480l-235 650h-6z" />
<glyph unicode="&#x101;" horiz-adv-x="1103" d="M104 298q0 152 123 237.5t334 85.5h209v105q0 93 -56.5 147.5t-160.5 54.5q-93 0 -151.5 -47.5t-58.5 -114.5h-184l-2 6q-6 116 109 212t298 96q180 0 289.5 -91.5t109.5 -264.5v-510q0 -57 6 -110t22 -104h-199q-10 48 -15.5 85t-6.5 74q-54 -77 -140.5 -128.5 t-186.5 -51.5q-166 0 -252.5 85t-86.5 234zM196 1292v143h706v-143h-706zM297 294q0 -71 44 -112t130 -41q105 0 189.5 54t109.5 123v173h-216q-117 0 -187 -59t-70 -138z" />
<glyph unicode="&#x102;" horiz-adv-x="1299" d="M20 0l551 1427h166l543 -1427h-197l-133 368h-598l-135 -368h-197zM361 1827l2 6h148q0 -65 33.5 -105t105.5 -40q71 0 105.5 40.5t34.5 104.5h148l2 -6q3 -114 -76 -185.5t-214 -71.5t-214.5 71.5t-74.5 185.5zM412 529h480l-235 650h-6z" />
<glyph unicode="&#x103;" horiz-adv-x="1103" d="M104 298q0 152 123 237.5t334 85.5h209v105q0 93 -56.5 147.5t-160.5 54.5q-93 0 -151.5 -47.5t-58.5 -114.5h-184l-2 6q-6 116 109 212t298 96q180 0 289.5 -91.5t109.5 -264.5v-510q0 -57 6 -110t22 -104h-199q-10 48 -15.5 85t-6.5 74q-54 -77 -140.5 -128.5 t-186.5 -51.5q-166 0 -252.5 85t-86.5 234zM255 1511l2 6h148q0 -65 33.5 -105t105.5 -40q71 0 105.5 40.5t34.5 104.5h148l2 -6q3 -114 -76 -185.5t-214 -71.5t-214.5 71.5t-74.5 185.5zM297 294q0 -71 44 -112t130 -41q105 0 189.5 54t109.5 123v173h-216q-117 0 -187 -59 t-70 -138z" />
<glyph unicode="&#x104;" horiz-adv-x="1299" d="M20 0l551 1427h166l543 -1427h-197l-133 368h-598l-135 -368h-197zM412 529h480l-235 650h-6zM943 -219q0 79 59 149.5t184 125.5l70 -56q-68 -51 -107 -97.5t-39 -99.5q0 -41 22 -64.5t72 -23.5q27 0 49.5 7.5t47.5 17.5l33 -120q-36 -19 -78.5 -31t-101.5 -12 q-93 0 -152 53.5t-59 150.5z" />
<glyph unicode="&#x105;" horiz-adv-x="1103" d="M104 298q0 152 123 237.5t334 85.5h209v105q0 93 -56.5 147.5t-160.5 54.5q-93 0 -151.5 -47.5t-58.5 -114.5h-184l-2 6q-6 116 109 212t298 96q180 0 289.5 -91.5t109.5 -264.5v-510q0 -57 6 -110t22 -104h-199q-10 48 -15.5 85t-6.5 74q-54 -77 -140.5 -128.5 t-186.5 -51.5q-166 0 -252.5 85t-86.5 234zM297 294q0 -71 44 -112t130 -41q105 0 189.5 54t109.5 123v173h-216q-117 0 -187 -59t-70 -138zM654 -219q0 79 59 149.5t184 125.5l70 -56q-68 -51 -107 -97.5t-39 -99.5q0 -41 22 -64.5t72 -23.5q27 0 49.5 7.5t47.5 17.5 l33 -120q-36 -19 -78.5 -31t-101.5 -12q-93 0 -152 53.5t-59 150.5z" />
<glyph unicode="&#x106;" horiz-adv-x="1271" d="M116 586v254q0 263 152 435t394 172q243 0 386 -128.5t139 -341.5l-2 -6h-185q0 150 -88.5 237.5t-249.5 87.5t-257 -130.5t-96 -323.5v-256q0 -195 96 -325.5t257 -130.5t249.5 87t88.5 240h185l2 -6q4 -201 -141 -336.5t-384 -135.5q-242 0 -394 171.5t-152 435.5z M576 1546l182 260h225l2 -5l-265 -255h-144z" />
<glyph unicode="&#x107;" horiz-adv-x="1065" d="M95 510v41q0 226 123 377.5t353 151.5q187 0 305 -110t114 -269l-2 -6h-175q0 97 -68.5 165t-173.5 68q-152 0 -217 -109t-65 -268v-41q0 -163 64.5 -271.5t217.5 -108.5q96 0 169 59.5t73 145.5h174l2 -6q5 -137 -122 -243.5t-296 -106.5q-231 0 -353.5 151t-122.5 380z M438 1210l182 260h225l2 -5l-265 -255h-144z" />
<glyph unicode="&#x108;" horiz-adv-x="1271" d="M116 586v254q0 263 152 435t394 172q243 0 386 -128.5t139 -341.5l-2 -6h-185q0 150 -88.5 237.5t-249.5 87.5t-257 -130.5t-96 -323.5v-256q0 -195 96 -325.5t257 -130.5t249.5 87t88.5 240h185l2 -6q4 -201 -141 -336.5t-384 -135.5q-242 0 -394 171.5t-152 435.5z M365 1590v25l241 233h117l243 -234v-24h-157l-145 145l-143 -145h-156z" />
<glyph unicode="&#x109;" horiz-adv-x="1065" d="M95 510v41q0 226 123 377.5t353 151.5q187 0 305 -110t114 -269l-2 -6h-175q0 97 -68.5 165t-173.5 68q-152 0 -217 -109t-65 -268v-41q0 -163 64.5 -271.5t217.5 -108.5q96 0 169 59.5t73 145.5h174l2 -6q5 -137 -122 -243.5t-296 -106.5q-231 0 -353.5 151t-122.5 380z M227 1253v25l241 233h117l243 -234v-24h-157l-145 145l-143 -145h-156z" />
<glyph unicode="&#x10a;" horiz-adv-x="1271" d="M116 586v254q0 263 152 435t394 172q243 0 386 -128.5t139 -341.5l-2 -6h-185q0 150 -88.5 237.5t-249.5 87.5t-257 -130.5t-96 -323.5v-256q0 -195 96 -325.5t257 -130.5t249.5 87t88.5 240h185l2 -6q4 -201 -141 -336.5t-384 -135.5q-242 0 -394 171.5t-152 435.5z M558 1593v197h213v-197h-213z" />
<glyph unicode="&#x10b;" horiz-adv-x="1065" d="M95 510v41q0 226 123 377.5t353 151.5q187 0 305 -110t114 -269l-2 -6h-175q0 97 -68.5 165t-173.5 68q-152 0 -217 -109t-65 -268v-41q0 -163 64.5 -271.5t217.5 -108.5q96 0 169 59.5t73 145.5h174l2 -6q5 -137 -122 -243.5t-296 -106.5q-231 0 -353.5 151t-122.5 380z M420 1256v197h213v-197h-213z" />
<glyph unicode="&#x10c;" horiz-adv-x="1271" d="M116 586v254q0 263 152 435t394 172q243 0 386 -128.5t139 -341.5l-2 -6h-185q0 150 -88.5 237.5t-249.5 87.5t-257 -130.5t-96 -323.5v-256q0 -195 96 -325.5t257 -130.5t249.5 87t88.5 240h185l2 -6q4 -201 -141 -336.5t-384 -135.5q-242 0 -394 171.5t-152 435.5z M357 1829v20h163l144 -145l144 145h167v-18l-252 -240h-117z" />
<glyph unicode="&#x10d;" horiz-adv-x="1065" d="M95 510v41q0 226 123 377.5t353 151.5q187 0 305 -110t114 -269l-2 -6h-175q0 97 -68.5 165t-173.5 68q-152 0 -217 -109t-65 -268v-41q0 -163 64.5 -271.5t217.5 -108.5q96 0 169 59.5t73 145.5h174l2 -6q5 -137 -122 -243.5t-296 -106.5q-231 0 -353.5 151t-122.5 380z M218 1492v20h163l144 -145l144 145h167v-18l-252 -240h-117z" />
<glyph unicode="&#x10e;" horiz-adv-x="1322" d="M176 0v1427h438q281 0 450.5 -172t169.5 -445v-195q0 -273 -169.5 -444t-450.5 -171h-438zM300 1808v20h163l144 -145l144 145h167v-18l-252 -240h-117zM369 151h245q198 0 312.5 130.5t114.5 333.5v197q0 202 -114.5 332.5t-312.5 130.5h-245v-1124z" />
<glyph unicode="&#x10f;" horiz-adv-x="1287" d="M96 490v21q0 255 109.5 412t306.5 157q93 0 165 -34.5t123 -99.5v583h193v-1529h-158l-23 130q-52 -74 -127 -112.5t-175 -38.5q-194 0 -304 141t-110 370zM289 490q0 -161 65.5 -257.5t204.5 -96.5q86 0 144.5 39.5t96.5 109.5v495q-38 66 -97 104.5t-142 38.5 q-140 0 -206 -114.5t-66 -297.5v-21zM1068 1160l60 241v128h155v-137l-120 -232h-95z" />
<glyph unicode="&#x110;" horiz-adv-x="1351" d="M41 650v152h165v625h438q280 0 449.5 -172t169.5 -445v-195q0 -273 -169.5 -444t-449.5 -171h-438v650h-165zM399 151h245q198 0 312 130.5t114 333.5v197q0 202 -114 332.5t-312 130.5h-245v-473h270v-152h-270v-499z" />
<glyph unicode="&#x111;" horiz-adv-x="1170" d="M96 490v21q0 255 109.5 412t306.5 157q93 0 165 -34.5t123 -99.5v260h-242v152h242v171h193v-171h193v-152h-193v-1206h-158l-23 130q-52 -74 -127 -112.5t-175 -38.5q-194 0 -304 141t-110 370zM289 490q0 -161 65.5 -257.5t204.5 -96.5q86 0 144.5 39.5t96.5 109.5v495 q-38 66 -97 104.5t-142 38.5q-140 0 -206 -114.5t-66 -297.5v-21z" />
<glyph unicode="&#x112;" horiz-adv-x="1173" d="M176 0v1427h936v-152h-743v-462h654v-151h-654v-511h754v-151h-947zM268 1607v143h706v-143h-706z" />
<glyph unicode="&#x113;" horiz-adv-x="1061" d="M97 510v43q0 226 135 376.5t319 150.5q214 0 324 -129.5t110 -344.5v-121h-688l-3 -5q3 -153 77.5 -251.5t208.5 -98.5q98 0 172 28t128 77l76 -125q-57 -56 -150.5 -93.5t-225.5 -37.5q-221 0 -352 147.5t-131 383.5zM199 1293v143h706v-143h-706zM301 641l2 -5h489v26 q0 113 -61 189.5t-180 76.5q-97 0 -165.5 -82t-84.5 -205z" />
<glyph unicode="&#x114;" horiz-adv-x="1173" d="M176 0v1427h936v-152h-743v-462h654v-151h-654v-511h754v-151h-947zM327 1827l2 6h148q0 -65 33.5 -105t105.5 -40q71 0 105.5 40.5t34.5 104.5h148l2 -6q3 -114 -76 -185.5t-214 -71.5t-214.5 71.5t-74.5 185.5z" />
<glyph unicode="&#x115;" horiz-adv-x="1061" d="M97 510v43q0 226 135 376.5t319 150.5q214 0 324 -129.5t110 -344.5v-121h-688l-3 -5q3 -153 77.5 -251.5t208.5 -98.5q98 0 172 28t128 77l76 -125q-57 -56 -150.5 -93.5t-225.5 -37.5q-221 0 -352 147.5t-131 383.5zM258 1512l2 6h148q0 -65 33.5 -105t105.5 -40 q71 0 105.5 40.5t34.5 104.5h148l2 -6q3 -114 -76 -185.5t-214 -71.5t-214.5 71.5t-74.5 185.5zM301 641l2 -5h489v26q0 113 -61 189.5t-180 76.5q-97 0 -165.5 -82t-84.5 -205z" />
<glyph unicode="&#x116;" horiz-adv-x="1173" d="M176 0v1427h936v-152h-743v-462h654v-151h-654v-511h754v-151h-947zM509 1572v197h213v-197h-213z" />
<glyph unicode="&#x117;" horiz-adv-x="1061" d="M97 510v43q0 226 135 376.5t319 150.5q214 0 324 -129.5t110 -344.5v-121h-688l-3 -5q3 -153 77.5 -251.5t208.5 -98.5q98 0 172 28t128 77l76 -125q-57 -56 -150.5 -93.5t-225.5 -37.5q-221 0 -352 147.5t-131 383.5zM301 641l2 -5h489v26q0 113 -61 189.5t-180 76.5 q-97 0 -165.5 -82t-84.5 -205zM440 1257v197h213v-197h-213z" />
<glyph unicode="&#x118;" horiz-adv-x="1173" d="M176 0v1427h936v-152h-743v-462h654v-151h-654v-511h754v-151h-947zM391 -219q0 79 59 149.5t184 125.5l70 -56q-68 -51 -107 -97.5t-39 -99.5q0 -41 22 -64.5t72 -23.5q27 0 49.5 7.5t47.5 17.5l33 -120q-36 -19 -78.5 -31t-101.5 -12q-93 0 -152 53.5t-59 150.5z" />
<glyph unicode="&#x119;" horiz-adv-x="1061" d="M97 510v43q0 226 135 376.5t319 150.5q214 0 324 -129.5t110 -344.5v-121h-688l-3 -5q3 -153 77.5 -251.5t208.5 -98.5q98 0 172 28t128 77l76 -125q-57 -56 -150.5 -93.5t-225.5 -37.5q-221 0 -352 147.5t-131 383.5zM301 641l2 -5h489v26q0 113 -61 189.5t-180 76.5 q-97 0 -165.5 -82t-84.5 -205zM549 -158q0 79 59 149.5t184 125.5l70 -56q-68 -51 -107 -97.5t-39 -99.5q0 -41 22 -64.5t72 -23.5q27 0 49.5 7.5t47.5 17.5l33 -120q-36 -19 -78.5 -31t-101.5 -12q-93 0 -152 53.5t-59 150.5z" />
<glyph unicode="&#x11a;" horiz-adv-x="1173" d="M176 0v1427h936v-152h-743v-462h654v-151h-654v-511h754v-151h-947zM308 1808v20h163l144 -145l144 145h167v-18l-252 -240h-117z" />
<glyph unicode="&#x11b;" horiz-adv-x="1061" d="M97 510v43q0 226 135 376.5t319 150.5q214 0 324 -129.5t110 -344.5v-121h-688l-3 -5q3 -153 77.5 -251.5t208.5 -98.5q98 0 172 28t128 77l76 -125q-57 -56 -150.5 -93.5t-225.5 -37.5q-221 0 -352 147.5t-131 383.5zM239 1493v20h163l144 -145l144 145h167v-18 l-252 -240h-117zM301 641l2 -5h489v26q0 113 -61 189.5t-180 76.5q-97 0 -165.5 -82t-84.5 -205z" />
<glyph unicode="&#x11c;" horiz-adv-x="1368" d="M118 566v294q0 260 155.5 423.5t401.5 163.5q245 0 385 -120.5t143 -310.5l-2 -6h-184q-9 125 -94.5 205.5t-247.5 80.5q-163 0 -263 -122.5t-100 -311.5v-296q0 -190 111.5 -313t284.5 -123q121 0 198.5 32.5t110.5 73.5v325h-312v151h505v-523q-51 -78 -177 -144 t-325 -66q-256 0 -423 164t-167 423zM355 1590v25l241 233h117l243 -234v-24h-157l-145 145l-143 -145h-156z" />
<glyph unicode="&#x11d;" d="M98 490v21q0 255 111.5 412t308.5 157q101 0 177.5 -40.5t127.5 -117.5l24 138h154v-1066q0 -204 -119 -313t-342 -109q-76 0 -165 21t-156 57l49 150q51 -29 124.5 -47.5t145.5 -18.5q141 0 205.5 64.5t64.5 195.5v120q-52 -67 -124.5 -101t-167.5 -34 q-195 0 -306.5 141.5t-111.5 369.5zM253 1253v25l241 233h117l243 -234v-24h-157l-145 145l-143 -145h-156zM291 490q0 -160 67.5 -257t205.5 -97q88 0 146.5 40t97.5 112v488q-38 68 -97.5 107.5t-144.5 39.5q-138 0 -206.5 -115.5t-68.5 -296.5v-21z" />
<glyph unicode="&#x11e;" horiz-adv-x="1368" d="M118 566v294q0 260 155.5 423.5t401.5 163.5q245 0 385 -120.5t143 -310.5l-2 -6h-184q-9 125 -94.5 205.5t-247.5 80.5q-163 0 -263 -122.5t-100 -311.5v-296q0 -190 111.5 -313t284.5 -123q121 0 198.5 32.5t110.5 73.5v325h-312v151h505v-523q-51 -78 -177 -144 t-325 -66q-256 0 -423 164t-167 423zM366 1847l2 6h148q0 -65 33.5 -105t105.5 -40q71 0 105.5 40.5t34.5 104.5h148l2 -6q3 -114 -76 -185.5t-214 -71.5t-214.5 71.5t-74.5 185.5z" />
<glyph unicode="&#x11f;" d="M98 490v21q0 255 111.5 412t308.5 157q101 0 177.5 -40.5t127.5 -117.5l24 138h154v-1066q0 -204 -119 -313t-342 -109q-76 0 -165 21t-156 57l49 150q51 -29 124.5 -47.5t145.5 -18.5q141 0 205.5 64.5t64.5 195.5v120q-52 -67 -124.5 -101t-167.5 -34 q-195 0 -306.5 141.5t-111.5 369.5zM264 1511l2 6h148q0 -65 33.5 -105t105.5 -40q71 0 105.5 40.5t34.5 104.5h148l2 -6q3 -114 -76 -185.5t-214 -71.5t-214.5 71.5t-74.5 185.5zM291 490q0 -160 67.5 -257t205.5 -97q88 0 146.5 40t97.5 112v488q-38 68 -97.5 107.5 t-144.5 39.5q-138 0 -206.5 -115.5t-68.5 -296.5v-21z" />
<glyph unicode="&#x120;" horiz-adv-x="1368" d="M118 566v294q0 260 155.5 423.5t401.5 163.5q245 0 385 -120.5t143 -310.5l-2 -6h-184q-9 125 -94.5 205.5t-247.5 80.5q-163 0 -263 -122.5t-100 -311.5v-296q0 -190 111.5 -313t284.5 -123q121 0 198.5 32.5t110.5 73.5v325h-312v151h505v-523q-51 -78 -177 -144 t-325 -66q-256 0 -423 164t-167 423zM548 1593v197h213v-197h-213z" />
<glyph unicode="&#x121;" d="M98 490v21q0 255 111.5 412t308.5 157q101 0 177.5 -40.5t127.5 -117.5l24 138h154v-1066q0 -204 -119 -313t-342 -109q-76 0 -165 21t-156 57l49 150q51 -29 124.5 -47.5t145.5 -18.5q141 0 205.5 64.5t64.5 195.5v120q-52 -67 -124.5 -101t-167.5 -34 q-195 0 -306.5 141.5t-111.5 369.5zM291 490q0 -160 67.5 -257t205.5 -97q88 0 146.5 40t97.5 112v488q-38 68 -97.5 107.5t-144.5 39.5q-138 0 -206.5 -115.5t-68.5 -296.5v-21zM446 1256v197h213v-197h-213z" />
<glyph unicode="&#x122;" horiz-adv-x="1368" d="M118 566v294q0 260 155.5 423.5t401.5 163.5q245 0 385 -120.5t143 -310.5l-2 -6h-184q-9 125 -94.5 205.5t-247.5 80.5q-163 0 -263 -122.5t-100 -311.5v-296q0 -190 111.5 -313t284.5 -123q121 0 198.5 32.5t110.5 73.5v325h-312v151h505v-523q-51 -78 -177 -144 t-325 -66q-256 0 -423 164t-167 423zM511 -484l60 241v128h155v-137l-120 -232h-95z" />
<glyph unicode="&#x123;" d="M98 490v21q0 255 111.5 412t308.5 157q101 0 177.5 -40.5t127.5 -117.5l24 138h154v-1066q0 -204 -119 -313t-342 -109q-76 0 -165 21t-156 57l49 150q51 -29 124.5 -47.5t145.5 -18.5q141 0 205.5 64.5t64.5 195.5v120q-52 -67 -124.5 -101t-167.5 -34 q-195 0 -306.5 141.5t-111.5 369.5zM291 490q0 -160 67.5 -257t205.5 -97q88 0 146.5 40t97.5 112v488q-38 68 -97.5 107.5t-144.5 39.5q-138 0 -206.5 -115.5t-68.5 -296.5v-21zM450 1228v145l118 242h95l-20 -252v-135h-193z" />
<glyph unicode="&#x124;" horiz-adv-x="1431" d="M176 0v1427h193v-645h693v645h193v-1427h-193v630h-693v-630h-193zM407 1569v25l241 233h117l243 -234v-24h-157l-145 145l-143 -145h-156z" />
<glyph unicode="&#x125;" d="M140 0v1529h193v-611q55 77 135 119.5t177 42.5q169 0 264 -102t95 -314v-664h-194v666q0 132 -56 194.5t-168 62.5q-80 0 -145.5 -37.5t-107.5 -102.5v-783h-193zM199 1568v25l241 233h117l243 -234v-24h-157l-145 145l-143 -145h-156z" />
<glyph unicode="&#x126;" horiz-adv-x="1410" d="M30 1004v142h144v281h194v-281h692v281h193v-281h142v-142h-142v-1004h-193v630h-692v-630h-194v1004h-144zM368 782h692v222h-692v-222z" />
<glyph unicode="&#x127;" horiz-adv-x="1170" d="M1 1206v152h169v171h193v-171h266v-152h-266v-288q54 77 134 119.5t177 42.5q170 0 264.5 -102t94.5 -314v-664h-193v666q0 132 -56.5 194.5t-168.5 62.5q-80 0 -145 -37.5t-107 -102.5v-783h-193v1206h-169z" />
<glyph unicode="&#x128;" horiz-adv-x="567" d="M-55 1596q0 91 58 158t147 67q55 0 137.5 -46t133.5 -46q40 0 69.5 31.5t29.5 78.5l105 -32q0 -92 -58 -155.5t-146 -63.5q-70 0 -145.5 45.5t-125.5 45.5q-42 0 -70.5 -32t-28.5 -77zM186 0v1427h194v-1427h-194z" />
<glyph unicode="&#x129;" horiz-adv-x="504" d="M-91 1260q0 91 58 158t147 67q55 0 137.5 -46t133.5 -46q40 0 69.5 31.5t29.5 78.5l105 -32q0 -92 -58 -155.5t-146 -63.5q-70 0 -145.5 45.5t-125.5 45.5q-42 0 -70.5 -32t-28.5 -77zM150 0v1060h193v-1060h-193z" />
<glyph unicode="&#x12a;" horiz-adv-x="567" d="M-62 1607v143h706v-143h-706zM186 0v1427h194v-1427h-194z" />
<glyph unicode="&#x12b;" horiz-adv-x="504" d="M-99 1273v143h706v-143h-706zM150 0v1060h193v-1060h-193z" />
<glyph unicode="&#x12c;" horiz-adv-x="567" d="M-3 1827l2 6h148q0 -65 33.5 -105t105.5 -40q71 0 105.5 40.5t34.5 104.5h148l2 -6q3 -114 -76 -185.5t-214 -71.5t-214.5 71.5t-74.5 185.5zM186 0v1427h194v-1427h-194z" />
<glyph unicode="&#x12d;" horiz-adv-x="504" d="M-40 1491l2 6h148q0 -65 33.5 -105t105.5 -40q71 0 105.5 40.5t34.5 104.5h148l2 -6q3 -114 -76 -185.5t-214 -71.5t-214.5 71.5t-74.5 185.5zM150 0v1060h193v-1060h-193z" />
<glyph unicode="&#x12e;" horiz-adv-x="567" d="M45 -219q0 79 59 149.5t184 125.5l70 -56q-68 -51 -107 -97.5t-39 -99.5q0 -41 22 -64.5t72 -23.5q27 0 49.5 7.5t47.5 17.5l33 -120q-36 -19 -78.5 -31t-101.5 -12q-93 0 -152 53.5t-59 150.5zM186 0v1427h194v-1427h-194z" />
<glyph unicode="&#x12f;" horiz-adv-x="505" d="M14 -219q0 79 59 149.5t184 125.5l70 -56q-68 -51 -107 -97.5t-39 -99.5q0 -41 22 -64.5t72 -23.5q27 0 49.5 7.5t47.5 17.5l33 -120q-36 -19 -78.5 -31t-101.5 -12q-93 0 -152 53.5t-59 150.5zM156 0v1060h193v-1060h-193zM156 1332v197h193v-197h-193z" />
<glyph unicode="&#x130;" horiz-adv-x="567" d="M177 1572v197h213v-197h-213zM186 0v1427h194v-1427h-194z" />
<glyph unicode="&#x131;" horiz-adv-x="504" d="M150 0v1060h193v-1060h-193z" />
<glyph unicode="&#x132;" horiz-adv-x="1674" d="M186 0v1427h194v-1427h-194zM632 387l2 6h185q0 -132 67 -197.5t190 -65.5q106 0 174 72t68 193v1032h193v-1032q0 -191 -121 -303.5t-314 -112.5q-206 0 -327.5 104.5t-116.5 303.5z" />
<glyph unicode="&#x133;" horiz-adv-x="1025" d="M156 0v1060h193v-1060h-193zM156 1332v197h193v-197h-193zM441 -411l14 152q14 -5 39.5 -8t41.5 -3q64 0 102 43t38 140v1147h193v-1147q0 -164 -84.5 -252.5t-234.5 -88.5q-30 0 -55 4.5t-54 12.5zM670 1336v193h193v-193h-193z" />
<glyph unicode="&#x134;" horiz-adv-x="1107" d="M65 387l2 6h185q0 -132 67 -197.5t190 -65.5q106 0 174 72t68 193v1032h193v-1032q0 -191 -121 -303.5t-314 -112.5q-206 0 -327.5 104.5t-116.5 303.5zM539 1557v25l241 233h117l243 -234v-24h-157l-145 145l-143 -145h-156z" />
<glyph unicode="&#x135;" horiz-adv-x="512" d="M-67 -411l14 147q14 -5 45.5 -8.5t49.5 -3.5q58 0 92 50.5t34 138.5v1147h193v-1147q0 -164 -84.5 -252.5t-234.5 -88.5q-30 0 -55 4.5t-54 12.5zM-33 1215v25l241 233h117l243 -234v-24h-157l-145 145l-143 -145h-156z" />
<glyph unicode="&#x136;" horiz-adv-x="1290" d="M176 0v1427h193v-631h149l511 631h214l3 -5l-554 -685l594 -732l-3 -5h-230l-517 644h-167v-644h-193zM477 -467l60 241v128h155v-137l-120 -232h-95z" />
<glyph unicode="&#x137;" horiz-adv-x="1029" d="M141 0v1529h193v-886h124l290 417h231l-363 -482l415 -578h-227l-344 489h-126v-489h-193zM380 -465l60 241v128h155v-137l-120 -232h-95z" />
<glyph unicode="&#x138;" horiz-adv-x="1121" d="M150 0v1060h193v-448h82l381 448h226l2 -5l-441 -503l473 -547l-2 -5h-236l-386 450h-99v-450h-193z" />
<glyph unicode="&#x139;" horiz-adv-x="1083" d="M176 0v1427h193v-1276h676v-151h-869zM182 1525l182 260h225l2 -5l-265 -255h-144z" />
<glyph unicode="&#x13a;" horiz-adv-x="505" d="M156 0v1529h193v-1529h-193zM164 1562l182 260h225l2 -5l-265 -255h-144z" />
<glyph unicode="&#x13b;" horiz-adv-x="1083" d="M176 0v1427h193v-1276h676v-151h-869zM470 -465l60 241v128h155v-137l-120 -232h-95z" />
<glyph unicode="&#x13c;" horiz-adv-x="505" d="M108 -465l60 241v128h155v-137l-120 -232h-95zM156 0v1529h193v-1529h-193z" />
<glyph unicode="&#x13d;" horiz-adv-x="1083" d="M176 0v1427h193v-1276h676v-151h-869zM571 1059l60 241v128h155v-137l-120 -232h-95z" />
<glyph unicode="&#x13e;" horiz-adv-x="652" d="M156 0v1529h193v-1529h-193zM444 1160l60 241v128h155v-137l-120 -232h-95z" />
<glyph unicode="&#x13f;" horiz-adv-x="1083" d="M176 0v1427h193v-1276h676v-151h-869zM601 674v197h213v-197h-213z" />
<glyph unicode="&#x140;" horiz-adv-x="721" d="M156 0v1529h193v-1529h-193zM475 658v197h213v-197h-213z" />
<glyph unicode="&#x141;" horiz-adv-x="1055" d="M39 564v163l121 38v662h193v-601l263 84v-162l-263 -85v-512h675v-151h-868v603z" />
<glyph unicode="&#x142;" horiz-adv-x="546" d="M36 566v162l139 53v748h193v-674l147 56v-161l-147 -57v-693h-193v619z" />
<glyph unicode="&#x143;" horiz-adv-x="1431" d="M176 0v1427h193l687 -1102l6 2v1100h193v-1427h-193l-687 1103l-6 -1v-1102h-193zM625 1525l182 260h225l2 -5l-265 -255h-144z" />
<glyph unicode="&#x144;" d="M140 0v1060h173l13 -157q53 84 133 130.5t182 46.5q171 0 265.5 -100.5t94.5 -310.5v-669h-193v665q0 141 -55.5 199.5t-169.5 58.5q-83 0 -147.5 -40t-102.5 -110v-773h-193zM478 1210l182 260h225l2 -5l-265 -255h-144z" />
<glyph unicode="&#x145;" horiz-adv-x="1431" d="M176 0v1427h193l687 -1102l6 2v1100h193v-1427h-193l-687 1103l-6 -1v-1102h-193zM568 -465l60 241v128h155v-137l-120 -232h-95z" />
<glyph unicode="&#x146;" d="M140 0v1060h173l13 -157q53 84 133 130.5t182 46.5q171 0 265.5 -100.5t94.5 -310.5v-669h-193v665q0 141 -55.5 199.5t-169.5 58.5q-83 0 -147.5 -40t-102.5 -110v-773h-193zM421 -465l60 241v128h155v-137l-120 -232h-95z" />
<glyph unicode="&#x147;" horiz-adv-x="1431" d="M176 0v1427h193l687 -1102l6 2v1100h193v-1427h-193l-687 1103l-6 -1v-1102h-193zM406 1808v20h163l144 -145l144 145h167v-18l-252 -240h-117z" />
<glyph unicode="&#x148;" d="M140 0v1060h173l13 -157q53 84 133 130.5t182 46.5q171 0 265.5 -100.5t94.5 -310.5v-669h-193v665q0 141 -55.5 199.5t-169.5 58.5q-83 0 -147.5 -40t-102.5 -110v-773h-193zM259 1492v20h163l144 -145l144 145h167v-18l-252 -240h-117z" />
<glyph unicode="&#x149;" d="M-31 1160l60 241v128h155v-137l-120 -232h-95zM140 0v1060h173l13 -157q53 84 133 130.5t182 46.5q171 0 265.5 -100.5t94.5 -310.5v-669h-193v665q0 141 -55.5 199.5t-169.5 58.5q-83 0 -147.5 -40t-102.5 -110v-773h-193z" />
<glyph unicode="&#x14a;" horiz-adv-x="1387" d="M158 0v1427h193l687 -1090l6 2v1088h193v-1514q0 -164 -84.5 -252.5t-235.5 -88.5q-30 0 -55.5 4.5t-53.5 12.5l13 147q13 -5 46.5 -8.5t49.5 -3.5q59 0 93 50.5t34 138.5v87l-687 1090l-6 -2v-1088h-193z" />
<glyph unicode="&#x14b;" d="M140 0v1060h173l12 -147q53 80 131.5 123.5t177.5 43.5q171 0 265 -100.5t94 -310.5v-756q0 -164 -84.5 -252.5t-235.5 -88.5q-30 0 -56 4.5t-53 12.5l13 157q13 -5 46 -8.5t50 -3.5q60 0 93.5 46.5t33.5 132.5v752q0 141 -56 199.5t-170 58.5q-83 0 -143.5 -32.5 t-97.5 -89.5v-801h-193z" />
<glyph unicode="&#x14c;" horiz-adv-x="1368" d="M111 586v254q0 261 156 434t406 173q259 0 421 -172.5t162 -434.5v-254q0 -262 -162 -434.5t-421 -172.5q-250 0 -406 172.5t-156 434.5zM304 586q0 -198 100.5 -323.5t268.5 -125.5q180 0 285 125t105 324v256q0 196 -105.5 321.5t-284.5 125.5q-168 0 -268.5 -125.5 t-100.5 -321.5v-256zM337 1628v143h706v-143h-706z" />
<glyph unicode="&#x14d;" d="M95 518v22q0 235 127.5 387.5t345.5 152.5q221 0 349 -152t128 -388v-22q0 -237 -127.5 -388t-347.5 -151q-219 0 -347 151.5t-128 387.5zM223 1292v143h706v-143h-706zM288 518q0 -168 71 -278t211 -110q139 0 210.5 110t71.5 278v22q0 167 -72 277.5t-212 110.5 q-138 0 -209 -110.5t-71 -277.5v-22z" />
<glyph unicode="&#x14e;" horiz-adv-x="1368" d="M111 586v254q0 261 156 434t406 173q259 0 421 -172.5t162 -434.5v-254q0 -262 -162 -434.5t-421 -172.5q-250 0 -406 172.5t-156 434.5zM304 586q0 -198 100.5 -323.5t268.5 -125.5q180 0 285 125t105 324v256q0 196 -105.5 321.5t-284.5 125.5q-168 0 -268.5 -125.5 t-100.5 -321.5v-256zM396 1847l2 6h148q0 -65 33.5 -105t105.5 -40q71 0 105.5 40.5t34.5 104.5h148l2 -6q3 -114 -76 -185.5t-214 -71.5t-214.5 71.5t-74.5 185.5z" />
<glyph unicode="&#x14f;" d="M95 518v22q0 235 127.5 387.5t345.5 152.5q221 0 349 -152t128 -388v-22q0 -237 -127.5 -388t-347.5 -151q-219 0 -347 151.5t-128 387.5zM282 1511l2 6h148q0 -65 33.5 -105t105.5 -40q71 0 105.5 40.5t34.5 104.5h148l2 -6q3 -114 -76 -185.5t-214 -71.5t-214.5 71.5 t-74.5 185.5zM288 518q0 -168 71 -278t211 -110q139 0 210.5 110t71.5 278v22q0 167 -72 277.5t-212 110.5q-138 0 -209 -110.5t-71 -277.5v-22z" />
<glyph unicode="&#x150;" horiz-adv-x="1368" d="M111 586v254q0 261 156 434t406 173q259 0 421 -172.5t162 -434.5v-254q0 -262 -162 -434.5t-421 -172.5q-250 0 -406 172.5t-156 434.5zM304 586q0 -198 100.5 -323.5t268.5 -125.5q180 0 285 125t105 324v256q0 196 -105.5 321.5t-284.5 125.5q-168 0 -268.5 -125.5 t-100.5 -321.5v-256zM453 1590l180 261h207l2 -5l-235 -256h-154zM717 1595l236 256h224l3 -6l-294 -255h-167z" />
<glyph unicode="&#x151;" d="M95 518v22q0 235 127.5 387.5t345.5 152.5q221 0 349 -152t128 -388v-22q0 -237 -127.5 -388t-347.5 -151q-219 0 -347 151.5t-128 387.5zM288 518q0 -168 71 -278t211 -110q139 0 210.5 110t71.5 278v22q0 167 -72 277.5t-212 110.5q-138 0 -209 -110.5t-71 -277.5v-22z M339 1253l180 261h207l2 -5l-235 -256h-154zM603 1258l236 256h224l3 -6l-294 -255h-167z" />
<glyph unicode="&#x152;" horiz-adv-x="1920" d="M102 564v298q0 260 151.5 422.5t395.5 162.5q67 0 137.5 -5.5t147.5 -14.5h889v-152h-743v-462h654v-151h-654v-511h754v-151h-900q-90 -10 -154 -15.5t-129 -5.5q-244 0 -396.5 163t-152.5 422zM295 564q0 -209 95 -321t261 -112q59 0 119 4.5t117 13.5v1128 q-60 8 -119.5 13.5t-118.5 5.5q-166 0 -260 -111.5t-94 -320.5v-300z" />
<glyph unicode="&#x153;" horiz-adv-x="1816" d="M95 518v22q0 235 127.5 387.5t345.5 152.5q128 0 226 -53.5t161 -149.5q63 95 157.5 149t200.5 54q215 0 324.5 -129.5t109.5 -344.5v-121h-688l-3 -5q3 -153 77.5 -251.5t209.5 -98.5q98 0 172 28t127 77l76 -125q-57 -56 -150 -93.5t-225 -37.5q-129 0 -228.5 51.5 t-162.5 145.5q-63 -94 -160 -145.5t-222 -51.5q-219 0 -347 151.5t-128 387.5zM288 518q0 -168 71 -278t211 -110q139 0 210.5 110t71.5 278v22q0 167 -72 277.5t-212 110.5q-138 0 -209 -110.5t-71 -277.5v-22zM1063 641l2 -5h489v26q0 113 -60.5 189.5t-180.5 76.5 q-97 0 -165.5 -82t-84.5 -205z" />
<glyph unicode="&#x154;" horiz-adv-x="1329" d="M176 0v1426h517q234 0 357.5 -104t123.5 -302q0 -110 -57.5 -191t-166.5 -129q117 -38 168.5 -124t51.5 -212v-135q0 -66 15 -119t51 -86v-24h-199q-38 33 -49 98t-11 133v131q0 115 -67.5 185.5t-181.5 70.5h-359v-618h-193zM369 770h304q164 0 236 62.5t72 189.5 q0 121 -70 187t-218 66h-324v-505zM519 1525l182 260h225l2 -5l-265 -255h-144z" />
<glyph unicode="&#x155;" horiz-adv-x="687" d="M140 0v1060h173l18 -154q45 82 111.5 128t152.5 46q21 0 41 -3.5t32 -7.5l-26 -179l-99 6q-77 0 -129 -36.5t-81 -101.5v-758h-193zM316 1210l182 260h225l2 -5l-265 -255h-144z" />
<glyph unicode="&#x156;" horiz-adv-x="1329" d="M176 0v1426h517q234 0 357.5 -104t123.5 -302q0 -110 -57.5 -191t-166.5 -129q117 -38 168.5 -124t51.5 -212v-135q0 -66 15 -119t51 -86v-24h-199q-38 33 -49 98t-11 133v131q0 115 -67.5 185.5t-181.5 70.5h-359v-618h-193zM369 770h304q164 0 236 62.5t72 189.5 q0 121 -70 187t-218 66h-324v-505zM463 -465l60 241v128h155v-137l-120 -232h-95z" />
<glyph unicode="&#x157;" horiz-adv-x="687" d="M105 -465l60 241v128h155v-137l-120 -232h-95zM140 0v1060h173l18 -154q45 82 111.5 128t152.5 46q21 0 41 -3.5t32 -7.5l-26 -179l-99 6q-77 0 -129 -36.5t-81 -101.5v-758h-193z" />
<glyph unicode="&#x158;" horiz-adv-x="1329" d="M176 0v1426h517q234 0 357.5 -104t123.5 -302q0 -110 -57.5 -191t-166.5 -129q117 -38 168.5 -124t51.5 -212v-135q0 -66 15 -119t51 -86v-24h-199q-38 33 -49 98t-11 133v131q0 115 -67.5 185.5t-181.5 70.5h-359v-618h-193zM300 1808v20h163l144 -145l144 145h167v-18 l-252 -240h-117zM369 770h304q164 0 236 62.5t72 189.5q0 121 -70 187t-218 66h-324v-505z" />
<glyph unicode="&#x159;" horiz-adv-x="687" d="M99 1492v20h163l144 -145l144 145h167v-18l-252 -240h-117zM140 0v1060h173l18 -154q45 82 111.5 128t152.5 46q21 0 41 -3.5t32 -7.5l-26 -179l-99 6q-77 0 -129 -36.5t-81 -101.5v-758h-193z" />
<glyph unicode="&#x15a;" horiz-adv-x="1251" d="M100 405l2 6h184q0 -138 101 -209.5t250 -71.5q146 0 231.5 62t85.5 168q0 98 -73.5 164t-261.5 111q-226 54 -353 159t-127 263q0 167 137 278.5t354 111.5q234 0 373 -128t134 -298l-2 -6h-184q0 126 -83 203.5t-238 77.5q-144 0 -221 -65.5t-77 -170.5 q0 -93 83.5 -155t270.5 -109q225 -56 343 -165t118 -269q0 -173 -141.5 -278t-368.5 -105q-214 0 -378 116t-159 310zM512 1546l182 260h225l2 -5l-265 -255h-144z" />
<glyph unicode="&#x15b;" horiz-adv-x="1049" d="M107 322l2 6h184q5 -103 76.5 -150.5t167.5 -47.5q103 0 161.5 42t58.5 109q0 64 -48.5 105t-184.5 72q-193 42 -290.5 114t-97.5 196q0 130 110 221t286 91q185 0 294.5 -95t104.5 -231l-2 -6h-184q0 69 -58.5 124.5t-154.5 55.5q-103 0 -153 -45t-50 -109q0 -63 44 -99 t180 -64q201 -44 299 -118t98 -198q0 -141 -114.5 -228.5t-298.5 -87.5q-203 0 -319.5 103t-110.5 240zM436 1210l182 260h225l2 -5l-265 -255h-144z" />
<glyph unicode="&#x15c;" horiz-adv-x="1251" d="M100 405l2 6h184q0 -138 101 -209.5t250 -71.5q146 0 231.5 62t85.5 168q0 98 -73.5 164t-261.5 111q-226 54 -353 159t-127 263q0 167 137 278.5t354 111.5q234 0 373 -128t134 -298l-2 -6h-184q0 126 -83 203.5t-238 77.5q-144 0 -221 -65.5t-77 -170.5 q0 -93 83.5 -155t270.5 -109q225 -56 343 -165t118 -269q0 -173 -141.5 -278t-368.5 -105q-214 0 -378 116t-159 310zM301 1590v25l241 233h117l243 -234v-24h-157l-145 145l-143 -145h-156z" />
<glyph unicode="&#x15d;" horiz-adv-x="1049" d="M107 322l2 6h184q5 -103 76.5 -150.5t167.5 -47.5q103 0 161.5 42t58.5 109q0 64 -48.5 105t-184.5 72q-193 42 -290.5 114t-97.5 196q0 130 110 221t286 91q185 0 294.5 -95t104.5 -231l-2 -6h-184q0 69 -58.5 124.5t-154.5 55.5q-103 0 -153 -45t-50 -109q0 -63 44 -99 t180 -64q201 -44 299 -118t98 -198q0 -141 -114.5 -228.5t-298.5 -87.5q-203 0 -319.5 103t-110.5 240zM225 1253v25l241 233h117l243 -234v-24h-157l-145 145l-143 -145h-156z" />
<glyph unicode="&#x15e;" horiz-adv-x="1251" d="M100 405l2 6h184q0 -138 101 -209.5t250 -71.5q146 0 231.5 62t85.5 168q0 98 -73.5 164t-261.5 111q-226 54 -353 159t-127 263q0 167 137 278.5t354 111.5q234 0 373 -128t134 -298l-2 -6h-184q0 126 -83 203.5t-238 77.5q-144 0 -221 -65.5t-77 -170.5 q0 -93 83.5 -155t270.5 -109q225 -56 343 -165t118 -269q0 -173 -141.5 -278t-368.5 -105q-214 0 -378 116t-159 310zM506 -327q70 0 113 24t43 72q0 47 -35 65.5t-120 25.5l31 132h137l-12 -51q64 -11 106 -51t42 -118q0 -95 -77 -150.5t-222 -55.5z" />
<glyph unicode="&#x15f;" horiz-adv-x="1049" d="M107 322l2 6h184q5 -103 76.5 -150.5t167.5 -47.5q103 0 161.5 42t58.5 109q0 64 -48.5 105t-184.5 72q-193 42 -290.5 114t-97.5 196q0 130 110 221t286 91q185 0 294.5 -95t104.5 -231l-2 -6h-184q0 69 -58.5 124.5t-154.5 55.5q-103 0 -153 -45t-50 -109q0 -63 44 -99 t180 -64q201 -44 299 -118t98 -198q0 -141 -114.5 -228.5t-298.5 -87.5q-203 0 -319.5 103t-110.5 240zM430 -326q70 0 113 24t43 72q0 47 -35 65.5t-120 25.5l31 132h137l-12 -51q64 -11 106 -51t42 -118q0 -95 -77 -150.5t-222 -55.5z" />
<glyph unicode="&#x160;" horiz-adv-x="1251" d="M100 405l2 6h184q0 -138 101 -209.5t250 -71.5q146 0 231.5 62t85.5 168q0 98 -73.5 164t-261.5 111q-226 54 -353 159t-127 263q0 167 137 278.5t354 111.5q234 0 373 -128t134 -298l-2 -6h-184q0 126 -83 203.5t-238 77.5q-144 0 -221 -65.5t-77 -170.5 q0 -93 83.5 -155t270.5 -109q225 -56 343 -165t118 -269q0 -173 -141.5 -278t-368.5 -105q-214 0 -378 116t-159 310zM293 1829v20h163l144 -145l144 145h167v-18l-252 -240h-117z" />
<glyph unicode="&#x161;" horiz-adv-x="1049" d="M107 322l2 6h184q5 -103 76.5 -150.5t167.5 -47.5q103 0 161.5 42t58.5 109q0 64 -48.5 105t-184.5 72q-193 42 -290.5 114t-97.5 196q0 130 110 221t286 91q185 0 294.5 -95t104.5 -231l-2 -6h-184q0 69 -58.5 124.5t-154.5 55.5q-103 0 -153 -45t-50 -109q0 -63 44 -99 t180 -64q201 -44 299 -118t98 -198q0 -141 -114.5 -228.5t-298.5 -87.5q-203 0 -319.5 103t-110.5 240zM216 1492v20h163l144 -145l144 145h167v-18l-252 -240h-117z" />
<glyph unicode="&#x162;" horiz-adv-x="1176" d="M33 1275v152h1110v-152h-459v-1275h-193v1275h-458zM446 -465l60 241v128h155v-137l-120 -232h-95z" />
<glyph unicode="&#x163;" horiz-adv-x="693" d="M33 917v143h169v256h193v-256h201v-143h-201v-644q0 -74 31 -104.5t82 -30.5q16 0 36 4t36 10l26 -132q-22 -18 -63.5 -29.5t-83.5 -11.5q-118 0 -187.5 71.5t-69.5 222.5v644h-169zM302 -475l60 241v128h155v-137l-120 -232h-95z" />
<glyph unicode="&#x164;" horiz-adv-x="1176" d="M33 1275v152h1110v-152h-459v-1275h-193v1275h-458zM283 1807v20h163l144 -145l144 145h167v-18l-252 -240h-117z" />
<glyph unicode="&#x165;" horiz-adv-x="733" d="M33 917v143h169v256h193v-256h201v-143h-201v-644q0 -74 31 -104.5t82 -30.5q16 0 36 4t36 10l26 -132q-22 -18 -63.5 -29.5t-83.5 -11.5q-118 0 -187.5 71.5t-69.5 222.5v644h-169zM534 1186l60 241v128h155v-137l-120 -232h-95z" />
<glyph unicode="&#x166;" horiz-adv-x="1176" d="M33 1275v152h1110v-152h-459v-319h216v-152h-216v-804h-193v804h-220v152h220v319h-458z" />
<glyph unicode="&#x167;" horiz-adv-x="693" d="M-8 588v152h210v177h-169v143h169v256h193v-256h201v-143h-201v-177h225v-152h-225v-315q0 -74 31 -104.5t82 -30.5q16 0 36 4t36 10l26 -132q-22 -18 -63.5 -29.5t-83.5 -11.5q-118 0 -187.5 71.5t-69.5 222.5v315h-210z" />
<glyph unicode="&#x168;" horiz-adv-x="1358" d="M144 460v967h193v-967q0 -162 92 -246t243 -84q159 0 256.5 84t97.5 246v967h193v-967q0 -234 -151.5 -357.5t-395.5 -123.5q-235 0 -381.5 124t-146.5 357zM343 1596q0 91 58 158t147 67q55 0 137.5 -46t133.5 -46q40 0 69.5 31.5t29.5 78.5l105 -32q0 -92 -58 -155.5 t-146 -63.5q-70 0 -145.5 45.5t-125.5 45.5q-42 0 -70.5 -32t-28.5 -77z" />
<glyph unicode="&#x169;" d="M136 435v625h193v-627q0 -169 50 -233t156 -64q103 0 170 42t102 118v764h193v-1060h-174l-13 157q-50 -85 -128 -131.5t-181 -46.5q-174 0 -271 111t-97 345zM228 1260q0 91 58 158t147 67q55 0 137.5 -46t133.5 -46q40 0 69.5 31.5t29.5 78.5l105 -32q0 -92 -58 -155.5 t-146 -63.5q-70 0 -145.5 45.5t-125.5 45.5q-42 0 -70.5 -32t-28.5 -77z" />
<glyph unicode="&#x16a;" horiz-adv-x="1358" d="M144 460v967h193v-967q0 -162 92 -246t243 -84q159 0 256.5 84t97.5 246v967h193v-967q0 -234 -151.5 -357.5t-395.5 -123.5q-235 0 -381.5 124t-146.5 357zM336 1607v143h706v-143h-706z" />
<glyph unicode="&#x16b;" d="M136 435v625h193v-627q0 -169 50 -233t156 -64q103 0 170 42t102 118v764h193v-1060h-174l-13 157q-50 -85 -128 -131.5t-181 -46.5q-174 0 -271 111t-97 345zM221 1273v143h706v-143h-706z" />
<glyph unicode="&#x16c;" horiz-adv-x="1358" d="M144 460v967h193v-967q0 -162 92 -246t243 -84q159 0 256.5 84t97.5 246v967h193v-967q0 -234 -151.5 -357.5t-395.5 -123.5q-235 0 -381.5 124t-146.5 357zM395 1827l2 6h148q0 -65 33.5 -105t105.5 -40q71 0 105.5 40.5t34.5 104.5h148l2 -6q3 -114 -76 -185.5 t-214 -71.5t-214.5 71.5t-74.5 185.5z" />
<glyph unicode="&#x16d;" d="M136 435v625h193v-627q0 -169 50 -233t156 -64q103 0 170 42t102 118v764h193v-1060h-174l-13 157q-50 -85 -128 -131.5t-181 -46.5q-174 0 -271 111t-97 345zM280 1491l2 6h148q0 -65 33.5 -105t105.5 -40q71 0 105.5 40.5t34.5 104.5h148l2 -6q3 -114 -76 -185.5 t-214 -71.5t-214.5 71.5t-74.5 185.5z" />
<glyph unicode="&#x16e;" horiz-adv-x="1358" d="M144 460v967h193v-967q0 -162 92 -246t243 -84q159 0 256.5 84t97.5 246v967h193v-967q0 -234 -151.5 -357.5t-395.5 -123.5q-235 0 -381.5 124t-146.5 357zM478 1699q0 82 59.5 138t144.5 56q83 0 142 -55.5t59 -138.5q0 -84 -58.5 -137t-142.5 -53q-85 0 -144.5 53 t-59.5 137zM579 1699q0 -42 30.5 -72t72.5 -30q41 0 70.5 29t29.5 73t-29.5 74.5t-70.5 30.5q-42 0 -72.5 -30.5t-30.5 -74.5z" />
<glyph unicode="&#x16f;" d="M136 435v625h193v-627q0 -169 50 -233t156 -64q103 0 170 42t102 118v764h193v-1060h-174l-13 157q-50 -85 -128 -131.5t-181 -46.5q-174 0 -271 111t-97 345zM363 1363q0 82 59.5 138t144.5 56q83 0 142 -55.5t59 -138.5q0 -84 -58.5 -137t-142.5 -53q-85 0 -144.5 53 t-59.5 137zM464 1363q0 -42 30.5 -72t72.5 -30q41 0 70.5 29t29.5 73t-29.5 74.5t-70.5 30.5q-42 0 -72.5 -30.5t-30.5 -74.5z" />
<glyph unicode="&#x170;" horiz-adv-x="1358" d="M144 460v967h193v-967q0 -162 92 -246t243 -84q159 0 256.5 84t97.5 246v967h193v-967q0 -234 -151.5 -357.5t-395.5 -123.5q-235 0 -381.5 124t-146.5 357zM452 1569l180 261h207l2 -5l-235 -256h-154zM716 1574l236 256h224l3 -6l-294 -255h-167z" />
<glyph unicode="&#x171;" d="M136 435v625h193v-627q0 -169 50 -233t156 -64q103 0 170 42t102 118v764h193v-1060h-174l-13 157q-50 -85 -128 -131.5t-181 -46.5q-174 0 -271 111t-97 345zM337 1233l180 261h207l2 -5l-235 -256h-154zM601 1238l236 256h224l3 -6l-294 -255h-167z" />
<glyph unicode="&#x172;" horiz-adv-x="1358" d="M144 460v967h193v-967q0 -162 92 -246t243 -84q159 0 256.5 84t97.5 246v967h193v-967q0 -234 -151.5 -357.5t-395.5 -123.5q-235 0 -381.5 124t-146.5 357zM483 -219q0 79 59 149.5t184 125.5l70 -56q-68 -51 -107 -97.5t-39 -99.5q0 -41 22 -64.5t72 -23.5 q27 0 49.5 7.5t47.5 17.5l33 -120q-36 -19 -78.5 -31t-101.5 -12q-93 0 -152 53.5t-59 150.5z" />
<glyph unicode="&#x173;" d="M136 435v625h193v-627q0 -169 50 -233t156 -64q103 0 170 42t102 118v764h193v-1060h-174l-13 157q-50 -85 -128 -131.5t-181 -46.5q-174 0 -271 111t-97 345zM662 -219q0 79 59 149.5t184 125.5l70 -56q-68 -51 -107 -97.5t-39 -99.5q0 -41 22 -64.5t72 -23.5 q27 0 49.5 7.5t47.5 17.5l33 -120q-36 -19 -78.5 -31t-101.5 -12q-93 0 -152 53.5t-59 150.5z" />
<glyph unicode="&#x174;" horiz-adv-x="1772" d="M53 1427h192l218 -933l26 -178l6 -1l38 179l262 933h170l264 -933l39 -183h6l28 183l213 933h193l-344 -1427h-172l-282 990l-25 128h-6l-24 -128l-287 -990h-172zM581 1569v25l241 233h117l243 -234v-24h-157l-145 145l-143 -145h-156z" />
<glyph unicode="&#x175;" horiz-adv-x="1519" d="M44 1060h192l176 -674l22 -128h6l27 128l212 674h155l213 -674l30 -143h6l28 143l167 674h192l-308 -1060h-156l-204 646l-44 180l-6 -1l-42 -179l-202 -646h-156zM458 1233v25l241 233h117l243 -234v-24h-157l-145 145l-143 -145h-156z" />
<glyph unicode="&#x176;" horiz-adv-x="1225" d="M20 1427h220l372 -725l373 725h220l-500 -925v-502h-192v514zM313 1568v25l241 233h117l243 -234v-24h-157l-145 145l-143 -145h-156z" />
<glyph unicode="&#x177;" horiz-adv-x="1009" d="M25 1060h216l224 -667l34 -133h6l260 800h215l-446 -1223q-40 -107 -115 -186t-202 -79q-24 0 -60 5.5t-56 9.5l20 152q-6 1 34.5 -2t51.5 -3q62 0 101 55t65 122l46 111zM204 1233v25l241 233h117l243 -234v-24h-157l-145 145l-143 -145h-156z" />
<glyph unicode="&#x178;" horiz-adv-x="1225" d="M20 1427h220l372 -725l373 725h220l-500 -925v-502h-192v514zM276 1572v196h214v-196h-214zM736 1572v196h215v-196h-215z" />
<glyph unicode="&#x179;" horiz-adv-x="1200" d="M95 0v143l763 1132h-752v152h972v-138l-765 -1138h797v-151h-1015zM508 1525l182 260h225l2 -5l-265 -255h-144z" />
<glyph unicode="&#x17a;" horiz-adv-x="1009" d="M92 0v135l573 772h-566v153h803v-131l-580 -778h613v-151h-843zM425 1189l182 260h225l2 -5l-265 -255h-144z" />
<glyph unicode="&#x17b;" horiz-adv-x="1200" d="M95 0v143l763 1132h-752v152h972v-138l-765 -1138h797v-151h-1015zM490 1572v197h213v-197h-213z" />
<glyph unicode="&#x17c;" horiz-adv-x="1009" d="M92 0v135l573 772h-566v153h803v-131l-580 -778h613v-151h-843zM407 1236v197h213v-197h-213z" />
<glyph unicode="&#x17d;" horiz-adv-x="1200" d="M95 0v143l763 1132h-752v152h972v-138l-765 -1138h797v-151h-1015zM289 1808v20h163l144 -145l144 145h167v-18l-252 -240h-117z" />
<glyph unicode="&#x17e;" horiz-adv-x="1009" d="M92 0v135l573 772h-566v153h803v-131l-580 -778h613v-151h-843zM206 1472v20h163l144 -145l144 145h167v-18l-252 -240h-117z" />
<glyph unicode="&#x17f;" horiz-adv-x="505" d="M156 0v1195q0 169 89 261.5t248 92.5q32 0 66 -5t75 -15l-23 -142q-20 5 -41.5 7.5t-46.5 2.5q-85 0 -129.5 -53t-44.5 -149v-1195h-193z" />
<glyph unicode="&#x192;" horiz-adv-x="687" d="M-23 -411l14 147q12 -5 45 -8.5t50 -3.5q59 0 92.5 50.5t33.5 138.5v1004h-166v143h166v135q0 169 88.5 261.5t247.5 92.5q33 0 67 -5t75 -15l-24 -147q-17 4 -42 7t-52 3q-85 0 -126 -50.5t-41 -146.5v-135h192v-143h-192v-1004q0 -164 -84 -252.5t-235 -88.5 q-31 0 -56.5 4.5t-52.5 12.5z" />
<glyph unicode="&#x1a0;" horiz-adv-x="1374" d="M106 586v254q0 261 156 434t406 173q118 0 219 -39t178 -110q121 10 183.5 94t62.5 228h193q0 -188 -86 -307t-245 -155q37 -69 57.5 -150.5t20.5 -167.5v-254q0 -262 -162 -434.5t-421 -172.5q-250 0 -406 172.5t-156 434.5zM299 586q0 -198 100.5 -323.5t268.5 -125.5 q180 0 285 125t105 324v256q0 196 -105.5 321.5t-284.5 125.5q-168 0 -268.5 -125.5t-100.5 -321.5v-256z" />
<glyph unicode="&#x1a1;" horiz-adv-x="1151" d="M95 518v22q0 235 127.5 387.5t345.5 152.5q100 0 183.5 -34.5t146.5 -95.5q80 17 119 82t39 167h175q0 -141 -65 -233t-192 -123q34 -65 52.5 -142t18.5 -161v-22q0 -237 -127.5 -388t-347.5 -151q-219 0 -347 151.5t-128 387.5zM288 518q0 -168 71 -278t211 -110 q139 0 210.5 110t71.5 278v22q0 167 -72 277.5t-212 110.5q-138 0 -209 -110.5t-71 -277.5v-22z" />
<glyph unicode="&#x1af;" horiz-adv-x="1401" d="M144 460v967h193v-967q0 -162 92 -246t243 -84q159 0 256.5 84t97.5 246v967h193v-175l6 -2q84 27 129 107t45 202h187l3 -5q2 -189 -94.5 -308t-275.5 -152v-634q0 -234 -151.5 -357.5t-395.5 -123.5q-235 0 -381.5 124t-146.5 357z" />
<glyph unicode="&#x1b0;" horiz-adv-x="1179" d="M136 435v625h193v-627q0 -169 50 -233t156 -64q103 0 170 42t102 118v764h193v-111l5 -2q98 7 140 69.5t42 185.5h165l3 -5q3 -174 -83.5 -268t-271.5 -108v-821h-174l-13 157q-50 -85 -128 -131.5t-181 -46.5q-174 0 -271 111t-97 345z" />
<glyph unicode="&#x1f0;" horiz-adv-x="512" d="M-67 -411l14 147q14 -5 45.5 -8.5t49.5 -3.5q58 0 92 50.5t34 138.5v1147h193v-1147q0 -164 -84.5 -252.5t-234.5 -88.5q-30 0 -55 4.5t-54 12.5zM-41 1454v20h163l144 -145l144 145h167v-18l-252 -240h-117z" />
<glyph unicode="&#x1fa;" horiz-adv-x="1299" d="M20 0l551 1427h166l543 -1427h-197l-133 368h-598l-135 -368h-197zM412 529h480l-235 650h-6zM477 1650q0 71 50 117.5t121 46.5q69 0 118 -46.5t49 -117.5t-48.5 -116t-118.5 -45q-71 0 -121 45t-50 116zM563 1650q0 -34 25 -58t60 -24q34 0 58 23.5t24 58.5 q0 36 -24 61t-58 25q-35 0 -60 -25t-25 -61zM602 1862l141 181h195l2 -6l-211 -175h-127z" />
<glyph unicode="&#x1fb;" horiz-adv-x="1103" d="M104 298q0 152 123 237.5t334 85.5h209v105q0 93 -56.5 147.5t-160.5 54.5q-93 0 -151.5 -47.5t-58.5 -114.5h-184l-2 6q-6 116 109 212t298 96q180 0 289.5 -91.5t109.5 -264.5v-510q0 -57 6 -110t22 -104h-199q-10 48 -15.5 85t-6.5 74q-54 -77 -140.5 -128.5 t-186.5 -51.5q-166 0 -252.5 85t-86.5 234zM297 294q0 -71 44 -112t130 -41q105 0 189.5 54t109.5 123v173h-216q-117 0 -187 -59t-70 -138zM375 1335q0 71 50 117.5t121 46.5q69 0 118 -46.5t49 -117.5t-48.5 -116t-118.5 -45q-71 0 -121 45t-50 116zM461 1335 q0 -34 25 -58t60 -24q34 0 58 23.5t24 58.5q0 36 -24 61t-58 25q-35 0 -60 -25t-25 -61zM500 1547l141 181h195l2 -6l-211 -175h-127z" />
<glyph unicode="&#x1fc;" horiz-adv-x="1883" d="M-20 0l863 1427h947v-152h-677l20 -457h578v-152h-572l21 -515h691v-151h-877l-15 343h-545l-198 -343h-236zM514 518h439l-31 696l-5 2zM828 1525l182 260h225l2 -5l-265 -255h-144z" />
<glyph unicode="&#x1fd;" horiz-adv-x="1694" d="M57 298q0 155 112.5 239.5t328.5 84.5h224v84q0 103 -50.5 162.5t-146.5 59.5q-101 0 -160.5 -54t-59.5 -130l-184 17l-2 6q-5 136 107 224.5t299 88.5q112 0 197.5 -39.5t135.5 -115.5q62 74 148 114.5t185 40.5q209 0 322.5 -127.5t113.5 -350.5v-117h-695l-2 -5 q1 -156 78 -253t229 -97q101 0 166 27t141 77l66 -135q-52 -43 -144 -81.5t-229 -38.5q-134 0 -235.5 47.5t-166.5 136.5q-55 -78 -164 -131t-266 -53q-167 0 -257.5 85.5t-90.5 233.5zM250 294q0 -73 49 -118.5t144 -45.5q74 0 155.5 43t123.5 98v212h-222q-118 0 -184 -55 t-66 -134zM753 1211l182 260h225l2 -5l-265 -255h-144zM934 632l2 -5h498v31q0 119 -59 194.5t-184 75.5q-111 0 -178.5 -83t-78.5 -213z" />
<glyph unicode="&#x1fe;" horiz-adv-x="1368" d="M111 586v254q0 261 156 434t406 173q92 0 175 -25t154 -70l79 135h146l-129 -217q75 -82 116.5 -193t41.5 -237v-254q0 -262 -162 -434.5t-421 -172.5q-83 0 -157 20.5t-137 59.5l-89 -151h-146l136 229q-82 83 -125.5 198.5t-43.5 250.5zM304 586q0 -83 18.5 -154.5 t52.5 -122.5l6 -1l533 897q-49 41 -109.5 62.5t-131.5 21.5q-168 0 -268.5 -125.5t-100.5 -321.5v-256zM466 204q43 -33 94.5 -50t112.5 -17q180 0 285 125t105 324v256q0 73 -16 139t-45 115l-6 1zM595 1586l182 260h225l2 -5l-265 -255h-144z" />
<glyph unicode="&#x1ff;" d="M95 518v22q0 235 127.5 387.5t345.5 152.5q55 0 105.5 -11t95.5 -30l73 146h126l-102 -207q87 -72 133 -186t46 -252v-22q0 -237 -127.5 -388t-347.5 -151q-50 0 -95 8.5t-86 24.5l-71 -144h-126l98 200q-94 69 -144.5 186.5t-50.5 263.5zM288 518q0 -89 19.5 -163 t60.5 -121h5l326 661q-29 15 -61.5 24t-69.5 9q-138 0 -209 -110.5t-71 -277.5v-22zM440 1209l182 260h225l2 -5l-265 -255h-144zM460 153q23 -12 50.5 -17.5t59.5 -5.5q139 0 210.5 110t71.5 278v22q0 78 -17.5 147.5t-48.5 115.5h-6z" />
<glyph unicode="&#x218;" horiz-adv-x="1251" d="M100 405l2 6h184q0 -138 101 -209.5t250 -71.5q146 0 231.5 62t85.5 168q0 98 -73.5 164t-261.5 111q-226 54 -353 159t-127 263q0 167 137 278.5t354 111.5q234 0 373 -128t134 -298l-2 -6h-184q0 126 -83 203.5t-238 77.5q-144 0 -221 -65.5t-77 -170.5 q0 -93 83.5 -155t270.5 -109q225 -56 343 -165t118 -269q0 -173 -141.5 -278t-368.5 -105q-214 0 -378 116t-159 310zM456 -485l60 241v128h155v-137l-120 -232h-95z" />
<glyph unicode="&#x219;" horiz-adv-x="1049" d="M107 322l2 6h184q5 -103 76.5 -150.5t167.5 -47.5q103 0 161.5 42t58.5 109q0 64 -48.5 105t-184.5 72q-193 42 -290.5 114t-97.5 196q0 130 110 221t286 91q185 0 294.5 -95t104.5 -231l-2 -6h-184q0 69 -58.5 124.5t-154.5 55.5q-103 0 -153 -45t-50 -109q0 -63 44 -99 t180 -64q201 -44 299 -118t98 -198q0 -141 -114.5 -228.5t-298.5 -87.5q-203 0 -319.5 103t-110.5 240zM379 -484l60 241v128h155v-137l-120 -232h-95z" />
<glyph unicode="&#x237;" horiz-adv-x="512" d="M-67 -411l14 147q14 -5 45.5 -8.5t49.5 -3.5q58 0 92 50.5t34 138.5v1147h193v-1147q0 -164 -84.5 -252.5t-234.5 -88.5q-30 0 -55 4.5t-54 12.5z" />
<glyph unicode="&#x2bc;" horiz-adv-x="409" d="M78 1001l59 336v192h193v-189l-157 -339h-95z" />
<glyph unicode="&#x2c6;" horiz-adv-x="959" d="M168 1227v25l241 233h117l243 -234v-24h-157l-145 145l-143 -145h-156z" />
<glyph unicode="&#x2c7;" horiz-adv-x="903" d="M137 1465v20h163l144 -145l144 145h167v-18l-252 -240h-117z" />
<glyph unicode="&#x2d8;" horiz-adv-x="858" d="M131 1421l2 6h148q0 -65 33.5 -105t105.5 -40q71 0 105.5 40.5t34.5 104.5h148l2 -6q3 -114 -76 -185.5t-214 -71.5t-214.5 71.5t-74.5 185.5z" />
<glyph unicode="&#x2d9;" horiz-adv-x="544" d="M157 1230v197h213v-197h-213z" />
<glyph unicode="&#x2da;" horiz-adv-x="682" d="M130 1282q0 82 59.5 138t144.5 56q83 0 142 -55.5t59 -138.5q0 -84 -58.5 -137t-142.5 -53q-85 0 -144.5 53t-59.5 137zM231 1282q0 -42 30.5 -72t72.5 -30q41 0 70.5 29t29.5 73t-29.5 74.5t-70.5 30.5q-42 0 -72.5 -30.5t-30.5 -74.5z" />
<glyph unicode="&#x2db;" horiz-adv-x="550" d="M67 -219q0 79 59 149.5t184 125.5l70 -56q-68 -51 -107 -97.5t-39 -99.5q0 -41 22 -64.5t72 -23.5q27 0 49.5 7.5t47.5 17.5l33 -120q-36 -19 -78.5 -31t-101.5 -12q-93 0 -152 53.5t-59 150.5z" />
<glyph unicode="&#x2dc;" horiz-adv-x="959" d="M132 1250q0 91 58 158t147 67q55 0 137.5 -46t133.5 -46q40 0 69.5 31.5t29.5 78.5l105 -32q0 -92 -58 -155.5t-146 -63.5q-70 0 -145.5 45.5t-125.5 45.5q-42 0 -70.5 -32t-28.5 -77z" />
<glyph unicode="&#x2dd;" horiz-adv-x="746" d="M98 1227l180 261h207l2 -5l-235 -256h-154zM362 1232l236 256h224l3 -6l-294 -255h-167z" />
<glyph unicode="&#x2f3;" horiz-adv-x="658" d="M178 -229q0 63 45 105t109 42q62 0 106 -42t44 -105q0 -62 -43.5 -102t-106.5 -40q-64 0 -109 40t-45 102zM266 -229q0 -26 19.5 -44.5t46.5 -18.5q26 0 44.5 18t18.5 45q0 29 -18.5 48t-44.5 19q-27 0 -46.5 -19.5t-19.5 -47.5z" />
<glyph unicode="&#x300;" horiz-adv-x="0" d="M-799 1527h183l118 -341h-128z" />
<glyph unicode="&#x301;" horiz-adv-x="0" d="M-644 1186l125 342h178l-184 -342h-119z" />
<glyph unicode="&#x303;" horiz-adv-x="0" d="M-866 1250q0 91 58 158t147 67q55 0 137.5 -46t133.5 -46q40 0 69.5 31.5t29.5 78.5l105 -32q0 -92 -58 -155.5t-146 -63.5q-70 0 -145.5 45.5t-125.5 45.5q-42 0 -70.5 -32t-28.5 -77z" />
<glyph unicode="&#x309;" horiz-adv-x="0" d="M-663 1515l6 106q144 0 221.5 -50.5t77.5 -134.5q0 -69 -42 -104.5t-106 -44.5l-1 -70h-137l-1 151q75 4 106.5 19.5t31.5 52.5q0 38 -42.5 56.5t-113.5 18.5z" />
<glyph unicode="&#x30f;" horiz-adv-x="0" d="M-960 1482l3 6h224l236 -256l-2 -5h-167zM-623 1483l2 5h207l181 -261h-154z" />
<glyph unicode="&#x323;" horiz-adv-x="0" d="M-694 -134h214v-196h-214v196z" />
<glyph unicode="&#x384;" horiz-adv-x="515" d="M191 1245l60 372h204l-172 -372h-92z" />
<glyph unicode="&#x385;" horiz-adv-x="1024" d="M158 1231v196h194v-196h-194zM437 1439l50 256h214l-125 -256h-139zM657 1231v196h195v-196h-195z" />
<glyph unicode="&#x386;" horiz-adv-x="1299" d="M20 0l551 1427h166l543 -1427h-197l-133 368h-598l-135 -368h-197zM236 1245l60 372h204l-172 -372h-92zM412 529h480l-235 650h-6z" />
<glyph unicode="&#x387;" horiz-adv-x="530" d="M158 612v207h194v-207h-194z" />
<glyph unicode="&#x388;" horiz-adv-x="1271" d="M-29 1247l60 372h204l-172 -372h-92zM274 0v1427h936v-152h-743v-462h654v-151h-654v-511h754v-151h-947z" />
<glyph unicode="&#x389;" horiz-adv-x="1529" d="M19 1247l60 372h204l-172 -372h-92zM274 0v1427h193v-645h693v645h193v-1427h-193v630h-693v-630h-193z" />
<glyph unicode="&#x38a;" horiz-adv-x="665" d="M23 1246l60 372h204l-172 -372h-92zM284 0v1427h194v-1427h-194z" />
<glyph unicode="&#x38c;" horiz-adv-x="1387" d="M67 1245l60 372h204l-172 -372h-92zM131 586v254q0 261 156 434t406 173q259 0 421 -172.5t162 -434.5v-254q0 -262 -162 -434.5t-421 -172.5q-250 0 -406 172.5t-156 434.5zM324 586q0 -198 100.5 -323.5t268.5 -125.5q180 0 285 125t105 324v256q0 196 -105.5 321.5 t-284.5 125.5q-168 0 -268.5 -125.5t-100.5 -321.5v-256z" />
<glyph unicode="&#x38e;" horiz-adv-x="1323" d="M-125 1245l60 372h204l-172 -372h-92zM118 1427h220l372 -725l373 725h220l-500 -925v-502h-192v514z" />
<glyph unicode="&#x38f;" horiz-adv-x="1358" d="M60 1245l60 372h204l-172 -372h-92zM130 708v113q0 279 151.5 452.5t395.5 173.5t396 -173.5t152 -452.5v-113q0 -161 -62.5 -311.5t-170.5 -245.5h235v-151h-487v156q138 24 215 165t77 387v115q0 229 -94.5 351t-260.5 122t-260 -122t-94 -351v-115q0 -246 79 -387.5 t219 -164.5v-156h-485v151h229q-110 95 -172.5 245.5t-62.5 311.5z" />
<glyph unicode="&#x390;" horiz-adv-x="658" d="M-50 1160v196h194v-196h-194zM193 273v786h193v-796q0 -72 26 -99.5t70 -27.5q25 0 48.5 7.5t40.5 18.5l43 -131q-44 -30 -87.5 -41t-95.5 -11q-116 0 -177 70t-61 224zM229 1368l50 256h214l-125 -256h-139zM449 1160v196h195v-196h-195z" />
<glyph unicode="&#x391;" horiz-adv-x="1299" d="M20 0l551 1427h166l543 -1427h-197l-133 368h-598l-135 -368h-197zM412 529h480l-235 650h-6z" />
<glyph unicode="&#x392;" horiz-adv-x="1282" d="M176 0v1427h466q223 0 349.5 -96.5t126.5 -289.5q0 -95 -60.5 -170t-159.5 -111q129 -28 203 -127t74 -230q0 -196 -127 -299.5t-344 -103.5h-528zM369 151h335q131 0 204.5 65t73.5 185q0 125 -61.5 196.5t-188.5 71.5h-363v-518zM369 820h313q108 0 175.5 59.5 t67.5 165.5q0 115 -73 172.5t-210 57.5h-273v-455z" />
<glyph unicode="&#x393;" horiz-adv-x="1117" d="M176 0v1427h876v-152h-683v-1275h-193z" />
<glyph unicode="&#x395;" horiz-adv-x="1173" d="M176 0v1427h936v-152h-743v-462h654v-151h-654v-511h754v-151h-947z" />
<glyph unicode="&#x396;" horiz-adv-x="1200" d="M95 0v143l763 1132h-752v152h972v-138l-765 -1138h797v-151h-1015z" />
<glyph unicode="&#x397;" horiz-adv-x="1431" d="M176 0v1427h193v-645h693v645h193v-1427h-193v630h-693v-630h-193z" />
<glyph unicode="&#x398;" horiz-adv-x="1368" d="M111 586v254q0 261 156 434t406 173q259 0 421 -172.5t162 -434.5v-254q0 -262 -162 -434.5t-421 -172.5q-250 0 -406 172.5t-156 434.5zM304 586q0 -198 100.5 -323.5t268.5 -125.5q180 0 285 125t105 324v256q0 196 -105.5 321.5t-284.5 125.5q-168 0 -268.5 -125.5 t-100.5 -321.5v-256zM441 646v151h499v-151h-499z" />
<glyph unicode="&#x399;" horiz-adv-x="567" d="M186 0v1427h194v-1427h-194z" />
<glyph unicode="&#x39a;" horiz-adv-x="1290" d="M176 0v1427h193v-631h149l511 631h214l3 -5l-554 -685l594 -732l-3 -5h-230l-517 644h-167v-644h-193z" />
<glyph unicode="&#x39b;" horiz-adv-x="1318" d="M48 0l523 1427h167l523 -1427h-197l-406 1148h-6l-407 -1148h-197z" />
<glyph unicode="&#x39c;" horiz-adv-x="1763" d="M176 0v1427h247l455 -1159h6l455 1159h247v-1427h-193v564l19 581l-5 1l-462 -1146h-129l-460 1143l-5 -1l18 -578v-564h-193z" />
<glyph unicode="&#x39d;" horiz-adv-x="1431" d="M176 0v1427h193l687 -1102l6 2v1100h193v-1427h-193l-687 1103l-6 -1v-1102h-193z" />
<glyph unicode="&#x39e;" horiz-adv-x="1149" d="M121 0v151h918v-151h-918zM122 1275v152h905v-152h-905zM202 664v152h746v-152h-746z" />
<glyph unicode="&#x39f;" horiz-adv-x="1368" d="M111 586v254q0 261 156 434t406 173q259 0 421 -172.5t162 -434.5v-254q0 -262 -162 -434.5t-421 -172.5q-250 0 -406 172.5t-156 434.5zM304 586q0 -198 100.5 -323.5t268.5 -125.5q180 0 285 125t105 324v256q0 196 -105.5 321.5t-284.5 125.5q-168 0 -268.5 -125.5 t-100.5 -321.5v-256z" />
<glyph unicode="&#x3a0;" horiz-adv-x="1433" d="M176 0v1427h1081v-1427h-194v1275h-694v-1275h-193z" />
<glyph unicode="&#x3a1;" horiz-adv-x="1285" d="M176 0v1427h546q229 0 355 -117.5t126 -309.5q0 -195 -126 -311.5t-355 -116.5h-353v-572h-193zM369 723h353q145 0 216.5 78t71.5 197q0 118 -72 197.5t-216 79.5h-353v-552z" />
<glyph unicode="&#x3a3;" horiz-adv-x="1149" d="M69 0v144l470 569l-470 570v144h956v-152h-715l-3 -5l436 -546v-23l-436 -544l3 -5h764v-152h-1005z" />
<glyph unicode="&#x3a4;" horiz-adv-x="1176" d="M33 1275v152h1110v-152h-459v-1275h-193v1275h-458z" />
<glyph unicode="&#x3a5;" horiz-adv-x="1225" d="M20 1427h220l372 -725l373 725h220l-500 -925v-502h-192v514z" />
<glyph unicode="&#x3a6;" horiz-adv-x="1410" d="M82 707q0 214 150.5 354t378.5 144v222h193v-223q225 -4 375.5 -143t150.5 -352q0 -217 -150.5 -356.5t-375.5 -143.5v-209h-193v209q-228 3 -378.5 142t-150.5 356zM273 707q0 -158 87 -249.5t245 -90.5l6 1v678l-6 2q-157 1 -244.5 -92t-87.5 -249zM804 368l5 -1 q154 -1 241.5 91.5t87.5 250.5q0 155 -87.5 247t-241.5 92l-5 -2v-678z" />
<glyph unicode="&#x3a7;" horiz-adv-x="1269" d="M65 0l462 719l-453 708h232l331 -557l333 557h233l-452 -708l462 -719h-230l-342 566l-343 -566h-233z" />
<glyph unicode="&#x3a8;" horiz-adv-x="1387" d="M85 867v560h192v-560q0 -166 80.5 -269t213.5 -123l6 1v951h194v-952l6 -2q141 19 226 122.5t85 271.5v560h193v-560q0 -240 -140 -385.5t-370 -168.5v-313h-194v314q-222 23 -357 168t-135 385z" />
<glyph unicode="&#x3aa;" horiz-adv-x="567" d="M-52 1573v196h214v-196h-214zM186 0v1427h194v-1427h-194zM408 1573v196h215v-196h-215z" />
<glyph unicode="&#x3ab;" horiz-adv-x="1225" d="M20 1427h220l372 -725l373 725h220l-500 -925v-502h-192v514zM276 1572v196h214v-196h-214zM736 1572v196h215v-196h-215z" />
<glyph unicode="&#x3ac;" horiz-adv-x="1134" d="M96 490v21q0 255 109.5 412t306.5 157q99 0 174.5 -35.5t129.5 -101.5l50 116h115v-789q0 -70 20 -97.5t54 -27.5q15 0 28 1.5t23 5.5l23 -139q-28 -20 -57.5 -27t-66.5 -7q-73 0 -122 31.5t-73 99.5q-53 -65 -128 -98t-172 -33q-194 0 -304 141t-110 370zM289 490 q0 -161 66 -260.5t204 -99.5q79 0 135 35t94 98v7v531q-38 58 -94.5 92.5t-132.5 34.5q-139 0 -205.5 -117t-66.5 -300v-21zM557 1252l60 372h204l-172 -372h-92z" />
<glyph unicode="&#x3ad;" horiz-adv-x="1080" d="M96 299q0 89 50.5 152t147.5 94q-85 34 -132 94t-47 131q0 147 114 227.5t311 80.5q179 0 301 -86t117 -222l-2 -6h-182q0 69 -68 117t-166 48q-114 0 -173 -46.5t-59 -112.5q0 -72 53.5 -114t165.5 -42h205v-147h-205q-118 0 -177.5 -41.5t-59.5 -126.5q0 -72 67 -121 t183 -49q110 0 181 55t71 130h182l2 -6q5 -159 -125.5 -243t-310.5 -84q-198 0 -321 85t-123 233zM484 1251l60 372h204l-172 -372h-92z" />
<glyph unicode="&#x3ae;" d="M140 0v1060h173l12 -147q53 80 131.5 123.5t177.5 43.5q174 0 266.5 -95.5t92.5 -315.5v-1076h-193v1072q0 141 -56 202t-170 61q-83 0 -143.5 -33t-97.5 -91v-804h-193zM510 1252l60 372h204l-172 -372h-92z" />
<glyph unicode="&#x3af;" horiz-adv-x="658" d="M193 273v786h193v-796q0 -72 26 -99.5t70 -27.5q25 0 48.5 7.5t40.5 18.5l43 -131q-44 -30 -87.5 -41t-95.5 -11q-116 0 -177 70t-61 224zM240 1233l60 372h204l-172 -372h-92z" />
<glyph unicode="&#x3b0;" d="M138 463v597h193v-599q0 -172 67.5 -251.5t182.5 -79.5q134 0 200.5 124t66.5 297q-3 123 -35.5 249.5t-86.5 259.5h202q50 -104 81.5 -231t31.5 -278q0 -250 -109 -411t-341 -161q-217 0 -335 119t-118 365zM240 1160v196h194v-196h-194zM519 1368l50 256h214l-125 -256 h-139zM739 1160v196h195v-196h-195z" />
<glyph unicode="&#x3b1;" horiz-adv-x="1134" d="M96 490v21q0 255 109.5 412t306.5 157q99 0 174.5 -35.5t129.5 -101.5l50 116h115v-789q0 -70 20 -97.5t54 -27.5q15 0 28 1.5t23 5.5l23 -139q-28 -20 -57.5 -27t-66.5 -7q-73 0 -122 31.5t-73 99.5q-53 -65 -128 -98t-172 -33q-194 0 -304 141t-110 370zM289 490 q0 -161 66 -260.5t204 -99.5q79 0 135 35t94 98v7v531q-38 58 -94.5 92.5t-132.5 34.5q-139 0 -205.5 -117t-66.5 -300v-21z" />
<glyph unicode="&#x3b2;" horiz-adv-x="1188" d="M154 -375v1427q0 161 130.5 278t310.5 117q191 0 306.5 -107.5t115.5 -278.5q0 -89 -49 -164t-134 -119q117 -43 182 -139t65 -223q0 -204 -124 -320.5t-322 -116.5q-80 0 -155 22.5t-133 67.5v-444h-193zM347 238q43 -51 112 -79.5t156 -28.5q127 0 200 78.5t73 204.5 q0 109 -64 193.5t-173 84.5h-140v152h80q119 0 176 59t57 163q0 93 -61 162t-168 69q-105 0 -176.5 -70.5t-71.5 -173.5v-814z" />
<glyph unicode="&#x3b3;" horiz-adv-x="1010" d="M45 1060h198l251 -747l17 -75h5l19 75l244 747h197l-367 -999v-470h-193v475z" />
<glyph unicode="&#x3b4;" d="M95 518v22q0 211 103.5 357.5t284.5 175.5l7 1l2 6l-291 231v116h718v-148h-445l-2 -6l364 -271q99 -74 154 -194.5t55 -267.5v-22q0 -237 -127.5 -388t-347.5 -151q-219 0 -347 151.5t-128 387.5zM288 518q0 -168 71 -278t211 -110q139 0 210.5 110t71.5 278v22 q0 167 -72 277.5t-212 110.5q-138 0 -209 -110.5t-71 -277.5v-22z" />
<glyph unicode="&#x3b5;" horiz-adv-x="1080" d="M96 299q0 89 50.5 152t147.5 94q-85 34 -132 94t-47 131q0 147 114 227.5t311 80.5q179 0 301 -86t117 -222l-2 -6h-182q0 69 -68 117t-166 48q-114 0 -173 -46.5t-59 -112.5q0 -72 53.5 -114t165.5 -42h205v-147h-205q-118 0 -177.5 -41.5t-59.5 -126.5q0 -72 67 -121 t183 -49q110 0 181 55t71 130h182l2 -6q5 -159 -125.5 -243t-310.5 -84q-198 0 -321 85t-123 233z" />
<glyph unicode="&#x3b6;" horiz-adv-x="1049" d="M113 1275v152h838v-110l-336 -423q-126 -150 -181.5 -261.5t-55.5 -253.5q0 -113 51.5 -170.5t151.5 -57.5h31q156 0 244.5 -62.5t88.5 -187.5q-2 -109 -78 -189.5t-183 -127.5l-79 125q64 30 110 72.5t46 110.5q0 51 -40 79.5t-128 28.5h-51q-175 0 -266 105t-91 269 q0 118 68 275.5t210 322.5l262 298l-2 5h-610z" />
<glyph unicode="&#x3b7;" d="M140 0v1060h173l12 -147q53 80 131.5 123.5t177.5 43.5q174 0 266.5 -95.5t92.5 -315.5v-1076h-193v1072q0 141 -56 202t-170 61q-83 0 -143.5 -33t-97.5 -91v-804h-193z" />
<glyph unicode="&#x3b8;" horiz-adv-x="1141" d="M117 544v338q0 272 122 418.5t331 146.5q211 0 333 -146.5t122 -418.5v-338q0 -274 -121 -419.5t-332 -145.5q-210 0 -332.5 146t-122.5 419zM310 505q0 -186 67.5 -280.5t194.5 -94.5q128 0 194 94t66 281v130h-522v-130zM310 787h522v136q0 185 -67 279t-195 94 q-127 0 -193.5 -94t-66.5 -279v-136z" />
<glyph unicode="&#x3b9;" horiz-adv-x="658" d="M193 273v786h193v-796q0 -72 26 -99.5t70 -27.5q25 0 48.5 7.5t40.5 18.5l43 -131q-44 -30 -87.5 -41t-95.5 -11q-116 0 -177 70t-61 224z" />
<glyph unicode="&#x3ba;" horiz-adv-x="1121" d="M150 0v1060h193v-448h82l381 448h226l2 -5l-441 -503l473 -547l-2 -5h-236l-386 450h-99v-450h-193z" />
<glyph unicode="&#x3bb;" d="M55 0l383 1007l-54 143q-31 82 -73.5 134t-101.5 52q-10 0 -36.5 -2.5t-30.5 -2.5v142q20 5 50.5 10t54.5 5q126 0 201 -79.5t115 -185.5l352 -927q22 -70 56.5 -111t78.5 -41q13 0 17.5 0.5t28.5 4.5l-3 -151q-11 -5 -29 -10t-29 -5q-116 0 -186 64t-122 201l-198 520 l-6 -1l-28 -110l-225 -657h-215z" />
<glyph unicode="&#x3bc;" d="M150 -408v1468h192v-629q2 -174 56.5 -237.5t152.5 -63.5q96 0 155 35.5t91 104.5v790h193v-1060h-174l-8 106q-44 -62 -106 -94.5t-143 -32.5q-71 0 -124.5 16.5t-92.5 50.5v-454h-192z" />
<glyph unicode="&#x3bd;" horiz-adv-x="1009" d="M45 1060h198l251 -747l17 -75h5l19 75l244 747h197l-390 -1060h-146z" />
<glyph unicode="&#x3be;" horiz-adv-x="1022" d="M84 1275v152h820v-152h-291q-120 -8 -181.5 -71.5t-61.5 -157.5q0 -92 71.5 -143.5t221.5 -51.5h141v-152h-141q-183 0 -278.5 -76.5t-95.5 -226.5q0 -118 78.5 -191.5t216.5 -73.5h59q158 0 245 -62t87 -189q-2 -108 -78 -188.5t-183 -126.5l-77 124q64 31 110 72.5 t46 110.5q0 51 -34.5 80t-107.5 29h-67q-217 0 -352.5 111.5t-135.5 307.5q0 142 78 238.5t227 139.5q-106 39 -165 108.5t-59 155.5q0 75 30 134.5t88 98.5h-211z" />
<glyph unicode="&#x3bf;" d="M95 518v22q0 235 127.5 387.5t345.5 152.5q221 0 349 -152t128 -388v-22q0 -237 -127.5 -388t-347.5 -151q-219 0 -347 151.5t-128 387.5zM288 518q0 -168 71 -278t211 -110q139 0 210.5 110t71.5 278v22q0 167 -72 277.5t-212 110.5q-138 0 -209 -110.5t-71 -277.5v-22z " />
<glyph unicode="&#x3c0;" horiz-adv-x="1196" d="M77 907v153h1019v-153h-121v-644q0 -72 26 -99.5t70 -27.5q25 0 48.5 7.5t40.5 18.5l43 -131q-44 -30 -87.5 -41t-95.5 -11q-116 0 -177 70t-61 224v634h-387v-907h-193v907h-125z" />
<glyph unicode="&#x3c1;" d="M140 -408v972v1q0 243 126 379t314 136q223 0 341 -155.5t118 -413.5v-21q0 -230 -107.5 -370.5t-300.5 -140.5q-95 0 -169.5 29.5t-128.5 86.5v-503h-193zM333 270q36 -66 95 -103t144 -37q137 0 205.5 100t68.5 260v21q0 185 -65 301t-201 116q-120 0 -183.5 -113 t-63.5 -251v-294z" />
<glyph unicode="&#x3c2;" horiz-adv-x="1079" d="M96 510v41q0 222 125 375.5t341 153.5q183 0 297 -102.5t110 -276.5l-2 -6h-174q0 101 -60 167t-171 66q-136 0 -204.5 -112.5t-68.5 -264.5v-41q0 -141 80.5 -239.5t242.5 -121.5q177 -26 259.5 -77.5t82.5 -172.5q-2 -109 -78 -189t-183 -126l-80 124q65 30 111 72 t46 110q0 47 -43 72t-136 38q-246 34 -370.5 166.5t-124.5 343.5z" />
<glyph unicode="&#x3c3;" d="M95 518v22q0 226 127 372.5t345 147.5h558v-153h-271q92 -70 141.5 -174t49.5 -231v-22q0 -206 -129.5 -353.5t-345.5 -147.5q-219 0 -347 151.5t-128 387.5zM288 518q0 -168 71 -278t211 -110q139 0 210.5 110t71.5 278v22q0 158 -72 262.5t-212 104.5 q-138 0 -209 -104.5t-71 -262.5v-22z" />
<glyph unicode="&#x3c4;" horiz-adv-x="1050" d="M79 910v150h889v-150h-351v-910h-193v910h-345z" />
<glyph unicode="&#x3c5;" d="M138 463v597h193v-599q0 -172 67.5 -251.5t182.5 -79.5q134 0 200.5 124t66.5 297q-3 123 -35.5 249.5t-86.5 259.5h202q50 -104 81.5 -231t31.5 -278q0 -250 -109 -411t-341 -161q-217 0 -335 119t-118 365z" />
<glyph unicode="&#x3c6;" horiz-adv-x="1421" d="M81 553q0 150 31.5 276t82.5 231h202q-56 -131 -88.5 -257.5t-34.5 -249.5q0 -152 80 -268.5t245 -139.5l6 2v913h193q223 0 382.5 -157t159.5 -389q0 -214 -133 -360.5t-409 -169.5v-452h-193v452q-269 25 -396.5 182t-127.5 387zM798 144l6 -2q173 21 258 127t85 245 q-4 159 -95.5 275.5t-247.5 112.5l-6 -2v-756z" />
<glyph unicode="&#x3c7;" horiz-adv-x="1120" d="M92 1060q21 5 51.5 10t54.5 5q126 0 200 -78.5t116 -184.5l90 -217h6l228 465h194l-334 -692l200 -483q31 -71 61.5 -108t72.5 -37q14 0 18.5 1t26.5 4l-3 -159q-10 -5 -28 -9.5t-31 -4.5q-113 0 -181.5 64t-119.5 202l-124 294h-6l-260 -539h-204l375 767l-160 378 q-32 80 -74 129.5t-101 49.5q-10 0 -36.5 -2.5t-30.5 -2.5z" />
<glyph unicode="&#x3c8;" horiz-adv-x="1411" d="M89 584v476h193v-478q0 -203 83 -310t224 -126l6 2v911h194v-913l6 -2q173 23 257.5 141t84.5 271q-3 122 -35.5 248t-87.5 256h203q50 -104 81.5 -229t31.5 -275q0 -236 -130.5 -393.5t-410.5 -179.5v-448h-194v450q-242 25 -374 173t-132 426z" />
<glyph unicode="&#x3c9;" horiz-adv-x="1706" d="M106 551q0 152 41.5 279t110.5 230h202q-73 -131 -115 -258t-46 -251q0 -186 55 -303.5t172 -117.5q105 0 167.5 79.5t62.5 251.5v294h194v-294q0 -172 61.5 -251.5t167.5 -79.5q118 0 172.5 116.5t54.5 304.5q-5 124 -47 251t-113 258h202q67 -104 109 -231t42 -278 q0 -250 -99 -411t-310 -161q-125 0 -210.5 60t-126.5 177q-43 -117 -128.5 -177t-208.5 -60q-212 0 -311 161t-99 411z" />
<glyph unicode="&#x3ca;" horiz-adv-x="658" d="M-39 1237v196h214v-196h-214zM193 273v786h193v-796q0 -72 26 -99.5t70 -27.5q25 0 48.5 7.5t40.5 18.5l43 -131q-44 -30 -87.5 -41t-95.5 -11q-116 0 -177 70t-61 224zM421 1237v196h215v-196h-215z" />
<glyph unicode="&#x3cb;" d="M138 463v597h193v-599q0 -172 67.5 -251.5t182.5 -79.5q134 0 200.5 124t66.5 297q-3 123 -35.5 249.5t-86.5 259.5h202q50 -104 81.5 -231t31.5 -278q0 -250 -109 -411t-341 -161q-217 0 -335 119t-118 365zM251 1237v196h214v-196h-214zM711 1237v196h215v-196h-215z " />
<glyph unicode="&#x3cc;" d="M95 518v22q0 235 127.5 387.5t345.5 152.5q221 0 349 -152t128 -388v-22q0 -237 -127.5 -388t-347.5 -151q-219 0 -347 151.5t-128 387.5zM288 518q0 -168 71 -278t211 -110q139 0 210.5 110t71.5 278v22q0 167 -72 277.5t-212 110.5q-138 0 -209 -110.5t-71 -277.5v-22z M514 1252l60 372h204l-172 -372h-92z" />
<glyph unicode="&#x3cd;" d="M138 463v597h193v-599q0 -172 67.5 -251.5t182.5 -79.5q134 0 200.5 124t66.5 297q-3 123 -35.5 249.5t-86.5 259.5h202q50 -104 81.5 -231t31.5 -278q0 -250 -109 -411t-341 -161q-217 0 -335 119t-118 365zM532 1233l60 372h204l-172 -372h-92z" />
<glyph unicode="&#x3ce;" horiz-adv-x="1706" d="M106 551q0 152 41.5 279t110.5 230h202q-73 -131 -115 -258t-46 -251q0 -186 55 -303.5t172 -117.5q105 0 167.5 79.5t62.5 251.5v294h194v-294q0 -172 61.5 -251.5t167.5 -79.5q118 0 172.5 116.5t54.5 304.5q-5 124 -47 251t-113 258h202q67 -104 109 -231t42 -278 q0 -250 -99 -411t-310 -161q-125 0 -210.5 60t-126.5 177q-43 -117 -128.5 -177t-208.5 -60q-212 0 -311 161t-99 411zM797 1233l60 372h204l-172 -372h-92z" />
<glyph unicode="&#x3d1;" horiz-adv-x="1239" d="M111 580v647l193 2v-649q0 -196 89 -319.5t241 -123.5q162 0 255 116t95 320q-214 8 -343.5 131t-129.5 311v61q0 169 92.5 270t240.5 101q154 0 243 -98.5t89 -272.5v-496q0 -272 -149.5 -436.5t-392.5 -164.5q-233 0 -378 170.5t-145 430.5zM704 1013 q0 -117 73.5 -194.5t200.5 -81.5l6 2v337q0 106 -36 159.5t-104 53.5q-65 0 -102.5 -53.5t-37.5 -159.5v-63z" />
<glyph unicode="&#x3d2;" horiz-adv-x="1067" d="M-22 1414q24 14 48.5 19t58.5 5q79 0 139 -51t111 -173l175 -398l18 -68h6l19 68l174 398q50 122 110.5 173t139.5 51q33 0 57.5 -5t50.5 -19l-23 -149q-5 3 -15.5 5.5t-23.5 2.5q-32 0 -59 -17t-43 -56l-294 -634v-566h-192v566l-294 634q-17 39 -43.5 56t-58.5 17 q-14 0 -24 -2.5t-15 -5.5z" />
<glyph unicode="&#x3d6;" horiz-adv-x="1575" d="M76 907v153h1454v-153h-131q29 -79 45 -168t16 -188q0 -249 -85 -410.5t-266 -161.5q-116 0 -197 59.5t-120 173.5q-40 -115 -120.5 -174t-196.5 -59q-181 0 -266 161.5t-85 410.5q0 99 16 188t45 168h-109zM318 551q0 -186 40.5 -303.5t127.5 -117.5q96 0 153 79.5 t57 251.5v245h194v-245q0 -172 56.5 -251.5t153.5 -79.5q85 0 126 117t41 304q-3 87 -22.5 176t-52.5 180h-799q-34 -92 -54 -181t-21 -175z" />
<glyph unicode="&#x400;" horiz-adv-x="1173" d="M176 0v1427h936v-152h-743v-462h654v-151h-654v-511h754v-151h-947zM297 1784l3 5h226l171 -260h-155z" />
<glyph unicode="&#x401;" horiz-adv-x="1173" d="M176 0v1427h936v-152h-743v-462h654v-151h-654v-511h754v-151h-947zM279 1573v196h214v-196h-214zM739 1573v196h215v-196h-215z" />
<glyph unicode="&#x402;" horiz-adv-x="1506" d="M40 1275v152h1110v-152h-508v-451q77 22 151.5 36t127.5 14q241 0 375.5 -118.5t134.5 -331.5q0 -211 -124.5 -322t-357.5 -108l-5 2l-2 138q159 0 227.5 74.5t68.5 215.5q-2 140 -81 214t-236 74q-61 0 -136 -12t-143 -33v-667h-193v1275h-409z" />
<glyph unicode="&#x403;" horiz-adv-x="1117" d="M176 0v1427h876v-152h-683v-1275h-193zM525 1525l182 260h225l2 -5l-265 -255h-144z" />
<glyph unicode="&#x404;" horiz-adv-x="1358" d="M132 587v254q0 263 152.5 435t394.5 172t385 -128.5t139 -341.5l-2 -6h-185q0 150 -88 237.5t-249 87.5q-162 0 -258 -130.5t-96 -323.5v-46h551v-151h-551v-59q0 -195 96 -325.5t258 -130.5q161 0 249 87t88 240h185l2 -6q4 -201 -141 -336.5t-383 -135.5 q-242 0 -394.5 171.5t-152.5 435.5z" />
<glyph unicode="&#x405;" horiz-adv-x="1251" d="M100 405l2 6h184q0 -138 101 -209.5t250 -71.5q146 0 231.5 62t85.5 168q0 98 -73.5 164t-261.5 111q-226 54 -353 159t-127 263q0 167 137 278.5t354 111.5q234 0 373 -128t134 -298l-2 -6h-184q0 126 -83 203.5t-238 77.5q-144 0 -221 -65.5t-77 -170.5 q0 -93 83.5 -155t270.5 -109q225 -56 343 -165t118 -269q0 -173 -141.5 -278t-368.5 -105q-214 0 -378 116t-159 310z" />
<glyph unicode="&#x406;" horiz-adv-x="567" d="M186 0v1427h194v-1427h-194z" />
<glyph unicode="&#x407;" horiz-adv-x="567" d="M-52 1573v196h214v-196h-214zM186 0v1427h194v-1427h-194zM408 1573v196h215v-196h-215z" />
<glyph unicode="&#x408;" horiz-adv-x="1107" d="M65 387l2 6h185q0 -132 67 -197.5t190 -65.5q106 0 174 72t68 193v1032h193v-1032q0 -191 -121 -303.5t-314 -112.5q-206 0 -327.5 104.5t-116.5 303.5z" />
<glyph unicode="&#x409;" horiz-adv-x="2156" d="M49 0v151h39q147 0 212 139.5t66 464.5v672h880v-556h351q228 0 355 -121t127 -315t-127 -314.5t-355 -120.5h-544v1275h-494l-1 -520q-1 -393 -106.5 -574t-351.5 -181h-51zM1246 151h351q144 0 216.5 83t72.5 203q0 119 -72.5 201t-216.5 82h-351v-569z" />
<glyph unicode="&#x40a;" horiz-adv-x="2167" d="M176 0v1427h193v-617h694v617h193v-604h353q229 0 354.5 -111.5t125.5 -295.5q0 -186 -126 -301t-354 -115h-546v660h-694v-660h-193zM1256 162h353q144 0 216 72.5t72 182.5t-72 182t-216 72h-353v-509z" />
<glyph unicode="&#x40b;" horiz-adv-x="1636" d="M65 1275v152h1109v-152h-517v-424q74 19 151.5 29t180.5 10q235 0 357 -104t122 -335v-451h-193v451q0 161 -68 223.5t-218 62.5q-88 0 -170 -11t-162 -30v-696h-193v1275h-399z" />
<glyph unicode="&#x40c;" horiz-adv-x="1290" d="M176 0v1427h193v-631h149l511 631h214l3 -5l-554 -685l594 -732l-3 -5h-230l-517 644h-167v-644h-193zM513 1525l182 260h225l2 -5l-265 -255h-144z" />
<glyph unicode="&#x40d;" horiz-adv-x="1431" d="M176 0v1427h193v-1087l6 -2l687 1089h193v-1427h-193v1088l-6 2l-687 -1090h-193zM399 1784l3 5h226l171 -260h-155z" />
<glyph unicode="&#x40e;" horiz-adv-x="1271" d="M83 1427h217l276 -667l72 -185h6l321 852h225l-499 -1193q-58 -128 -126 -191.5t-217 -63.5q-25 0 -57.5 3t-41.5 6l5 146q9 -2 42 -3t50 -1q69 0 99 35.5t67 113.5l40 83zM345 1827l2 6h148q0 -65 33.5 -105t105.5 -40q71 0 105.5 40.5t34.5 104.5h148l2 -6 q3 -114 -76 -185.5t-214 -71.5t-214.5 71.5t-74.5 185.5z" />
<glyph unicode="&#x40f;" horiz-adv-x="1433" d="M176 0v1427h193v-1276h694v1276h193v-1427h-436v-352h-193v352h-451z" />
<glyph unicode="&#x410;" horiz-adv-x="1299" d="M20 0l551 1427h166l543 -1427h-197l-133 368h-598l-135 -368h-197zM412 529h480l-235 650h-6z" />
<glyph unicode="&#x411;" horiz-adv-x="1266" d="M160 0v1427h875v-152h-682v-413h352q228 0 355 -117t127 -310q0 -194 -127.5 -314.5t-354.5 -120.5h-545zM353 151h352q144 0 216.5 83t72.5 203q0 117 -72 195t-217 78h-352v-559z" />
<glyph unicode="&#x412;" horiz-adv-x="1282" d="M176 0v1427h466q223 0 349.5 -96.5t126.5 -289.5q0 -95 -60.5 -170t-159.5 -111q129 -28 203 -127t74 -230q0 -196 -127 -299.5t-344 -103.5h-528zM369 151h335q131 0 204.5 65t73.5 185q0 125 -61.5 196.5t-188.5 71.5h-363v-518zM369 820h313q108 0 175.5 59.5 t67.5 165.5q0 115 -73 172.5t-210 57.5h-273v-455z" />
<glyph unicode="&#x413;" horiz-adv-x="1117" d="M176 0v1427h876v-152h-683v-1275h-193z" />
<glyph unicode="&#x414;" horiz-adv-x="1519" d="M47 151h123q75 85 137.5 250t68.5 449l33 577h858v-1276h196l-19 -501h-174v350h-1030v-352h-164zM384 151h690v1124h-480l-23 -425q-8 -234 -58 -411t-129 -288z" />
<glyph unicode="&#x415;" horiz-adv-x="1173" d="M176 0v1427h936v-152h-743v-462h654v-151h-654v-511h754v-151h-947z" />
<glyph unicode="&#x416;" horiz-adv-x="1831" d="M27 0l478 755l-437 672h225l370 -620h161v620h193v-620h153l371 620h225l-438 -671l477 -756h-240l-398 655h-150v-655h-193v655h-159l-396 -655h-242z" />
<glyph unicode="&#x417;" horiz-adv-x="1357" d="M122 390l2 6h185q0 -112 97 -189t251 -77q174 0 273 73t99 191q0 130 -90 193.5t-267 63.5h-179v153h179q171 0 253 64.5t82 176.5q0 109 -88.5 180t-261.5 71q-139 0 -233.5 -70t-94.5 -172h-184l-1 5q-6 173 143.5 280.5t369.5 107.5q251 0 397 -105.5t146 -300.5 q0 -99 -66.5 -181t-183.5 -128q132 -41 202 -126.5t70 -207.5q0 -197 -156.5 -308t-408.5 -111q-222 0 -380.5 105t-154.5 306z" />
<glyph unicode="&#x418;" horiz-adv-x="1431" d="M176 0v1427h193v-1087l6 -2l687 1089h193v-1427h-193v1088l-6 2l-687 -1090h-193z" />
<glyph unicode="&#x419;" horiz-adv-x="1431" d="M176 0v1427h193v-1087l6 -2l687 1089h193v-1427h-193v1088l-6 2l-687 -1090h-193zM430 1827l2 6h148q0 -65 33.5 -105t105.5 -40q71 0 105.5 40.5t34.5 104.5h148l2 -6q3 -114 -76 -185.5t-214 -71.5t-214.5 71.5t-74.5 185.5z" />
<glyph unicode="&#x41a;" horiz-adv-x="1290" d="M176 0v1427h193v-631h149l511 631h214l3 -5l-554 -685l594 -732l-3 -5h-230l-517 644h-167v-644h-193z" />
<glyph unicode="&#x41b;" horiz-adv-x="1421" d="M48 0v151h40q135 0 195 139.5t61 464.5l1 672h901v-1427h-193v1275h-516l-1 -520q0 -392 -101 -573.5t-335 -181.5h-52z" />
<glyph unicode="&#x41c;" horiz-adv-x="1763" d="M176 0v1427h247l455 -1159h6l455 1159h247v-1427h-193v564l19 581l-5 1l-462 -1146h-129l-460 1143l-5 -1l18 -578v-564h-193z" />
<glyph unicode="&#x41d;" horiz-adv-x="1431" d="M176 0v1427h193v-645h693v645h193v-1427h-193v630h-693v-630h-193z" />
<glyph unicode="&#x41e;" horiz-adv-x="1368" d="M111 586v254q0 261 156 434t406 173q259 0 421 -172.5t162 -434.5v-254q0 -262 -162 -434.5t-421 -172.5q-250 0 -406 172.5t-156 434.5zM304 586q0 -198 100.5 -323.5t268.5 -125.5q180 0 285 125t105 324v256q0 196 -105.5 321.5t-284.5 125.5q-168 0 -268.5 -125.5 t-100.5 -321.5v-256z" />
<glyph unicode="&#x41f;" horiz-adv-x="1433" d="M176 0v1427h1081v-1427h-194v1275h-694v-1275h-193z" />
<glyph unicode="&#x420;" horiz-adv-x="1285" d="M176 0v1427h546q229 0 355 -117.5t126 -309.5q0 -195 -126 -311.5t-355 -116.5h-353v-572h-193zM369 723h353q145 0 216.5 78t71.5 197q0 118 -72 197.5t-216 79.5h-353v-552z" />
<glyph unicode="&#x421;" horiz-adv-x="1271" d="M116 586v254q0 263 152 435t394 172q243 0 386 -128.5t139 -341.5l-2 -6h-185q0 150 -88.5 237.5t-249.5 87.5t-257 -130.5t-96 -323.5v-256q0 -195 96 -325.5t257 -130.5t249.5 87t88.5 240h185l2 -6q4 -201 -141 -336.5t-384 -135.5q-242 0 -394 171.5t-152 435.5z" />
<glyph unicode="&#x422;" horiz-adv-x="1176" d="M33 1275v152h1110v-152h-459v-1275h-193v1275h-458z" />
<glyph unicode="&#x423;" horiz-adv-x="1261" d="M83 1427h217l276 -667l72 -185h6l321 852h225l-499 -1193q-58 -128 -126 -191.5t-217 -63.5q-25 0 -57.5 3t-41.5 6l5 146q9 -2 42 -3t50 -1q69 0 99 35.5t67 113.5l40 83z" />
<glyph unicode="&#x424;" horiz-adv-x="1559" d="M83 709q0 251 165.5 413.5t412.5 162.5h28v201h193v-201h25q247 0 413.5 -161.5t166.5 -413.5q0 -253 -166.5 -415t-413.5 -162h-25v-192h-193v192h-28q-248 0 -413 161t-165 415zM274 709q0 -197 100.5 -311t286.5 -114h28v849h-28q-186 0 -286.5 -114.5t-100.5 -309.5z M882 284h27q183 0 284.5 115t101.5 311q0 195 -101.5 309t-284.5 114h-27v-849z" />
<glyph unicode="&#x425;" horiz-adv-x="1269" d="M65 0l462 719l-453 708h232l331 -557l333 557h233l-452 -708l462 -719h-230l-342 566l-343 -566h-233z" />
<glyph unicode="&#x426;" horiz-adv-x="1544" d="M177 0v1427h194v-1275h694v1275h193v-1427h-1081zM1273 157h193v-509h-193v509z" />
<glyph unicode="&#x427;" horiz-adv-x="1380" d="M144 976v451h194v-451q0 -162 67.5 -224t217.5 -62q102 0 196 13.5t191 40.5v683h193v-1427h-193v591q-93 -28 -180 -41t-207 -13q-236 0 -357.5 103.5t-121.5 335.5z" />
<glyph unicode="&#x428;" horiz-adv-x="1893" d="M176 0v1427h193v-1276h483v1276h192v-1276h480v1276h193v-1427h-1541z" />
<glyph unicode="&#x429;" horiz-adv-x="1954" d="M176 0v1427h193v-1276h483v1276h192v-1276h480v1276h193v-1275h152l-20 -496h-171v344h-1502z" />
<glyph unicode="&#x42a;" horiz-adv-x="1517" d="M22 1275v152h583v-584h351q230 0 356.5 -113t126.5 -305t-127 -308.5t-356 -116.5h-544v1275h-390zM605 151h351q146 0 218 78.5t72 197.5q0 116 -72 190t-218 74h-351v-540z" />
<glyph unicode="&#x42b;" horiz-adv-x="1746" d="M176 0v1427h193v-565h352q229 0 355.5 -117t126.5 -310q0 -194 -127 -314.5t-355 -120.5h-545zM369 151h352q144 0 216.5 83t72.5 203q0 117 -72 195t-217 78h-352v-559zM1377 0v1427h194v-1427h-194z" />
<glyph unicode="&#x42c;" horiz-adv-x="1264" d="M160 0v1427h193v-584h352q229 0 355.5 -113t126.5 -305t-127 -308.5t-355 -116.5h-545zM353 151h352q145 0 217 78.5t72 197.5q0 116 -72 190t-217 74h-352v-540z" />
<glyph unicode="&#x42d;" horiz-adv-x="1357" d="M182 450l2 6h185q0 -151 87.5 -238t249.5 -87q160 0 256.5 130t96.5 324v79h-562v152h562v25q0 194 -96.5 325t-256.5 131q-162 0 -249.5 -87.5t-87.5 -239.5h-185l-2 6q-5 199 140.5 335.5t383.5 136.5q242 0 394.5 -172t152.5 -435v-254q0 -265 -152.5 -436 t-394.5 -171t-385.5 128t-138.5 342z" />
<glyph unicode="&#x42e;" horiz-adv-x="1788" d="M186 0v1427h194v-657h201v70q0 261 156.5 434t406.5 173q258 0 420.5 -172.5t162.5 -434.5v-254q0 -262 -162.5 -434.5t-420.5 -172.5q-250 0 -406.5 172.5t-156.5 434.5v33h-201v-619h-194zM774 586q0 -198 100.5 -323.5t269.5 -125.5q179 0 284.5 125t105.5 324v256 q0 196 -106 321.5t-284 125.5q-169 0 -269.5 -125.5t-100.5 -321.5v-256z" />
<glyph unicode="&#x42f;" horiz-adv-x="1286" d="M97 0l334 610q-138 52 -210 150t-72 238q0 203 134.5 316t371.5 113h456v-1427h-193v558h-319l-297 -558h-205zM342 1000q0 -129 80.5 -209.5t230.5 -80.5h265v565h-263q-153 0 -233 -73.5t-80 -201.5z" />
<glyph unicode="&#x430;" horiz-adv-x="1103" d="M104 298q0 152 123 237.5t334 85.5h209v105q0 93 -56.5 147.5t-160.5 54.5q-93 0 -151.5 -47.5t-58.5 -114.5h-184l-2 6q-6 116 109 212t298 96q180 0 289.5 -91.5t109.5 -264.5v-510q0 -57 6 -110t22 -104h-199q-10 48 -15.5 85t-6.5 74q-54 -77 -140.5 -128.5 t-186.5 -51.5q-166 0 -252.5 85t-86.5 234zM297 294q0 -71 44 -112t130 -41q105 0 189.5 54t109.5 123v173h-216q-117 0 -187 -59t-70 -138z" />
<glyph unicode="&#x431;" horiz-adv-x="1110" d="M95 498v137q0 314 132 500t353 230q124 23 179 54t55 103h149l2 -6q3 -172 -81 -226t-268 -86q-133 -22 -228 -102.5t-117 -236.5l4 -5q58 62 145.5 101t186.5 39q202 0 320 -135t118 -346v-21q0 -228 -127.5 -373.5t-347.5 -145.5q-219 0 -347 145.5t-128 373.5z M289 498q0 -160 70.5 -264t210.5 -104q139 0 210.5 104t71.5 264v21q0 142 -72 236t-212 94q-138 0 -208.5 -94t-70.5 -236v-21z" />
<glyph unicode="&#x432;" d="M141 0v1060h419q209 0 325 -73t116 -219q0 -74 -45.5 -132.5t-127.5 -88.5q99 -25 154.5 -92t55.5 -153q0 -149 -108.5 -225.5t-302.5 -76.5h-486zM334 149h293q107 0 162 40.5t55 117.5q0 75 -55 116.5t-162 41.5h-293v-316zM334 612h227q122 0 184.5 36.5t62.5 110.5 q0 75 -63 113t-185 38h-226v-298z" />
<glyph unicode="&#x433;" horiz-adv-x="832" d="M140 0v1060h674v-153h-481v-907h-193z" />
<glyph unicode="&#x434;" horiz-adv-x="1222" d="M45 151h83q82 94 125 196.5t58 314.5l15 398h693v-909h141l-18 -463h-175v312h-729v-312h-174zM351 151h475v738h-313l-9 -227q-11 -177 -50.5 -301.5t-102.5 -209.5z" />
<glyph unicode="&#x435;" horiz-adv-x="1061" d="M97 510v43q0 226 135 376.5t319 150.5q214 0 324 -129.5t110 -344.5v-121h-688l-3 -5q3 -153 77.5 -251.5t208.5 -98.5q98 0 172 28t128 77l76 -125q-57 -56 -150.5 -93.5t-225.5 -37.5q-221 0 -352 147.5t-131 383.5zM301 641l2 -5h489v26q0 113 -61 189.5t-180 76.5 q-97 0 -165.5 -82t-84.5 -205z" />
<glyph unicode="&#x436;" horiz-adv-x="1536" d="M21 0l378 562l-345 498h233l261 -437h120v437h193v-437h121l262 437h233l-346 -498l378 -562h-243l-281 460h-124v-460h-193v460h-124l-280 -460h-243z" />
<glyph unicode="&#x437;" horiz-adv-x="1019" d="M91 308l2 6h183q0 -75 65 -130t167 -55q104 0 162.5 48.5t58.5 121.5q0 85 -50.5 124.5t-158.5 39.5h-184v156h184q102 0 146 39t44 112q0 67 -50 113t-152 46q-92 0 -153.5 -48t-61.5 -117h-183l-2 6q-6 136 111 222t289 86q186 0 291 -80t105 -228q0 -71 -43.5 -130.5 t-120.5 -93.5q89 -32 136 -95t47 -152q0 -149 -114 -233.5t-301 -84.5q-173 0 -297.5 84t-119.5 243z" />
<glyph unicode="&#x438;" d="M140 0v1060h192v-752l6 -2l469 754h193v-1060h-193v753l-6 2l-469 -755h-192z" />
<glyph unicode="&#x439;" d="M140 0v1060h192v-752l6 -2l469 754h193v-1060h-193v753l-6 2l-469 -755h-192zM281 1491l2 6h148q0 -65 33.5 -105t105.5 -40q71 0 105.5 40.5t34.5 104.5h148l2 -6q3 -114 -76 -185.5t-214 -71.5t-214.5 71.5t-74.5 185.5z" />
<glyph unicode="&#x43a;" horiz-adv-x="1064" d="M150 0v1060h193v-448h112l350 448h226l3 -5l-416 -502l449 -548l-3 -5h-237l-358 450h-126v-450h-193z" />
<glyph unicode="&#x43b;" horiz-adv-x="1110" d="M25 0l4 165l41 1q102 0 143 100.5t41 341.5v452h746v-1060h-193v907h-359v-299q0 -314 -83.5 -461t-284.5 -147h-55z" />
<glyph unicode="&#x43c;" horiz-adv-x="1497" d="M150 0v1060h249l345 -807h6l347 807h241v-1060h-193v736l-6 2l-326 -738h-133l-331 755l-6 -2v-753h-193z" />
<glyph unicode="&#x43d;" d="M140 0v1060h193v-458h473v458h193v-1060h-193v451h-473v-451h-193z" />
<glyph unicode="&#x43e;" d="M95 518v22q0 235 127.5 387.5t345.5 152.5q221 0 349 -152t128 -388v-22q0 -237 -127.5 -388t-347.5 -151q-219 0 -347 151.5t-128 387.5zM288 518q0 -168 71 -278t211 -110q139 0 210.5 110t71.5 278v22q0 167 -72 277.5t-212 110.5q-138 0 -209 -110.5t-71 -277.5v-22z " />
<glyph unicode="&#x43f;" d="M140 0v1060h860v-1060h-193v907h-474v-907h-193z" />
<glyph unicode="&#x440;" d="M140 -408v1468h148l30 -137q52 77 129.5 117t180.5 40q197 0 306.5 -156.5t109.5 -412.5v-21q0 -229 -110 -370t-303 -141q-98 0 -172 33t-126 99v-519h-193zM333 270q36 -66 95 -103t144 -37q138 0 208.5 100.5t70.5 259.5v21q0 180 -71 296t-210 116q-83 0 -142 -37.5 t-95 -103.5v-512z" />
<glyph unicode="&#x441;" horiz-adv-x="1065" d="M95 510v41q0 226 123 377.5t353 151.5q187 0 305 -110t114 -269l-2 -6h-175q0 97 -68.5 165t-173.5 68q-152 0 -217 -109t-65 -268v-41q0 -163 64.5 -271.5t217.5 -108.5q96 0 169 59.5t73 145.5h174l2 -6q5 -137 -122 -243.5t-296 -106.5q-231 0 -353.5 151t-122.5 380z " />
<glyph unicode="&#x442;" horiz-adv-x="1027" d="M70 910v150h887v-150h-349v-910h-193v910h-345z" />
<glyph unicode="&#x443;" horiz-adv-x="1009" d="M25 1060h216l224 -667l34 -133h6l260 800h215l-446 -1223q-40 -107 -115 -186t-202 -79q-24 0 -60 5.5t-56 9.5l20 152q-6 1 34.5 -2t51.5 -3q62 0 101 55t65 122l46 111z" />
<glyph unicode="&#x444;" horiz-adv-x="1455" d="M96 490v21q0 257 100 413t286 156q39 0 74 -7t66 -19v475h193v-480q34 14 73 22.5t85 8.5q186 0 286 -156t100 -413v-21q0 -231 -100.5 -371t-283.5 -140q-46 0 -86 8t-74 22v-417h-193v412q-31 -12 -66.5 -18.5t-75.5 -6.5q-184 0 -284 140t-100 371zM289 490 q0 -164 56.5 -262t183.5 -98q27 0 50.5 3.5t42.5 10.5v770q-19 6 -41.5 10t-49.5 4q-127 0 -184.5 -115.5t-57.5 -301.5v-21zM815 144q20 -7 45 -10.5t56 -3.5q128 0 189 99t61 261v21q0 184 -62 300.5t-190 116.5q-29 0 -53.5 -4.5t-45.5 -12.5v-767z" />
<glyph unicode="&#x445;" horiz-adv-x="1009" d="M45 0l354 536l-344 524h222l223 -391l225 391h226l-344 -524l353 -536h-221l-235 401l-235 -401h-224z" />
<glyph unicode="&#x446;" horiz-adv-x="1193" d="M140 0v1060h193v-909h474v909h193v-909h129v-498h-193v347h-796z" />
<glyph unicode="&#x447;" horiz-adv-x="1108" d="M124 750v311h194v-311q0 -128 54.5 -187.5t162.5 -59.5q65 0 123.5 7t116.5 22v528h193v-1060h-193v379q-56 -14 -114.5 -21.5t-125.5 -7.5q-192 0 -301.5 101t-109.5 299z" />
<glyph unicode="&#x448;" horiz-adv-x="1612" d="M140 0v1060h193v-909h374v909h193v-909h373v909h193v-1060h-1326z" />
<glyph unicode="&#x449;" horiz-adv-x="1697" d="M140 0v1060h193v-909h374v909h193v-909h373v909h193v-918h173v-473h-192v331h-1307z" />
<glyph unicode="&#x44a;" horiz-adv-x="1242" d="M28 908v152h504v-364h264q188 0 292.5 -95.5t104.5 -248.5q0 -154 -105.5 -253t-291.5 -99h-457v908h-311zM532 151h264q104 0 153.5 55.5t49.5 138.5q0 80 -50 140t-153 60h-264v-394z" />
<glyph unicode="&#x44b;" horiz-adv-x="1584" d="M170 0v1060h193v-403h263q188 0 292.5 -90.5t104.5 -234.5q0 -145 -105.5 -238.5t-291.5 -93.5h-456zM363 151h263q104 0 153.5 50t49.5 124q0 73 -50 127t-153 54h-263v-355zM1210 0v1060h193v-1060h-193z" />
<glyph unicode="&#x44c;" horiz-adv-x="1090" d="M150 0v1060h193v-403h264q188 0 292.5 -90.5t104.5 -234.5q0 -145 -105.5 -238.5t-291.5 -93.5h-457zM343 151h264q103 0 152.5 50t49.5 124q0 73 -49.5 127t-152.5 54h-264v-355z" />
<glyph unicode="&#x44d;" horiz-adv-x="1079" d="M102 358l2 6h175q0 -97 66.5 -165.5t164.5 -68.5q123 0 190.5 96t75.5 234l-3 5h-377v150h375l2 5q-10 129 -77 218.5t-186 89.5q-91 0 -161 -60t-70 -145h-174l-2 6q-6 136 119 243.5t288 107.5q215 0 340 -153.5t125 -375.5v-41q0 -224 -125.5 -377.5t-339.5 -153.5 q-180 0 -296.5 109.5t-111.5 269.5z" />
<glyph unicode="&#x44e;" horiz-adv-x="1637" d="M150 0v1060h193v-448h251q19 208 144 338t326 130q221 0 349 -152t128 -388v-22q0 -237 -127.5 -388t-347.5 -151q-206 0 -331.5 134t-141.5 349h-250v-462h-193zM784 518q0 -168 71 -278t211 -110q138 0 210 110t72 278v22q0 167 -72.5 277.5t-211.5 110.5 q-138 0 -209 -110.5t-71 -277.5v-22z" />
<glyph unicode="&#x44f;" horiz-adv-x="1139" d="M76 0l269 440q-101 36 -155.5 114.5t-54.5 181.5q0 143 108.5 233.5t298.5 90.5h448v-1060h-193v412h-262l-251 -412h-208zM329 734q0 -71 48 -120.5t144 -49.5h276v346h-255q-105 0 -159 -52t-54 -124z" />
<glyph unicode="&#x450;" horiz-adv-x="1061" d="M97 510v43q0 226 135 376.5t319 150.5q214 0 324 -129.5t110 -344.5v-121h-688l-3 -5q3 -153 77.5 -251.5t208.5 -98.5q98 0 172 28t128 77l76 -125q-57 -56 -150.5 -93.5t-225.5 -37.5q-221 0 -352 147.5t-131 383.5zM228 1469l3 5h226l171 -260h-155zM301 641l2 -5h489 v26q0 113 -61 189.5t-180 76.5q-97 0 -165.5 -82t-84.5 -205z" />
<glyph unicode="&#x451;" horiz-adv-x="1061" d="M97 510v43q0 226 135 376.5t319 150.5q214 0 324 -129.5t110 -344.5v-121h-688l-3 -5q3 -153 77.5 -251.5t208.5 -98.5q98 0 172 28t128 77l76 -125q-57 -56 -150.5 -93.5t-225.5 -37.5q-221 0 -352 147.5t-131 383.5zM210 1258v196h214v-196h-214zM301 641l2 -5h489v26 q0 113 -61 189.5t-180 76.5q-97 0 -165.5 -82t-84.5 -205zM670 1258v196h215v-196h-215z" />
<glyph unicode="&#x452;" d="M-24 1184v152h164v193h193v-193h271v-152h-271v-266q55 77 135 119.5t177 42.5q169 0 264 -102t95 -314v-217v-534q0 -164 -84 -252.5t-235 -88.5q-32 0 -57.5 4t-53.5 12l15 148q13 -5 46 -8.5t50 -3.5q59 0 92 50.5t33 138.5v753q0 132 -56 194.5t-168 62.5 q-80 0 -145.5 -37.5t-107.5 -102.5v-783h-193v1184h-164z" />
<glyph unicode="&#x453;" horiz-adv-x="832" d="M140 0v1060h674v-153h-481v-907h-193zM325 1189l182 260h225l2 -5l-265 -255h-144z" />
<glyph unicode="&#x454;" horiz-adv-x="1080" d="M105 510v41q0 226 123 377.5t353 151.5q186 0 304.5 -110t114.5 -269l-2 -6h-175q0 97 -68.5 165t-173.5 68q-138 0 -204 -91.5t-71 -226.5l2 -5h368v-151h-368l-2 -5q5 -138 70.5 -228.5t204.5 -90.5q96 0 169 59.5t73 145.5h174l2 -6q5 -137 -122 -243.5t-296 -106.5 q-231 0 -353.5 151t-122.5 380z" />
<glyph unicode="&#x455;" horiz-adv-x="1049" d="M107 322l2 6h184q5 -103 76.5 -150.5t167.5 -47.5q103 0 161.5 42t58.5 109q0 64 -48.5 105t-184.5 72q-193 42 -290.5 114t-97.5 196q0 130 110 221t286 91q185 0 294.5 -95t104.5 -231l-2 -6h-184q0 69 -58.5 124.5t-154.5 55.5q-103 0 -153 -45t-50 -109q0 -63 44 -99 t180 -64q201 -44 299 -118t98 -198q0 -141 -114.5 -228.5t-298.5 -87.5q-203 0 -319.5 103t-110.5 240z" />
<glyph unicode="&#x456;" horiz-adv-x="505" d="M156 0v1060h193v-1060h-193zM156 1332v197h193v-197h-193z" />
<glyph unicode="&#x457;" horiz-adv-x="504" d="M-88 1237v196h214v-196h-214zM150 0v1060h193v-1060h-193zM372 1237v196h215v-196h-215z" />
<glyph unicode="&#x458;" horiz-adv-x="519" d="M-65 -411l14 152q14 -5 39.5 -8t41.5 -3q64 0 102 43t38 140v1147h193v-1147q0 -164 -84.5 -252.5t-234.5 -88.5q-30 0 -55 4.5t-54 12.5zM164 1336v193h193v-193h-193z" />
<glyph unicode="&#x459;" horiz-adv-x="1746" d="M64 0l4 155l40 1q104 0 149 106.5t45 345.5v452h698v-402h263q187 0 292 -91t105 -235q0 -145 -105.5 -238.5t-291.5 -93.5h-456v907h-312v-299q0 -312 -87.5 -460t-288.5 -148h-55zM1000 149h263q103 0 153 55t50 130q0 72 -49.5 122.5t-153.5 50.5h-263v-358z" />
<glyph unicode="&#x45a;" horiz-adv-x="1745" d="M140 0v1060h193v-399h473v399h193v-403h263q188 0 292.5 -90.5t104.5 -234.5q0 -145 -105.5 -238.5t-291.5 -93.5h-456v511h-473v-511h-193zM999 149h263q103 0 153 55t50 130q0 72 -49.5 122.5t-153.5 50.5h-263v-358z" />
<glyph unicode="&#x45b;" d="M19 1187v152h121v190h193v-190h314v-152h-314v-269q55 77 135 119.5t177 42.5q169 0 264 -102t95 -314v-664h-194v666q0 132 -56 194.5t-168 62.5q-80 0 -145.5 -37.5t-107.5 -102.5v-783h-193v1187h-121z" />
<glyph unicode="&#x45c;" horiz-adv-x="1064" d="M150 0v1060h193v-448h112l350 448h226l3 -5l-416 -502l449 -548l-3 -5h-237l-358 450h-126v-450h-193zM440 1188l182 260h225l2 -5l-265 -255h-144z" />
<glyph unicode="&#x45d;" d="M140 0v1060h192v-752l6 -2l469 754h193v-1060h-193v753l-6 2l-469 -755h-192zM251 1448l3 5h226l171 -260h-155z" />
<glyph unicode="&#x45e;" horiz-adv-x="1009" d="M25 1060h216l224 -667l34 -133h6l260 800h215l-446 -1223q-40 -107 -115 -186t-202 -79q-24 0 -60 5.5t-56 9.5l20 152q-6 1 34.5 -2t51.5 -3q62 0 101 55t65 122l46 111zM215 1491l2 6h148q0 -65 33.5 -105t105.5 -40q71 0 105.5 40.5t34.5 104.5h148l2 -6 q3 -114 -76 -185.5t-214 -71.5t-214.5 71.5t-74.5 185.5z" />
<glyph unicode="&#x45f;" d="M140 0v1060h193v-909h474v909h193v-1060h-331v-349h-193v349h-336z" />
<glyph unicode="&#x460;" horiz-adv-x="1761" d="M154 383v1044h193v-1044q0 -124 54.5 -188.5t144.5 -64.5q106 0 170.5 64.5t64.5 188.5v1044h200v-1044q0 -123 60 -188t158 -65q97 0 156.5 65t59.5 188v1044h193v-1044q0 -197 -113 -300.5t-296 -103.5q-107 0 -190.5 43t-129.5 127q-50 -84 -136 -127t-197 -43 q-177 0 -284.5 103.5t-107.5 300.5z" />
<glyph unicode="&#x461;" horiz-adv-x="1528" d="M122 345v715h193v-715q0 -106 43 -160.5t116 -54.5q88 0 142.5 55t54.5 160v715h194v-715q0 -106 48.5 -160.5t130.5 -54.5q79 0 128.5 55t49.5 160v715h193v-715q0 -178 -103 -272t-268 -94q-91 0 -163 35t-115 105q-46 -70 -121.5 -105t-170.5 -35q-159 0 -255.5 93.5 t-96.5 272.5z" />
<glyph unicode="&#x462;" horiz-adv-x="1264" d="M-50 1079v152h210v196h193v-196h225v-152h-225v-217h352q228 0 355 -117t127 -310q0 -194 -127.5 -314.5t-354.5 -120.5h-545v1079h-210zM353 151h352q144 0 216.5 83t72.5 203q0 117 -72 195t-217 78h-352v-559z" />
<glyph unicode="&#x463;" horiz-adv-x="1090" d="M-36 1060v151h186v318h193v-318h315v-151h-315v-327h264q188 0 292.5 -100.5t104.5 -262.5q0 -161 -105.5 -265.5t-291.5 -104.5h-457v1060h-186zM343 151h264q103 0 152.5 61t49.5 152q0 88 -49.5 153t-152.5 65h-264v-431z" />
<glyph unicode="&#x464;" horiz-adv-x="1800" d="M187 0v1427h194v-610h192v24q0 263 152.5 435t394.5 172q237 0 371.5 -125.5t152.5 -344.5l-2 -6h-185q-23 157 -102.5 241t-234.5 84q-162 0 -258 -130.5t-96 -323.5v-26h529v-152h-529v-78q0 -195 96 -325.5t258 -130.5q156 0 235 83.5t102 243.5h185l2 -6 q-18 -207 -154.5 -339.5t-369.5 -132.5q-242 0 -394.5 171.5t-152.5 435.5v78h-192v-665h-194z" />
<glyph unicode="&#x465;" horiz-adv-x="1499" d="M148 0v1060h193v-456h183q14 206 136 341t339 135q186 0 304 -110t114 -269l-2 -6h-174q0 97 -69 165t-173 68q-139 0 -205 -91.5t-71 -227.5l2 -5h411v-151h-411l-2 -5q5 -137 70.5 -227.5t205.5 -90.5q96 0 169 59.5t73 145.5h173l2 -6q5 -137 -122 -243.5t-295 -106.5 q-217 0 -338.5 133t-136.5 341h-183v-453h-193z" />
<glyph unicode="&#x466;" horiz-adv-x="1210" d="M42 0l515 1427h165l504 -1427h-197l-146 429h-158v-429h-192v429h-145l-149 -429h-197zM444 590h384l-187 552h-6z" />
<glyph unicode="&#x467;" horiz-adv-x="1075" d="M13 0l431 1060h166l434 -1060h-197l-117 288h-104v-288h-192v288h-111l-113 -288h-197zM383 440h286l-123 306l-18 66h-6l-17 -66z" />
<glyph unicode="&#x468;" horiz-adv-x="1768" d="M205 0v1427h194v-836h374l302 836h166l503 -1427h-197l-146 429h-157v-429h-192v429h-146l-148 -429h-197l154 430h-316v-430h-194zM962 590h385l-188 552h-6z" />
<glyph unicode="&#x469;" horiz-adv-x="1518" d="M182 0v1060h193v-620h254l253 620h166l434 -1060h-197l-117 288h-104v-288h-192v288h-111l-113 -288h-197l116 287h-192v-287h-193zM821 440h286l-123 306l-18 66h-6l-17 -66z" />
<glyph unicode="&#x46a;" horiz-adv-x="1723" d="M146 0v364q0 229 121 331.5t356 102.5h37l-384 629h1185l-383 -629h22q234 0 356.5 -102.5t122.5 -331.5v-364h-193v364q0 158 -68 220t-218 62h-114l-25 -41v-605h-193v619l-16 27h-129q-150 0 -217 -62t-67 -220v-364h-193zM586 1275l278 -477h10l278 477h-566z" />
<glyph unicode="&#x46b;" horiz-adv-x="1485" d="M146 0v159q0 221 104 323t305 109l-279 469h155v1h670v-1h120l-279 -469q194 -10 296 -113t102 -319v-159h-194v159q0 159 -58.5 220.5t-187.5 61.5h-46l-11 -19v-422h-193v431l-6 10h-59q-130 0 -188 -61.5t-58 -220.5v-159h-193zM576 908l173 -313l172 313h-345z" />
<glyph unicode="&#x46c;" horiz-adv-x="2279" d="M186 0v1427h194v-629h835l-383 629h1185l-383 -629q255 0 377.5 -102.5t122.5 -331.5v-364h-193v364q0 158 -68 220t-218 62h-113l-25 -41v-605h-193v619l-17 27h-128q-150 0 -217 -62t-67 -220v-364h-193v364q0 181 75 283h-397v-647h-194zM1142 1275l278 -477h10 l278 477h-566z" />
<glyph unicode="&#x46d;" horiz-adv-x="1978" d="M150 0v1060h193v-467h707l-278 467h945l-279 -469q194 -10 296 -113t102 -319v-159h-194v159q0 159 -58.5 220.5t-187.5 61.5h-47l-10 -19v-422h-193v431l-6 10h-59q-130 0 -188 -61.5t-58 -220.5v-159h-193v159q0 180 68 282h-367v-441h-193zM1072 908l173 -313l172 313 h-345z" />
<glyph unicode="&#x46e;" horiz-adv-x="1039" d="M73 -120q0 127 87.5 189.5t245.5 62.5h41q126 0 199 73t73 190q0 130 -80 196t-235 66h-140v151h140q151 0 222.5 62.5t71.5 174.5q0 100 -70 165t-205 65h-298v152h298q207 0 338 -104.5t131 -281.5q0 -101 -64 -181.5t-176 -123.5q126 -40 193.5 -126.5t67.5 -210.5 q0 -196 -129.5 -307.5t-336.5 -111.5h-49q-75 0 -108.5 -28.5t-33.5 -80.5q0 -69 45.5 -110.5t110.5 -71.5l-78 -124q-109 46 -184.5 126.5t-76.5 188.5zM218 1848v20h162l144 -145l144 145h167v-18l-252 -240h-117z" />
<glyph unicode="&#x46f;" horiz-adv-x="966" d="M72 -120q0 127 87.5 189.5t245.5 62.5h40q108 0 170 44.5t62 117.5q0 80 -70 120t-205 40h-140v152h140q130 0 192 40.5t62 113.5q0 64 -60.5 105.5t-174.5 41.5h-297v153h297q189 0 309 -82t120 -221q0 -72 -50.5 -130.5t-139.5 -92.5q102 -32 156.5 -92t54.5 -144 q0 -148 -119 -233t-307 -85h-48q-75 0 -108.5 -28.5t-33.5 -80.5q0 -69 46 -111t111 -71l-79 -124q-109 46 -184.5 126.5t-76.5 188.5zM147 1511v20h163l144 -145l144 145h166v-18l-251 -240h-117z" />
<glyph unicode="&#x470;" horiz-adv-x="1387" d="M85 867v560h192v-560q0 -166 80.5 -269t213.5 -123l6 1v951h194v-952l6 -2q141 19 226 122.5t85 271.5v560h193v-560q0 -240 -140 -385.5t-370 -168.5v-313h-194v314q-222 23 -357 168t-135 385z" />
<glyph unicode="&#x471;" horiz-adv-x="1411" d="M89 584v476h193v-478q0 -203 83 -310t224 -126l6 2v911h194v-913l6 -2q173 23 257.5 141t84.5 271q-3 122 -35.5 248t-87.5 256h203q50 -104 81.5 -229t31.5 -275q0 -236 -130.5 -393.5t-410.5 -179.5v-448h-194v450q-242 25 -374 173t-132 426z" />
<glyph unicode="&#x472;" horiz-adv-x="1368" d="M111 586v254q0 261 156 434t406 173q259 0 421 -172.5t162 -434.5v-254q0 -262 -162 -434.5t-421 -172.5q-250 0 -406 172.5t-156 434.5zM304 586q0 -198 100.5 -323.5t268.5 -125.5q180 0 285 125t105 324v42h-759v-42zM304 780h759v62q0 196 -105.5 321.5t-284.5 125.5 q-168 0 -268.5 -125.5t-100.5 -321.5v-62z" />
<glyph unicode="&#x473;" horiz-adv-x="1141" d="M95 518v22q0 235 127.5 387.5t345.5 152.5q221 0 349 -152t128 -388v-22q0 -237 -127.5 -388t-347.5 -151q-219 0 -347 151.5t-128 387.5zM295 455q8 -143 78 -234t197 -91q126 0 196 91t78 234l-2 5h-545zM296 616l2 -4h543l2 4q-11 136 -81.5 224t-193.5 88 q-122 0 -191.5 -87.5t-80.5 -224.5z" />
<glyph unicode="&#x474;" horiz-adv-x="1269" d="M22 1427h209l338 -1053l33 -118h6l32 118l248 789q48 153 112 218t170 65h49l-1 -166h-12q-49 0 -78.5 -31t-56.5 -109l-384 -1140h-166z" />
<glyph unicode="&#x475;" horiz-adv-x="1010" d="M45 1060h198l230 -747l17 -75h6l18 75l147 524q40 124 104.5 183t144.5 59q34 0 59 -5t48 -20l-21 -148q-5 3 -16 5.5t-24 2.5q-31 0 -60 -25.5t-41 -66.5l-291 -822h-146z" />
<glyph unicode="&#x476;" horiz-adv-x="1269" d="M22 1427h209l338 -1053l33 -118h6l32 118l248 789q48 153 112 218t170 65h49l-1 -166h-12q-49 0 -78.5 -31t-56.5 -109l-384 -1140h-166zM98 1821l3 6h224l236 -256l-2 -5h-167zM435 1822l2 5h207l181 -261h-154z" />
<glyph unicode="&#x477;" horiz-adv-x="1010" d="M-2 1531l3 6h224l236 -256l-2 -5h-167zM45 1060h198l230 -747l17 -75h6l18 75l147 524q40 124 104.5 183t144.5 59q34 0 59 -5t48 -20l-21 -148q-5 3 -16 5.5t-24 2.5q-31 0 -60 -25.5t-41 -66.5l-291 -822h-146zM335 1532l2 5h207l181 -261h-154z" />
<glyph unicode="&#x478;" horiz-adv-x="2377" d="M111 586v254q0 261 156 434t406 173q259 0 421 -172.5t162 -434.5v-254q0 -262 -162 -434.5t-421 -172.5q-250 0 -406 172.5t-156 434.5zM304 586q0 -198 100.5 -323.5t268.5 -125.5q180 0 285 125t105 324v256q0 196 -105.5 321.5t-284.5 125.5q-168 0 -268.5 -125.5 t-100.5 -321.5v-256zM1393 1060h216l224 -667l34 -133h6l260 800h215l-446 -1223q-40 -107 -115 -186t-202 -79q-24 0 -60 5.5t-56 9.5l20 152q-6 1 34.5 -2t51.5 -3q62 0 101 55t65 122l46 111z" />
<glyph unicode="&#x479;" horiz-adv-x="2150" d="M95 518v22q0 235 127.5 387.5t345.5 152.5q221 0 349 -152t128 -388v-22q0 -237 -127.5 -388t-347.5 -151q-219 0 -347 151.5t-128 387.5zM288 518q0 -168 71 -278t211 -110q139 0 210.5 110t71.5 278v22q0 167 -72 277.5t-212 110.5q-138 0 -209 -110.5t-71 -277.5v-22z M1166 1060h216l224 -667l34 -133h6l260 800h215l-446 -1223q-40 -107 -115 -186t-202 -79q-24 0 -60 5.5t-56 9.5l20 152q-6 1 34.5 -2t51.5 -3q62 0 101 55t65 122l46 111z" />
<glyph unicode="&#x47a;" horiz-adv-x="1368" d="M111 586v254q0 261 156 434q129 143 321 168v115h193v-118q186 -30 313 -165q162 -172 162 -434v-254q0 -262 -162 -434q-127 -135 -313 -164v-126h-193v123q-192 25 -321 167q-156 172 -156 434zM304 586q0 -198 100 -323q73 -92 184 -117v106h193v-102q105 27 176 112 q106 125 106 324v256q0 196 -106 321q-71 85 -176 112v-99h-193v104q-111 -25 -184 -117q-100 -125 -100 -321v-256z" />
<glyph unicode="&#x47b;" d="M95 518v22q0 235 127 387q98 119 252 145v110h193v-111q152 -27 249 -143q129 -152 129 -388v-22q0 -237 -128 -388q-98 -115 -250 -142v-104h-193v103q-153 27 -252 143q-127 152 -127 388zM288 518q0 -168 71 -278q44 -68 115 -95v101h193v-100q69 26 113 94 q72 110 72 278v22q0 167 -73 277q-43 67 -112 93v-91h-193v93q-70 -26 -115 -95q-71 -110 -71 -277v-22z" />
<glyph unicode="&#x47c;" horiz-adv-x="1754" d="M154 420v565q0 214 107 326.5t279 108.5l6 -2v-143q-90 0 -144.5 -74.5t-54.5 -215.5v-565q0 -142 54.5 -216t144.5 -74q106 0 170.5 64.5t64.5 188.5v424h194v-424q0 -124 64.5 -188.5t171.5 -64.5q88 0 143.5 74t55.5 216v565q0 141 -55.5 215.5t-143.5 74.5v143l6 2 q171 4 278.5 -108.5t107.5 -326.5v-565q0 -214 -108 -327.5t-284 -113.5q-111 0 -197.5 42t-135.5 125q-50 -83 -136 -125t-196 -42q-177 0 -284.5 113.5t-107.5 327.5zM566 1593v36q0 106 61 159.5t173 53.5q70 0 213 -60.5t255 -60.5h43v-127h-45q-128 0 -274.5 60.5 t-187.5 60.5q-49 0 -77.5 -26.5t-28.5 -77.5v-18h-132zM758 1356l56 113l-1 137h185v-120l-162 -194z" />
<glyph unicode="&#x47d;" horiz-adv-x="1528" d="M121 382v285q0 195 96 298t250 99l6 -3v-143q-73 0 -116 -64t-43 -187v-285q0 -124 43 -188t116 -64q88 0 142.5 55t54.5 160v229h193v-229q0 -105 54.5 -160t142.5 -55q73 0 116.5 64t43.5 188v285q0 123 -43.5 187t-116.5 64v143l6 3q154 4 250.5 -99t96.5 -298v-285 q0 -197 -97 -300t-256 -103q-97 0 -173 35.5t-121 106.5q-46 -71 -121.5 -106.5t-171.5 -35.5q-159 0 -255.5 103t-96.5 300zM486 1242v35q0 106 61 160t172 54q71 0 214 -61t255 -61h43v-126h-45q-129 0 -275.5 60t-187.5 60q-49 0 -77.5 -26.5t-28.5 -77.5v-17h-131z M680 1017l54 107l-1 124l181 -6v-115l-156 -180z" />
<glyph unicode="&#x47e;" horiz-adv-x="1762" d="M154 383v1044h193v-1044q0 -124 54.5 -188.5t144.5 -64.5q106 0 170.5 64.5t64.5 188.5v1044h200v-1044q0 -123 60 -188t158 -65q97 0 156.5 65t59.5 188v1044h193v-1044q0 -197 -113 -300.5t-296 -103.5q-107 0 -190.5 43t-129.5 127q-50 -84 -136 -127t-197 -43 q-177 0 -284.5 103.5t-107.5 300.5zM460 1654v107h804l1 -107h-324v-123h-175v123h-306z" />
<glyph unicode="&#x47f;" horiz-adv-x="1529" d="M122 345v715h193v-715q0 -106 43 -160.5t116 -54.5q88 0 142.5 55t54.5 160v715h194v-715q0 -106 48.5 -160.5t130.5 -54.5q79 0 128.5 55t49.5 160v715h193v-715q0 -178 -103 -272t-268 -94q-91 0 -163 35t-115 105q-46 -70 -121.5 -105t-170.5 -35q-159 0 -255.5 93.5 t-96.5 272.5zM372 1321v107h805l3 -107h-326v-125h-175v125h-307z" />
<glyph unicode="&#x480;" horiz-adv-x="1309" d="M116 586v254q0 263 152 435t394 172q243 0 386 -128.5t139 -341.5l-2 -6h-185q0 150 -88.5 237.5t-249.5 87.5t-257 -130.5t-96 -323.5v-256q0 -195 96 -325.5t257 -130.5h113v-505h-192v360q-211 29 -339 194.5t-128 406.5z" />
<glyph unicode="&#x481;" horiz-adv-x="1077" d="M96 510v41q0 222 125 375.5t341 153.5q178 0 294.5 -110t112.5 -269l-2 -6h-174q0 96 -67 164.5t-164 68.5q-136 0 -204.5 -112.5t-68.5 -264.5v-41q0 -156 68 -268t205 -112h103v-505h-193v362q-177 32 -276.5 178t-99.5 345z" />
<glyph unicode="&#x482;" horiz-adv-x="1256" d="M110 558l69 121l287 -167l198 356l-284 168l72 123l285 -167l181 323h168l-225 -399l288 -167l-74 -122l-282 167l-201 -356l283 -168l-69 -123l-286 167l-177 -314h-171l221 390z" />
<glyph unicode="&#x483;" horiz-adv-x="1141" d="M208 1165l1 231h533l-1 105l171 -1v-212h-533v-124z" />
<glyph unicode="&#x484;" horiz-adv-x="1184" d="M246 1277v127h43q111 0 254 61t215 61q110 0 171.5 -54t61.5 -160v-35h-132v18q0 51 -28.5 77t-76.5 26q-43 0 -189.5 -60.5t-273.5 -60.5h-45z" />
<glyph unicode="&#x485;" horiz-adv-x="771" d="M251 1470v121h183l-1 -138l58 -113l-79 -65z" />
<glyph unicode="&#x486;" horiz-adv-x="830" d="M294 1340l57 113l-1 138h184v-121l-162 -195z" />
<glyph unicode="&#x488;" horiz-adv-x="2034" d="M63 483q-5 77 50.5 128t149.5 51t149 -50.5t52 -128.5l-2 -6h-102q0 43 -23.5 71t-73.5 28q-49 0 -72 -28.5t-23 -70.5h-103zM225 -25q-5 76 50.5 127t149.5 51t150 -50.5t52 -127.5l-2 -6h-103q0 43 -23.5 71t-73.5 28q-49 0 -71.5 -28.5t-22.5 -70.5h-104zM235 976 q-5 78 50.5 128t150.5 50q94 0 149.5 -50t51.5 -128l-2 -6h-102q0 42 -24 70.5t-73 28.5t-72 -28.5t-23 -70.5h-104zM797 1248q-5 77 50 127.5t150 50.5q94 0 149 -50.5t52 -127.5l-2 -6h-102q0 42 -24 70.5t-73 28.5t-72 -28.5t-23 -70.5h-103zM802 -304q-5 79 49.5 129 t150.5 50q94 0 149 -50t51 -129l-2 -6h-101q0 43 -24 71t-73 28t-72.5 -28t-23.5 -71h-102zM1366 -25q-5 76 50.5 127t149.5 51t149.5 -50.5t51.5 -127.5l-2 -6h-102q0 43 -23.5 71t-73.5 28q-49 0 -72 -28.5t-23 -70.5h-103zM1376 976q-5 77 50.5 127.5t149.5 50.5t150 -50 t52 -128l-2 -6h-103q0 43 -23.5 71t-73.5 28q-49 0 -71.5 -28.5t-22.5 -70.5h-104zM1559 483q-5 77 50.5 128t149.5 51t149.5 -50.5t51.5 -128.5l-2 -6h-102q0 43 -23.5 71t-73.5 28q-49 0 -72 -28.5t-23 -70.5h-103z" />
<glyph unicode="&#x489;" horiz-adv-x="1967" d="M75 534v96l340 -69v-137l-13 -11zM267 -78l288 196l95 -97l-2 -17l-314 -150zM351 1164l64 68l194 -293l-96 -96l-17 2zM879 -405l69 346h134l11 -14l-120 -332h-94zM879 1117l120 331h94l-69 -345h-133zM1320 982l2 16l315 150l66 -67q-36 -23 -288 -196zM1360 61l95 97 l17 -2l146 -319l-65 -69zM1555 482v136l13 12l326 -121v-96z" />
<glyph unicode="&#x48a;" horiz-adv-x="1431" d="M176 0v1427h193v-1087l6 -2l687 1089h193v-1427h-193v1088l-6 2l-687 -1090h-193zM430 1827l2 6h148q0 -65 33.5 -105t105.5 -40q71 0 105.5 40.5t34.5 104.5h148l2 -6q3 -114 -76 -185.5t-214 -71.5t-214.5 71.5t-74.5 185.5zM1154 -290l69 310v160h193v-170l-147 -300 h-115z" />
<glyph unicode="&#x48b;" d="M140 0v1060h192v-752l6 -2l469 754h193v-1060h-193v753l-6 2l-469 -755h-192zM281 1491l2 6h148q0 -65 33.5 -105t105.5 -40q71 0 105.5 40.5t34.5 104.5h148l2 -6q3 -114 -76 -185.5t-214 -71.5t-214.5 71.5t-74.5 185.5zM899 -290l69 310v160h193v-170l-147 -300h-115z " />
<glyph unicode="&#x48c;" horiz-adv-x="1264" d="M-50 1079v152h210v196h193v-196h225v-152h-225v-217h352q228 0 355 -117t127 -310q0 -194 -127.5 -314.5t-354.5 -120.5h-545v1079h-210zM353 151h352q144 0 216.5 83t72.5 203q0 117 -72 195t-217 78h-352v-559z" />
<glyph unicode="&#x48d;" horiz-adv-x="1090" d="M-36 1275v152h186v190h193v-190h315v-152h-315v-542h264q188 0 292.5 -100.5t104.5 -262.5q0 -161 -105.5 -265.5t-291.5 -104.5h-457v1275h-186zM343 151h264q103 0 152.5 61t49.5 152q0 88 -49.5 153t-152.5 65h-264v-431z" />
<glyph unicode="&#x48e;" horiz-adv-x="1282" d="M176 0v1427h546q229 0 355 -117.5t126 -309.5q0 -180 -106 -292l132 -144l-114 -101l-144 156q-104 -47 -249 -47h-353v-572h-193zM369 723h353q77 0 134 22l-106 115l112 102l109 -118q39 65 39 154q0 118 -72 197.5t-216 79.5h-353v-552z" />
<glyph unicode="&#x48f;" horiz-adv-x="1139" d="M140 -408v1468h166l17 -130q52 73 128.5 111.5t176.5 38.5q197 0 306.5 -156.5t109.5 -412.5v-21q0 -220 -101 -358l104 -114l-114 -103l-103 113q-85 -49 -199 -49q-98 0 -172 33t-126 99v-519h-193zM333 270q36 -66 95 -103t144 -37q80 0 137 34l-106 117l113 103 l93 -104q42 88 42 210v21q0 180 -71 296t-210 116q-83 0 -142 -37.5t-95 -103.5v-512z" />
<glyph unicode="&#x490;" horiz-adv-x="1101" d="M160 0v1427h686v327h193v-479h-686v-1275h-193z" />
<glyph unicode="&#x491;" horiz-adv-x="896" d="M140 0v1060h486v309h193v-462h-486v-907h-193z" />
<glyph unicode="&#x492;" horiz-adv-x="1117" d="M-4 667v152h180v608h876v-152h-683v-456h255v-152h-255v-667h-193v667h-180z" />
<glyph unicode="&#x493;" horiz-adv-x="832" d="M-13 466v152h153v442h674v-153h-481v-289h282v-152h-282v-466h-193v466h-153z" />
<glyph unicode="&#x494;" horiz-adv-x="1228" d="M176 0v1427h876v-152h-683v-459h177q278 0 433 -150.5t155 -415.5q0 -258 -119 -395t-342 -133l-6 2l-2 139q148 0 212 100t64 287q-2 198 -100 301.5t-295 103.5h-177v-655h-193z" />
<glyph unicode="&#x495;" horiz-adv-x="1011" d="M140 0v1060h674v-153h-481v-273h109q221 0 361 -126t140 -341q-2 -136 -97 -273.5t-282 -171.5l-50 146q126 33 181 110t55 189q-2 144 -86 224.5t-222 80.5h-109v-472h-193z" />
<glyph unicode="&#x496;" horiz-adv-x="1831" d="M27 0l478 755l-437 672h225l370 -620h161v620h193v-620h153l371 620h225l-438 -671l477 -756h-240l-398 655h-150v-655h-193v655h-159l-396 -655h-242zM1682 154h193v-506h-193v506z" />
<glyph unicode="&#x497;" horiz-adv-x="1536" d="M21 0l378 562l-345 498h233l261 -437h120v437h193v-437h121l262 437h233l-346 -498l378 -562h-243l-281 460h-124v-460h-193v460h-124l-280 -460h-243zM1351 154h193v-506h-193v506z" />
<glyph unicode="&#x498;" horiz-adv-x="1190" d="M122 390l2 6h185q0 -112 97 -189t251 -77q174 0 273 73t99 191q0 130 -90 193.5t-267 63.5h-179v153h179q171 0 253 64.5t82 176.5q0 109 -88.5 180t-261.5 71q-139 0 -233.5 -70t-94.5 -172h-184l-1 5q-6 173 143.5 280.5t369.5 107.5q251 0 397 -105.5t146 -300.5 q0 -99 -66.5 -181t-183.5 -128q132 -41 202 -126.5t70 -207.5q0 -197 -156.5 -308t-408.5 -111q-222 0 -380.5 105t-154.5 306zM497 84h193v-506h-193v506z" />
<glyph unicode="&#x499;" horiz-adv-x="1019" d="M91 308l2 6h183q0 -75 65 -130t167 -55q104 0 162.5 48.5t58.5 121.5q0 85 -50.5 124.5t-158.5 39.5h-184v156h184q102 0 146 39t44 112q0 67 -50 113t-152 46q-92 0 -153.5 -48t-61.5 -117h-183l-2 6q-6 136 111 222t289 86q186 0 291 -80t105 -228q0 -71 -43.5 -130.5 t-120.5 -93.5q89 -32 136 -95t47 -152q0 -149 -114 -233.5t-301 -84.5q-173 0 -297.5 84t-119.5 243zM412 85h193v-506h-193v506z" />
<glyph unicode="&#x49a;" horiz-adv-x="1290" d="M176 0v1427h193v-631h149l511 631h214l3 -5l-554 -685l594 -732l-3 -5h-230l-517 644h-167v-644h-193zM1161 154h193v-506h-193v506z" />
<glyph unicode="&#x49b;" horiz-adv-x="1064" d="M150 0v1060h193v-448h112l350 448h226l3 -5l-416 -502l449 -548l-3 -5h-237l-358 450h-126v-450h-193zM922 154h193v-506h-193v506z" />
<glyph unicode="&#x49c;" horiz-adv-x="1269" d="M160 0v1427h193v-631h96v250h154v-250h74l311 631h224l-390 -675l431 -752h-241l-333 645h-76v-238h-154v238h-96v-645h-193z" />
<glyph unicode="&#x49d;" horiz-adv-x="1105" d="M150 0v1060h193v-448h73v207h154v-207h15l250 448h231l-332 -501l367 -559h-244l-264 450h-23v-187h-154v187h-73v-450h-193z" />
<glyph unicode="&#x49e;" horiz-adv-x="1310" d="M-11 1131v152h207v144h193v-144h228v-152h-228v-335h149l511 631h213l3 -5l-554 -685l594 -732l-3 -5h-230l-516 644h-167v-644h-193v1131h-207z" />
<glyph unicode="&#x49f;" horiz-adv-x="1048" d="M-48 1190v152h209v187h193v-187h226v-152h-226v-547h123l290 417h232l-363 -482l415 -578h-228l-344 489h-125v-489h-193v1190h-209z" />
<glyph unicode="&#x4a0;" horiz-adv-x="1646" d="M66 1275v152h659v-631h149l511 631h213l3 -5l-553 -685l594 -732l-3 -5h-231l-516 644h-167v-644h-193v1275h-466z" />
<glyph unicode="&#x4a1;" horiz-adv-x="1393" d="M64 907v153h598v-448h111l350 448h226l3 -5l-415 -502l449 -548l-3 -5h-237l-358 450h-126v-450h-194v907h-404z" />
<glyph unicode="&#x4a2;" horiz-adv-x="1431" d="M176 0v1427h193v-645h693v645h193v-1427h-193v630h-693v-630h-193zM1204 154h193v-506h-193v506z" />
<glyph unicode="&#x4a3;" d="M140 0v1060h193v-458h473v458h193v-1060h-193v451h-473v-451h-193zM948 154h193v-506h-193v506z" />
<glyph unicode="&#x4a4;" horiz-adv-x="1948" d="M176 0v1427h193v-645h693v645h814v-152h-621v-1275h-193v630h-693v-630h-193z" />
<glyph unicode="&#x4a5;" horiz-adv-x="1426" d="M140 0v1060h193v-458h473v458h547v-153h-354v-907h-193v451h-473v-451h-193z" />
<glyph unicode="&#x4a6;" horiz-adv-x="2057" d="M176 0v1427h1081v-611h112q278 0 433 -150.5t155 -415.5q0 -258 -119 -395t-342 -133l-5 2l-2 139q148 0 211.5 100t63.5 287q-2 198 -100 301.5t-295 103.5h-112v-655h-194v1275h-694v-1275h-193z" />
<glyph unicode="&#x4a7;" horiz-adv-x="1750" d="M140 0v1060h860v-426h164q231 0 376 -126t145 -341q-2 -136 -97 -273.5t-282 -171.5l-51 146q127 33 182 110t55 189q-2 145 -91.5 225t-236.5 80h-164v-472h-193v907h-474v-907h-193z" />
<glyph unicode="&#x4a8;" horiz-adv-x="1487" d="M111 663v163q0 266 123.5 442.5t316.5 171.5l6 -2v-149q-117 0 -185 -130t-68 -331v-165q0 -230 111 -378t298 -148q34 0 64.5 3t59.5 10q-120 96 -184 233t-64 301v222q0 232 112 385.5t292 153.5q178 0 290 -150.5t112 -388.5v-243q0 -153 -55.5 -284.5t-155.5 -224.5 q50 -14 105.5 -20.5t116.5 -6.5v-156q-107 0 -204.5 18t-183.5 54q-68 -31 -144.5 -47.5t-160.5 -16.5q-267 0 -434.5 195t-167.5 489zM782 682q0 -150 57.5 -265t165.5 -182h6q91 66 140.5 178t49.5 250v246q0 169 -56 274t-152 105t-153.5 -108t-57.5 -271v-227z" />
<glyph unicode="&#x4a9;" horiz-adv-x="1214" d="M106 559v55q0 201 95.5 332t244.5 126l6 -2v-148q-71 0 -112 -85.5t-41 -220.5v-57q0 -185 78.5 -303.5t211.5 -118.5q22 0 43 2.5t41 8.5q-91 77 -139 183t-48 231v100q0 186 85 302.5t228 116.5q142 0 228 -124.5t86 -314.5v-103q0 -109 -32 -204.5t-91 -168.5 q37 -11 80 -16t91 -5v-157q-88 0 -167 14t-147 42q-58 -32 -122.5 -48.5t-135.5 -16.5q-214 0 -348.5 165.5t-134.5 414.5zM679 560q0 -100 37 -179.5t105 -129.5l6 1q44 48 68.5 123t24.5 164v106q0 120 -32 198.5t-86 73.5h-6q-56 5 -86.5 -65t-30.5 -188v-104z" />
<glyph unicode="&#x4aa;" horiz-adv-x="1271" d="M116 586v254q0 263 152 435t394 172q243 0 386 -128.5t139 -341.5l-2 -6h-185q0 150 -88.5 237.5t-249.5 87.5t-257 -130.5t-96 -323.5v-256q0 -195 96 -325.5t257 -130.5t249.5 87t88.5 240h185l2 -6q4 -201 -141 -336.5t-384 -135.5q-242 0 -394 171.5t-152 435.5z M569 84h193v-506h-193v506z" />
<glyph unicode="&#x4ab;" horiz-adv-x="1065" d="M95 510v41q0 226 123 377.5t353 151.5q187 0 305 -110t114 -269l-2 -6h-175q0 97 -68.5 165t-173.5 68q-152 0 -217 -109t-65 -268v-41q0 -163 64.5 -271.5t217.5 -108.5q96 0 169 59.5t73 145.5h174l2 -6q5 -137 -122 -243.5t-296 -106.5q-231 0 -353.5 151t-122.5 380z M431 84h193v-506h-193v506z" />
<glyph unicode="&#x4ac;" horiz-adv-x="1176" d="M33 1275v152h1110v-152h-459v-1275h-193v1275h-458zM633 154h193v-506h-193v506z" />
<glyph unicode="&#x4ad;" horiz-adv-x="1027" d="M70 910v150h887v-150h-349v-910h-193v910h-345zM557 154h193v-506h-193v506z" />
<glyph unicode="&#x4ae;" horiz-adv-x="1225" d="M20 1427h220l372 -725l373 725h220l-500 -925v-502h-192v514z" />
<glyph unicode="&#x4af;" horiz-adv-x="1010" d="M45 1060h198l251 -747l17 -75h5l19 75l244 747h197l-367 -999v-470h-193v475z" />
<glyph unicode="&#x4b0;" horiz-adv-x="1225" d="M20 1427h220l372 -725l373 725h220l-410 -759h117v-152h-200l-7 -14v-502h-192v514l-1 2h-228v152h145z" />
<glyph unicode="&#x4b1;" horiz-adv-x="1010" d="M45 1060h198l251 -747l17 -75h5l19 75l244 747h197l-339 -921h195v-152h-223v-396h-193v396h-212v152h184z" />
<glyph unicode="&#x4b2;" horiz-adv-x="1269" d="M65 0l462 719l-453 708h232l331 -557l333 557h233l-452 -708l462 -719h-230l-342 566l-343 -566h-233zM1046 154h193v-506h-193v506z" />
<glyph unicode="&#x4b3;" horiz-adv-x="1009" d="M45 0l354 536l-344 524h222l223 -391l225 391h226l-344 -524l353 -536h-221l-235 401l-235 -401h-224zM821 154h193v-506h-193v506z" />
<glyph unicode="&#x4b4;" horiz-adv-x="1810" d="M54 1273v152h935v-152h-407v-1121h694v1275h193v-1269h189v-506h-193v348h-1077v1273h-334z" />
<glyph unicode="&#x4b5;" horiz-adv-x="1398" d="M31 909v152h694v-152h-238v-758h473v909h193v-909h130v-498h-193v347h-796v909h-263z" />
<glyph unicode="&#x4b6;" horiz-adv-x="1380" d="M144 976v451h194v-451q0 -162 67.5 -224t217.5 -62q102 0 196 13.5t191 40.5v683h193v-1427h-193v591q-93 -28 -180 -41t-207 -13q-236 0 -357.5 103.5t-121.5 335.5zM1152 154h193v-506h-193v506z" />
<glyph unicode="&#x4b7;" horiz-adv-x="1108" d="M124 750v311h194v-311q0 -128 54.5 -187.5t162.5 -59.5q65 0 123.5 7t116.5 22v528h193v-1060h-193v379q-56 -14 -114.5 -21.5t-125.5 -7.5q-192 0 -301.5 101t-109.5 299zM917 154h193v-506h-193v506z" />
<glyph unicode="&#x4b8;" horiz-adv-x="1370" d="M144 976v451h194v-451q0 -162 67.5 -224t217.5 -62h4v307h155v-298q19 2 37 5q94 13 191 40v683h193v-1427h-193v591q-93 -28 -180 -41q-23 -4 -48 -7v-233h-155v227h-4q-236 0 -357.5 103.5t-121.5 335.5z" />
<glyph unicode="&#x4b9;" horiz-adv-x="1109" d="M124 750v311h194v-311q0 -128 54 -187q40 -44 107 -56v272h155v-272l25 3q58 7 116 22v528h193v-1060h-193v379q-56 -14 -114 -22q-13 -1 -27 -3v-130h-155v128q-153 13 -246 99q-109 101 -109 299z" />
<glyph unicode="&#x4ba;" horiz-adv-x="1370" d="M135 0v1427h193v-591q94 26 181 40t206 14q236 0 358 -104t122 -335v-451h-194v451q0 161 -68.5 223.5t-217.5 62.5q-103 0 -197 -14t-190 -41v-682h-193z" />
<glyph unicode="&#x4bb;" horiz-adv-x="1109" d="M145 2v1060h193v-379q56 14 114.5 21.5t125.5 7.5q192 0 301.5 -101t109.5 -299v-311h-194v311q0 128 -54.5 187.5t-162.5 59.5q-65 0 -123.5 -7t-116.5 -22v-528h-193z" />
<glyph unicode="&#x4bc;" horiz-adv-x="1704" d="M79 1055l2 5h148q0 -91 41 -152t124 -79q26 273 191.5 445t393.5 172q277 0 423 -174t146 -479v-106h-958l-2 -5q-5 -244 116 -399t369 -155q105 0 180.5 22.5t148.5 60.5l47 -137q-49 -35 -143 -66t-233 -31q-323 0 -503 195t-180 515v6q-155 19 -235 115.5t-76 246.5z M591 824l3 -5h761v31q0 202 -88.5 323t-287.5 121q-168 0 -270.5 -132.5t-117.5 -337.5z" />
<glyph unicode="&#x4bd;" horiz-adv-x="1190" d="M-32 850h154q0 -68 22 -116t69 -72q32 185 158.5 301.5t286.5 116.5q214 0 324 -129.5t110 -344.5v-121h-688l-3 -5q3 -153 77.5 -251.5t208.5 -98.5q98 0 172 28t128 77l75 -125q-57 -56 -150 -93.5t-225 -37.5q-221 0 -352 147.5t-131 383.5v7q-117 29 -176.5 114.5 t-59.5 218.5zM408 641l2 -5h489v26q0 113 -61 189.5t-180 76.5q-97 0 -166 -82t-84 -205z" />
<glyph unicode="&#x4be;" horiz-adv-x="1558" d="M79 1055l2 5h148q0 -91 41 -152t124 -79q26 273 191.5 445t393.5 172q277 0 423 -174t146 -479v-106h-958l-2 -5q-5 -244 116 -399t369 -155q105 0 180.5 22.5t148.5 60.5l47 -137q-49 -35 -143 -66t-233 -31q-323 0 -503 195t-180 515v6q-155 19 -235 115.5t-76 246.5z M591 824l3 -5h761v31q0 202 -88.5 323t-287.5 121q-168 0 -270.5 -132.5t-117.5 -337.5zM861 89h193v-506h-193v506z" />
<glyph unicode="&#x4bf;" horiz-adv-x="1190" d="M-32 850h154q0 -68 22 -116t69 -72q32 185 158.5 301.5t286.5 116.5q214 0 324 -129.5t110 -344.5v-121h-688l-3 -5q3 -153 77.5 -251.5t208.5 -98.5q98 0 172 28t128 77l75 -125q-57 -56 -150 -93.5t-225 -37.5q-221 0 -352 147.5t-131 383.5v7q-117 29 -176.5 114.5 t-59.5 218.5zM408 641l2 -5h489v26q0 113 -61 189.5t-180 76.5q-97 0 -166 -82t-84 -205zM600 91h193v-506h-193v506z" />
<glyph unicode="&#x4c0;" horiz-adv-x="567" d="M186 0v1427h194v-1427h-194z" />
<glyph unicode="&#x4c1;" horiz-adv-x="1831" d="M27 0l478 755l-437 672h225l370 -620h161v620h193v-620h153l371 620h225l-438 -671l477 -756h-240l-398 655h-150v-655h-193v655h-159l-396 -655h-242zM631 1827l2 6h148q0 -65 33.5 -105t105.5 -40q71 0 105.5 40.5t34.5 104.5h148l2 -6q3 -114 -76 -185.5t-214 -71.5 t-214.5 71.5t-74.5 185.5z" />
<glyph unicode="&#x4c2;" horiz-adv-x="1536" d="M21 0l378 562l-345 498h233l261 -437h120v437h193v-437h121l262 437h233l-346 -498l378 -562h-243l-281 460h-124v-460h-193v460h-124l-280 -460h-243zM480 1491l2 6h148q0 -65 33.5 -105t105.5 -40q71 0 105.5 40.5t34.5 104.5h148l2 -6q3 -114 -76 -185.5t-214 -71.5 t-214.5 71.5t-74.5 185.5z" />
<glyph unicode="&#x4c3;" horiz-adv-x="1269" d="M160 0v1427h193v-614h125l510 614h217l2 -5l-512 -613q241 -22 373 -169.5t132 -392.5q0 -258 -119 -395t-341 -133l-6 2l-2 139q148 0 211.5 100t63.5 287q-2 198 -100 301t-295 103h-259v-651h-193z" />
<glyph unicode="&#x4c4;" horiz-adv-x="1097" d="M150 0v1060h193v-448h82l380 448h226l2 -5l-397 -454q180 -30 285.5 -138.5t105.5 -290.5q-2 -130 -97 -261t-281 -164l-50 147q125 32 180.5 103t55.5 175q-2 142 -89 210t-238 68h-165v-450h-193z" />
<glyph unicode="&#x4c5;" horiz-adv-x="1421" d="M48 0v151h40q135 0 195 139.5t61 464.5l1 672h901v-1427h-193v1275h-516l-1 -520q0 -392 -101 -573.5t-335 -181.5h-52zM1145 -290l69 310v160h193v-170l-147 -300h-115z" />
<glyph unicode="&#x4c6;" horiz-adv-x="1110" d="M25 0l4 165l41 1q102 0 143 100.5t41 341.5v452h746v-1060h-193v907h-359v-299q0 -314 -83.5 -461t-284.5 -147h-55zM899 -290l69 310v160h193v-170l-147 -300h-115z" />
<glyph unicode="&#x4c7;" horiz-adv-x="1431" d="M176 0v1427h193v-645h692v645h194v-1514q0 -164 -84.5 -252.5t-235.5 -88.5q-30 0 -56 4.5t-54 12.5l14 147q13 -5 46 -8.5t50 -3.5q60 0 93 50.5t33 138.5v717h-692v-630h-193z" />
<glyph unicode="&#x4c8;" d="M140 0v1060h193v-458h473v458h193v-1147q0 -164 -85 -252.5t-235 -88.5q-30 0 -56 4.5t-54 12.5l15 147q13 -5 45.5 -8.5t49.5 -3.5q59 0 93 50.5t34 138.5v538h-473v-451h-193z" />
<glyph unicode="&#x4c9;" horiz-adv-x="1431" d="M176 0v1427h193v-645h693v645h193v-1427h-193v630h-693v-630h-193zM1154 -290l69 310v160h193v-170l-147 -300h-115z" />
<glyph unicode="&#x4ca;" d="M140 0v1060h193v-458h473v458h193v-1060h-193v451h-473v-451h-193zM898 -290l69 310v160h193v-170l-147 -300h-115z" />
<glyph unicode="&#x4cb;" horiz-adv-x="1380" d="M144 976v451h194v-451q0 -162 67.5 -224t217.5 -62q102 0 196 13.5t191 40.5v683h193v-1427h-193v591q-93 -28 -180 -41t-207 -13q-236 0 -357.5 103.5t-121.5 335.5zM867 154h193v-506h-193v506z" />
<glyph unicode="&#x4cc;" horiz-adv-x="1108" d="M124 750v311h194v-311q0 -128 54.5 -187.5t162.5 -59.5q65 0 123.5 7t116.5 22v528h193v-1060h-193v379q-56 -14 -114.5 -21.5t-125.5 -7.5q-192 0 -301.5 101t-109.5 299zM631 154h193v-506h-193v506z" />
<glyph unicode="&#x4cd;" horiz-adv-x="1763" d="M176 0v1427h247l455 -1159h6l455 1159h247v-1427h-193v564l19 581l-5 1l-462 -1146h-129l-460 1143l-5 -1l18 -578v-564h-193zM1485 -290l69 310v160h193v-170l-147 -300h-115z" />
<glyph unicode="&#x4ce;" horiz-adv-x="1497" d="M150 0v1060h249l345 -807h6l347 807h241v-1060h-193v736l-6 2l-326 -738h-133l-331 755l-6 -2v-753h-193zM1237 -290l69 310v160h193v-170l-147 -300h-115z" />
<glyph unicode="&#x4cf;" horiz-adv-x="567" d="M186 0v1427h194v-1427h-194z" />
<glyph unicode="&#x4d0;" horiz-adv-x="1299" d="M20 0l551 1427h166l543 -1427h-197l-133 368h-598l-135 -368h-197zM361 1827l2 6h148q0 -65 33.5 -105t105.5 -40q71 0 105.5 40.5t34.5 104.5h148l2 -6q3 -114 -76 -185.5t-214 -71.5t-214.5 71.5t-74.5 185.5zM412 529h480l-235 650h-6z" />
<glyph unicode="&#x4d1;" horiz-adv-x="1103" d="M104 298q0 152 123 237.5t334 85.5h209v105q0 93 -56.5 147.5t-160.5 54.5q-93 0 -151.5 -47.5t-58.5 -114.5h-184l-2 6q-6 116 109 212t298 96q180 0 289.5 -91.5t109.5 -264.5v-510q0 -57 6 -110t22 -104h-199q-10 48 -15.5 85t-6.5 74q-54 -77 -140.5 -128.5 t-186.5 -51.5q-166 0 -252.5 85t-86.5 234zM255 1511l2 6h148q0 -65 33.5 -105t105.5 -40q71 0 105.5 40.5t34.5 104.5h148l2 -6q3 -114 -76 -185.5t-214 -71.5t-214.5 71.5t-74.5 185.5zM297 294q0 -71 44 -112t130 -41q105 0 189.5 54t109.5 123v173h-216q-117 0 -187 -59 t-70 -138z" />
<glyph unicode="&#x4d2;" horiz-adv-x="1299" d="M20 0l551 1427h166l543 -1427h-197l-133 368h-598l-135 -368h-197zM313 1573v196h214v-196h-214zM412 529h480l-235 650h-6zM773 1573v196h215v-196h-215z" />
<glyph unicode="&#x4d3;" horiz-adv-x="1103" d="M104 298q0 152 123 237.5t334 85.5h209v105q0 93 -56.5 147.5t-160.5 54.5q-93 0 -151.5 -47.5t-58.5 -114.5h-184l-2 6q-6 116 109 212t298 96q180 0 289.5 -91.5t109.5 -264.5v-510q0 -57 6 -110t22 -104h-199q-10 48 -15.5 85t-6.5 74q-54 -77 -140.5 -128.5 t-186.5 -51.5q-166 0 -252.5 85t-86.5 234zM207 1257v196h214v-196h-214zM297 294q0 -71 44 -112t130 -41q105 0 189.5 54t109.5 123v173h-216q-117 0 -187 -59t-70 -138zM667 1257v196h215v-196h-215z" />
<glyph unicode="&#x4d4;" horiz-adv-x="1883" d="M-20 0l863 1427h947v-152h-677l20 -457h578v-152h-572l21 -515h691v-151h-877l-15 343h-545l-198 -343h-236zM514 518h439l-31 696l-5 2z" />
<glyph unicode="&#x4d5;" horiz-adv-x="1694" d="M57 298q0 155 112.5 239.5t328.5 84.5h224v84q0 103 -50.5 162.5t-146.5 59.5q-101 0 -160.5 -54t-59.5 -130l-184 17l-2 6q-5 136 107 224.5t299 88.5q112 0 197.5 -39.5t135.5 -115.5q62 74 148 114.5t185 40.5q209 0 322.5 -127.5t113.5 -350.5v-117h-695l-2 -5 q1 -156 78 -253t229 -97q101 0 166 27t141 77l66 -135q-52 -43 -144 -81.5t-229 -38.5q-134 0 -235.5 47.5t-166.5 136.5q-55 -78 -164 -131t-266 -53q-167 0 -257.5 85.5t-90.5 233.5zM250 294q0 -73 49 -118.5t144 -45.5q74 0 155.5 43t123.5 98v212h-222q-118 0 -184 -55 t-66 -134zM934 632l2 -5h498v31q0 119 -59 194.5t-184 75.5q-111 0 -178.5 -83t-78.5 -213z" />
<glyph unicode="&#x4d6;" horiz-adv-x="1173" d="M176 0v1427h936v-152h-743v-462h654v-151h-654v-511h754v-151h-947zM327 1827l2 6h148q0 -65 33.5 -105t105.5 -40q71 0 105.5 40.5t34.5 104.5h148l2 -6q3 -114 -76 -185.5t-214 -71.5t-214.5 71.5t-74.5 185.5z" />
<glyph unicode="&#x4d7;" horiz-adv-x="1061" d="M97 510v43q0 226 135 376.5t319 150.5q214 0 324 -129.5t110 -344.5v-121h-688l-3 -5q3 -153 77.5 -251.5t208.5 -98.5q98 0 172 28t128 77l76 -125q-57 -56 -150.5 -93.5t-225.5 -37.5q-221 0 -352 147.5t-131 383.5zM258 1512l2 6h148q0 -65 33.5 -105t105.5 -40 q71 0 105.5 40.5t34.5 104.5h148l2 -6q3 -114 -76 -185.5t-214 -71.5t-214.5 71.5t-74.5 185.5zM301 641l2 -5h489v26q0 113 -61 189.5t-180 76.5q-97 0 -165.5 -82t-84.5 -205z" />
<glyph unicode="&#x4d8;" horiz-adv-x="1396" d="M87 631v106h1000l2 5q4 243 -118 398.5t-369 155.5q-106 0 -181 -23t-148 -60l-48 136q49 35 143 66.5t234 31.5q323 0 504 -195.5t181 -514.5v-48q0 -310 -171.5 -510t-418.5 -200q-298 0 -454 173t-156 479zM280 574q0 -203 97.5 -323.5t319.5 -120.5q166 0 269 132 t120 338l-3 5h-803v-31z" />
<glyph unicode="&#x4d9;" horiz-adv-x="1068" d="M113 454v121h688l3 5q-3 153 -77.5 251.5t-208.5 98.5q-98 0 -172 -28t-128 -77l-76 125q57 56 150.5 93.5t225.5 37.5q221 0 352 -147.5t131 -383.5v-43q0 -226 -135 -376.5t-319 -150.5q-214 0 -324 129.5t-110 344.5zM306 398q0 -113 61 -189.5t180 -76.5 q97 0 165.5 82t84.5 205l-2 5h-489v-26z" />
<glyph unicode="&#x4da;" horiz-adv-x="1396" d="M87 631v106h1000l2 5q4 243 -118 398.5t-369 155.5q-106 0 -181 -23t-148 -60l-48 136q49 35 143 66.5t234 31.5q323 0 504 -195.5t181 -514.5v-48q0 -310 -171.5 -510t-418.5 -200q-298 0 -454 173t-156 479zM280 574q0 -203 97.5 -323.5t319.5 -120.5q166 0 269 132 t120 338l-3 5h-803v-31zM280 1528v196h214v-196h-214zM740 1528v196h215v-196h-215z" />
<glyph unicode="&#x4db;" horiz-adv-x="1068" d="M113 454v121h688l3 5q-3 153 -77.5 251.5t-208.5 98.5q-98 0 -172 -28t-128 -77l-76 125q57 56 150.5 93.5t225.5 37.5q221 0 352 -147.5t131 -383.5v-43q0 -226 -135 -376.5t-319 -150.5q-214 0 -324 129.5t-110 344.5zM220 1257v196h214v-196h-214zM306 398 q0 -113 61 -189.5t180 -76.5q97 0 165.5 82t84.5 205l-2 5h-489v-26zM680 1257v196h215v-196h-215z" />
<glyph unicode="&#x4dc;" horiz-adv-x="1653" d="M27 0l478 755l-437 672h225l370 -620h161v620h193v-620h153l371 620h225l-438 -671l477 -756h-240l-398 655h-150v-655h-193v655h-159l-396 -655h-242zM587 1573v196h214v-196h-214zM1047 1573v196h215v-196h-215z" />
<glyph unicode="&#x4dd;" horiz-adv-x="1443" d="M21 0l378 562l-345 498h233l261 -437h120v437h193v-437h121l262 437h233l-346 -498l378 -562h-243l-281 460h-124v-460h-193v460h-124l-280 -460h-243zM385 1237v196h214v-196h-214zM845 1237v196h215v-196h-215z" />
<glyph unicode="&#x4de;" horiz-adv-x="1357" d="M122 390l2 6h185q0 -112 97 -189t251 -77q174 0 273 73t99 191q0 130 -90 193.5t-267 63.5h-179v153h179q171 0 253 64.5t82 176.5q0 109 -88.5 180t-261.5 71q-139 0 -233.5 -70t-94.5 -172h-184l-1 5q-6 173 143.5 280.5t369.5 107.5q251 0 397 -105.5t146 -300.5 q0 -99 -66.5 -181t-183.5 -128q132 -41 202 -126.5t70 -207.5q0 -197 -156.5 -308t-408.5 -111q-222 0 -380.5 105t-154.5 306zM333 1594v196h214v-196h-214zM793 1594v196h215v-196h-215z" />
<glyph unicode="&#x4df;" horiz-adv-x="1080" d="M91 308l2 6h183q0 -75 65 -130t167 -55q104 0 162.5 48.5t58.5 121.5q0 85 -50.5 124.5t-158.5 39.5h-184v156h184q102 0 146 39t44 112q0 67 -50 113t-152 46q-92 0 -153.5 -48t-61.5 -117h-183l-2 6q-6 136 111 222t289 86q186 0 291 -80t105 -228q0 -71 -43.5 -130.5 t-120.5 -93.5q89 -32 136 -95t47 -152q0 -149 -114 -233.5t-301 -84.5q-173 0 -297.5 84t-119.5 243zM203 1256v196h214v-196h-214zM663 1256v196h215v-196h-215z" />
<glyph unicode="&#x4e0;" horiz-adv-x="1170" d="M108 390l2 6h185q0 -112 74.5 -189t193.5 -77q136 0 214 73t78 191q0 150 -79 220t-236 70h-143v151l368 435l-2 5h-618v152h852l1 -118l-401 -481q214 -13 332.5 -124t118.5 -306q0 -196 -134.5 -307.5t-350.5 -111.5q-189 0 -324.5 105t-130.5 306z" />
<glyph unicode="&#x4e1;" horiz-adv-x="1170" d="M108 23l2 5h185q0 -109 74.5 -186t193.5 -77q136 0 214 73t78 188q0 151 -79.5 221t-236.5 70h-144v150l350 436l-3 4h-597v153h852l1 -117l-388 -483q209 -16 323.5 -127t114.5 -303q0 -194 -135 -305.5t-350 -111.5q-188 0 -324 105.5t-131 304.5z" />
<glyph unicode="&#x4e2;" horiz-adv-x="1431" d="M176 0v1427h193v-1087l6 -2l687 1089h193v-1427h-193v1088l-6 2l-687 -1090h-193zM371 1607v143h706v-143h-706z" />
<glyph unicode="&#x4e3;" d="M140 0v1060h192v-752l6 -2l469 754h193v-1060h-193v753l-6 2l-469 -755h-192zM222 1273v143h706v-143h-706z" />
<glyph unicode="&#x4e4;" horiz-adv-x="1431" d="M176 0v1427h193v-1087l6 -2l687 1089h193v-1427h-193v1088l-6 2l-687 -1090h-193zM382 1573v196h214v-196h-214zM842 1573v196h215v-196h-215z" />
<glyph unicode="&#x4e5;" d="M140 0v1060h192v-752l6 -2l469 754h193v-1060h-193v753l-6 2l-469 -755h-192zM233 1237v196h214v-196h-214zM693 1237v196h215v-196h-215z" />
<glyph unicode="&#x4e6;" horiz-adv-x="1368" d="M111 586v254q0 261 156 434t406 173q259 0 421 -172.5t162 -434.5v-254q0 -262 -162 -434.5t-421 -172.5q-250 0 -406 172.5t-156 434.5zM304 586q0 -198 100.5 -323.5t268.5 -125.5q180 0 285 125t105 324v256q0 196 -105.5 321.5t-284.5 125.5q-168 0 -268.5 -125.5 t-100.5 -321.5v-256zM347 1594v196h214v-196h-214zM807 1594v196h215v-196h-215z" />
<glyph unicode="&#x4e7;" d="M95 518v22q0 235 127.5 387.5t345.5 152.5q221 0 349 -152t128 -388v-22q0 -237 -127.5 -388t-347.5 -151q-219 0 -347 151.5t-128 387.5zM234 1257v196h214v-196h-214zM288 518q0 -168 71 -278t211 -110q139 0 210.5 110t71.5 278v22q0 167 -72 277.5t-212 110.5 q-138 0 -209 -110.5t-71 -277.5v-22zM694 1257v196h215v-196h-215z" />
<glyph unicode="&#x4e8;" horiz-adv-x="1368" d="M111 586v254q0 261 156 434t406 173q259 0 421 -172.5t162 -434.5v-254q0 -262 -162 -434.5t-421 -172.5q-250 0 -406 172.5t-156 434.5zM304 586q0 -198 100.5 -323.5t268.5 -125.5q180 0 285 125t105 324v42h-759v-42zM304 780h759v62q0 196 -105.5 321.5t-284.5 125.5 q-168 0 -268.5 -125.5t-100.5 -321.5v-62z" />
<glyph unicode="&#x4e9;" horiz-adv-x="1141" d="M95 518v22q0 235 127.5 387.5t345.5 152.5q221 0 349 -152t128 -388v-22q0 -237 -127.5 -388t-347.5 -151q-219 0 -347 151.5t-128 387.5zM295 455q8 -143 78 -234t197 -91q126 0 196 91t78 234l-2 5h-545zM296 616l2 -4h543l2 4q-11 136 -81.5 224t-193.5 88 q-122 0 -191.5 -87.5t-80.5 -224.5z" />
<glyph unicode="&#x4ea;" horiz-adv-x="1368" d="M111 586v254q0 261 156 434t406 173q259 0 421 -172.5t162 -434.5v-254q0 -262 -162 -434.5t-421 -172.5q-250 0 -406 172.5t-156 434.5zM304 586q0 -198 100.5 -323.5t268.5 -125.5q180 0 285 125t105 324v42h-759v-42zM304 780h759v62q0 196 -105.5 321.5t-284.5 125.5 q-168 0 -268.5 -125.5t-100.5 -321.5v-62zM369 1568v196h214v-196h-214zM829 1568v196h215v-196h-215z" />
<glyph unicode="&#x4eb;" horiz-adv-x="1141" d="M95 518v22q0 235 127.5 387.5t345.5 152.5q221 0 349 -152t128 -388v-22q0 -237 -127.5 -388t-347.5 -151q-219 0 -347 151.5t-128 387.5zM211 1285v196h214v-196h-214zM295 455q8 -143 78 -234t197 -91q126 0 196 91t78 234l-2 5h-545zM296 616l2 -4h543l2 4 q-11 136 -81.5 224t-193.5 88q-122 0 -191.5 -87.5t-80.5 -224.5zM671 1285v196h215v-196h-215z" />
<glyph unicode="&#x4ec;" horiz-adv-x="1357" d="M182 450l2 6h185q0 -151 87.5 -238t249.5 -87q160 0 256.5 130t96.5 324v79h-562v152h562v25q0 194 -96.5 325t-256.5 131q-162 0 -249.5 -87.5t-87.5 -239.5h-185l-2 6q-5 199 140.5 335.5t383.5 136.5q242 0 394.5 -172t152.5 -435v-254q0 -265 -152.5 -436 t-394.5 -171t-385.5 128t-138.5 342zM341 1595v196h214v-196h-214zM801 1595v196h215v-196h-215z" />
<glyph unicode="&#x4ed;" horiz-adv-x="1079" d="M102 358l2 6h175q0 -97 66.5 -165.5t164.5 -68.5q123 0 190.5 96t75.5 234l-3 5h-377v150h375l2 5q-10 129 -77 218.5t-186 89.5q-91 0 -161 -60t-70 -145h-174l-2 6q-6 136 119 243.5t288 107.5q215 0 340 -153.5t125 -375.5v-41q0 -224 -125.5 -377.5t-339.5 -153.5 q-180 0 -296.5 109.5t-111.5 269.5zM199 1257v196h214v-196h-214zM659 1257v196h215v-196h-215z" />
<glyph unicode="&#x4ee;" horiz-adv-x="1261" d="M83 1427h217l276 -667l72 -185h6l321 852h225l-499 -1193q-58 -128 -126 -191.5t-217 -63.5q-25 0 -57.5 3t-41.5 6l5 146q9 -2 42 -3t50 -1q69 0 99 35.5t67 113.5l40 83zM286 1607v143h706v-143h-706z" />
<glyph unicode="&#x4ef;" horiz-adv-x="1009" d="M25 1060h216l224 -667l34 -133h6l260 800h215l-446 -1223q-40 -107 -115 -186t-202 -79q-24 0 -60 5.5t-56 9.5l20 152q-6 1 34.5 -2t51.5 -3q62 0 101 55t65 122l46 111zM156 1273v143h706v-143h-706z" />
<glyph unicode="&#x4f0;" horiz-adv-x="1261" d="M83 1427h217l276 -667l72 -185h6l321 852h225l-499 -1193q-58 -128 -126 -191.5t-217 -63.5q-25 0 -57.5 3t-41.5 6l5 146q9 -2 42 -3t50 -1q69 0 99 35.5t67 113.5l40 83zM296 1573v196h214v-196h-214zM756 1573v196h215v-196h-215z" />
<glyph unicode="&#x4f1;" horiz-adv-x="1009" d="M25 1060h216l224 -667l34 -133h6l260 800h215l-446 -1223q-40 -107 -115 -186t-202 -79q-24 0 -60 5.5t-56 9.5l20 152q-6 1 34.5 -2t51.5 -3q62 0 101 55t65 122l46 111zM167 1237v196h214v-196h-214zM627 1237v196h215v-196h-215z" />
<glyph unicode="&#x4f2;" horiz-adv-x="1261" d="M83 1427h217l276 -667l72 -185h6l321 852h225l-499 -1193q-58 -128 -126 -191.5t-217 -63.5q-25 0 -57.5 3t-41.5 6l5 146q9 -2 42 -3t50 -1q69 0 99 35.5t67 113.5l40 83zM402 1569l180 261h207l2 -5l-235 -256h-154zM666 1574l236 256h224l3 -6l-294 -255h-167z" />
<glyph unicode="&#x4f3;" horiz-adv-x="1009" d="M25 1060h216l224 -667l34 -133h6l260 800h215l-446 -1223q-40 -107 -115 -186t-202 -79q-24 0 -60 5.5t-56 9.5l20 152q-6 1 34.5 -2t51.5 -3q62 0 101 55t65 122l46 111zM272 1233l180 261h207l2 -5l-235 -256h-154zM536 1238l236 256h224l3 -6l-294 -255h-167z" />
<glyph unicode="&#x4f4;" horiz-adv-x="1380" d="M144 976v451h194v-451q0 -162 67.5 -224t217.5 -62q102 0 196 13.5t191 40.5v683h193v-1427h-193v591q-93 -28 -180 -41t-207 -13q-236 0 -357.5 103.5t-121.5 335.5zM338 1573v196h214v-196h-214zM798 1573v196h215v-196h-215z" />
<glyph unicode="&#x4f5;" horiz-adv-x="1108" d="M124 750v311h194v-311q0 -128 54.5 -187.5t162.5 -59.5q65 0 123.5 7t116.5 22v528h193v-1060h-193v379q-56 -14 -114.5 -21.5t-125.5 -7.5q-192 0 -301.5 101t-109.5 299zM204 1237v196h214v-196h-214zM664 1237v196h215v-196h-215z" />
<glyph unicode="&#x4f6;" horiz-adv-x="1117" d="M176 0v1427h876v-152h-683v-1275h-193zM318 154h193v-506h-193v506z" />
<glyph unicode="&#x4f7;" horiz-adv-x="832" d="M140 0v1060h674v-153h-481v-907h-193zM250 154h193v-506h-193v506z" />
<glyph unicode="&#x4f8;" horiz-adv-x="1746" d="M177 0v1427h193v-584h352q229 0 355.5 -113t126.5 -305t-127 -308.5t-355 -116.5h-545zM370 151h352q145 0 217 78.5t72 197.5q0 116 -72 190t-217 74h-352v-540zM537 1573v196h214v-196h-214zM997 1573v196h215v-196h-215zM1377 0v1427h194v-1427h-194z" />
<glyph unicode="&#x4f9;" horiz-adv-x="1584" d="M170 0v1060h193v-403h264q188 0 292.5 -90.5t104.5 -234.5q0 -145 -105.5 -238.5t-291.5 -93.5h-457zM363 151h264q103 0 152.5 50t49.5 124q0 73 -49.5 127t-152.5 54h-264v-355zM451 1237v196h214v-196h-214zM911 1237v196h215v-196h-215zM1210 0v1060h193v-1060h-193z " />
<glyph unicode="&#x4fa;" horiz-adv-x="1190" d="M64 697v152h628v-152h-628zM192 -411l14 157q14 -5 45 -8.5t50 -3.5q59 0 92.5 46.5t33.5 132.5v238h193v-238q0 -164 -84.5 -252.5t-234.5 -88.5q-30 0 -55 4.5t-54 12.5zM250 0v1427h876v-152h-683v-1275h-193z" />
<glyph unicode="&#x4fb;" horiz-adv-x="824" d="M65 526v152h628v-152h-628zM176 -411l14 157q14 -5 45 -8.5t50 -3.5q59 0 92.5 46.5t33.5 132.5v238h193v-238q0 -164 -84.5 -252.5t-234.5 -88.5q-30 0 -55 4.5t-54 12.5zM236 0v1060h674v-153h-481v-907h-193z" />
<glyph unicode="&#x4fc;" horiz-adv-x="1269" d="M65 0l462 719l-453 708h232l331 -557l333 557h233l-452 -708l462 -719h-230l-342 566l-343 -566h-233zM861 -411l14 157q14 -5 45 -8.5t50 -3.5q59 0 92.5 46.5t33.5 132.5v238h193v-238q0 -164 -84.5 -252.5t-234.5 -88.5q-30 0 -55 4.5t-54 12.5z" />
<glyph unicode="&#x4fd;" horiz-adv-x="1009" d="M45 0l354 536l-344 524h222l223 -391l225 391h226l-344 -524l353 -536h-221l-235 401l-235 -401h-224zM637 -411l14 157q14 -5 45 -8.5t50 -3.5q59 0 92.5 46.5t33.5 132.5v238h193v-238q0 -164 -84.5 -252.5t-234.5 -88.5q-30 0 -55 4.5t-54 12.5z" />
<glyph unicode="&#x4fe;" horiz-adv-x="1269" d="M65 0l420 654h-152v152h138l-397 621h232l331 -557l333 557h233l-397 -621h155v-152h-168l420 -654h-230l-342 566l-343 -566h-233z" />
<glyph unicode="&#x4ff;" horiz-adv-x="1009" d="M45 0l309 468h-175v152h164l-288 440h222l223 -391l225 391h226l-289 -440h146v-152h-157l309 -468h-221l-235 401l-235 -401h-224z" />
<glyph unicode="&#x500;" horiz-adv-x="1261" d="M89 435q0 193 126 310t355 117h352v565h193v-1427h-545q-228 0 -354.5 120.5t-126.5 314.5zM282 437q0 -120 71.5 -203t216.5 -83h352v559h-352q-145 0 -216.5 -78t-71.5 -195z" />
<glyph unicode="&#x501;" d="M96 490v21q0 255 109.5 412t306.5 157q93 0 165 -34.5t123 -99.5v583h193v-1529h-158l-23 130q-52 -74 -127 -112.5t-175 -38.5q-194 0 -304 141t-110 370zM289 490q0 -161 65.5 -257.5t204.5 -96.5q86 0 144.5 39.5t96.5 109.5v495q-38 66 -97 104.5t-142 38.5 q-140 0 -206 -114.5t-66 -297.5v-21z" />
<glyph unicode="&#x502;" horiz-adv-x="1666" d="M89 435q0 193 126 310t355 117h352v565h193v-1277l82 1q103 1 160 70t61 193q1 75 -14 157t-45 159h186q33 -98 50.5 -172t15.5 -144q-4 -200 -123 -307t-291 -107h-627q-228 0 -354.5 120.5t-126.5 314.5zM282 437q0 -120 71.5 -203t216.5 -83h352v559h-352 q-145 0 -216.5 -78t-71.5 -195z" />
<glyph unicode="&#x503;" horiz-adv-x="1729" d="M96 490v21q0 255 109.5 412t306.5 157q87 0 155.5 -30.5t119.5 -88.5v568h193v-1191q-2 -93 43 -150.5t121 -57.5q131 1 203.5 104t76.5 284q1 95 -14 194.5t-45 199.5l186 1q33 -119 50.5 -211.5t15.5 -183.5q-4 -260 -139 -399.5t-334 -139.5q-118 -2 -198 40t-120 133 q-52 -85 -131 -129t-185 -44q-194 0 -304 141t-110 370zM289 490q0 -161 65.5 -257.5t204.5 -96.5q82 0 139 36t95 100q-3 15 -4.5 31.5t-1.5 34.5v463q-38 57 -94 89.5t-132 32.5q-140 0 -206 -114.5t-66 -297.5v-21z" />
<glyph unicode="&#x504;" horiz-adv-x="1590" d="M53 1275v152h352q234 0 358 -104t124 -301q0 -111 -57.5 -191.5t-166.5 -128.5q116 -40 167.5 -126t51.5 -211v-67q-1 -75 37.5 -121.5t104.5 -46.5q114 1 176.5 105t66.5 283q1 95 -14 195t-45 200h187q33 -131 49.5 -218.5t15.5 -176.5q-4 -259 -128.5 -399 t-307.5 -140q-157 -3 -242 74t-93 245v65q0 115 -67 186t-181 71h-187v152h133q163 0 235 62t72 190q0 119 -70 185t-219 66h-352z" />
<glyph unicode="&#x505;" horiz-adv-x="1297" d="M48 1060h263q202 0 312.5 -83t110.5 -232q0 -80 -47 -135.5t-138 -91.5q97 -27 140.5 -87t43.5 -147v-75q-1 -41 18 -63t65 -22q104 2 161.5 77t61.5 210q1 74 -15 154.5t-45 157.5h186q34 -100 51.5 -171.5t15.5 -140.5q-5 -211 -123.5 -323.5t-292.5 -112.5 q-135 -3 -202.5 52.5t-73.5 182.5v73q0 70 -52 108.5t-148 38.5h-207l-2 151h181q116 0 171.5 40.5t55.5 116.5q0 79 -56 125.5t-172 46.5h-257z" />
<glyph unicode="&#x506;" horiz-adv-x="1077" d="M78 1275v152h269q234 0 357.5 -104t123.5 -303q0 -110 -57.5 -191t-165.5 -128q116 -39 167.5 -125.5t51.5 -211.5v-134v-15h133v-170l-147 -300h-114l56 255h-60q-40 34 -50.5 98.5t-10.5 133.5v130q0 115 -67 186t-181 71h-215v151h158q164 0 237 62.5t73 189.5 q0 120 -70 186.5t-219 66.5h-269z" />
<glyph unicode="&#x507;" horiz-adv-x="1012" d="M121 910v150h274q201 0 311 -82.5t110 -232.5q0 -80 -47.5 -136.5t-139.5 -92.5q100 -28 143.5 -92.5t43.5 -159.5v-69h126v-170l-147 -299h-115l61 274h-62q-36 23 -46 71.5t-10 98.5v93q0 78 -52 122.5t-148 44.5h-234v151h206q118 0 172.5 40.5t54.5 117.5 q0 79 -55 125t-172 46h-274z" />
<glyph unicode="&#x508;" horiz-adv-x="1946" d="M68 0v151h40q146 0 211 141t65 461v674h848v-1089q-1 -93 43.5 -150.5t120.5 -57.5q132 1 204 104t76 284q1 95 -14.5 194.5t-44.5 199.5l186 1q33 -119 50.5 -211.5t15.5 -183.5q-4 -260 -139.5 -399.5t-333.5 -139.5q-167 -3 -258 84t-99 275v937h-463v-522 q0 -390 -105.5 -571.5t-350.5 -181.5h-52z" />
<glyph unicode="&#x509;" horiz-adv-x="1620" d="M64 0l4 165l40 1q105 0 150 103.5t45 340.5v450h687v-722q-1 -93 43 -150.5t119 -57.5q104 1 161 93t61 252q1 90 -14.5 184.5t-45.5 189.5h187q33 -118 50.5 -203.5t15.5 -170.5q-4 -239 -123 -367.5t-292 -128.5q-165 -3 -256 84t-99 275v569h-301v-297 q0 -311 -87.5 -460.5t-288.5 -149.5h-56z" />
<glyph unicode="&#x50a;" horiz-adv-x="2009" d="M166 0v1427h193v-645h689v645h193v-1089q-1 -93 43 -150.5t119 -57.5q133 1 205.5 104t76.5 284q1 95 -15 194t-45 200l186 1q33 -121 51 -212.5t16 -182.5q-5 -260 -140.5 -399.5t-334.5 -139.5q-165 -3 -256.5 84t-98.5 275v292h-689v-630h-193z" />
<glyph unicode="&#x50b;" horiz-adv-x="1664" d="M140 0v1060h193v-459h482v459h193v-722q-1 -93 44 -150.5t119 -57.5q104 1 161.5 93t61.5 252q1 89 -14.5 184t-44.5 190h185q33 -121 51 -205t16 -169q-4 -239 -122.5 -367.5t-293.5 -128.5q-166 -3 -257 84t-99 275v113h-482v-451h-193z" />
<glyph unicode="&#x50c;" horiz-adv-x="1245" d="M116 585v257q0 261 158 433t409 172q111 0 198 -22t154 -64l-62 -132q-66 32 -136.5 49.5t-153.5 17.5q-171 0 -272.5 -130.5t-101.5 -321.5v-259q0 -194 101.5 -324.5t272.5 -130.5q133 1 205.5 76.5t76.5 209.5q1 82 -12 170.5t-37 183.5h186q42 -193 49.5 -235 t6.5 -119q-4 -211 -139.5 -324t-335.5 -113q-251 0 -409 171.5t-158 434.5z" />
<glyph unicode="&#x50d;" horiz-adv-x="1032" d="M96 510v41q0 221 125 375t340 154q92 0 161.5 -17t115.5 -48l-45 -144q-46 27 -106 42t-126 15q-135 0 -203.5 -113t-68.5 -264v-41q0 -155 73 -267.5t219 -112.5q93 1 131.5 42t41.5 123q0 57 -5 116.5t-14 114.5h185q13 -66 20 -122.5t7 -108.5q-4 -155 -104 -235.5 t-262 -80.5q-225 0 -355 154t-130 377z" />
<glyph unicode="&#x50e;" horiz-adv-x="1424" d="M35 1275v152h1129v-152h-473v-937q-1 -93 43.5 -150.5t119.5 -57.5q132 1 205 104t77 284q1 94 -15 193t-46 201l187 1q34 -121 51 -212.5t15 -182.5q-4 -260 -139 -399.5t-335 -139.5q-166 -3 -257 84t-99 275v937h-463z" />
<glyph unicode="&#x50f;" horiz-adv-x="1286" d="M69 910v150h888v-150h-348v-572q-1 -93 43 -150.5t119 -57.5q104 1 161.5 77t61.5 210q1 75 -15 157t-44 160h185q33 -101 51 -173.5t16 -143.5q-4 -211 -123 -324.5t-293 -113.5q-165 -3 -256.5 84t-98.5 275v572h-347z" />
<glyph unicode="&#x510;" horiz-adv-x="1357" d="M153 398q0 123 69.5 208t201.5 126q-117 47 -183.5 128.5t-66.5 180.5q0 195 146 300.5t398 105.5q219 0 369 -107.5t145 -280.5l-1 -5h-184q0 102 -95.5 172t-233.5 70q-174 0 -262 -71t-88 -180q0 -112 81.5 -176.5t253.5 -64.5h180v-153h-180q-178 0 -267.5 -63.5 t-89.5 -193.5q0 -118 99 -191t273 -73q153 0 250.5 77t97.5 189h184l2 -6q4 -201 -154.5 -306t-379.5 -105q-252 0 -408.5 111.5t-156.5 307.5z" />
<glyph unicode="&#x511;" horiz-adv-x="1080" d="M96 299q0 89 50.5 152t147.5 94q-85 34 -132 94t-47 131q0 147 114 227.5t311 80.5q179 0 301 -86t117 -222l-2 -6h-182q0 69 -68 117t-166 48q-114 0 -173 -46.5t-59 -112.5q0 -72 53.5 -114t165.5 -42h205v-147h-205q-118 0 -177.5 -41.5t-59.5 -126.5q0 -72 67 -121 t183 -49q110 0 181 55t71 130h182l2 -6q5 -159 -125.5 -243t-310.5 -84q-198 0 -321 85t-123 233z" />
<glyph unicode="&#x512;" horiz-adv-x="1421" d="M48 0v151h40q135 0 195 139.5t61 464.5l1 672h901v-1427h-193v1275h-516l-1 -520q0 -392 -101 -573.5t-335 -181.5h-52zM1010 -411l14 157q14 -5 45 -8.5t50 -3.5q59 0 92.5 46.5t33.5 132.5v238h193v-238q0 -164 -84.5 -252.5t-234.5 -88.5q-30 0 -55 4.5t-54 12.5z" />
<glyph unicode="&#x513;" horiz-adv-x="1110" d="M25 0l4 165l41 1q102 0 143 100.5t41 341.5v452h746v-1060h-193v907h-359v-299q0 -314 -83.5 -461t-284.5 -147h-55zM764 -411l14 157q14 -5 45 -8.5t50 -3.5q59 0 92.5 46.5t33.5 132.5v238h193v-238q0 -164 -84.5 -252.5t-234.5 -88.5q-30 0 -55 4.5t-54 12.5z" />
<glyph unicode="&#x1e00;" horiz-adv-x="1299" d="M20 0l551 1427h166l543 -1427h-197l-133 368h-598l-135 -368h-197zM412 529h480l-235 650h-6zM512 -229q0 63 45 105t109 42q62 0 106 -42t44 -105q0 -62 -43.5 -102t-106.5 -40q-64 0 -109 40t-45 102zM600 -229q0 -26 19.5 -44.5t46.5 -18.5q26 0 44.5 18t18.5 45 q0 29 -18.5 48t-44.5 19q-27 0 -46.5 -19.5t-19.5 -47.5z" />
<glyph unicode="&#x1e01;" horiz-adv-x="1103" d="M104 298q0 152 123 237.5t334 85.5h209v105q0 93 -56.5 147.5t-160.5 54.5q-93 0 -151.5 -47.5t-58.5 -114.5h-184l-2 6q-6 116 109 212t298 96q180 0 289.5 -91.5t109.5 -264.5v-510q0 -57 6 -110t22 -104h-199q-10 48 -15.5 85t-6.5 74q-54 -77 -140.5 -128.5 t-186.5 -51.5q-166 0 -252.5 85t-86.5 234zM297 294q0 -71 44 -112t130 -41q105 0 189.5 54t109.5 123v173h-216q-117 0 -187 -59t-70 -138zM331 -229q0 63 45 105t109 42q62 0 106 -42t44 -105q0 -62 -43.5 -102t-106.5 -40q-64 0 -109 40t-45 102zM419 -229 q0 -26 19.5 -44.5t46.5 -18.5q26 0 44.5 18t18.5 45q0 29 -18.5 48t-44.5 19q-27 0 -46.5 -19.5t-19.5 -47.5z" />
<glyph unicode="&#x1e3e;" horiz-adv-x="1763" d="M176 0v1427h247l455 -1159h6l455 1159h247v-1427h-193v564l19 581l-5 1l-462 -1146h-129l-460 1143l-5 -1l18 -578v-564h-193zM792 1525l182 260h225l2 -5l-265 -255h-144z" />
<glyph unicode="&#x1e3f;" horiz-adv-x="1754" d="M140 0v1060h173l13 -139q52 76 132 117.5t186 41.5t182 -49t114 -147q50 90 132 143t192 53q162 0 256 -111t94 -335v-634h-193v636q0 157 -54 222t-161 65q-99 0 -160 -68.5t-72 -173.5v-8v-673h-194v636q0 149 -55.5 218t-159.5 69q-88 0 -144.5 -36t-87.5 -102v-785 h-193zM809 1210l182 260h225l2 -5l-265 -255h-144z" />
<glyph unicode="&#x1e80;" horiz-adv-x="1772" d="M53 1427h192l218 -933l26 -178l6 -1l38 179l262 933h170l264 -933l39 -183h6l28 183l213 933h193l-344 -1427h-172l-282 990l-25 128h-6l-24 -128l-287 -990h-172zM561 1784l3 5h226l171 -260h-155z" />
<glyph unicode="&#x1e81;" horiz-adv-x="1519" d="M44 1060h192l176 -674l22 -128h6l27 128l212 674h155l213 -674l30 -143h6l28 143l167 674h192l-308 -1060h-156l-204 646l-44 180l-6 -1l-42 -179l-202 -646h-156zM439 1448l3 5h226l171 -260h-155z" />
<glyph unicode="&#x1e82;" horiz-adv-x="1772" d="M53 1427h192l218 -933l26 -178l6 -1l38 179l262 933h170l264 -933l39 -183h6l28 183l213 933h193l-344 -1427h-172l-282 990l-25 128h-6l-24 -128l-287 -990h-172zM791 1525l182 260h225l2 -5l-265 -255h-144z" />
<glyph unicode="&#x1e83;" horiz-adv-x="1519" d="M44 1060h192l176 -674l22 -128h6l27 128l212 674h155l213 -674l30 -143h6l28 143l167 674h192l-308 -1060h-156l-204 646l-44 180l-6 -1l-42 -179l-202 -646h-156zM669 1189l182 260h225l2 -5l-265 -255h-144z" />
<glyph unicode="&#x1e84;" horiz-adv-x="1772" d="M53 1427h192l218 -933l26 -178l6 -1l38 179l262 933h170l264 -933l39 -183h6l28 183l213 933h193l-344 -1427h-172l-282 990l-25 128h-6l-24 -128l-287 -990h-172zM543 1573v196h214v-196h-214zM1003 1573v196h215v-196h-215z" />
<glyph unicode="&#x1e85;" horiz-adv-x="1519" d="M44 1060h192l176 -674l22 -128h6l27 128l212 674h155l213 -674l30 -143h6l28 143l167 674h192l-308 -1060h-156l-204 646l-44 180l-6 -1l-42 -179l-202 -646h-156zM421 1237v196h214v-196h-214zM881 1237v196h215v-196h-215z" />
<glyph unicode="&#x1ea0;" horiz-adv-x="1299" d="M20 0l551 1427h166l543 -1427h-197l-133 368h-598l-135 -368h-197zM412 529h480l-235 650h-6zM543 -134h214v-196h-214v196z" />
<glyph unicode="&#x1ea1;" horiz-adv-x="1103" d="M104 298q0 152 123 237.5t334 85.5h209v105q0 93 -56.5 147.5t-160.5 54.5q-93 0 -151.5 -47.5t-58.5 -114.5h-184l-2 6q-6 116 109 212t298 96q180 0 289.5 -91.5t109.5 -264.5v-510q0 -57 6 -110t22 -104h-199q-10 48 -15.5 85t-6.5 74q-54 -77 -140.5 -128.5 t-186.5 -51.5q-166 0 -252.5 85t-86.5 234zM297 294q0 -71 44 -112t130 -41q105 0 189.5 54t109.5 123v173h-216q-117 0 -187 -59t-70 -138zM390 -134h214v-196h-214v196z" />
<glyph unicode="&#x1ea2;" horiz-adv-x="1299" d="M20 0l551 1427h166l543 -1427h-197l-133 368h-598l-135 -368h-197zM412 529h480l-235 650h-6zM568 1846l6 106q144 0 221.5 -50.5t77.5 -134.5q0 -69 -42 -104.5t-106 -44.5l-1 -70h-137l-1 151q75 4 106.5 19.5t31.5 52.5q0 38 -42.5 56.5t-113.5 18.5z" />
<glyph unicode="&#x1ea3;" horiz-adv-x="1103" d="M104 298q0 152 123 237.5t334 85.5h209v105q0 93 -56.5 147.5t-160.5 54.5q-93 0 -151.5 -47.5t-58.5 -114.5h-184l-2 6q-6 116 109 212t298 96q180 0 289.5 -91.5t109.5 -264.5v-510q0 -57 6 -110t22 -104h-199q-10 48 -15.5 85t-6.5 74q-54 -77 -140.5 -128.5 t-186.5 -51.5q-166 0 -252.5 85t-86.5 234zM297 294q0 -71 44 -112t130 -41q105 0 189.5 54t109.5 123v173h-216q-117 0 -187 -59t-70 -138zM460 1531l6 106q144 0 221.5 -50.5t77.5 -134.5q0 -69 -42 -104.5t-106 -44.5l-1 -70h-137l-1 151q75 4 106.5 19.5t31.5 52.5 q0 38 -42.5 56.5t-113.5 18.5z" />
<glyph unicode="&#x1ea4;" horiz-adv-x="1299" d="M20 0l551 1427h166l543 -1427h-197l-133 368h-598l-135 -368h-197zM293 1571l283 252h155l282 -252l-2 -6h-194l-164 154l-163 -154h-195zM412 529h480l-235 650h-6zM945 1737l137 255h207l-200 -255h-144z" />
<glyph unicode="&#x1ea5;" horiz-adv-x="1103" d="M104 298q0 152 123 237.5t334 85.5h209v105q0 93 -56.5 147.5t-160.5 54.5q-93 0 -151.5 -47.5t-58.5 -114.5h-184l-2 6q-6 116 109 212t298 96q180 0 289.5 -91.5t109.5 -264.5v-510q0 -57 6 -110t22 -104h-199q-10 48 -15.5 85t-6.5 74q-54 -77 -140.5 -128.5 t-186.5 -51.5q-166 0 -252.5 85t-86.5 234zM178 1256l283 252h155l282 -252l-2 -6h-194l-164 154l-163 -154h-195zM297 294q0 -71 44 -112t130 -41q105 0 189.5 54t109.5 123v173h-216q-117 0 -187 -59t-70 -138zM830 1422l137 255h207l-200 -255h-144z" />
<glyph unicode="&#x1ea6;" horiz-adv-x="1299" d="M20 0l551 1427h166l543 -1427h-197l-133 368h-598l-135 -368h-197zM24 1975h206l137 -255h-144zM300 1554l282 252h155l283 -252l-2 -6h-195l-164 154l-163 -154h-194zM412 529h480l-235 650h-6z" />
<glyph unicode="&#x1ea7;" horiz-adv-x="1103" d="M-92 1660h206l137 -255h-144zM104 298q0 152 123 237.5t334 85.5h209v105q0 93 -56.5 147.5t-160.5 54.5q-93 0 -151.5 -47.5t-58.5 -114.5h-184l-2 6q-6 116 109 212t298 96q180 0 289.5 -91.5t109.5 -264.5v-510q0 -57 6 -110t22 -104h-199q-10 48 -15.5 85t-6.5 74 q-54 -77 -140.5 -128.5t-186.5 -51.5q-166 0 -252.5 85t-86.5 234zM184 1239l282 252h155l283 -252l-2 -6h-195l-164 154l-163 -154h-194zM297 294q0 -71 44 -112t130 -41q105 0 189.5 54t109.5 123v173h-216q-117 0 -187 -59t-70 -138z" />
<glyph unicode="&#x1ea8;" horiz-adv-x="1299" d="M20 0l551 1427h166l543 -1427h-197l-133 368h-598l-135 -368h-197zM292 1535l262 252h194l264 -252l-2 -6h-166l-193 182l-192 -182h-165zM412 529h480l-235 650h-6zM971 1920l6 92q124 0 191.5 -42.5t67.5 -116.5q0 -59 -37 -90.5t-93 -38.5l-1 -60h-117l-1 131 q64 3 91 16t27 44q0 34 -36.5 49.5t-97.5 15.5z" />
<glyph unicode="&#x1ea9;" horiz-adv-x="1103" d="M104 298q0 152 123 237.5t334 85.5h209v105q0 93 -56.5 147.5t-160.5 54.5q-93 0 -151.5 -47.5t-58.5 -114.5h-184l-2 6q-6 116 109 212t298 96q180 0 289.5 -91.5t109.5 -264.5v-510q0 -57 6 -110t22 -104h-199q-10 48 -15.5 85t-6.5 74q-54 -77 -140.5 -128.5 t-186.5 -51.5q-166 0 -252.5 85t-86.5 234zM177 1221l262 252h194l264 -252l-2 -6h-166l-193 182l-192 -182h-165zM297 294q0 -71 44 -112t130 -41q105 0 189.5 54t109.5 123v173h-216q-117 0 -187 -59t-70 -138zM856 1606l6 92q124 0 191.5 -42.5t67.5 -116.5 q0 -59 -37 -90.5t-93 -38.5l-1 -60h-117l-1 131q64 3 91 16t27 44q0 34 -36.5 49.5t-97.5 15.5z" />
<glyph unicode="&#x1eaa;" horiz-adv-x="1299" d="M20 0l551 1427h166l543 -1427h-197l-133 368h-598l-135 -368h-197zM290 1537l283 252h154l283 -252l-2 -6h-166l-193 172l-192 -172h-165zM387 1858q0 68 47 122.5t112 54.5q41 0 101 -34t99 -34q29 0 55.5 27.5t26.5 61.5l77 -22q0 -68 -47.5 -120.5t-111.5 -52.5 q-52 0 -107.5 35t-92.5 35q-31 0 -56 -29t-25 -62zM412 529h480l-235 650h-6z" />
<glyph unicode="&#x1eab;" horiz-adv-x="1103" d="M104 298q0 152 123 237.5t334 85.5h209v105q0 93 -56.5 147.5t-160.5 54.5q-93 0 -151.5 -47.5t-58.5 -114.5h-184l-2 6q-6 116 109 212t298 96q180 0 289.5 -91.5t109.5 -264.5v-510q0 -57 6 -110t22 -104h-199q-10 48 -15.5 85t-6.5 74q-54 -77 -140.5 -128.5 t-186.5 -51.5q-166 0 -252.5 85t-86.5 234zM181 1223l283 252h154l283 -252l-2 -6h-166l-193 172l-192 -172h-165zM278 1544q0 68 47 122.5t112 54.5q41 0 101 -34t99 -34q29 0 55.5 27.5t26.5 61.5l77 -22q0 -68 -47.5 -120.5t-111.5 -52.5q-52 0 -107.5 35t-92.5 35 q-31 0 -56 -29t-25 -62zM297 294q0 -71 44 -112t130 -41q105 0 189.5 54t109.5 123v173h-216q-117 0 -187 -59t-70 -138z" />
<glyph unicode="&#x1eac;" horiz-adv-x="1299" d="M20 0l551 1427h166l543 -1427h-197l-133 368h-598l-135 -368h-197zM349 1569v25l241 233h117l243 -234v-24h-157l-145 145l-143 -145h-156zM412 529h480l-235 650h-6zM543 -134h214v-196h-214v196z" />
<glyph unicode="&#x1ead;" horiz-adv-x="1103" d="M104 298q0 152 123 237.5t334 85.5h209v105q0 93 -56.5 147.5t-160.5 54.5q-93 0 -151.5 -47.5t-58.5 -114.5h-184l-2 6q-6 116 109 212t298 96q180 0 289.5 -91.5t109.5 -264.5v-510q0 -57 6 -110t22 -104h-199q-10 48 -15.5 85t-6.5 74q-54 -77 -140.5 -128.5 t-186.5 -51.5q-166 0 -252.5 85t-86.5 234zM244 1253v25l241 233h117l243 -234v-24h-157l-145 145l-143 -145h-156zM297 294q0 -71 44 -112t130 -41q105 0 189.5 54t109.5 123v173h-216q-117 0 -187 -59t-70 -138zM390 -134h214v-196h-214v196z" />
<glyph unicode="&#x1eae;" horiz-adv-x="1299" d="M20 0l551 1427h166l543 -1427h-197l-133 368h-598l-135 -368h-197zM359 1754l2 6h148q0 -50 34 -81t107 -31q72 0 106 31t34 81h149l2 -6q6 -87 -74 -143t-217 -56t-217.5 56t-73.5 143zM412 529h480l-235 650h-6zM594 1781l105 194h152l2 -5l-156 -189h-103z" />
<glyph unicode="&#x1eaf;" horiz-adv-x="1103" d="M104 298q0 152 123 237.5t334 85.5h209v105q0 93 -56.5 147.5t-160.5 54.5q-93 0 -151.5 -47.5t-58.5 -114.5h-184l-2 6q-6 116 109 212t298 96q180 0 289.5 -91.5t109.5 -264.5v-510q0 -57 6 -110t22 -104h-199q-10 48 -15.5 85t-6.5 74q-54 -77 -140.5 -128.5 t-186.5 -51.5q-166 0 -252.5 85t-86.5 234zM248 1439l2 6h148q0 -50 34 -81t107 -31q72 0 106 31t34 81h149l2 -6q6 -87 -74 -143t-217 -56t-217.5 56t-73.5 143zM297 294q0 -71 44 -112t130 -41q105 0 189.5 54t109.5 123v173h-216q-117 0 -187 -59t-70 -138zM483 1466 l105 194h152l2 -5l-156 -189h-103z" />
<glyph unicode="&#x1eb0;" horiz-adv-x="1299" d="M20 0l551 1427h166l543 -1427h-197l-133 368h-598l-135 -368h-197zM359 1754l2 6h148q0 -50 34 -81t107 -31q72 0 106 31t34 81h149l2 -6q6 -87 -74 -143t-217 -56t-217.5 56t-73.5 143zM402 1969l2 6h176l135 -194h-117zM412 529h480l-235 650h-6z" />
<glyph unicode="&#x1eb1;" horiz-adv-x="1103" d="M104 298q0 152 123 237.5t334 85.5h209v105q0 93 -56.5 147.5t-160.5 54.5q-93 0 -151.5 -47.5t-58.5 -114.5h-184l-2 6q-6 116 109 212t298 96q180 0 289.5 -91.5t109.5 -264.5v-510q0 -57 6 -110t22 -104h-199q-10 48 -15.5 85t-6.5 74q-54 -77 -140.5 -128.5 t-186.5 -51.5q-166 0 -252.5 85t-86.5 234zM248 1439l2 6h148q0 -50 34 -81t107 -31q72 0 106 31t34 81h149l2 -6q6 -87 -74 -143t-217 -56t-217.5 56t-73.5 143zM291 1654l2 6h176l135 -194h-117zM297 294q0 -71 44 -112t130 -41q105 0 189.5 54t109.5 123v173h-216 q-117 0 -187 -59t-70 -138z" />
<glyph unicode="&#x1eb2;" horiz-adv-x="1299" d="M20 0l551 1427h166l543 -1427h-197l-133 368h-598l-135 -368h-197zM370 1747l2 6h141q0 -49 33.5 -80.5t104.5 -31.5q69 0 102.5 31t33.5 81h142l2 -6q6 -87 -71.5 -142.5t-208.5 -55.5q-133 0 -210.5 55.5t-70.5 142.5zM412 529h480l-235 650h-6zM584 2042l7 81 q139 0 213.5 -38t74.5 -103q0 -52 -40.5 -79t-102.5 -33l-1 -62h-132l-1 123q71 3 100.5 14.5t24.5 36.5v6q5 28 -34.5 41t-108.5 13z" />
<glyph unicode="&#x1eb3;" horiz-adv-x="1103" d="M104 298q0 152 123 237.5t334 85.5h209v105q0 93 -56.5 147.5t-160.5 54.5q-93 0 -151.5 -47.5t-58.5 -114.5h-184l-2 6q-6 116 109 212t298 96q180 0 289.5 -91.5t109.5 -264.5v-510q0 -57 6 -110t22 -104h-199q-10 48 -15.5 85t-6.5 74q-54 -77 -140.5 -128.5 t-186.5 -51.5q-166 0 -252.5 85t-86.5 234zM252 1428l2 6h141q0 -49 33.5 -80.5t104.5 -31.5q69 0 102.5 31t33.5 81h142l2 -6q6 -87 -71.5 -142.5t-208.5 -55.5q-133 0 -210.5 55.5t-70.5 142.5zM297 294q0 -71 44 -112t130 -41q105 0 189.5 54t109.5 123v173h-216 q-117 0 -187 -59t-70 -138zM466 1723l7 81q139 0 213.5 -38t74.5 -103q0 -52 -40.5 -79t-102.5 -33l-1 -62h-132l-1 123q71 3 100.5 14.5t24.5 36.5v6q5 28 -34.5 41t-108.5 13z" />
<glyph unicode="&#x1eb4;" horiz-adv-x="1299" d="M20 0l551 1427h166l543 -1427h-197l-133 368h-598l-135 -368h-197zM365 1751l2 6h145q0 -51 33 -83t105 -32q70 0 104 32t34 83h145l2 -6q6 -89 -72.5 -146t-212.5 -57t-213 57t-72 146zM388 1849q0 73 46 127t117 54q45 0 111 -37t108 -37q31 0 54.5 25t23.5 62l85 -23 q0 -74 -46.5 -126.5t-116.5 -52.5q-57 0 -117.5 37.5t-101.5 37.5q-33 0 -55 -25.5t-22 -62.5zM412 529h480l-235 650h-6z" />
<glyph unicode="&#x1eb5;" horiz-adv-x="1103" d="M104 298q0 152 123 237.5t334 85.5h209v105q0 93 -56.5 147.5t-160.5 54.5q-93 0 -151.5 -47.5t-58.5 -114.5h-184l-2 6q-6 116 109 212t298 96q180 0 289.5 -91.5t109.5 -264.5v-510q0 -57 6 -110t22 -104h-199q-10 48 -15.5 85t-6.5 74q-54 -77 -140.5 -128.5 t-186.5 -51.5q-166 0 -252.5 85t-86.5 234zM252 1436l2 6h145q0 -51 33 -83t105 -32q70 0 104 32t34 83h145l2 -6q6 -89 -72.5 -146t-212.5 -57t-213 57t-72 146zM275 1534q0 73 46 127t117 54q45 0 111 -37t108 -37q31 0 54.5 25t23.5 62l85 -23q0 -74 -46.5 -126.5 t-116.5 -52.5q-57 0 -117.5 37.5t-101.5 37.5q-33 0 -55 -25.5t-22 -62.5zM297 294q0 -71 44 -112t130 -41q105 0 189.5 54t109.5 123v173h-216q-117 0 -187 -59t-70 -138z" />
<glyph unicode="&#x1eb6;" horiz-adv-x="1299" d="M20 0l551 1427h166l543 -1427h-197l-133 368h-598l-135 -368h-197zM361 1827l2 6h148q0 -65 33.5 -105t105.5 -40q71 0 105.5 40.5t34.5 104.5h148l2 -6q3 -114 -76 -185.5t-214 -71.5t-214.5 71.5t-74.5 185.5zM412 529h480l-235 650h-6zM543 -134h214v-196h-214v196z " />
<glyph unicode="&#x1eb7;" horiz-adv-x="1103" d="M104 298q0 152 123 237.5t334 85.5h209v105q0 93 -56.5 147.5t-160.5 54.5q-93 0 -151.5 -47.5t-58.5 -114.5h-184l-2 6q-6 116 109 212t298 96q180 0 289.5 -91.5t109.5 -264.5v-510q0 -57 6 -110t22 -104h-199q-10 48 -15.5 85t-6.5 74q-54 -77 -140.5 -128.5 t-186.5 -51.5q-166 0 -252.5 85t-86.5 234zM255 1511l2 6h148q0 -65 33.5 -105t105.5 -40q71 0 105.5 40.5t34.5 104.5h148l2 -6q3 -114 -76 -185.5t-214 -71.5t-214.5 71.5t-74.5 185.5zM297 294q0 -71 44 -112t130 -41q105 0 189.5 54t109.5 123v173h-216q-117 0 -187 -59 t-70 -138zM390 -134h214v-196h-214v196z" />
<glyph unicode="&#x1eb8;" horiz-adv-x="1173" d="M176 0v1427h936v-152h-743v-462h654v-151h-654v-511h754v-151h-947zM508 -124h214v-196h-214v196z" />
<glyph unicode="&#x1eb9;" horiz-adv-x="1061" d="M97 510v43q0 226 135 376.5t319 150.5q214 0 324 -129.5t110 -344.5v-121h-688l-3 -5q3 -153 77.5 -251.5t208.5 -98.5q98 0 172 28t128 77l76 -125q-57 -56 -150.5 -93.5t-225.5 -37.5q-221 0 -352 147.5t-131 383.5zM301 641l2 -5h489v26q0 113 -61 189.5t-180 76.5 q-97 0 -165.5 -82t-84.5 -205zM455 -134h214v-196h-214v196z" />
<glyph unicode="&#x1eba;" horiz-adv-x="1173" d="M176 0v1427h936v-152h-743v-462h654v-151h-654v-511h754v-151h-947zM532 1846l6 106q144 0 221.5 -50.5t77.5 -134.5q0 -69 -42 -104.5t-106 -44.5l-1 -70h-137l-1 151q75 4 106.5 19.5t31.5 52.5q0 38 -42.5 56.5t-113.5 18.5z" />
<glyph unicode="&#x1ebb;" horiz-adv-x="1061" d="M97 510v43q0 226 135 376.5t319 150.5q214 0 324 -129.5t110 -344.5v-121h-688l-3 -5q3 -153 77.5 -251.5t208.5 -98.5q98 0 172 28t128 77l76 -125q-57 -56 -150.5 -93.5t-225.5 -37.5q-221 0 -352 147.5t-131 383.5zM301 641l2 -5h489v26q0 113 -61 189.5t-180 76.5 q-97 0 -165.5 -82t-84.5 -205zM463 1532l6 106q144 0 221.5 -50.5t77.5 -134.5q0 -69 -42 -104.5t-106 -44.5l-1 -70h-137l-1 151q75 4 106.5 19.5t31.5 52.5q0 38 -42.5 56.5t-113.5 18.5z" />
<glyph unicode="&#x1ebc;" horiz-adv-x="1173" d="M176 0v1427h936v-152h-743v-462h654v-151h-654v-511h754v-151h-947zM275 1596q0 91 58 158t147 67q55 0 137.5 -46t133.5 -46q40 0 69.5 31.5t29.5 78.5l105 -32q0 -92 -58 -155.5t-146 -63.5q-70 0 -145.5 45.5t-125.5 45.5q-42 0 -70.5 -32t-28.5 -77z" />
<glyph unicode="&#x1ebd;" horiz-adv-x="1061" d="M97 510v43q0 226 135 376.5t319 150.5q214 0 324 -129.5t110 -344.5v-121h-688l-3 -5q3 -153 77.5 -251.5t208.5 -98.5q98 0 172 28t128 77l76 -125q-57 -56 -150.5 -93.5t-225.5 -37.5q-221 0 -352 147.5t-131 383.5zM206 1281q0 91 58 158t147 67q55 0 137.5 -46 t133.5 -46q40 0 69.5 31.5t29.5 78.5l105 -32q0 -92 -58 -155.5t-146 -63.5q-70 0 -145.5 45.5t-125.5 45.5q-42 0 -70.5 -32t-28.5 -77zM301 641l2 -5h489v26q0 113 -61 189.5t-180 76.5q-97 0 -165.5 -82t-84.5 -205z" />
<glyph unicode="&#x1ebe;" horiz-adv-x="1173" d="M176 0v1427h936v-152h-743v-462h654v-151h-654v-511h754v-151h-947zM249 1571l283 252h155l282 -252l-2 -6h-194l-164 154l-163 -154h-195zM901 1737l137 255h207l-200 -255h-144z" />
<glyph unicode="&#x1ebf;" horiz-adv-x="1061" d="M97 510v43q0 226 135 376.5t319 150.5q214 0 324 -129.5t110 -344.5v-121h-688l-3 -5q3 -153 77.5 -251.5t208.5 -98.5q98 0 172 28t128 77l76 -125q-57 -56 -150.5 -93.5t-225.5 -37.5q-221 0 -352 147.5t-131 383.5zM181 1257l283 252h155l282 -252l-2 -6h-194 l-164 154l-163 -154h-195zM301 641l2 -5h489v26q0 113 -61 189.5t-180 76.5q-97 0 -165.5 -82t-84.5 -205zM833 1423l137 255h207l-200 -255h-144z" />
<glyph unicode="&#x1ec0;" horiz-adv-x="1173" d="M-20 1975h206l137 -255h-144zM176 0v1427h936v-152h-743v-462h654v-151h-654v-511h754v-151h-947zM256 1554l282 252h155l283 -252l-2 -6h-195l-164 154l-163 -154h-194z" />
<glyph unicode="&#x1ec1;" horiz-adv-x="1061" d="M-89 1661h206l137 -255h-144zM97 510v43q0 226 135 376.5t319 150.5q214 0 324 -129.5t110 -344.5v-121h-688l-3 -5q3 -153 77.5 -251.5t208.5 -98.5q98 0 172 28t128 77l76 -125q-57 -56 -150.5 -93.5t-225.5 -37.5q-221 0 -352 147.5t-131 383.5zM187 1240l282 252h155 l283 -252l-2 -6h-195l-164 154l-163 -154h-194zM301 641l2 -5h489v26q0 113 -61 189.5t-180 76.5q-97 0 -165.5 -82t-84.5 -205z" />
<glyph unicode="&#x1ec2;" horiz-adv-x="1173" d="M176 0v1427h936v-152h-743v-462h654v-151h-654v-511h754v-151h-947zM248 1535l262 252h194l264 -252l-2 -6h-166l-193 182l-192 -182h-165zM927 1920l6 92q124 0 191.5 -42.5t67.5 -116.5q0 -59 -37 -90.5t-93 -38.5l-1 -60h-117l-1 131q64 3 91 16t27 44 q0 34 -36.5 49.5t-97.5 15.5z" />
</font>
</defs>
</svg>
